<?xml version="1.0" encoding="UTF-8" standalone="no"?>
<!-- Created with Inkscape (http://www.inkscape.org/) -->

<svg
   xmlns:dc="http://purl.org/dc/elements/1.1/"
   xmlns:cc="http://creativecommons.org/ns#"
   xmlns:rdf="http://www.w3.org/1999/02/22-rdf-syntax-ns#"
   xmlns:svg="http://www.w3.org/2000/svg"
   xmlns="http://www.w3.org/2000/svg"
   xmlns:sodipodi="http://sodipodi.sourceforge.net/DTD/sodipodi-0.dtd"
   xmlns:inkscape="http://www.inkscape.org/namespaces/inkscape"
   width="1244.4448"
   height="700"
   viewBox="0 0 329.25939 185.20834"
   version="1.1"
   id="svg8"
   inkscape:version="0.92.4 5da689c313, 2019-01-14"
   sodipodi:docname="cover.svg"
   style="enable-background:new"
   inkscape:export-filename="/home/hervyqa/hervyqa-gl/hervyqa/hervyqa-blog/static/post/mengoptimalkan-aset-svg-png-dan-jpg-di-linux/cover.png"
   inkscape:export-xdpi="96"
   inkscape:export-ydpi="96">
  <defs
     id="defs2" />
  <sodipodi:namedview
     id="base"
     pagecolor="#ffffff"
     bordercolor="#666666"
     borderopacity="1.0"
     inkscape:pageopacity="0.0"
     inkscape:pageshadow="2"
     inkscape:zoom="0.33669633"
     inkscape:cx="648.95398"
     inkscape:cy="442.10675"
     inkscape:document-units="px"
     inkscape:current-layer="layer1"
     showgrid="false"
     units="px"
     borderlayer="true"
     inkscape:pagecheckerboard="true"
     inkscape:window-width="1346"
     inkscape:window-height="724"
     inkscape:window-x="6"
     inkscape:window-y="30"
     inkscape:window-maximized="1"
     inkscape:snap-global="false"
     showguides="true"
     inkscape:guide-bbox="true">
    <inkscape:grid
       type="xygrid"
       id="grid815"
       dotted="false"
       originx="43.500009"
       originy="-43.499907" />
    <sodipodi:guide
       position="72.02551,185.20835"
       orientation="1,0"
       id="guide851"
       inkscape:locked="false" />
    <sodipodi:guide
       position="257.23387,185.20835"
       orientation="1,0"
       id="guide853"
       inkscape:locked="false" />
  </sodipodi:namedview>
  <metadata
     id="metadata5">
    <rdf:RDF>
      <cc:Work
         rdf:about="">
        <dc:format>image/svg+xml</dc:format>
        <dc:type
           rdf:resource="http://purl.org/dc/dcmitype/StillImage" />
        <dc:title />
        <dc:date />
        <dc:creator>
          <cc:Agent>
            <dc:title />
          </cc:Agent>
        </dc:creator>
        <dc:subject>
          <rdf:Bag />
        </dc:subject>
        <dc:description />
        <cc:license
           rdf:resource="" />
      </cc:Work>
    </rdf:RDF>
  </metadata>
  <g
     inkscape:label="background"
     inkscape:groupmode="layer"
     id="layer1"
     transform="translate(43.500005,-68.291685)">
    <path
       style="opacity:1;vector-effect:none;fill:#81acdd;fill-opacity:1;fill-rule:nonzero;stroke:none;stroke-width:0.46654263;stroke-linecap:butt;stroke-linejoin:miter;stroke-miterlimit:4;stroke-dasharray:none;stroke-dashoffset:0;stroke-opacity:1;paint-order:stroke fill markers"
       d="M 285.75935,68.291683 V 253.50003 H -43.500004 V 68.291683 Z"
       id="rect818"
       inkscape:connector-curvature="0" />
  </g>
  <g
     inkscape:groupmode="layer"
     id="layer2"
     inkscape:label="artwork"
     transform="translate(43.500005,-512.12502)">
    <path
       style="color:#000000;font-style:normal;font-variant:normal;font-weight:normal;font-stretch:normal;font-size:105.6384964px;line-height:1.25;font-family:'Source Sans Pro';-inkscape-font-specification:'Source Sans Pro, Normal';font-variant-ligatures:normal;font-variant-position:normal;font-variant-caps:normal;font-variant-numeric:normal;font-variant-alternates:normal;font-feature-settings:normal;text-indent:0;text-align:start;text-decoration:none;text-decoration-line:none;text-decoration-style:solid;text-decoration-color:#000000;letter-spacing:0px;word-spacing:0px;text-transform:none;writing-mode:lr-tb;direction:ltr;text-orientation:mixed;dominant-baseline:auto;baseline-shift:baseline;text-anchor:start;white-space:normal;shape-padding:0;clip-rule:nonzero;display:inline;overflow:visible;visibility:visible;opacity:1;isolation:auto;mix-blend-mode:normal;color-interpolation:sRGB;color-interpolation-filters:linearRGB;solid-color:#000000;solid-opacity:1;vector-effect:none;fill:none;fill-opacity:1;fill-rule:nonzero;stroke:#ffffff;stroke-width:0.87312522;stroke-linecap:round;stroke-linejoin:bevel;stroke-miterlimit:4;stroke-dasharray:0.87312511,2.61937532;stroke-dashoffset:0;stroke-opacity:1;color-rendering:auto;image-rendering:auto;shape-rendering:auto;text-rendering:auto;enable-background:accumulate;font-variant-east_asian:normal"
       d="m 92.999683,540.34655 a 5.2921962,5.2921962 0 0 0 -4.919081,3.73931 l -0.946195,3.08922 -3.089217,0.9462 a 5.2921962,5.2921962 0 0 0 5.16e-4,10.11979 l 3.088701,0.94516 0.946195,3.08922 a 5.2921962,5.2921962 0 0 0 3.720704,3.56464 5.2921962,5.2921962 0 0 0 3.562572,3.71864 l 8.866132,2.71456 2.71456,8.86613 a 5.2921962,5.2921962 0 0 0 5.51646,3.71501 l -35.501197,35.5012 c -1.746758,1.74676 -2.61121,4.14654 -2.61121,6.39496 0,2.24842 0.865386,4.64862 2.61121,6.39444 l 10.265525,10.26553 1.406631,1.40663 c 1.746752,1.74675 4.147836,2.61069 6.394442,2.61069 0.279805,0 0.561965,-0.0123 0.845429,-0.0377 1.979263,-0.17765 4.020153,-1.04359 5.54953,-2.57297 l 42.63358,-42.63358 a 5.2921962,5.2921962 0 0 0 2.7528,1.98179 l 0.9834,0.30128 0.30128,0.9834 a 5.2921962,5.2921962 0 0 0 10.11928,0 l 0.30127,-0.9834 0.9834,-0.30128 a 5.2921962,5.2921962 0 0 0 3.73828,-5.148 l 0.30127,0.98547 a 5.2921962,5.2921962 0 0 0 10.12031,0 l 0.94516,-3.08871 3.08922,-0.94516 a 5.2921962,5.2921962 0 0 0 0,-10.12031 l -3.08922,-0.94516 -0.94516,-3.08922 a 5.2921962,5.2921962 0 0 0 -5.51697,-3.71553 l 9.09143,-9.09144 c 1.74585,-1.74585 2.61121,-4.14602 2.61121,-6.39444 0,-2.24842 -0.86447,-4.64823 -2.61121,-6.39496 l -5.32267,-5.32268 -6.34948,-6.34948 c -1.74676,-1.74674 -4.14784,-2.61069 -6.39445,-2.61069 -2.2466,0 -4.64769,0.86395 -6.39444,2.61069 l -9.0873,9.0873 a 5.2921962,5.2921962 0 0 0 -3.71915,-5.5118 l -3.08974,-0.9462 -0.94516,-3.0887 a 5.2921962,5.2921962 0 0 0 -10.12031,0 l -0.94516,3.0887 -3.08974,0.9462 a 5.2921962,5.2921962 0 0 0 -3.53053,3.58841 l -1.17823,-3.85042 a 5.2921962,5.2921962 0 0 0 -10.11979,-5.1e-4 l -1.18184,3.85971 a 5.2921962,5.2921962 0 0 0 -3.52795,-3.59719 l -3.08922,-0.9462 -0.945161,-3.0887 a 5.2921962,5.2921962 0 0 0 -5.200716,-3.73983 z m 45.682997,18.28623 -2.36264,2.36264 0.55345,-1.80919 z m -11.31765,11.31765 -9.90896,9.90896 2.32182,-7.5861 z m 9.55239,5.41518 a 5.2921962,5.2921962 0 0 0 1.23248,1.95389 l 6.30763,6.30762 a 5.2921962,5.2921962 0 0 0 1.9544,1.23197 l -51.385499,51.38498 -0.317294,-0.3173 -9.176184,-9.17618 z m 26.22734,7.72821 -0.55397,1.80971 -1.80971,0.55397 z"
       id="path926"
       inkscape:connector-curvature="0" />
    <text
       xml:space="preserve"
       style="font-style:normal;font-variant:normal;font-weight:bold;font-stretch:normal;font-size:17.92033768px;line-height:1.25;font-family:Inter;-inkscape-font-specification:'Inter, Bold';font-variant-ligatures:normal;font-variant-position:normal;font-variant-caps:normal;font-variant-numeric:normal;font-variant-alternates:normal;font-feature-settings:normal;text-indent:0;text-align:center;text-decoration:none;text-decoration-line:none;text-decoration-style:solid;text-decoration-color:#000000;letter-spacing:0px;word-spacing:0px;text-transform:none;writing-mode:lr-tb;direction:ltr;text-orientation:mixed;dominant-baseline:auto;baseline-shift:baseline;text-anchor:middle;white-space:normal;shape-padding:0;opacity:1;vector-effect:none;fill:#ffffff;fill-opacity:1;stroke:none;stroke-width:0.26458335;stroke-linecap:butt;stroke-linejoin:miter;stroke-miterlimit:4;stroke-dasharray:none;stroke-dashoffset:0;stroke-opacity:1"
       x="119.39702"
       y="647.90332"
       id="text197"><tspan
         sodipodi:role="line"
         x="119.39702"
         y="664.552"
         style="font-style:normal;font-variant:normal;font-weight:bold;font-stretch:normal;font-size:17.92033768px;line-height:1.25;font-family:Inter;-inkscape-font-specification:'Inter, Bold';font-variant-ligatures:normal;font-variant-position:normal;font-variant-caps:normal;font-variant-numeric:normal;font-variant-alternates:normal;font-feature-settings:normal;text-indent:0;text-align:center;text-decoration:none;text-decoration-line:none;text-decoration-style:solid;text-decoration-color:#000000;letter-spacing:0px;word-spacing:0px;text-transform:none;writing-mode:lr-tb;direction:ltr;text-orientation:mixed;dominant-baseline:auto;baseline-shift:baseline;text-anchor:middle;white-space:normal;shape-padding:0;vector-effect:none;fill:#ffffff;fill-opacity:1;stroke:none;stroke-width:0.26458335;stroke-linecap:butt;stroke-linejoin:miter;stroke-miterlimit:4;stroke-dasharray:none;stroke-dashoffset:0;stroke-opacity:1"
         id="tspan199" /></text>
    <text
       xml:space="preserve"
       style="font-style:normal;font-variant:normal;font-weight:bold;font-stretch:normal;font-size:19.2186985px;line-height:1.25;font-family:Inter;-inkscape-font-specification:'Inter, Bold';font-variant-ligatures:normal;font-variant-caps:normal;font-variant-numeric:normal;font-feature-settings:normal;text-align:center;letter-spacing:0px;word-spacing:0px;writing-mode:lr-tb;text-anchor:middle;fill:#ffffff;fill-opacity:1;stroke:none;stroke-width:0.26458335;enable-background:new"
       x="121.13309"
       y="672.75818"
       id="text197-9"><tspan
         sodipodi:role="line"
         x="121.13309"
         y="672.75818"
         style="font-style:normal;font-variant:normal;font-weight:bold;font-stretch:normal;font-size:19.2186985px;font-family:Inter;-inkscape-font-specification:'Inter, Bold';font-variant-ligatures:normal;font-variant-caps:normal;font-variant-numeric:normal;font-feature-settings:normal;text-align:center;writing-mode:lr-tb;text-anchor:middle;fill:#ffffff;fill-opacity:1;stroke-width:0.26458335"
         id="tspan1299">Lightweight.</tspan></text>
    <g
       id="g924">
      <path
         id="path874"
         transform="matrix(0.26458335,0,0,0.26458335,-43.500005,512.12502)"
         d="M 765.97461 132.66797 C 762.18696 132.66797 758.62286 134.0041 755.94922 136.67773 L 469.42383 423.20312 C 466.75019 425.87676 465.41211 429.44282 465.41211 433.23047 C 465.41211 437.01816 466.75019 440.58222 469.42383 443.25586 L 513.53906 487.37109 C 516.2127 490.04473 519.7768 491.38086 523.56445 491.38086 C 527.35211 491.38086 530.91816 490.04473 533.5918 487.37109 L 820.11523 200.8457 C 822.78887 198.17207 824.12695 194.60797 824.12695 190.82031 C 824.12695 187.03262 822.78887 183.46661 820.11523 180.79297 L 776 136.67773 C 773.32636 134.0041 769.76226 132.66797 765.97461 132.66797 z M 765.97461 166.98047 L 789.81445 190.82031 L 724.5332 256.10156 L 700.69336 232.26172 L 765.97461 166.98047 z "
         style="font-style:normal;font-variant:normal;font-weight:normal;font-stretch:normal;font-size:105.6384964px;line-height:1.25;font-family:'Source Sans Pro';-inkscape-font-specification:'Source Sans Pro, Normal';font-variant-ligatures:normal;font-variant-caps:normal;font-variant-numeric:normal;font-feature-settings:normal;text-align:start;letter-spacing:0px;word-spacing:0px;writing-mode:lr-tb;text-anchor:start;fill:#9a6c89;fill-opacity:1;stroke:none;stroke-width:1" />
      <path
         style="font-style:normal;font-variant:normal;font-weight:normal;font-stretch:normal;font-size:105.6384964px;line-height:1.25;font-family:'Source Sans Pro';-inkscape-font-specification:'Source Sans Pro, Normal';font-variant-ligatures:normal;font-variant-caps:normal;font-variant-numeric:normal;font-feature-settings:normal;text-align:start;letter-spacing:0px;word-spacing:0px;writing-mode:lr-tb;text-anchor:start;fill:#f8f199;fill-opacity:1;stroke:none;stroke-width:0.26458335"
         d="m 94.908612,551.4122 -1.768501,-5.77711 -1.768502,5.77711 -5.777105,1.7685 5.777105,1.7685 1.768502,5.7771 1.768501,-5.7771 5.777108,-1.7685 z"
         id="path872"
         inkscape:connector-curvature="0" />
      <path
         style="font-style:normal;font-variant:normal;font-weight:normal;font-stretch:normal;font-size:105.6384964px;line-height:1.25;font-family:'Source Sans Pro';-inkscape-font-specification:'Source Sans Pro, Normal';font-variant-ligatures:normal;font-variant-caps:normal;font-variant-numeric:normal;font-feature-settings:normal;text-align:start;letter-spacing:0px;word-spacing:0px;writing-mode:lr-tb;text-anchor:start;fill:#f8f199;fill-opacity:1;stroke:none;stroke-width:0.26458335"
         d="m 115.54113,560.9621 -3.537,-11.55421 -3.53701,11.55421 -11.554206,3.53701 11.554206,3.537 3.53701,11.55421 3.537,-11.55421 11.55421,-3.537 z"
         id="path870"
         inkscape:connector-curvature="0" />
      <path
         style="font-style:normal;font-variant:normal;font-weight:normal;font-stretch:normal;font-size:105.6384964px;line-height:1.25;font-family:'Source Sans Pro';-inkscape-font-specification:'Source Sans Pro, Normal';font-variant-ligatures:normal;font-variant-caps:normal;font-variant-numeric:normal;font-feature-settings:normal;text-align:start;letter-spacing:0px;word-spacing:0px;writing-mode:lr-tb;text-anchor:start;fill:#f8f199;fill-opacity:1;stroke:none;stroke-width:0.26458335"
         d="m 170.36468,589.14023 -1.7685,-5.77711 -1.7685,5.77711 -5.77711,1.7685 5.77711,1.7685 1.7685,5.77711 1.7685,-5.77711 5.77711,-1.7685 z"
         id="path868"
         inkscape:connector-curvature="0" />
      <path
         style="font-style:normal;font-variant:normal;font-weight:normal;font-stretch:normal;font-size:105.6384964px;line-height:1.25;font-family:'Source Sans Pro';-inkscape-font-specification:'Source Sans Pro, Normal';font-variant-ligatures:normal;font-variant-caps:normal;font-variant-numeric:normal;font-feature-settings:normal;text-align:start;letter-spacing:0px;word-spacing:0px;writing-mode:lr-tb;text-anchor:start;fill:#f8f199;fill-opacity:1;stroke:none;stroke-width:0.26458335"
         d="m 132.63665,551.4122 -1.76851,-5.77711 -1.7685,5.77711 -5.7771,1.7685 5.7771,1.7685 1.7685,5.7771 1.76851,-5.7771 5.7771,-1.7685 z"
         id="path837"
         inkscape:connector-curvature="0" />
      <path
         id="path897"
         transform="matrix(0.26458335,0,0,0.26458335,-43.500005,512.12502)"
         d="M 799.99805 160.67578 L 790.59375 171.03516 L 805.26367 185.70508 L 717.43359 273.53711 L 707.00391 263.10742 L 508.22266 482.05469 L 513.53906 487.37109 C 516.2127 490.04473 519.7768 491.38086 523.56445 491.38086 C 527.35211 491.38086 530.91816 490.04473 533.5918 487.37109 L 820.11523 200.8457 C 822.78887 198.17207 824.12695 194.60797 824.12695 190.82031 C 824.12695 187.03262 822.78887 183.46661 820.11523 180.79297 L 799.99805 160.67578 z "
         style="font-style:normal;font-variant:normal;font-weight:normal;font-stretch:normal;font-size:105.6384964px;line-height:1.25;font-family:'Source Sans Pro';-inkscape-font-specification:'Source Sans Pro, Normal';font-variant-ligatures:normal;font-variant-caps:normal;font-variant-numeric:normal;font-feature-settings:normal;text-align:start;letter-spacing:0px;word-spacing:0px;writing-mode:lr-tb;text-anchor:start;fill:#af89a1;fill-opacity:1;stroke:none;stroke-width:1" />
      <path
         style="font-style:normal;font-variant:normal;font-weight:normal;font-stretch:normal;font-size:105.6384964px;line-height:1.25;font-family:'Source Sans Pro';-inkscape-font-specification:'Source Sans Pro, Normal';font-variant-ligatures:normal;font-variant-caps:normal;font-variant-numeric:normal;font-feature-settings:normal;text-align:start;letter-spacing:0px;word-spacing:0px;writing-mode:lr-tb;text-anchor:start;fill:#f8f199;fill-opacity:1;stroke:none;stroke-width:0.26458335;enable-background:new"
         d="m 154.2758,597.98175 -1.12388,-3.67135 -1.12388,3.67135 -3.67135,1.12388 3.67135,1.12388 1.12388,3.67136 1.12388,-3.67136 3.67135,-1.12388 z"
         id="path868-7"
         inkscape:connector-curvature="0" />
    </g>
  </g>
</svg>
