<?xml version="1.0" encoding="UTF-8" standalone="no"?>
<!-- Created with Inkscape (http://www.inkscape.org/) -->

<svg
   xmlns:dc="http://purl.org/dc/elements/1.1/"
   xmlns:cc="http://creativecommons.org/ns#"
   xmlns:rdf="http://www.w3.org/1999/02/22-rdf-syntax-ns#"
   xmlns:svg="http://www.w3.org/2000/svg"
   xmlns="http://www.w3.org/2000/svg"
   xmlns:sodipodi="http://sodipodi.sourceforge.net/DTD/sodipodi-0.dtd"
   xmlns:inkscape="http://www.inkscape.org/namespaces/inkscape"
   width="800"
   height="449.99991"
   viewBox="0 0 211.66669 119.06248"
   version="1.1"
   id="svg8"
   inkscape:version="0.92.4 5da689c313, 2019-01-14"
   sodipodi:docname="cover.svg"
   style="enable-background:new"
   inkscape:export-filename="/home/hervyqa/hervyqa-gl/hervyqa/hervyqa-blog/static/post/mengoptimalkan-aset-svg-png-dan-jpg-di-linux/cover.png"
   inkscape:export-xdpi="96"
   inkscape:export-ydpi="96">
  <defs
     id="defs2" />
  <sodipodi:namedview
     id="base"
     pagecolor="#ffffff"
     bordercolor="#666666"
     borderopacity="1.0"
     inkscape:pageopacity="0.0"
     inkscape:pageshadow="2"
     inkscape:zoom="0.67339266"
     inkscape:cx="442.47186"
     inkscape:cy="264.75237"
     inkscape:document-units="px"
     inkscape:current-layer="layer1"
     showgrid="false"
     units="px"
     borderlayer="true"
     inkscape:pagecheckerboard="true"
     inkscape:window-width="1346"
     inkscape:window-height="724"
     inkscape:window-x="6"
     inkscape:window-y="30"
     inkscape:window-maximized="1"
     inkscape:snap-global="false"
     showguides="true"
     inkscape:guide-bbox="true">
    <inkscape:grid
       type="xygrid"
       id="grid815"
       dotted="false"
       originx="-15.296342"
       originy="-76.572838" />
    <sodipodi:guide
       position="46.302103,165.36459"
       orientation="1,0"
       id="guide851"
       inkscape:locked="false" />
    <sodipodi:guide
       position="165.36459,165.36459"
       orientation="1,0"
       id="guide853"
       inkscape:locked="false" />
  </sodipodi:namedview>
  <metadata
     id="metadata5">
    <rdf:RDF>
      <cc:Work
         rdf:about="">
        <dc:format>image/svg+xml</dc:format>
        <dc:type
           rdf:resource="http://purl.org/dc/dcmitype/StillImage" />
        <dc:title />
        <dc:date />
        <dc:creator>
          <cc:Agent>
            <dc:title />
          </cc:Agent>
        </dc:creator>
        <dc:subject>
          <rdf:Bag />
        </dc:subject>
        <dc:description />
        <cc:license
           rdf:resource="" />
      </cc:Work>
    </rdf:RDF>
  </metadata>
  <g
     inkscape:label="background"
     inkscape:groupmode="layer"
     id="layer1"
     transform="translate(-15.296345,-101.36461)"
     sodipodi:insensitive="true">
    <path
       transform="translate(7.10188e-8,-443.83333)"
       style="opacity:1;vector-effect:none;fill:#81acdd;fill-opacity:1;fill-rule:nonzero;stroke:none;stroke-width:0.2999202;stroke-linecap:butt;stroke-linejoin:miter;stroke-miterlimit:4;stroke-dasharray:none;stroke-dashoffset:0;stroke-opacity:1;paint-order:stroke fill markers;enable-background:new"
       d="M 226.96303,545.19795 V 664.26043 H 15.296349 V 545.19795 Z"
       id="rect818"
       inkscape:connector-curvature="0" />
  </g>
  <g
     inkscape:groupmode="layer"
     id="layer2"
     inkscape:label="artwork"
     transform="translate(-15.296345,-545.19795)">
    <text
       xml:space="preserve"
       style="font-style:normal;font-variant:normal;font-weight:bold;font-stretch:normal;font-size:17.92033768px;line-height:1.25;font-family:Inter;-inkscape-font-specification:'Inter, Bold';font-variant-ligatures:normal;font-variant-position:normal;font-variant-caps:normal;font-variant-numeric:normal;font-variant-alternates:normal;font-feature-settings:normal;text-indent:0;text-align:center;text-decoration:none;text-decoration-line:none;text-decoration-style:solid;text-decoration-color:#000000;letter-spacing:0px;word-spacing:0px;text-transform:none;writing-mode:lr-tb;direction:ltr;text-orientation:mixed;dominant-baseline:auto;baseline-shift:baseline;text-anchor:middle;white-space:normal;shape-padding:0;opacity:1;vector-effect:none;fill:#ffffff;fill-opacity:1;stroke:none;stroke-width:0.26458335;stroke-linecap:butt;stroke-linejoin:miter;stroke-miterlimit:4;stroke-dasharray:none;stroke-dashoffset:0;stroke-opacity:1"
       x="119.39702"
       y="647.90332"
       id="text197"><tspan
         sodipodi:role="line"
         x="119.39702"
         y="664.552"
         style="font-style:normal;font-variant:normal;font-weight:bold;font-stretch:normal;font-size:17.92033768px;line-height:1.25;font-family:Inter;-inkscape-font-specification:'Inter, Bold';font-variant-ligatures:normal;font-variant-position:normal;font-variant-caps:normal;font-variant-numeric:normal;font-variant-alternates:normal;font-feature-settings:normal;text-indent:0;text-align:center;text-decoration:none;text-decoration-line:none;text-decoration-style:solid;text-decoration-color:#000000;letter-spacing:0px;word-spacing:0px;text-transform:none;writing-mode:lr-tb;direction:ltr;text-orientation:mixed;dominant-baseline:auto;baseline-shift:baseline;text-anchor:middle;white-space:normal;shape-padding:0;vector-effect:none;fill:#ffffff;fill-opacity:1;stroke:none;stroke-width:0.26458335;stroke-linecap:butt;stroke-linejoin:miter;stroke-miterlimit:4;stroke-dasharray:none;stroke-dashoffset:0;stroke-opacity:1"
         id="tspan199" /></text>
    <path
       style="color:#000000;font-style:normal;font-variant:normal;font-weight:normal;font-stretch:normal;font-size:105.6384964px;line-height:1.25;font-family:'Source Sans Pro';-inkscape-font-specification:'Source Sans Pro, Normal';font-variant-ligatures:normal;font-variant-position:normal;font-variant-caps:normal;font-variant-numeric:normal;font-variant-alternates:normal;font-feature-settings:normal;text-indent:0;text-align:start;text-decoration:none;text-decoration-line:none;text-decoration-style:solid;text-decoration-color:#000000;letter-spacing:0px;word-spacing:0px;text-transform:none;writing-mode:lr-tb;direction:ltr;text-orientation:mixed;dominant-baseline:auto;baseline-shift:baseline;text-anchor:start;white-space:normal;shape-padding:0;clip-rule:nonzero;display:inline;overflow:visible;visibility:visible;opacity:1;isolation:auto;mix-blend-mode:normal;color-interpolation:sRGB;color-interpolation-filters:linearRGB;solid-color:#000000;solid-opacity:1;vector-effect:none;fill:none;fill-opacity:1;fill-rule:nonzero;stroke:#ffffff;stroke-width:0.56129462;stroke-linecap:round;stroke-linejoin:bevel;stroke-miterlimit:4;stroke-dasharray:0.56129459, 1.68388376;stroke-dashoffset:0;stroke-opacity:1;color-rendering:auto;image-rendering:auto;shape-rendering:auto;text-rendering:auto;enable-background:accumulate"
       d="m 103.04613,563.34036 a 3.4021254,3.4021254 0 0 0 -3.162267,2.40384 l -0.608269,1.98593 -1.985924,0.60827 a 3.4021254,3.4021254 0 0 0 3.31e-4,6.50558 l 1.985593,0.6076 0.608269,1.98593 a 3.4021254,3.4021254 0 0 0 2.391877,2.29155 3.4021254,3.4021254 0 0 0 2.29023,2.39056 l 5.69965,1.74507 1.74508,5.69965 a 3.4021254,3.4021254 0 0 0 3.54629,2.38822 l -22.822192,22.8222 c -1.122915,1.12292 -1.678634,2.66563 -1.678634,4.11104 0,1.44542 0.556319,2.9884 1.678634,4.11071 l 6.599265,6.59927 0.904267,0.90426 c 1.12291,1.12291 2.66646,1.6783 4.11071,1.6783 0.17987,0 0.36126,-0.008 0.54349,-0.0242 1.27238,-0.1142 2.58438,-0.67088 3.56755,-1.65405 l 27.4073,-27.4073 a 3.4021254,3.4021254 0 0 0 1.76965,1.27401 l 0.63219,0.19368 0.19368,0.63218 a 3.4021254,3.4021254 0 0 0 6.50525,0 l 0.19367,-0.63218 0.63219,-0.19368 a 3.4021254,3.4021254 0 0 0 2.40318,-3.30943 l 0.19367,0.63352 a 3.4021254,3.4021254 0 0 0 6.50591,0 l 0.60761,-1.9856 1.98592,-0.6076 a 3.4021254,3.4021254 0 0 0 0,-6.50592 l -1.98592,-0.6076 -0.60761,-1.98593 a 3.4021254,3.4021254 0 0 0 -3.54662,-2.38855 l 5.84449,-5.8445 c 1.12233,-1.12233 1.67863,-2.66529 1.67863,-4.11071 0,-1.44541 -0.55573,-2.98814 -1.67863,-4.11104 l -3.42172,-3.42172 -4.0818,-4.08181 c -1.12292,-1.1229 -2.66647,-1.6783 -4.11072,-1.6783 -1.44424,0 -2.9878,0.5554 -4.11071,1.6783 l -5.84184,5.84183 a 3.4021254,3.4021254 0 0 0 -2.39088,-3.5433 l -1.98626,-0.60827 -0.6076,-1.98559 a 3.4021254,3.4021254 0 0 0 -6.50591,0 l -0.60761,1.98559 -1.98626,0.60827 a 3.4021254,3.4021254 0 0 0 -2.26962,2.30684 l -0.75744,-2.47527 a 3.4021254,3.4021254 0 0 0 -6.50557,-3.3e-4 l -0.75976,2.48124 a 3.4021254,3.4021254 0 0 0 -2.26797,-2.31248 l -1.98592,-0.60827 -0.60761,-1.98559 a 3.4021254,3.4021254 0 0 0 -3.34331,-2.40418 z m 29.36763,11.75543 -1.51884,1.51884 0.35579,-1.16305 z m -7.27563,7.27563 -6.37004,6.37005 1.4926,-4.87678 z m 6.14082,3.48119 a 3.4021254,3.4021254 0 0 0 0.79231,1.25607 l 4.05491,4.0549 a 3.4021254,3.4021254 0 0 0 1.2564,0.79198 l -33.03353,33.03319 -0.20398,-0.20397 -5.898971,-5.89898 z m 16.86043,4.96813 -0.35612,1.16339 -1.16339,0.35612 z"
       id="path926"
       inkscape:connector-curvature="0" />
    <text
       xml:space="preserve"
       style="font-style:normal;font-variant:normal;font-weight:bold;font-stretch:normal;font-size:12.35487461px;line-height:1.25;font-family:Inter;-inkscape-font-specification:'Inter, Bold';font-variant-ligatures:normal;font-variant-caps:normal;font-variant-numeric:normal;font-feature-settings:normal;text-align:center;letter-spacing:0px;word-spacing:0px;writing-mode:lr-tb;text-anchor:middle;fill:#ffffff;fill-opacity:1;stroke:none;stroke-width:0.17008926;enable-background:new"
       x="121.13188"
       y="648.4621"
       id="text197-9"><tspan
         sodipodi:role="line"
         x="121.13188"
         y="648.4621"
         style="font-style:normal;font-variant:normal;font-weight:bold;font-stretch:normal;font-size:12.35487461px;font-family:Inter;-inkscape-font-specification:'Inter, Bold';font-variant-ligatures:normal;font-variant-caps:normal;font-variant-numeric:normal;font-feature-settings:normal;text-align:center;writing-mode:lr-tb;text-anchor:middle;fill:#ffffff;fill-opacity:1;stroke-width:0.17008926"
         id="tspan1299">Lightweight.</tspan></text>
    <g
       id="g924"
       transform="matrix(0.642857,0,0,0.642857,43.260631,215.9748)">
      <path
         inkscape:connector-curvature="0"
         id="path874"
         transform="matrix(0.26458335,0,0,0.26458335,-43.500005,512.12502)"
         d="m 765.97461,132.66797 c -3.78765,0 -7.35175,1.33613 -10.02539,4.00976 L 469.42383,423.20312 c -2.67364,2.67364 -4.01172,6.2397 -4.01172,10.02735 0,3.78769 1.33808,7.35175 4.01172,10.02539 l 44.11523,44.11523 c 2.67364,2.67364 6.23774,4.00977 10.02539,4.00977 3.78766,0 7.35371,-1.33613 10.02735,-4.00977 L 820.11523,200.8457 c 2.67364,-2.67363 4.01172,-6.23773 4.01172,-10.02539 0,-3.78769 -1.33808,-7.3537 -4.01172,-10.02734 L 776,136.67773 c -2.67364,-2.67363 -6.23774,-4.00976 -10.02539,-4.00976 z m 0,34.3125 23.83984,23.83984 -65.28125,65.28125 -23.83984,-23.83984 z"
         style="font-style:normal;font-variant:normal;font-weight:normal;font-stretch:normal;font-size:105.6384964px;line-height:1.25;font-family:'Source Sans Pro';-inkscape-font-specification:'Source Sans Pro, Normal';font-variant-ligatures:normal;font-variant-caps:normal;font-variant-numeric:normal;font-feature-settings:normal;text-align:start;letter-spacing:0px;word-spacing:0px;writing-mode:lr-tb;text-anchor:start;fill:#9a6c89;fill-opacity:1;stroke:none;stroke-width:1" />
      <path
         style="font-style:normal;font-variant:normal;font-weight:normal;font-stretch:normal;font-size:105.6384964px;line-height:1.25;font-family:'Source Sans Pro';-inkscape-font-specification:'Source Sans Pro, Normal';font-variant-ligatures:normal;font-variant-caps:normal;font-variant-numeric:normal;font-feature-settings:normal;text-align:start;letter-spacing:0px;word-spacing:0px;writing-mode:lr-tb;text-anchor:start;fill:#f8f199;fill-opacity:1;stroke:none;stroke-width:0.26458335"
         d="m 94.908612,551.4122 -1.768501,-5.77711 -1.768502,5.77711 -5.777105,1.7685 5.777105,1.7685 1.768502,5.7771 1.768501,-5.7771 5.777108,-1.7685 z"
         id="path872"
         inkscape:connector-curvature="0" />
      <path
         style="font-style:normal;font-variant:normal;font-weight:normal;font-stretch:normal;font-size:105.6384964px;line-height:1.25;font-family:'Source Sans Pro';-inkscape-font-specification:'Source Sans Pro, Normal';font-variant-ligatures:normal;font-variant-caps:normal;font-variant-numeric:normal;font-feature-settings:normal;text-align:start;letter-spacing:0px;word-spacing:0px;writing-mode:lr-tb;text-anchor:start;fill:#f8f199;fill-opacity:1;stroke:none;stroke-width:0.26458335"
         d="m 115.54113,560.9621 -3.537,-11.55421 -3.53701,11.55421 -11.554206,3.53701 11.554206,3.537 3.53701,11.55421 3.537,-11.55421 11.55421,-3.537 z"
         id="path870"
         inkscape:connector-curvature="0" />
      <path
         style="font-style:normal;font-variant:normal;font-weight:normal;font-stretch:normal;font-size:105.6384964px;line-height:1.25;font-family:'Source Sans Pro';-inkscape-font-specification:'Source Sans Pro, Normal';font-variant-ligatures:normal;font-variant-caps:normal;font-variant-numeric:normal;font-feature-settings:normal;text-align:start;letter-spacing:0px;word-spacing:0px;writing-mode:lr-tb;text-anchor:start;fill:#f8f199;fill-opacity:1;stroke:none;stroke-width:0.26458335"
         d="m 170.36468,589.14023 -1.7685,-5.77711 -1.7685,5.77711 -5.77711,1.7685 5.77711,1.7685 1.7685,5.77711 1.7685,-5.77711 5.77711,-1.7685 z"
         id="path868"
         inkscape:connector-curvature="0" />
      <path
         style="font-style:normal;font-variant:normal;font-weight:normal;font-stretch:normal;font-size:105.6384964px;line-height:1.25;font-family:'Source Sans Pro';-inkscape-font-specification:'Source Sans Pro, Normal';font-variant-ligatures:normal;font-variant-caps:normal;font-variant-numeric:normal;font-feature-settings:normal;text-align:start;letter-spacing:0px;word-spacing:0px;writing-mode:lr-tb;text-anchor:start;fill:#f8f199;fill-opacity:1;stroke:none;stroke-width:0.26458335"
         d="m 132.63665,551.4122 -1.76851,-5.77711 -1.7685,5.77711 -5.7771,1.7685 5.7771,1.7685 1.7685,5.7771 1.76851,-5.7771 5.7771,-1.7685 z"
         id="path837"
         inkscape:connector-curvature="0" />
      <path
         inkscape:connector-curvature="0"
         id="path897"
         transform="matrix(0.26458335,0,0,0.26458335,-43.500005,512.12502)"
         d="m 799.99805,160.67578 -9.4043,10.35938 14.66992,14.66992 -87.83008,87.83203 -10.42968,-10.42969 -198.78125,218.94727 5.3164,5.3164 c 2.67364,2.67364 6.23774,4.00977 10.02539,4.00977 3.78766,0 7.35371,-1.33613 10.02735,-4.00977 L 820.11523,200.8457 c 2.67364,-2.67363 4.01172,-6.23773 4.01172,-10.02539 0,-3.78769 -1.33808,-7.3537 -4.01172,-10.02734 z"
         style="font-style:normal;font-variant:normal;font-weight:normal;font-stretch:normal;font-size:105.6384964px;line-height:1.25;font-family:'Source Sans Pro';-inkscape-font-specification:'Source Sans Pro, Normal';font-variant-ligatures:normal;font-variant-caps:normal;font-variant-numeric:normal;font-feature-settings:normal;text-align:start;letter-spacing:0px;word-spacing:0px;writing-mode:lr-tb;text-anchor:start;fill:#af89a1;fill-opacity:1;stroke:none;stroke-width:1" />
      <path
         style="font-style:normal;font-variant:normal;font-weight:normal;font-stretch:normal;font-size:105.6384964px;line-height:1.25;font-family:'Source Sans Pro';-inkscape-font-specification:'Source Sans Pro, Normal';font-variant-ligatures:normal;font-variant-caps:normal;font-variant-numeric:normal;font-feature-settings:normal;text-align:start;letter-spacing:0px;word-spacing:0px;writing-mode:lr-tb;text-anchor:start;fill:#f8f199;fill-opacity:1;stroke:none;stroke-width:0.26458335;enable-background:new"
         d="m 154.2758,597.98175 -1.12388,-3.67135 -1.12388,3.67135 -3.67135,1.12388 3.67135,1.12388 1.12388,3.67136 1.12388,-3.67136 3.67135,-1.12388 z"
         id="path868-7"
         inkscape:connector-curvature="0" />
    </g>
  </g>
</svg>
