<?xml version="1.0" encoding="UTF-8" standalone="no"?>
<!-- Created with Inkscape (http://www.inkscape.org/) -->

<svg
   xmlns:dc="http://purl.org/dc/elements/1.1/"
   xmlns:cc="http://creativecommons.org/ns#"
   xmlns:rdf="http://www.w3.org/1999/02/22-rdf-syntax-ns#"
   xmlns:svg="http://www.w3.org/2000/svg"
   xmlns="http://www.w3.org/2000/svg"
   xmlns:sodipodi="http://sodipodi.sourceforge.net/DTD/sodipodi-0.dtd"
   xmlns:inkscape="http://www.inkscape.org/namespaces/inkscape"
   width="800"
   height="449.99991"
   viewBox="0 0 211.66669 119.06248"
   version="1.1"
   id="svg8"
   inkscape:version="0.92.4 5da689c313, 2019-01-14"
   sodipodi:docname="cover.svg"
   style="enable-background:new"
   inkscape:export-filename="/home/hervyqa/hervyqa-gl/hervyqa/hervyqa-blog/static/post/penjelasan-6-lisensi-creative-commons-cc-secara-singkat/cover.png"
   inkscape:export-xdpi="96"
   inkscape:export-ydpi="96">
  <defs
     id="defs2" />
  <sodipodi:namedview
     id="base"
     pagecolor="#ffffff"
     bordercolor="#666666"
     borderopacity="1.0"
     inkscape:pageopacity="0.0"
     inkscape:pageshadow="2"
     inkscape:zoom="0.47616052"
     inkscape:cx="223.77434"
     inkscape:cy="234.91983"
     inkscape:document-units="px"
     inkscape:current-layer="layer2"
     showgrid="false"
     units="px"
     borderlayer="true"
     inkscape:pagecheckerboard="true"
     inkscape:window-width="1346"
     inkscape:window-height="724"
     inkscape:window-x="6"
     inkscape:window-y="30"
     inkscape:window-maximized="1"
     inkscape:snap-global="true"
     showguides="true"
     inkscape:guide-bbox="true">
    <inkscape:grid
       type="xygrid"
       id="grid815"
       dotted="false"
       originx="-15.296324"
       originy="-76.572843" />
    <sodipodi:guide
       position="46.302098,165.36459"
       orientation="1,0"
       id="guide851"
       inkscape:locked="false" />
    <sodipodi:guide
       position="165.36458,165.36459"
       orientation="1,0"
       id="guide853"
       inkscape:locked="false" />
  </sodipodi:namedview>
  <metadata
     id="metadata5">
    <rdf:RDF>
      <cc:Work
         rdf:about="">
        <dc:format>image/svg+xml</dc:format>
        <dc:type
           rdf:resource="http://purl.org/dc/dcmitype/StillImage" />
        <dc:title />
        <dc:date />
        <dc:creator>
          <cc:Agent>
            <dc:title />
          </cc:Agent>
        </dc:creator>
        <dc:subject>
          <rdf:Bag />
        </dc:subject>
        <dc:description />
        <cc:license
           rdf:resource="" />
      </cc:Work>
    </rdf:RDF>
  </metadata>
  <g
     inkscape:label="background"
     inkscape:groupmode="layer"
     id="layer1"
     transform="translate(-15.296329,-101.36461)" />
  <g
     inkscape:groupmode="layer"
     id="layer2"
     inkscape:label="artwork"
     transform="translate(-15.296329,-545.19794)">
    <g
       id="g906"
       transform="matrix(0.642857,0,0,0.642857,43.260611,215.97479)">
      <path
         inkscape:connector-curvature="0"
         id="rect818"
         d="M 285.75935,68.291683 V 253.50003 H -43.500004 V 68.291683 Z"
         style="opacity:1;vector-effect:none;fill:#9dcc6e;fill-opacity:1;fill-rule:nonzero;stroke:none;stroke-width:0.46654263;stroke-linecap:butt;stroke-linejoin:miter;stroke-miterlimit:4;stroke-dasharray:none;stroke-dashoffset:0;stroke-opacity:1;paint-order:stroke fill markers;enable-background:new"
         transform="translate(7.4005097e-7,443.83333)" />
      <text
         id="text197"
         y="645.79883"
         x="119.39163"
         style="font-style:normal;font-variant:normal;font-weight:bold;font-stretch:normal;font-size:23.98924255px;line-height:1.25;font-family:Inter;-inkscape-font-specification:'Inter, Bold';font-variant-ligatures:normal;font-variant-caps:normal;font-variant-numeric:normal;font-feature-settings:normal;text-align:center;letter-spacing:0px;word-spacing:0px;writing-mode:lr-tb;text-anchor:middle;fill:#ffffff;fill-opacity:1;stroke:none;stroke-width:0.26458335"
         xml:space="preserve"><tspan
           id="tspan199"
           style="font-style:normal;font-variant:normal;font-weight:bold;font-stretch:normal;font-size:23.98924255px;font-family:Inter;-inkscape-font-specification:'Inter, Bold';font-variant-ligatures:normal;font-variant-caps:normal;font-variant-numeric:normal;font-feature-settings:normal;text-align:center;writing-mode:lr-tb;text-anchor:middle;fill:#ffffff;fill-opacity:1;stroke-width:0.26458335"
           y="645.79883"
           x="119.39163"
           sodipodi:role="line">Lisensi CC</tspan><tspan
           id="tspan1299"
           style="font-style:normal;font-variant:normal;font-weight:bold;font-stretch:normal;font-size:23.98924255px;font-family:Inter;-inkscape-font-specification:'Inter, Bold';font-variant-ligatures:normal;font-variant-caps:normal;font-variant-numeric:normal;font-feature-settings:normal;text-align:center;writing-mode:lr-tb;text-anchor:middle;fill:#ffffff;fill-opacity:1;stroke-width:0.26458335"
           y="675.7854"
           x="119.39163"
           sodipodi:role="line">???</tspan></text>
      <path
         id="path1489"
         transform="matrix(0.26458335,0,0,0.26458335,-43.500005,512.12502)"
         d="m 509.86133,73.078125 c -0.6641,-7.18e-4 -1.08705,0.01184 -1.25977,0.01563 h -0.002 c -0.10103,0.0013 -0.44561,-0.0018 -1.03516,0.01367 h -0.002 c -0.87668,0.02268 -1.79987,0.0518 -2.77344,0.105469 -0.54426,0.03024 -0.67178,0.04296 -0.23828,0.01953 h -0.0176 c -0.83415,0.04838 -1.65251,0.108569 -2.45312,0.177734 -0.57288,0.04951 -0.92131,0.08985 -1.03711,0.101563 h -0.002 c -0.46779,0.04611 -1.02877,0.101829 -1.6836,0.179687 -0.49129,0.05858 -0.87638,0.111398 -1.1543,0.148438 h -0.004 c -0.48849,0.06539 -0.99141,0.136607 -1.50586,0.214844 -0.40942,0.06236 -0.8573,0.13245 -1.34375,0.214843 l -0.004,0.002 c -0.55743,0.09449 -1.00635,0.179889 -1.34961,0.244141 l 0.002,-0.002 c -0.24983,0.04687 -0.68705,0.125402 -1.3125,0.253906 h -0.004 c -0.64763,0.133039 -1.04948,0.228522 -1.20703,0.263672 -1.07081,0.237354 -2.19062,0.505667 -3.35742,0.820312 l -0.004,0.002 c 0.13829,-0.0378 -0.0395,0.0038 -0.53125,0.140625 -0.64575,0.179149 -1.10786,0.322382 -1.38867,0.40625 l -0.004,0.002 c -0.22953,0.06841 -0.64371,0.186779 -1.23633,0.375 -0.65131,0.207118 -1.14983,0.380378 -1.5,0.5 h -0.004 c -0.28086,0.096 -0.59849,0.206173 -0.95117,0.332031 h 0.004 c -0.52385,0.187087 -1.07173,0.387794 -1.64257,0.607422 h -0.002 c -0.35905,0.138331 -0.65441,0.256633 -0.88672,0.349609 -0.4426,0.17726 -0.9484,0.38277 -1.51562,0.625 h -0.002 c -0.50876,0.217323 -0.86779,0.381659 -1.08007,0.476563 -0.31325,0.139842 -0.79809,0.352238 -1.44727,0.660156 l -0.002,0.002 c -0.59426,0.281953 -0.67696,0.325944 -0.25,0.121094 -1.3801,0.661493 -2.73936,1.37072 -4.07813,2.125 l -0.008,0.002 c 0.60269,-0.33978 0.54641,-0.312613 -0.16601,0.0918 -0.69525,0.394394 -1.22842,0.71931 -1.60938,0.949219 l -0.002,0.002 c -0.0471,0.03024 -0.31442,0.1822 -0.79102,0.478515 -0.56865,0.353764 -1.0545,0.669557 -1.46484,0.939453 l -0.002,0.002 c -0.26528,0.174614 -0.53001,0.351495 -0.79492,0.53125 -0.46612,0.315968 -0.96104,0.659445 -1.48242,1.033203 h -0.002 c -0.38733,0.277795 -0.59903,0.438728 -0.64258,0.470703 -0.37697,0.277039 -0.88966,0.651378 -1.52344,1.144531 -0.42942,0.33411 -0.60047,0.477169 -0.52344,0.416016 -0.15065,0.119433 -0.48878,0.397995 -0.72851,0.589843 l -33.54297,24.439453 0.44727,-0.10938 -0.16602,0.0996 c -0.47086,0.29291 -0.9768,0.6156 -1.50977,0.9668 -0.0826,0.0544 0.007,0.002 -0.0723,0.0547 l -0.0449,0.0234 c -0.50509,0.33411 -0.8061,0.54768 -0.91602,0.62305 0.008,-0.004 -0.17774,0.12318 -0.21875,0.15039 l -0.0117,0.008 c -0.0998,0.0665 -0.15349,0.0981 -0.50195,0.34375 l -0.10352,0.20117 c 0.0662,-0.054 -0.22552,0.17723 -0.13867,0.10352 0.028,-0.0227 0.0994,-0.0637 0.12891,-0.0879 l -0.12696,0.24806 c -6.5148,4.61593 -12.36665,10.31248 -17.13085,17.13476 -11.78474,16.87555 -17.39649,39.04277 -17.39649,65.7168 0,87.15087 55.42456,159.07244 120.17383,193.77147 33.18113,17.7817 68.16239,23.23709 95.75195,5.91798 l 1.17969,-0.80078 40.39844,-29.57227 2.80078,-13.25586 c 17.20728,17.82701 36.81099,32.62914 57.37695,43.6504 33.18176,17.78203 68.16314,23.23659 95.75196,5.91796 l 1.18164,-0.80273 40.39648,-29.57227 5.51562,-26.11914 -31.82421,-55.24609 -26.77149,-7.64844 c -3.5757,1.91482 -7.73685,3.26209 -16.2539,0.35352 h -0.004 c -1.96362,-0.67068 -4.15358,-1.60985 -6.58008,-2.91016 -2.08819,-1.11908 -4.12281,-2.36824 -6.09765,-3.74414 h -0.002 c 0,0 -0.002,-0.002 -0.002,-0.002 -1.31059,-0.91321 -2.59834,-1.88475 -3.85938,-2.91406 h -0.002 l -0.002,-0.002 c -1.88425,-1.53823 -3.70544,-3.2034 -5.45899,-4.99414 -0.57683,-0.58915 -1.15355,-1.20067 -1.72656,-1.83008 -1.1376,-1.24951 -2.23989,-2.55076 -3.30273,-3.90039 l -0.0156,-0.0156 c 0.18028,0.22866 0.0774,0.0858 -0.36523,-0.48633 h 0.002 c -0.49349,-0.6378 -0.89314,-1.15947 -1.19531,-1.57227 -1.03264,-1.41063 -2.02519,-2.868 -2.97461,-4.37304 0,0 -0.002,-0.002 -0.002,-0.002 v -0.002 c -0.48933,-0.77578 -0.9564,-1.54474 -1.40039,-2.30469 -0.46155,-0.79011 -0.90854,-1.58161 -1.33593,-2.37304 l -0.002,-0.0117 c -3.06602,-5.67904 -5.49103,-12.08242 -7.37304,-18.94336 1.29377,1.61095 2.58173,3.18835 3.89648,4.94726 1.30099,1.74051 2.61642,3.55355 3.95313,5.43946 l 16.3164,8.43554 h 0.002 l 11.83203,-3.875 -0.22461,0.16407 31.5332,-21.64063 0.50195,-0.35742 0.16797,0.0293 40.39649,-29.57227 4.94531,-27.04883 C 830.16996,144.7249 803.76402,115.04203 769.10613,96.469055 757.95248,90.491619 746.74513,85.922966 735.59832,82.947571 l -0.44531,-0.0918 c -1.4857,-0.392164 -2.92355,-0.744955 -4.28516,-1.054688 h -0.002 c -0.17424,-0.03969 -0.48814,-0.112733 -0.94531,-0.21289 -1.45939,-0.319748 -2.90142,-0.606576 -4.32422,-0.863282 h -0.002 c -0.47229,-0.08504 -0.80709,-0.138615 -1,-0.171875 -1.39207,-0.238488 -2.86429,-0.473198 -4.42187,-0.675781 h -0.002 c -0.91851,-0.119433 -1.84945,-0.22866 -2.79297,-0.326172 h -0.002 c -0.58854,-0.06085 -0.86457,-0.08228 -0.82031,-0.07813 h -0.002 c -0.58224,-0.05556 -1.23046,-0.115496 -1.94531,-0.169922 h -0.002 c -0.46824,-0.03401 -0.82594,-0.05834 -1.07422,-0.07422 h -0.002 c -0.5963,-0.03893 -1.19398,-0.07164 -1.78906,-0.09961 h -0.002 c -0.35527,-0.01512 -0.70949,-0.03396 -1.0625,-0.04492 h -0.002 c -0.58515,-0.02268 -1.16617,-0.0378 -1.74414,-0.04687 h -0.008 c -0.29745,-0.0038 -0.65566,-0.0099 -1.07617,-0.01367 h -0.002 c -0.6842,-0.0038 -1.2988,8.45e-4 -1.83984,0.0098 0.004,-3.8e-5 -0.30501,-0.0026 -0.92969,0.01172 h -0.008 c -0.81086,0.0189 -1.51159,0.05016 -2.09961,0.07813 -0.55279,0.02646 -1.05384,0.05721 -1.50391,0.08594 h -0.004 c -0.47596,0.03024 -1.10131,0.06944 -1.87891,0.136719 -0.5399,0.04649 -0.88061,0.08443 -1.01758,0.09766 h -0.004 c -0.51716,0.05102 -1.0812,0.111027 -1.69141,0.183594 l 0.004,-0.002 c -0.49546,0.05896 -0.90228,0.113919 -1.22071,0.15625 l -0.004,0.002 c -0.50884,0.06841 -0.99893,0.138749 -1.47266,0.210938 -0.3171,0.04838 -0.7317,0.110336 -1.24609,0.197265 l -0.004,0.002 c -0.57014,0.09638 -1.06027,0.185814 -1.47266,0.263672 -0.30765,0.05783 -0.73007,0.137685 -1.26953,0.248047 h -0.002 c -0.64479,0.132284 -1.11881,0.241382 -1.42578,0.310547 -0.6116,0.137575 -1.2722,0.292158 -1.97852,0.470703 l -0.004,0.002 c -0.38,0.096 -0.94439,0.233948 -1.69141,0.441407 -0.7567,0.210141 -1.29338,0.378004 -1.61328,0.474609 l -0.002,0.002 c -0.10356,0.03024 -0.4132,0.119108 -0.92578,0.28125 -0.64147,0.202961 -1.16351,0.381994 -1.56641,0.519531 h -0.004 c -0.27439,0.09373 -0.62449,0.214117 -1.05078,0.367188 -0.52482,0.18822 -1.01495,0.371542 -1.47265,0.546875 l -0.008,0.002 c -0.37228,0.142866 -0.70156,0.273661 -0.98828,0.388672 -0.4628,0.185197 -0.9892,0.399909 -1.57812,0.652343 l -0.008,0.002 c -0.38101,0.163275 -0.62881,0.276345 -0.74609,0.328125 -1.8562,0.821178 -3.66811,1.718492 -5.43164,2.689453 l -0.002,0.002 c 0.034,-0.0189 -0.24719,0.125881 -0.82617,0.455078 -0.68504,0.38948 -1.18159,0.69448 -1.50391,0.888672 -0.0858,0.05178 -0.36962,0.215794 -0.8418,0.509765 -0.52411,0.326174 -1.00355,0.636055 -1.4414,0.923829 l -0.002,0.002 c -0.32882,0.216189 -0.60547,0.403557 -0.83398,0.558594 -0.43741,0.296692 -0.9111,0.623569 -1.41797,0.986328 -0.36473,0.261165 -0.60846,0.443516 -0.73828,0.539062 -0.37455,0.275528 -0.89249,0.653056 -1.53516,1.154297 -0.42467,0.331465 -0.5742,0.451643 -0.0996,0.08008 l -0.002,0.002 c -0.27969,0.219213 -0.70641,0.571907 -1.07813,0.871094 l -32.98632,24.033202 0.54297,-0.0937 c -0.079,0.0473 -0.14802,0.088 -0.22852,0.13672 l -0.60156,0.35938 c -0.49686,0.30878 -0.99973,0.63189 -1.50782,0.96679 -0.0828,0.0544 0.007,0.001 -0.0723,0.0547 l -0.0449,0.0234 c -0.52411,0.34658 -0.80764,0.55046 -0.86524,0.58984 -0.003,0.002 -0.20118,0.13843 -0.25976,0.17774 -0.11868,0.0794 -0.18294,0.11937 -0.52344,0.35937 l -0.10156,0.19531 c 0.0669,-0.0548 -0.22907,0.18069 -0.14063,0.10547 0.0302,-0.0227 0.10258,-0.0645 0.13281,-0.0898 l -0.25586,0.49414 c -1.53962,1.10415 -3.06146,2.238 -4.51953,3.4668 C 604.62557,112.4882 589.26466,100.00353 571.59053,90.532028 560.4401,84.553852 549.23269,79.985199 538.08594,77.009766 l -0.47852,-0.103516 c -1.46987,-0.388157 -2.89118,-0.73301 -4.2539,-1.042969 -0.22923,-0.05216 -0.53958,-0.125142 -0.93164,-0.210937 -1.44928,-0.317858 -2.90269,-0.608568 -4.35938,-0.871094 -0.43279,-0.07786 -0.73974,-0.127589 -0.91797,-0.158203 -1.43661,-0.246803 -2.94962,-0.488497 -4.54687,-0.695313 h -0.002 c -0.9063,-0.117165 -1.8192,-0.223493 -2.74218,-0.318359 h -0.002 c -0.61993,-0.06387 -0.83158,-0.07705 -0.62109,-0.05664 v -0.002 c -0.69989,-0.06803 -1.44209,-0.134398 -2.22656,-0.193359 h -0.002 c -0.40296,-0.03024 -0.71351,-0.04852 -0.92968,-0.0625 h -0.002 c -0.58332,-0.03817 -1.17176,-0.07322 -1.76367,-0.101563 h -0.002 c -0.32296,-0.01512 -0.71579,-0.03415 -1.18164,-0.05078 h -0.002 c -0.59531,-0.02268 -1.13903,-0.0339 -1.6289,-0.04297 h -0.004 c -0.33755,-0.0076 -0.75013,-0.01184 -1.24023,-0.01563 h -0.002 c 0.25093,0.0013 0.11464,-0.0035 -0.38867,-0.0039 z"
         style="color:#000000;font-style:normal;font-variant:normal;font-weight:normal;font-stretch:normal;font-size:medium;line-height:normal;font-family:sans-serif;font-variant-ligatures:normal;font-variant-position:normal;font-variant-caps:normal;font-variant-numeric:normal;font-variant-alternates:normal;font-feature-settings:normal;text-indent:0;text-align:start;text-decoration:none;text-decoration-line:none;text-decoration-style:solid;text-decoration-color:#000000;letter-spacing:normal;word-spacing:normal;text-transform:none;writing-mode:lr-tb;direction:ltr;text-orientation:mixed;dominant-baseline:auto;baseline-shift:baseline;text-anchor:start;white-space:normal;shape-padding:0;clip-rule:nonzero;display:inline;overflow:visible;visibility:visible;opacity:1;isolation:auto;mix-blend-mode:normal;color-interpolation:sRGB;color-interpolation-filters:linearRGB;solid-color:#000000;solid-opacity:1;vector-effect:none;fill:none;fill-opacity:1;fill-rule:nonzero;stroke:#ffffff;stroke-width:3.30000043;stroke-linecap:round;stroke-linejoin:bevel;stroke-miterlimit:4;stroke-dasharray:3.30000024, 9.90000062;stroke-dashoffset:0;stroke-opacity:1;color-rendering:auto;image-rendering:auto;shape-rendering:auto;text-rendering:auto;enable-background:accumulate"
         inkscape:connector-curvature="0" />
      <path
         id="path1487"
         d="m 96.501793,535.3634 -5.111314,6.68021 c -0.08203,-8e-5 -0.06021,4e-4 0.05788,0.001 0.04193,2.3e-4 0.105182,10e-4 0.188619,0.003 h 0.001 c 0.0969,0.002 0.18015,0.004 0.250632,0.006 0.04224,10e-4 0.104048,0.004 0.185002,0.008 0.0905,0.004 0.183571,0.01 0.278019,0.016 0.07429,0.005 0.123188,0.008 0.14831,0.01 h 5.18e-4 c 0.107104,0.008 0.22706,0.0187 0.359151,0.0315 0.144558,0.014 0.177099,0.0167 0.100769,0.009 h 5.16e-4 c 0.146995,0.0152 0.297551,0.0326 0.452686,0.0527 0.229955,0.0298 0.487911,0.0699 0.76998,0.11834 0.08644,0.0149 0.138663,0.0234 0.158129,0.0269 0.249462,0.045 0.504277,0.0961 0.763778,0.15297 0.03334,0.007 0.08912,0.0203 0.16588,0.0377 0.274886,0.0625 0.536678,0.12579 0.789101,0.19275 l 5.16e-4,5.2e-4 c 0.222491,0.059 0.233196,0.0611 0.03359,0.008 l 0.06615,0.0145 c 2.035916,0.54526 4.260635,1.43272 6.576345,2.67374 5.04101,2.70145 9.65855,6.93652 13.30669,11.40292 l 4.62194,-0.42116 -0.0258,-0.8847 0.82114,0.68574 -0.15917,0.14108 0.29507,-0.0269 0.64906,0.54208 0.009,-0.002 -0.0176,-0.59893 2.54093,-0.23151 c 0.74803,-1.35927 1.57211,-2.3099 2.53369,-3.00498 l 0.0822,-0.0351 -0.0109,0.0212 c -0.0267,0.0188 0.0214,-0.0144 0.0646,-0.0439 l 0.0139,-0.006 0.0899,-0.0656 0.009,-0.007 0.001,-5.2e-4 0.001,-5.1e-4 0.0129,-0.009 c 0.0531,-0.0351 0.10956,-0.071 0.16898,-0.108 l 0.0176,-0.0109 c 0.0608,-0.0376 0.14167,-0.0856 0.24288,-0.14315 0.002,-8.9e-4 0.003,-0.002 0.005,-0.003 0.26574,-0.14734 0.53524,-0.29054 0.82476,-0.40566 0.0282,-0.012 0.0548,-0.0234 0.076,-0.032 l 0.004,-0.002 c 0.068,-0.0279 0.136,-0.0552 0.20309,-0.0806 l 0.0258,-0.01 c 1.5e-4,-6e-5 0.0381,-0.014 0.11007,-0.0398 l 0.004,-0.002 c 0.0704,-0.0253 0.12516,-0.0439 0.17415,-0.0605 0.55276,-0.17178 1.12939,-0.31673 1.7787,-0.40773 l 3.75481,-2.59829 -0.66146,-1.00097 2.96313,-2.15904 -6.61768,-3.3662 -0.0724,-0.11007 6.98045,3.24993 c 0.032,-0.0269 0.10234,-0.0836 0.21136,-0.16899 l 5.2e-4,-5.1e-4 c 0.12592,-0.0986 0.14764,-0.11565 0.008,-0.007 l 0.004,-0.003 c 0.0199,-0.0155 0.0762,-0.0577 0.17054,-0.12713 0.0578,-0.0426 0.0852,-0.0625 0.0816,-0.0599 0.0419,-0.0299 0.0942,-0.0663 0.1571,-0.10904 v -5.2e-4 c 0.0434,-0.0294 0.074,-0.0497 0.092,-0.0615 0.0634,-0.0417 0.11651,-0.076 0.15967,-0.10284 h 5.2e-4 c -0.0204,0.0127 0.0108,-0.006 0.0935,-0.0558 0.10234,-0.0617 0.15801,-0.0947 0.16691,-0.0997 l 5.2e-4,-5.2e-4 c -0.05,0.0285 -0.0185,0.0112 0.092,-0.0496 l 5.2e-4,-5.2e-4 c 0.20138,-0.11085 0.40599,-0.21216 0.61443,-0.30437 h 5.2e-4 c 0.0624,-0.0276 0.0894,-0.0395 0.0853,-0.0377 0.0431,-0.0185 0.10443,-0.0438 0.18345,-0.0754 l 5.1e-4,-5.2e-4 c 0.0492,-0.0197 0.0872,-0.0347 0.11524,-0.0455 l 0.002,-5.1e-4 c 0.0652,-0.025 0.12293,-0.0463 0.1726,-0.0641 l 5.2e-4,-5.2e-4 c 0.0211,-0.008 0.0634,-0.0218 0.12505,-0.0429 l 0.001,-5.1e-4 c 0.0927,-0.0316 0.15493,-0.0524 0.18707,-0.0625 l 0.001,-5.2e-4 c -0.017,0.005 0.0211,-0.006 0.11214,-0.0336 0.12317,-0.0372 0.18837,-0.0563 0.19792,-0.0589 l 5.2e-4,-5.2e-4 c 0.0204,-0.006 0.0919,-0.0242 0.21084,-0.0543 0.0695,-0.0176 0.15284,-0.0369 0.25063,-0.0589 l 10e-4,-5.1e-4 c 0.10488,-0.0236 0.16488,-0.0367 0.18242,-0.0403 0.0234,-0.005 0.0791,-0.0153 0.16536,-0.0315 l 0.001,-5.1e-4 c 0.0845,-0.0159 0.14854,-0.0276 0.19327,-0.0351 0.0287,-0.005 0.0847,-0.0133 0.16691,-0.0258 l 5.2e-4,-5.2e-4 c 0.07,-0.0107 0.13615,-0.0201 0.19844,-0.0284 0.0787,-0.0105 0.13406,-0.0178 0.16691,-0.0217 h 0.001 c 0.0644,-0.008 0.14288,-0.0164 0.23358,-0.0253 0.10143,-0.01 0.14845,-0.0144 0.14314,-0.0139 h 0.001 c 0.0478,-0.004 0.13784,-0.0107 0.26768,-0.0191 l -0.001,5.2e-4 c 0.0855,-0.006 0.15786,-0.0101 0.21756,-0.0129 h 5.1e-4 c 0.13041,-0.006 0.23121,-0.0101 0.30593,-0.0119 -0.037,8.7e-4 0.0107,7.3e-4 0.14056,-0.001 0.11019,-10e-4 0.20137,-0.002 0.27595,-0.002 0.0378,2.4e-4 0.093,7.9e-4 0.16433,0.002 h 0.002 c 0.0899,0.002 0.1795,0.004 0.26924,0.007 0.0553,0.002 0.11052,0.004 0.16588,0.007 0.093,0.004 0.18727,0.01 0.28163,0.016 0.0864,0.006 0.1435,0.009 0.17209,0.0114 h 5.1e-4 c 0.0858,0.007 0.19037,0.0162 0.31316,0.0279 0.12898,0.0123 0.17273,0.0159 0.13384,0.0119 h 5.2e-4 c 0.14814,0.0153 0.30236,0.0331 0.46095,0.0537 0.22243,0.0289 0.47297,0.0681 0.74828,0.11524 0.0947,0.0162 0.15148,0.0256 0.17312,0.0295 0.25352,0.0457 0.50576,0.0957 0.75757,0.15089 0.018,0.004 0.0745,0.0175 0.16795,0.0388 h 5.2e-4 c 0.29,0.066 0.56275,0.13188 0.82372,0.20154 l 0.0661,0.0139 c 2.03579,0.54527 4.26027,1.4328 6.57582,2.67374 5.39162,2.88935 10.27563,7.56451 14.03584,12.3424 l -6.0787,4.44986 -0.47077,-0.0889 -0.005,0.004 -0.0749,0.0532 -0.015,0.0109 -0.0765,0.0563 -4.03128,2.95589 c -0.38367,-0.45267 -0.77225,-0.90212 -1.17719,-1.33997 l -5.1e-4,-5.2e-4 -5.2e-4,-5.2e-4 -0.002,-0.002 -0.14056,-0.14625 c -0.0373,-0.0372 0.0256,0.0263 0.0837,0.0863 -0.2154,-0.23181 -0.43245,-0.46078 -0.65215,-0.68523 -0.7219,-0.73749 -1.48326,-1.45085 -2.29392,-2.12907 l 1.89601,4.05867 c 0,0 -5.29167,0 -5.29167,0 v -5.2e-4 c 0,0 0,-5.2e-4 0,-5.2e-4 -4e-5,-2e-4 -0.0786,-0.43855 -0.0971,-0.53846 -0.11069,0 -0.57309,0 -0.57309,0 0,0 0,-5.2e-4 0,-5.2e-4 0,0 0,-5.2e-4 0,-5.2e-4 -4e-5,-1.9e-4 -0.0735,-0.42129 -0.0899,-0.51211 -0.0141,0 -0.0576,0 -0.0703,0 0.006,-0.11317 0.0121,-0.24067 0.015,-0.2806 l -5.2e-4,0.002 c 2.7e-4,-0.004 0.002,-0.0211 0.003,-0.0253 -0.0509,-0.2813 -0.0989,-0.57397 -0.18707,-1.06505 l -0.54002,0.33228 c -0.23991,-1.32928 -0.75664,-4.17143 -0.7276,-4.17649 0.0362,-0.006 0.66151,-0.0729 0.66145,-0.0729 -3e-5,0 1.06766,0.0584 1.06764,0.0584 -1e-5,0 0.93948,0.23772 0.93947,0.23771 0,0 1.2276,0.63358 1.26659,0.65371 -0.86156,-0.61191 -1.77027,-1.18391 -2.73264,-1.69964 -0.28909,-0.15492 -0.57045,-0.29614 -0.8413,-0.42633 l -5.1e-4,-5.2e-4 c -0.18673,-0.0897 -0.27563,-0.1275 -0.26149,-0.12092 l -0.001,-5.1e-4 c -0.16376,-0.0759 -0.35365,-0.16296 -0.57413,-0.25684 h -0.001 c -0.17144,-0.073 -0.28923,-0.11864 -0.34882,-0.14262 l -0.001,-5.2e-4 c -0.13153,-0.053 -0.29817,-0.1203 -0.50539,-0.19689 l -0.001,-5.2e-4 c -0.15779,-0.0583 -0.28428,-0.10146 -0.37672,-0.13332 -0.15049,-0.0519 -0.24624,-0.0817 -0.28267,-0.0935 l -6.86987,4.22558 c -0.0335,0.2176 -0.0476,0.34187 -0.0522,0.37517 -0.0199,0.14306 -0.0523,0.35853 -0.0847,0.6444 v 0.002 c -0.0295,0.2607 -0.0424,0.43669 -0.0512,0.52969 -0.011,0.11692 -0.0325,0.31018 -0.0522,0.57929 v 0.002 c -0.0205,0.28162 -0.0284,0.4917 -0.0357,0.632 -0.004,0.0745 -0.0173,0.2459 -0.0269,0.5147 v 0.002 c -0.0135,0.38188 -0.0207,0.77388 -0.0207,1.17564 2e-5,1.22145 0.0525,2.42604 0.15606,3.61011 0.069,0.78901 0.16057,1.5691 0.27441,2.33939 0.0572,0.3871 0.12003,0.76926 0.18758,1.14722 0.13587,0.76019 0.2937,1.5101 0.47284,2.24844 0.71652,2.95327 1.77523,5.72778 3.14554,8.26617 1.9e-4,3.3e-4 3.4e-4,6.9e-4 5.2e-4,10e-4 v 10e-4 c 0.17286,0.32017 0.3492,0.63317 0.52813,0.93948 1.2e-4,2e-4 4e-4,3.2e-4 5.2e-4,5.2e-4 v 5.1e-4 c 0.18399,0.31494 0.37024,0.62052 0.55707,0.91675 1.3e-4,1.9e-4 4e-4,3.2e-4 5.2e-4,5.1e-4 v 5.2e-4 c 0.38171,0.60515 0.78169,1.19275 1.19889,1.76268 0.18207,0.24871 0.34629,0.46105 0.48576,0.64131 l 5.2e-4,5.1e-4 c -0.035,-0.0452 0.0139,0.024 0.15451,0.20257 l 0.002,0.002 c 0.4367,0.55445 0.89113,1.09081 1.36168,1.60765 0.23443,0.2575 0.4745,0.51217 0.72088,0.76378 0.73298,0.74854 1.50493,1.45513 2.31407,2.11563 l 0.001,5.2e-4 c 0.53802,0.43917 1.09255,0.85848 1.66346,1.25626 h 5.2e-4 l 5.1e-4,5.1e-4 c 0.85424,0.59513 1.74333,1.14118 2.66393,1.63453 v 5.1e-4 c 1.1121,0.59598 2.21962,1.08089 3.32021,1.45676 l 0.003,5.2e-4 c 2.68018,0.91496 5.31038,1.0958 7.69617,0.78032 l 3.98839,6.9236 -6.62389,4.84881 c -2.99635,1.83325 -7.74876,1.7218 -14.63373,-1.96784 -13.9302,-7.46518 -26.21184,-23.45863 -26.21184,-41.9406 0,-0.77888 0.0249,-1.526 0.0708,-2.24844 l -8.40673,-4.6054 -3.72328,2.72593 -0.46974,-0.0915 -0.0264,0.0191 -0.0207,0.015 -4.0783,2.99051 c -0.82522,-0.97382 -1.68842,-1.92057 -2.62361,-2.81895 h -5.2e-4 l -5.2e-4,-5.1e-4 c -0.24802,-0.23825 -0.50223,-0.47492 -0.76326,-0.70952 h -5.1e-4 l -5.2e-4,-5.2e-4 c -0.25576,-0.22986 -0.51958,-0.45981 -0.79272,-0.68833 l -0.002,-5.2e-4 c -0.26502,-0.22169 -0.53868,-0.44363 -0.82321,-0.66404 h -5.2e-4 l -5.1e-4,-5.1e-4 c -0.27648,-0.21416 -0.56188,-0.42735 -0.8568,-0.63769 h -5.2e-4 c -1.9e-4,-1.4e-4 -3.2e-4,-3.8e-4 -5.1e-4,-5.2e-4 -0.874345,-0.62354 -1.799514,-1.20288 -2.776581,-1.72651 h -10e-4 c -0.281932,-0.15108 -0.560054,-0.29216 -0.833541,-0.42374 h -10e-4 c -0.204785,-0.0985 -0.304818,-0.14035 -0.293007,-0.13488 l -5.16e-4,-5.2e-4 c -0.138825,-0.0641 -0.319006,-0.14802 -0.54777,-0.24546 l -10e-4,-5.2e-4 c -0.191823,-0.0817 -0.314632,-0.12846 -0.362768,-0.14779 l -0.001,-5.2e-4 c -0.133745,-0.0538 -0.296305,-0.1182 -0.490927,-0.19017 l -5.16e-4,-5.1e-4 c -0.14991,-0.0554 -0.277124,-0.0995 -0.379822,-0.13488 h -5.16e-4 c -0.149985,-0.0517 -0.245748,-0.0817 -0.282155,-0.0935 l -6.869864,4.22558 c -0.03463,0.22485 -0.04663,0.33771 -0.04702,0.34054 -0.02229,0.15892 -0.05647,0.3866 -0.08992,0.68162 v 0.002 c -0.0297,0.26268 -0.04221,0.43512 -0.05012,0.51934 -0.01064,0.11248 -0.03278,0.30806 -0.05323,0.58653 v 0.002 c -0.02062,0.28236 -0.02864,0.49563 -0.03617,0.6413 -0.0038,0.0722 -0.01694,0.24062 -0.02636,0.50592 v 0.001 c -0.01346,0.3819 -0.02067,0.774 -0.02067,1.17616 0,0.81569 0.02358,1.62209 0.06977,2.41897 0.09248,1.59567 0.276505,3.15768 0.548285,4.67827 0.135877,0.76022 0.293706,1.5096 0.47284,2.24792 0.268991,1.10871 0.586123,2.1913 0.949296,3.24477 0.241855,0.70151 0.504481,1.39224 0.788067,2.07015 0.244988,0.58566 0.500253,1.14208 0.75706,1.67225 0.0051,0.0106 0.05334,0.1176 0.152445,0.31678 1.29e-4,2.6e-4 -1.32e-4,2.5e-4 0,5.2e-4 v 5.1e-4 c 0.164124,0.3298 0.331298,0.65079 0.49971,0.96274 0.342326,0.63407 0.704427,1.25377 1.085721,1.85828 0.761616,1.20748 1.59865,2.35192 2.507343,3.42512 1.56e-4,1.8e-4 3.59e-4,3.3e-4 5.15e-4,5.1e-4 v 5.2e-4 c 0.681681,0.80502 1.403216,1.56962 2.162141,2.28978 l 0.001,5.2e-4 c 0.249944,0.23716 0.506944,0.47229 0.771011,0.70487 l 0.001,5.1e-4 c 0.520877,0.45873 1.059225,0.89934 1.615406,1.3193 l 10e-4,5.2e-4 c 0.273357,0.20639 0.554284,0.41079 0.842843,0.61185 h 5.2e-4 l 5.2e-4,5.1e-4 c 0.85424,0.59514 1.74335,1.14171 2.66392,1.63504 2.5963,1.39135 5.18327,2.17555 7.65224,2.37867 0.35307,0.029 0.70299,0.0463 1.04955,0.0522 h 5.2e-4 c 0.80468,0.0136 1.58,-0.0524 2.33732,-0.15709 l 3.96772,6.88743 -6.62389,4.8488 c -2.99614,1.83312 -7.74861,1.72137 -14.633733,-1.96835 -13.930284,-7.46522 -26.211838,-23.45811 -26.211838,-41.94008 0,-5.556 1.199446,-9.18353 2.696993,-11.32799 0.675595,-0.96744 1.411917,-1.6717 2.241206,-2.21744 0.03975,-0.0258 0.08103,-0.0522 0.133326,-0.0847 l -0.03979,0.0233 0.05736,-0.0346 c 0.06585,-0.0407 0.146008,-0.0884 0.242361,-0.14314 0.06195,-0.0352 0.123349,-0.0689 0.183968,-0.10128 0.327041,-0.17276 0.664826,-0.33096 1.028361,-0.45786 0.01603,-0.006 0.01234,-0.005 0.03566,-0.0129 l 0.0041,-10e-4 c 0.08104,-0.0292 0.147426,-0.0523 0.199988,-0.0698 0.0514,-0.0169 0.08298,-0.0273 0.10387,-0.0341 0.512421,-0.15483 1.051568,-0.28111 1.648995,-0.36484 l 3.75481,-2.59829 -0.661974,-1.00097 2.963643,-2.15904 -6.617684,-3.3662 -0.07235,-0.10956 6.980452,3.24993 c 0.0056,-0.005 0.06221,-0.0503 0.172082,-0.13746 l 5.19e-4,-5.1e-4 c 0.0856,-0.068 0.104831,-0.0833 0.05684,-0.046 0.0211,-0.0164 0.07738,-0.0585 0.170016,-0.1266 l 5.16e-4,-5.2e-4 c 0.0684,-0.0503 0.09139,-0.0673 0.07028,-0.0522 0.04598,-0.033 0.100711,-0.0711 0.16433,-0.11421 h 5.16e-4 c 0.02888,-0.0196 0.05826,-0.0389 0.08785,-0.0584 l 5.16e-4,-5.2e-4 c 0.07315,-0.0481 0.12746,-0.0831 0.161747,-0.10438 -0.0275,0.0171 0.0019,-8.5e-4 0.08785,-0.0527 0.100071,-0.0604 0.159917,-0.0955 0.179316,-0.10646 l 0.0016,-10e-4 c -0.167735,0.0952 -0.161136,0.0918 0.01912,-0.01 l -0.0021,5.2e-4 c 0.149392,-0.0842 0.302578,-0.16359 0.459402,-0.23875 h 5.18e-4 c 0.141346,-0.0678 0.144341,-0.0694 0.02739,-0.014 l 5.19e-4,-5.2e-4 c 0.0098,-0.005 0.06468,-0.0294 0.165365,-0.0744 l 0.001,-5.2e-4 c 0.07967,-0.0356 0.120058,-0.0535 0.122992,-0.0548 0.04107,-0.0175 0.09987,-0.0418 0.176215,-0.0723 h 5.16e-4 c 0.05069,-0.0203 0.08465,-0.0338 0.102838,-0.0408 0.05717,-0.022 0.12168,-0.0461 0.193787,-0.0718 h 0.001 c 0.02779,-0.01 0.06556,-0.023 0.113173,-0.0393 h -0.001 c 0.09945,-0.034 0.159483,-0.0537 0.180869,-0.0605 l 0.001,-5.2e-4 c 0.0014,-4.4e-4 0.05182,-0.0158 0.149347,-0.045 0.104986,-0.0313 0.161491,-0.048 0.171047,-0.0506 h 0.001 c -0.06062,0.0168 -0.03576,0.0102 0.06511,-0.017 l 10e-4,-5.2e-4 c 0.123692,-0.0333 0.265266,-0.0678 0.42323,-0.10284 h 0.001 c 0.115596,-0.0256 0.165338,-0.0369 0.153995,-0.0346 0.0065,-0.001 0.06436,-0.0119 0.171567,-0.032 l 5.16e-4,-5.2e-4 c 0.08709,-0.0163 0.146515,-0.0272 0.178284,-0.0326 l -0.001,5.1e-4 c 0.04906,-0.008 0.108966,-0.0181 0.179832,-0.0289 h 10e-4 c 0.06321,-0.01 0.130469,-0.0194 0.202055,-0.0289 0.08093,-0.0108 0.133628,-0.0177 0.158647,-0.0207 h 0.001 c 0.05197,-0.006 0.130204,-0.0146 0.233577,-0.0248 l -5.16e-4,5.2e-4 c 0.109432,-0.0108 0.156901,-0.016 0.145209,-0.015 h 10e-4 c 0.119028,-0.0103 0.235302,-0.0187 0.349332,-0.0253 h -0.0047 c 0.155284,-0.009 0.167521,-0.01 0.03824,-0.003 h 0.0031 c 0.119911,-0.007 0.25542,-0.0119 0.405659,-0.0155 -0.01372,3.3e-4 0.03918,-10e-5 0.154511,-0.002 0.128776,-0.002 0.190746,-0.003 0.189654,-0.003 z"
         style="color:#000000;font-style:normal;font-variant:normal;font-weight:normal;font-stretch:normal;font-size:medium;line-height:normal;font-family:sans-serif;font-variant-ligatures:normal;font-variant-position:normal;font-variant-caps:normal;font-variant-numeric:normal;font-variant-alternates:normal;font-feature-settings:normal;text-indent:0;text-align:start;text-decoration:none;text-decoration-line:none;text-decoration-style:solid;text-decoration-color:#000000;letter-spacing:normal;word-spacing:normal;text-transform:none;writing-mode:lr-tb;direction:ltr;text-orientation:mixed;dominant-baseline:auto;baseline-shift:baseline;text-anchor:start;white-space:normal;shape-padding:0;clip-rule:nonzero;display:inline;overflow:visible;visibility:visible;opacity:1;isolation:auto;mix-blend-mode:normal;color-interpolation:sRGB;color-interpolation-filters:linearRGB;solid-color:#000000;solid-opacity:1;vector-effect:none;fill:#84c3c9;fill-opacity:1;fill-rule:nonzero;stroke:none;stroke-width:10.58333397;stroke-linecap:round;stroke-linejoin:bevel;stroke-miterlimit:4;stroke-dasharray:none;stroke-dashoffset:0;stroke-opacity:1;color-rendering:auto;image-rendering:auto;shape-rendering:auto;text-rendering:auto;enable-background:accumulate"
         inkscape:connector-curvature="0" />
      <path
         id="path1485"
         d="m 150.02928,566.06178 0.39688,-0.51211 c -0.0685,0 -0.1518,0 -0.20981,0 -0.0347,0.0948 -0.18699,0.51189 -0.18707,0.51211 z"
         style="color:#000000;font-style:normal;font-variant:normal;font-weight:normal;font-stretch:normal;font-size:medium;line-height:normal;font-family:sans-serif;font-variant-ligatures:normal;font-variant-position:normal;font-variant-caps:normal;font-variant-numeric:normal;font-variant-alternates:normal;font-feature-settings:normal;text-indent:0;text-align:start;text-decoration:none;text-decoration-line:none;text-decoration-style:solid;text-decoration-color:#000000;letter-spacing:normal;word-spacing:normal;text-transform:none;writing-mode:lr-tb;direction:ltr;text-orientation:mixed;dominant-baseline:auto;baseline-shift:baseline;text-anchor:start;white-space:normal;shape-padding:0;clip-rule:nonzero;display:inline;overflow:visible;visibility:visible;opacity:1;isolation:auto;mix-blend-mode:normal;color-interpolation:sRGB;color-interpolation-filters:linearRGB;solid-color:#000000;solid-opacity:1;vector-effect:none;fill:#84c3c9;fill-opacity:1;fill-rule:nonzero;stroke:none;stroke-width:10.58333397;stroke-linecap:round;stroke-linejoin:bevel;stroke-miterlimit:4;stroke-dasharray:none;stroke-dashoffset:0;stroke-opacity:1;color-rendering:auto;image-rendering:auto;shape-rendering:auto;text-rendering:auto;enable-background:accumulate"
         inkscape:connector-curvature="0" />
      <path
         id="path1483"
         d="m 150.69952,566.60128 0.45062,-0.53846 c -0.0807,0 -0.17484,0 -0.24185,0 -0.0407,0.10486 -0.20867,0.53823 -0.20877,0.53846 z"
         style="color:#000000;font-style:normal;font-variant:normal;font-weight:normal;font-stretch:normal;font-size:medium;line-height:normal;font-family:sans-serif;font-variant-ligatures:normal;font-variant-position:normal;font-variant-caps:normal;font-variant-numeric:normal;font-variant-alternates:normal;font-feature-settings:normal;text-indent:0;text-align:start;text-decoration:none;text-decoration-line:none;text-decoration-style:solid;text-decoration-color:#000000;letter-spacing:normal;word-spacing:normal;text-transform:none;writing-mode:lr-tb;direction:ltr;text-orientation:mixed;dominant-baseline:auto;baseline-shift:baseline;text-anchor:start;white-space:normal;shape-padding:0;clip-rule:nonzero;display:inline;overflow:visible;visibility:visible;opacity:1;isolation:auto;mix-blend-mode:normal;color-interpolation:sRGB;color-interpolation-filters:linearRGB;solid-color:#000000;solid-opacity:1;vector-effect:none;fill:#84c3c9;fill-opacity:1;fill-rule:nonzero;stroke:none;stroke-width:10.58333397;stroke-linecap:round;stroke-linejoin:bevel;stroke-miterlimit:4;stroke-dasharray:none;stroke-dashoffset:0;stroke-opacity:1;color-rendering:auto;image-rendering:auto;shape-rendering:auto;text-rendering:auto;enable-background:accumulate"
         inkscape:connector-curvature="0" />
      <path
         id="path1481"
         d="m 70.055346,542.102 c -0.03916,0.0237 -0.07313,0.0419 -0.113173,0.0667 l 0.05736,-0.0351 c -0.20588,0.12364 -0.111537,0.0656 0.05581,-0.0315 z"
         style="color:#000000;font-style:normal;font-variant:normal;font-weight:normal;font-stretch:normal;font-size:medium;line-height:normal;font-family:sans-serif;font-variant-ligatures:normal;font-variant-position:normal;font-variant-caps:normal;font-variant-numeric:normal;font-variant-alternates:normal;font-feature-settings:normal;text-indent:0;text-align:start;text-decoration:none;text-decoration-line:none;text-decoration-style:solid;text-decoration-color:#000000;letter-spacing:normal;word-spacing:normal;text-transform:none;writing-mode:lr-tb;direction:ltr;text-orientation:mixed;dominant-baseline:auto;baseline-shift:baseline;text-anchor:start;white-space:normal;shape-padding:0;clip-rule:nonzero;display:inline;overflow:visible;visibility:visible;opacity:1;isolation:auto;mix-blend-mode:normal;color-interpolation:sRGB;color-interpolation-filters:linearRGB;solid-color:#000000;solid-opacity:1;vector-effect:none;fill:#84c3c9;fill-opacity:1;fill-rule:nonzero;stroke:none;stroke-width:10.58333397;stroke-linecap:round;stroke-linejoin:bevel;stroke-miterlimit:4;stroke-dasharray:none;stroke-dashoffset:0;stroke-opacity:1;color-rendering:auto;image-rendering:auto;shape-rendering:auto;text-rendering:auto;enable-background:accumulate"
         inkscape:connector-curvature="0" />
      <path
         id="path1479"
         d="m 69.993846,542.20691 c -0.01677,0.0103 -0.03235,0.0227 -0.04909,0.0331 l -0.258382,0.12557 c 0.105648,-0.0626 0.196689,-0.0998 0.307472,-0.15864 z"
         style="color:#000000;font-style:normal;font-variant:normal;font-weight:normal;font-stretch:normal;font-size:medium;line-height:normal;font-family:sans-serif;font-variant-ligatures:normal;font-variant-position:normal;font-variant-caps:normal;font-variant-numeric:normal;font-variant-alternates:normal;font-feature-settings:normal;text-indent:0;text-align:start;text-decoration:none;text-decoration-line:none;text-decoration-style:solid;text-decoration-color:#000000;letter-spacing:normal;word-spacing:normal;text-transform:none;writing-mode:lr-tb;direction:ltr;text-orientation:mixed;dominant-baseline:auto;baseline-shift:baseline;text-anchor:start;white-space:normal;shape-padding:0;clip-rule:nonzero;display:inline;overflow:visible;visibility:visible;opacity:1;isolation:auto;mix-blend-mode:normal;color-interpolation:sRGB;color-interpolation-filters:linearRGB;solid-color:#000000;solid-opacity:1;vector-effect:none;fill:#84c3c9;fill-opacity:1;fill-rule:nonzero;stroke:none;stroke-width:10.58333397;stroke-linecap:round;stroke-linejoin:bevel;stroke-miterlimit:4;stroke-dasharray:none;stroke-dashoffset:0;stroke-opacity:1;color-rendering:auto;image-rendering:auto;shape-rendering:auto;text-rendering:auto;enable-background:accumulate"
         inkscape:connector-curvature="0" />
      <path
         id="path1477"
         d="m 69.101912,542.72419 0.01189,0.0165 c 8.8e-5,-2e-5 -0.0016,10e-4 -0.0015,10e-4 l -0.01189,-0.0165 z"
         style="color:#000000;font-style:normal;font-variant:normal;font-weight:normal;font-stretch:normal;font-size:medium;line-height:normal;font-family:sans-serif;font-variant-ligatures:normal;font-variant-position:normal;font-variant-caps:normal;font-variant-numeric:normal;font-variant-alternates:normal;font-feature-settings:normal;text-indent:0;text-align:start;text-decoration:none;text-decoration-line:none;text-decoration-style:solid;text-decoration-color:#000000;letter-spacing:normal;word-spacing:normal;text-transform:none;writing-mode:lr-tb;direction:ltr;text-orientation:mixed;dominant-baseline:auto;baseline-shift:baseline;text-anchor:start;white-space:normal;shape-padding:0;clip-rule:nonzero;display:inline;overflow:visible;visibility:visible;opacity:1;isolation:auto;mix-blend-mode:normal;color-interpolation:sRGB;color-interpolation-filters:linearRGB;solid-color:#000000;solid-opacity:1;vector-effect:none;fill:#84c3c9;fill-opacity:1;fill-rule:nonzero;stroke:none;stroke-width:10.58333397;stroke-linecap:round;stroke-linejoin:bevel;stroke-miterlimit:4;stroke-dasharray:none;stroke-dashoffset:0;stroke-opacity:1;color-rendering:auto;image-rendering:auto;shape-rendering:auto;text-rendering:auto;enable-background:accumulate"
         inkscape:connector-curvature="0" />
      <path
         id="path1475"
         d="m 69.118962,542.74799 0.02067,0.03 c -5.1e-4,3.5e-4 -0.001,6.8e-4 -0.0016,10e-4 l -0.02067,-0.03 c 4.21e-4,-3.2e-4 0.0011,-7.1e-4 0.0016,-0.001 z"
         style="color:#000000;font-style:normal;font-variant:normal;font-weight:normal;font-stretch:normal;font-size:medium;line-height:normal;font-family:sans-serif;font-variant-ligatures:normal;font-variant-position:normal;font-variant-caps:normal;font-variant-numeric:normal;font-variant-alternates:normal;font-feature-settings:normal;text-indent:0;text-align:start;text-decoration:none;text-decoration-line:none;text-decoration-style:solid;text-decoration-color:#000000;letter-spacing:normal;word-spacing:normal;text-transform:none;writing-mode:lr-tb;direction:ltr;text-orientation:mixed;dominant-baseline:auto;baseline-shift:baseline;text-anchor:start;white-space:normal;shape-padding:0;clip-rule:nonzero;display:inline;overflow:visible;visibility:visible;opacity:1;isolation:auto;mix-blend-mode:normal;color-interpolation:sRGB;color-interpolation-filters:linearRGB;solid-color:#000000;solid-opacity:1;vector-effect:none;fill:#84c3c9;fill-opacity:1;fill-rule:nonzero;stroke:none;stroke-width:10.58333397;stroke-linecap:round;stroke-linejoin:bevel;stroke-miterlimit:4;stroke-dasharray:none;stroke-dashoffset:0;stroke-opacity:1;color-rendering:auto;image-rendering:auto;shape-rendering:auto;text-rendering:auto;enable-background:accumulate"
         inkscape:connector-curvature="0" />
      <path
         id="path1473"
         d="m 122.64645,543.59083 c -0.0124,0.007 -0.0248,0.0149 -0.0372,0.0222 l -0.66766,0.32505 c 0.23575,-0.13986 0.46432,-0.24134 0.70486,-0.34727 z"
         style="color:#000000;font-style:normal;font-variant:normal;font-weight:normal;font-stretch:normal;font-size:medium;line-height:normal;font-family:sans-serif;font-variant-ligatures:normal;font-variant-position:normal;font-variant-caps:normal;font-variant-numeric:normal;font-variant-alternates:normal;font-feature-settings:normal;text-indent:0;text-align:start;text-decoration:none;text-decoration-line:none;text-decoration-style:solid;text-decoration-color:#000000;letter-spacing:normal;word-spacing:normal;text-transform:none;writing-mode:lr-tb;direction:ltr;text-orientation:mixed;dominant-baseline:auto;baseline-shift:baseline;text-anchor:start;white-space:normal;shape-padding:0;clip-rule:nonzero;display:inline;overflow:visible;visibility:visible;opacity:1;isolation:auto;mix-blend-mode:normal;color-interpolation:sRGB;color-interpolation-filters:linearRGB;solid-color:#000000;solid-opacity:1;vector-effect:none;fill:#84c3c9;fill-opacity:1;fill-rule:nonzero;stroke:none;stroke-width:10.58333397;stroke-linecap:round;stroke-linejoin:bevel;stroke-miterlimit:4;stroke-dasharray:none;stroke-dashoffset:0;stroke-opacity:1;color-rendering:auto;image-rendering:auto;shape-rendering:auto;text-rendering:auto;enable-background:accumulate"
         inkscape:connector-curvature="0" />
      <path
         id="path1471"
         d="m 67.817233,544.92873 0.06718,0.0532 -0.05685,0.10956 z"
         style="color:#000000;font-style:normal;font-variant:normal;font-weight:normal;font-stretch:normal;font-size:medium;line-height:normal;font-family:sans-serif;font-variant-ligatures:normal;font-variant-position:normal;font-variant-caps:normal;font-variant-numeric:normal;font-variant-alternates:normal;font-feature-settings:normal;text-indent:0;text-align:start;text-decoration:none;text-decoration-line:none;text-decoration-style:solid;text-decoration-color:#000000;letter-spacing:normal;word-spacing:normal;text-transform:none;writing-mode:lr-tb;direction:ltr;text-orientation:mixed;dominant-baseline:auto;baseline-shift:baseline;text-anchor:start;white-space:normal;shape-padding:0;clip-rule:nonzero;display:inline;overflow:visible;visibility:visible;opacity:1;isolation:auto;mix-blend-mode:normal;color-interpolation:sRGB;color-interpolation-filters:linearRGB;solid-color:#000000;solid-opacity:1;vector-effect:none;fill:#84c3c9;fill-opacity:1;fill-rule:nonzero;stroke:none;stroke-width:10.58333397;stroke-linecap:round;stroke-linejoin:bevel;stroke-miterlimit:4;stroke-dasharray:none;stroke-dashoffset:0;stroke-opacity:1;color-rendering:auto;image-rendering:auto;shape-rendering:auto;text-rendering:auto;enable-background:accumulate"
         inkscape:connector-curvature="0" />
      <path
         id="path1469"
         d="m 69.942686,549.58272 2.623611,2.06653 -2.361096,2.11254 z"
         style="color:#000000;font-style:normal;font-variant:normal;font-weight:normal;font-stretch:normal;font-size:medium;line-height:normal;font-family:sans-serif;font-variant-ligatures:normal;font-variant-position:normal;font-variant-caps:normal;font-variant-numeric:normal;font-variant-alternates:normal;font-feature-settings:normal;text-indent:0;text-align:start;text-decoration:none;text-decoration-line:none;text-decoration-style:solid;text-decoration-color:#000000;letter-spacing:normal;word-spacing:normal;text-transform:none;writing-mode:lr-tb;direction:ltr;text-orientation:mixed;dominant-baseline:auto;baseline-shift:baseline;text-anchor:start;white-space:normal;shape-padding:0;clip-rule:nonzero;display:inline;overflow:visible;visibility:visible;opacity:1;isolation:auto;mix-blend-mode:normal;color-interpolation:sRGB;color-interpolation-filters:linearRGB;solid-color:#000000;solid-opacity:1;vector-effect:none;fill:#84c3c9;fill-opacity:1;fill-rule:nonzero;stroke:none;stroke-width:10.58333397;stroke-linecap:round;stroke-linejoin:bevel;stroke-miterlimit:4;stroke-dasharray:none;stroke-dashoffset:0;stroke-opacity:1;color-rendering:auto;image-rendering:auto;shape-rendering:auto;text-rendering:auto;enable-background:accumulate"
         inkscape:connector-curvature="0" />
      <path
         id="path1467"
         d="m 74.230278,549.98011 0.001,5.1e-4 0.07752,0.10956 -5.16e-4,5.1e-4 z"
         style="color:#000000;font-style:normal;font-variant:normal;font-weight:normal;font-stretch:normal;font-size:medium;line-height:normal;font-family:sans-serif;font-variant-ligatures:normal;font-variant-position:normal;font-variant-caps:normal;font-variant-numeric:normal;font-variant-alternates:normal;font-feature-settings:normal;text-indent:0;text-align:start;text-decoration:none;text-decoration-line:none;text-decoration-style:solid;text-decoration-color:#000000;letter-spacing:normal;word-spacing:normal;text-transform:none;writing-mode:lr-tb;direction:ltr;text-orientation:mixed;dominant-baseline:auto;baseline-shift:baseline;text-anchor:start;white-space:normal;shape-padding:0;clip-rule:nonzero;display:inline;overflow:visible;visibility:visible;opacity:1;isolation:auto;mix-blend-mode:normal;color-interpolation:sRGB;color-interpolation-filters:linearRGB;solid-color:#000000;solid-opacity:1;vector-effect:none;fill:#84c3c9;fill-opacity:1;fill-rule:nonzero;stroke:none;stroke-width:10.58333397;stroke-linecap:round;stroke-linejoin:bevel;stroke-miterlimit:4;stroke-dasharray:none;stroke-dashoffset:0;stroke-opacity:1;color-rendering:auto;image-rendering:auto;shape-rendering:auto;text-rendering:auto;enable-background:accumulate"
         inkscape:connector-curvature="0" />
      <path
         id="path1465"
         d="m 122.0899,551.23791 2.53885,2.14199 -2.41276,2.1394 z"
         style="color:#000000;font-style:normal;font-variant:normal;font-weight:normal;font-stretch:normal;font-size:medium;line-height:normal;font-family:sans-serif;font-variant-ligatures:normal;font-variant-position:normal;font-variant-caps:normal;font-variant-numeric:normal;font-variant-alternates:normal;font-feature-settings:normal;text-indent:0;text-align:start;text-decoration:none;text-decoration-line:none;text-decoration-style:solid;text-decoration-color:#000000;letter-spacing:normal;word-spacing:normal;text-transform:none;writing-mode:lr-tb;direction:ltr;text-orientation:mixed;dominant-baseline:auto;baseline-shift:baseline;text-anchor:start;white-space:normal;shape-padding:0;clip-rule:nonzero;display:inline;overflow:visible;visibility:visible;opacity:1;isolation:auto;mix-blend-mode:normal;color-interpolation:sRGB;color-interpolation-filters:linearRGB;solid-color:#000000;solid-opacity:1;vector-effect:none;fill:#84c3c9;fill-opacity:1;fill-rule:nonzero;stroke:none;stroke-width:10.58333397;stroke-linecap:round;stroke-linejoin:bevel;stroke-miterlimit:4;stroke-dasharray:none;stroke-dashoffset:0;stroke-opacity:1;color-rendering:auto;image-rendering:auto;shape-rendering:auto;text-rendering:auto;enable-background:accumulate"
         inkscape:connector-curvature="0" />
      <path
         id="path1463"
         d="m 127.41464,552.9329 -0.007,0.0134 -0.0465,0.0227 c 0.0216,-0.0128 0.032,-0.0233 0.0532,-0.0362 z"
         style="color:#000000;font-style:normal;font-variant:normal;font-weight:normal;font-stretch:normal;font-size:medium;line-height:normal;font-family:sans-serif;font-variant-ligatures:normal;font-variant-position:normal;font-variant-caps:normal;font-variant-numeric:normal;font-variant-alternates:normal;font-feature-settings:normal;text-indent:0;text-align:start;text-decoration:none;text-decoration-line:none;text-decoration-style:solid;text-decoration-color:#000000;letter-spacing:normal;word-spacing:normal;text-transform:none;writing-mode:lr-tb;direction:ltr;text-orientation:mixed;dominant-baseline:auto;baseline-shift:baseline;text-anchor:start;white-space:normal;shape-padding:0;clip-rule:nonzero;display:inline;overflow:visible;visibility:visible;opacity:1;isolation:auto;mix-blend-mode:normal;color-interpolation:sRGB;color-interpolation-filters:linearRGB;solid-color:#000000;solid-opacity:1;vector-effect:none;fill:#84c3c9;fill-opacity:1;fill-rule:nonzero;stroke:none;stroke-width:10.58333397;stroke-linecap:round;stroke-linejoin:bevel;stroke-miterlimit:4;stroke-dasharray:none;stroke-dashoffset:0;stroke-opacity:1;color-rendering:auto;image-rendering:auto;shape-rendering:auto;text-rendering:auto;enable-background:accumulate"
         inkscape:connector-curvature="0" />
      <path
         id="path1461"
         d="m 68.368622,553.69874 1.013891,0.79892 -0.912606,0.81701 z"
         style="color:#000000;font-style:normal;font-variant:normal;font-weight:normal;font-stretch:normal;font-size:medium;line-height:normal;font-family:sans-serif;font-variant-ligatures:normal;font-variant-position:normal;font-variant-caps:normal;font-variant-numeric:normal;font-variant-alternates:normal;font-feature-settings:normal;text-indent:0;text-align:start;text-decoration:none;text-decoration-line:none;text-decoration-style:solid;text-decoration-color:#000000;letter-spacing:normal;word-spacing:normal;text-transform:none;writing-mode:lr-tb;direction:ltr;text-orientation:mixed;dominant-baseline:auto;baseline-shift:baseline;text-anchor:start;white-space:normal;shape-padding:0;clip-rule:nonzero;display:inline;overflow:visible;visibility:visible;opacity:1;isolation:auto;mix-blend-mode:normal;color-interpolation:sRGB;color-interpolation-filters:linearRGB;solid-color:#000000;solid-opacity:1;vector-effect:none;fill:#84c3c9;fill-opacity:1;fill-rule:nonzero;stroke:none;stroke-width:10.58333397;stroke-linecap:round;stroke-linejoin:bevel;stroke-miterlimit:4;stroke-dasharray:none;stroke-dashoffset:0;stroke-opacity:1;color-rendering:auto;image-rendering:auto;shape-rendering:auto;text-rendering:auto;enable-background:accumulate"
         inkscape:connector-curvature="0" />
      <path
         id="path1459"
         d="m 120.68017,556.88046 -0.008,0.008 0.009,0.002 z"
         style="color:#000000;font-style:normal;font-variant:normal;font-weight:normal;font-stretch:normal;font-size:medium;line-height:normal;font-family:sans-serif;font-variant-ligatures:normal;font-variant-position:normal;font-variant-caps:normal;font-variant-numeric:normal;font-variant-alternates:normal;font-feature-settings:normal;text-indent:0;text-align:start;text-decoration:none;text-decoration-line:none;text-decoration-style:solid;text-decoration-color:#000000;letter-spacing:normal;word-spacing:normal;text-transform:none;writing-mode:lr-tb;direction:ltr;text-orientation:mixed;dominant-baseline:auto;baseline-shift:baseline;text-anchor:start;white-space:normal;shape-padding:0;clip-rule:nonzero;display:inline;overflow:visible;visibility:visible;opacity:1;isolation:auto;mix-blend-mode:normal;color-interpolation:sRGB;color-interpolation-filters:linearRGB;solid-color:#000000;solid-opacity:1;vector-effect:none;fill:#84c3c9;fill-opacity:1;fill-rule:nonzero;stroke:none;stroke-width:10.58333397;stroke-linecap:round;stroke-linejoin:bevel;stroke-miterlimit:4;stroke-dasharray:none;stroke-dashoffset:0;stroke-opacity:1;color-rendering:auto;image-rendering:auto;shape-rendering:auto;text-rendering:auto;enable-background:accumulate"
         inkscape:connector-curvature="0" />
      <path
         id="path1457"
         d="m 152.41208,561.24144 0.5395,1.04799 0.31781,-0.41031 c -0.27662,-0.21427 -0.56219,-0.4272 -0.85731,-0.63768 z"
         style="color:#000000;font-style:normal;font-variant:normal;font-weight:normal;font-stretch:normal;font-size:medium;line-height:normal;font-family:sans-serif;font-variant-ligatures:normal;font-variant-position:normal;font-variant-caps:normal;font-variant-numeric:normal;font-variant-alternates:normal;font-feature-settings:normal;text-indent:0;text-align:start;text-decoration:none;text-decoration-line:none;text-decoration-style:solid;text-decoration-color:#000000;letter-spacing:normal;word-spacing:normal;text-transform:none;writing-mode:lr-tb;direction:ltr;text-orientation:mixed;dominant-baseline:auto;baseline-shift:baseline;text-anchor:start;white-space:normal;shape-padding:0;clip-rule:nonzero;display:inline;overflow:visible;visibility:visible;opacity:1;isolation:auto;mix-blend-mode:normal;color-interpolation:sRGB;color-interpolation-filters:linearRGB;solid-color:#000000;solid-opacity:1;vector-effect:none;fill:#84c3c9;fill-opacity:1;fill-rule:nonzero;stroke:none;stroke-width:10.58333397;stroke-linecap:round;stroke-linejoin:bevel;stroke-miterlimit:4;stroke-dasharray:none;stroke-dashoffset:0;stroke-opacity:1;color-rendering:auto;image-rendering:auto;shape-rendering:auto;text-rendering:auto;enable-background:accumulate"
         inkscape:connector-curvature="0" />
      <path
         id="path1455"
         d="m 153.26991,561.87912 0.51005,1.04077 0.3147,-0.37621 c -0.26907,-0.22511 -0.54393,-0.44702 -0.82475,-0.66456 z"
         style="color:#000000;font-style:normal;font-variant:normal;font-weight:normal;font-stretch:normal;font-size:medium;line-height:normal;font-family:sans-serif;font-variant-ligatures:normal;font-variant-position:normal;font-variant-caps:normal;font-variant-numeric:normal;font-variant-alternates:normal;font-feature-settings:normal;text-indent:0;text-align:start;text-decoration:none;text-decoration-line:none;text-decoration-style:solid;text-decoration-color:#000000;letter-spacing:normal;word-spacing:normal;text-transform:none;writing-mode:lr-tb;direction:ltr;text-orientation:mixed;dominant-baseline:auto;baseline-shift:baseline;text-anchor:start;white-space:normal;shape-padding:0;clip-rule:nonzero;display:inline;overflow:visible;visibility:visible;opacity:1;isolation:auto;mix-blend-mode:normal;color-interpolation:sRGB;color-interpolation-filters:linearRGB;solid-color:#000000;solid-opacity:1;vector-effect:none;fill:#84c3c9;fill-opacity:1;fill-rule:nonzero;stroke:none;stroke-width:10.58333397;stroke-linecap:round;stroke-linejoin:bevel;stroke-miterlimit:4;stroke-dasharray:none;stroke-dashoffset:0;stroke-opacity:1;color-rendering:auto;image-rendering:auto;shape-rendering:auto;text-rendering:auto;enable-background:accumulate"
         inkscape:connector-curvature="0" />
      <path
         id="path1453"
         d="m 117.68655,563.55809 c -0.0934,-0.14281 -0.071,-0.11429 0.0537,0.0853 l -0.0667,-0.0129 z"
         style="color:#000000;font-style:normal;font-variant:normal;font-weight:normal;font-stretch:normal;font-size:medium;line-height:normal;font-family:sans-serif;font-variant-ligatures:normal;font-variant-position:normal;font-variant-caps:normal;font-variant-numeric:normal;font-variant-alternates:normal;font-feature-settings:normal;text-indent:0;text-align:start;text-decoration:none;text-decoration-line:none;text-decoration-style:solid;text-decoration-color:#000000;letter-spacing:normal;word-spacing:normal;text-transform:none;writing-mode:lr-tb;direction:ltr;text-orientation:mixed;dominant-baseline:auto;baseline-shift:baseline;text-anchor:start;white-space:normal;shape-padding:0;clip-rule:nonzero;display:inline;overflow:visible;visibility:visible;opacity:1;isolation:auto;mix-blend-mode:normal;color-interpolation:sRGB;color-interpolation-filters:linearRGB;solid-color:#000000;solid-opacity:1;vector-effect:none;fill:#84c3c9;fill-opacity:1;fill-rule:nonzero;stroke:none;stroke-width:10.58333397;stroke-linecap:round;stroke-linejoin:bevel;stroke-miterlimit:4;stroke-dasharray:none;stroke-dashoffset:0;stroke-opacity:1;color-rendering:auto;image-rendering:auto;shape-rendering:auto;text-rendering:auto;enable-background:accumulate"
         inkscape:connector-curvature="0" />
      <path
         id="path1451"
         d="m 150.02876,566.06285 c 0,0 0,10e-4 0,10e-4 l -0.0212,0.0269 c 2.7e-4,-3.7e-4 0.0212,-0.0279 0.0212,-0.0279 z"
         style="color:#000000;font-style:normal;font-variant:normal;font-weight:normal;font-stretch:normal;font-size:medium;line-height:normal;font-family:sans-serif;font-variant-ligatures:normal;font-variant-position:normal;font-variant-caps:normal;font-variant-numeric:normal;font-variant-alternates:normal;font-feature-settings:normal;text-indent:0;text-align:start;text-decoration:none;text-decoration-line:none;text-decoration-style:solid;text-decoration-color:#000000;letter-spacing:normal;word-spacing:normal;text-transform:none;writing-mode:lr-tb;direction:ltr;text-orientation:mixed;dominant-baseline:auto;baseline-shift:baseline;text-anchor:start;white-space:normal;shape-padding:0;clip-rule:nonzero;display:inline;overflow:visible;visibility:visible;opacity:1;isolation:auto;mix-blend-mode:normal;color-interpolation:sRGB;color-interpolation-filters:linearRGB;solid-color:#000000;solid-opacity:1;vector-effect:none;fill:#84c3c9;fill-opacity:1;fill-rule:nonzero;stroke:none;stroke-width:10.58333397;stroke-linecap:round;stroke-linejoin:bevel;stroke-miterlimit:4;stroke-dasharray:none;stroke-dashoffset:0;stroke-opacity:1;color-rendering:auto;image-rendering:auto;shape-rendering:auto;text-rendering:auto;enable-background:accumulate"
         inkscape:connector-curvature="0" />
      <path
         id="path1449"
         d="m 154.40214,569.60217 0.005,0.007 -0.15451,0.10594 -0.13642,0.0966 z"
         style="color:#000000;font-style:normal;font-variant:normal;font-weight:normal;font-stretch:normal;font-size:medium;line-height:normal;font-family:sans-serif;font-variant-ligatures:normal;font-variant-position:normal;font-variant-caps:normal;font-variant-numeric:normal;font-variant-alternates:normal;font-feature-settings:normal;text-indent:0;text-align:start;text-decoration:none;text-decoration-line:none;text-decoration-style:solid;text-decoration-color:#000000;letter-spacing:normal;word-spacing:normal;text-transform:none;writing-mode:lr-tb;direction:ltr;text-orientation:mixed;dominant-baseline:auto;baseline-shift:baseline;text-anchor:start;white-space:normal;shape-padding:0;clip-rule:nonzero;display:inline;overflow:visible;visibility:visible;opacity:1;isolation:auto;mix-blend-mode:normal;color-interpolation:sRGB;color-interpolation-filters:linearRGB;solid-color:#000000;solid-opacity:1;vector-effect:none;fill:#84c3c9;fill-opacity:1;fill-rule:nonzero;stroke:none;stroke-width:10.58333397;stroke-linecap:round;stroke-linejoin:bevel;stroke-miterlimit:4;stroke-dasharray:none;stroke-dashoffset:0;stroke-opacity:1;color-rendering:auto;image-rendering:auto;shape-rendering:auto;text-rendering:auto;enable-background:accumulate"
         inkscape:connector-curvature="0" />
      <path
         id="path1447"
         d="m 151.63693,571.8103 c 0.0281,-0.005 -0.61707,0.0739 -0.61701,0.0739 0,0 0,-0.003 0,-0.003 0.0735,-0.008 0.59077,-0.0666 0.61701,-0.0713 z"
         style="color:#000000;font-style:normal;font-variant:normal;font-weight:normal;font-stretch:normal;font-size:medium;line-height:normal;font-family:sans-serif;font-variant-ligatures:normal;font-variant-position:normal;font-variant-caps:normal;font-variant-numeric:normal;font-variant-alternates:normal;font-feature-settings:normal;text-indent:0;text-align:start;text-decoration:none;text-decoration-line:none;text-decoration-style:solid;text-decoration-color:#000000;letter-spacing:normal;word-spacing:normal;text-transform:none;writing-mode:lr-tb;direction:ltr;text-orientation:mixed;dominant-baseline:auto;baseline-shift:baseline;text-anchor:start;white-space:normal;shape-padding:0;clip-rule:nonzero;display:inline;overflow:visible;visibility:visible;opacity:1;isolation:auto;mix-blend-mode:normal;color-interpolation:sRGB;color-interpolation-filters:linearRGB;solid-color:#000000;solid-opacity:1;vector-effect:none;fill:#84c3c9;fill-opacity:1;fill-rule:nonzero;stroke:none;stroke-width:10.58333397;stroke-linecap:round;stroke-linejoin:bevel;stroke-miterlimit:4;stroke-dasharray:none;stroke-dashoffset:0;stroke-opacity:1;color-rendering:auto;image-rendering:auto;shape-rendering:auto;text-rendering:auto;enable-background:accumulate"
         inkscape:connector-curvature="0" />
      <g
         transform="translate(-2.7720753,4.3220205)"
         id="g1365">
        <g
           id="g1331"
           transform="translate(-51.864245,-3.9290672)">
          <path
             style="fill:none;fill-opacity:1;stroke:#ffffff;stroke-width:0.31354079px;stroke-linecap:butt;stroke-linejoin:miter;stroke-opacity:1"
             d="m 157.27213,553.20181 c -0.34742,-0.0934 -0.69021,-0.16673 -1.02804,-0.22203 -9e-5,-10e-6 0,-10e-6 0,0 -2.07438,-0.33949 -3.95345,0.0431 -5.47317,1.16732 0.0366,-0.0265 0.0706,-0.0555 0.10724,-0.0811 v -5.8e-4 l -10.44308,7.65879 c 1.85512,-1.19154 4.19328,-1.351 6.74261,-0.51984 0,-3e-4 0,-5.7e-4 0,-0.001 0.76226,0.24855 1.54324,0.58532 2.33607,1.01019 4.11662,2.20609 7.11049,5.68176 10.10446,9.90588 l 8.24481,-6.04542 2.44358,-1.77896 c -2.99405,-4.22416 -5.98793,-7.6998 -10.10455,-9.9059 -0.99999,-0.53588 -1.98125,-0.93242 -2.92958,-1.18733 z m -17.47934,8.99314 -0.0105,0.008 v 3e-4 c 0.009,-10e-4 0.009,-0.005 0.01,-0.008 z"
             id="path1269"
             inkscape:connector-curvature="0"
             sodipodi:nodetypes="cccccccccccccsccccccc" />
          <path
             inkscape:connector-curvature="0"
             id="path1277"
             style="font-style:normal;font-variant:normal;font-weight:900;font-stretch:normal;font-size:231.60112px;line-height:1.25;font-family:'Source Sans Pro';-inkscape-font-specification:'Source Sans Pro, Heavy';font-variant-ligatures:normal;font-variant-caps:normal;font-variant-numeric:normal;font-feature-settings:normal;text-align:start;letter-spacing:0px;word-spacing:0px;writing-mode:lr-tb;text-anchor:start;fill:#daf4c0;fill-opacity:1;stroke:#ffffff;stroke-width:0.22042902;stroke-miterlimit:4;stroke-dasharray:none"
             d="m 159.45331,603.20049 c 7.85907,4.21166 14.876,4.97812 20.02188,1.74793 l -8.42035,-14.61694 c -2.61972,1.4029 -6.36218,1.8299 -11.04016,-0.67703 -7.85907,-4.21166 -13.09833,-13.38146 -13.09833,-24.79578 0,-11.04009 6.17487,-14.28017 13.28545,-10.46962 4.11662,2.2061 7.11058,5.68174 10.10455,9.90588 l 8.42035,-5.77914 c -4.30374,-6.61014 -10.85295,-13.86224 -18.89914,-18.17417 -15.3439,-8.22276 -29.37785,-4.14209 -29.37785,16.25399 0,20.77031 13.47267,38.28187 29.0036,46.60488 z" />
          <path
             style="font-style:normal;font-variant:normal;font-weight:900;font-stretch:normal;font-size:231.60112px;line-height:1.25;font-family:'Source Sans Pro';-inkscape-font-specification:'Source Sans Pro, Heavy';font-variant-ligatures:normal;font-variant-caps:normal;font-variant-numeric:normal;font-feature-settings:normal;text-align:start;letter-spacing:0px;word-spacing:0px;writing-mode:lr-tb;text-anchor:start;opacity:1;vector-effect:none;fill:#eaf4e0;fill-opacity:1;stroke:#ffffff;stroke-width:0.22042902;stroke-linecap:butt;stroke-linejoin:miter;stroke-miterlimit:4;stroke-dasharray:none;stroke-dashoffset:0;stroke-opacity:1"
             d="m 146.58383,561.02624 c -5.79549,-1.55803 -10.35587,2.16941 -10.35587,11.65697 0,3.27137 0.43113,6.35785 1.23015,9.1966 v 0.002 c 1.98918,7.065 6.26103,12.59263 11.86705,15.59687 1.15009,0.61633 2.24347,1.05528 4.34704,1.64633 2.10356,0.59105 4.71822,0.089 6.69416,-0.96912 l 10.6883,-7.82445 c -2.61972,1.4029 -6.36209,1.82984 -11.04015,-0.67712 -7.85899,-4.21162 -13.09825,-13.3815 -13.09825,-24.79582 0,-1.33185 0.0906,-2.54896 0.26117,-3.65509 -0.19923,-0.0649 -0.39716,-0.12441 -0.59369,-0.17723 z"
             id="path1275"
             inkscape:connector-curvature="0"
             sodipodi:nodetypes="csccccccssccc" />
          <path
             inkscape:connector-curvature="0"
             id="path1279"
             d="m 170.30635,564.29493 -10.6883,7.82447 8.42035,-5.77913 10.6883,-7.82447 z"
             style="opacity:1;vector-effect:none;fill:none;fill-opacity:1;stroke:#ffffff;stroke-width:0.22042902;stroke-linecap:butt;stroke-linejoin:miter;stroke-miterlimit:4;stroke-dasharray:none;stroke-dashoffset:0;stroke-opacity:1" />
          <path
             sodipodi:nodetypes="scccsccccss"
             inkscape:connector-curvature="0"
             id="path1281"
             style="font-style:normal;font-variant:normal;font-weight:900;font-stretch:normal;font-size:231.60112px;line-height:1.25;font-family:'Source Sans Pro';-inkscape-font-specification:'Source Sans Pro, Heavy';font-variant-ligatures:normal;font-variant-caps:normal;font-variant-numeric:normal;font-feature-settings:normal;text-align:start;letter-spacing:0px;word-spacing:0px;writing-mode:lr-tb;text-anchor:start;fill:#ffffff;fill-opacity:1;stroke:#ffffff;stroke-width:0.22042902;stroke-miterlimit:4;stroke-dasharray:none"
             d="m 148.76501,611.02497 c 7.85907,4.21166 14.87609,4.97815 20.02188,1.74793 l -8.42044,-14.61697 c -2.61963,1.40293 -6.36209,1.82994 -11.04007,-0.67699 -7.85907,-4.21166 -13.09842,-13.3815 -13.09842,-24.79582 0,-11.04008 6.17505,-14.2801 13.28554,-10.46958 4.11662,2.20609 7.11058,5.68175 10.10455,9.90587 l 8.26607,-6.06096 c -4.30374,-6.61012 -10.69867,-13.58042 -18.74486,-17.89235 -15.34381,-8.22273 -29.37785,-4.1421 -29.37785,16.25398 0,20.77032 13.47267,38.28189 29.0036,46.60489 z" />
          <path
             style="opacity:1;fill:#d0e7b9;fill-opacity:1;stroke:#ffffff;stroke-width:0.22042902;stroke-linecap:butt;stroke-linejoin:miter;stroke-miterlimit:4;stroke-dasharray:none;stroke-opacity:1"
             d="m 179.47519,604.94842 -10.6883,7.82449 -8.42044,-14.61697 10.68839,-7.82446 z"
             id="path1273"
             inkscape:connector-curvature="0" />
          <path
             inkscape:connector-curvature="0"
             style="opacity:1;vector-effect:none;fill:#e5fdcf;fill-opacity:1;stroke:#ffffff;stroke-width:0.22042902;stroke-linecap:butt;stroke-linejoin:miter;stroke-miterlimit:4;stroke-dasharray:none;stroke-dashoffset:0;stroke-opacity:1"
             d="m 152.0962,537.21231 c -6.13289,-1.6372 -11.64108,-0.95378 -15.56656,2.3495 v -0.003 l -9.80496,7.14386 -0.009,0.002 c 0,-10e-4 0,-10e-4 0,-0.002 0.10166,-0.0716 0.20402,-0.14164 0.30752,-0.21008 0.009,-0.003 0.0105,-0.007 0.0157,-0.0104 0.096,-0.0634 0.19304,-0.12511 0.29061,-0.18579 0.0105,-0.006 0.02,-0.0131 0.0305,-0.0194 0.13529,-0.0836 0.2725,-0.16384 0.41066,-0.24235 0.11072,-0.0629 0.22232,-0.12409 0.33478,-0.18376 0.0514,-0.0275 0.1035,-0.0546 0.15559,-0.0813 0.11856,-0.0609 0.23809,-0.12009 0.35865,-0.17737 0.0531,-0.0252 0.10663,-0.0498 0.16012,-0.0744 0.11255,-0.0517 0.22589,-0.10199 0.34001,-0.15064 0.0557,-0.0238 0.11203,-0.0473 0.16831,-0.0703 0.11011,-0.0451 0.22101,-0.0888 0.3326,-0.13111 0.074,-0.0285 0.14932,-0.056 0.22458,-0.083 0.10593,-0.0381 0.21221,-0.0754 0.31937,-0.11108 0.0706,-0.0232 0.14051,-0.046 0.21108,-0.0683 0.0905,-0.0286 0.18163,-0.0559 0.27301,-0.0828 0.11003,-0.0323 0.22058,-0.0633 0.33174,-0.0931 0.0928,-0.0248 0.18555,-0.0496 0.27911,-0.0728 0.0802,-0.0201 0.1616,-0.039 0.24279,-0.0577 0.0819,-0.0187 0.16352,-0.0365 0.24575,-0.054 0.13102,-0.0279 0.263,-0.0539 0.3955,-0.0786 0.0819,-0.0151 0.16343,-0.0304 0.24576,-0.0444 0.0964,-0.0163 0.19339,-0.0315 0.29061,-0.0461 0.0584,-0.009 0.11761,-0.0171 0.17658,-0.0253 0.22763,-0.0318 0.45701,-0.0597 0.68865,-0.0823 0,-8e-5 0,0 0,0 0.11447,-0.0112 0.22954,-0.0208 0.34488,-0.0297 0.0497,-0.004 0.10027,-0.007 0.15054,-0.0108 0.36736,-0.0253 0.73934,-0.0395 1.11585,-0.0425 0.0226,-1.2e-4 0.0444,-4e-4 0.0671,-4.2e-4 0.39968,-0.002 0.80433,0.009 1.21351,0.0319 0.0131,6.3e-4 0.0261,10e-4 0.0392,0.002 0.41903,0.0243 0.84267,0.0615 1.27075,0.11149 0.009,10e-4 0.0104,10e-4 0.0157,0.002 0.432,0.0508 0.86836,0.11456 1.3089,0.19122 0.009,0.002 0.009,10e-4 0.0104,0.002 0.009,0.002 0.009,0.001 0.0139,0.003 0,0 0.009,0.002 0.009,0.002 0.19976,0.035 0.4003,0.0727 0.60171,0.11301 0,-9e-5 0,0 0.009,0.002 0.20123,0.0403 0.40334,0.0833 0.60623,0.12882 0.0296,0.007 0.0592,0.0136 0.0889,0.0204 0,-5e-5 0,0 0.009,0.002 0.2319,0.0529 0.46475,0.10948 0.69866,0.16928 0.0383,0.0103 0.0775,0.0196 0.11586,0.0293 0.11952,0.0309 0.23931,0.063 0.35926,0.0963 0,0 0,-1e-5 0.009,0.002 0.0244,0.007 0.0497,0.0144 0.0749,0.0212 0.0322,0.009 0.0645,0.0184 0.097,0.0271 0.19688,0.055 0.39428,0.11262 0.59229,0.1725 0.0775,0.0236 0.15455,0.0466 0.23199,0.0707 0,0 0.009,0.002 0.009,0.002 0.10079,0.0316 0.20176,0.0629 0.3029,0.0956 0.15977,0.0515 0.31997,0.10429 0.48053,0.15881 0,1.1e-4 0,0 0.009,0.002 0.0854,0.029 0.171,0.0592 0.25655,0.089 0,0 0.009,0.002 0.009,0.002 0.0401,0.0142 0.0793,0.0283 0.119,0.0424 0.0723,0.0257 0.1454,0.0514 0.21822,0.0777 0.0836,0.0303 0.16709,0.0598 0.25089,0.0908 0.0105,0.004 0.0209,0.008 0.0305,0.0117 0.16447,0.061 0.32946,0.12391 0.49455,0.18803 0,0 0,0 0.009,0.002 0.0749,0.029 0.14923,0.0585 0.22397,0.0882 0.16761,0.0664 0.33557,0.1341 0.5037,0.20365 0,0 0.009,0.003 0.009,0.003 0.0592,0.0246 0.11865,0.0495 0.17806,0.0744 0,0 0.009,0.003 0.009,0.003 0.15115,0.0635 0.30264,0.12867 0.45422,0.19476 0.009,0.003 0.0165,0.007 0.0244,0.0105 0.0671,0.0293 0.13381,0.0583 0.20089,0.0881 0,5e-5 0,0 0,0 0.10497,0.0466 0.21038,0.095 0.31562,0.14281 0.0854,0.0387 0.16978,0.0761 0.2549,0.11547 0.0557,0.0259 0.11203,0.0524 0.16804,0.0787 0,0 0,0 0,0 0.0305,0.0143 0.061,0.0291 0.0909,0.0434 0.13189,0.0622 0.26396,0.12474 0.3962,0.18884 0.0531,0.0258 0.10689,0.0512 0.16029,0.0774 0,0 0,10e-4 0.009,0.003 0.0882,0.0432 0.17658,0.0887 0.26492,0.13278 0.11098,0.0555 0.22179,0.11 0.33295,0.16666 0.0497,0.0253 0.0988,0.0506 0.14818,0.076 0,0 0,0.001 0.009,0.003 0.10453,0.0538 0.20916,0.10948 0.31378,0.16445 0.0983,0.0515 0.19645,0.10193 0.2948,0.15455 0.009,0.005 0.0165,0.008 0.0244,0.0129 0,3e-5 0,-4e-5 0,0 0.009,0.005 0.0157,0.009 0.0226,0.0126 0.20873,0.11206 0.41606,0.2267 0.62279,0.34265 0,0 0,0.001 0,0.001 0.0601,0.0338 0.12074,0.0677 0.18102,0.10194 0.20638,0.11725 0.41206,0.23621 0.61643,0.35722 0.0496,0.0293 0.0983,0.059 0.1474,0.0883 0,0 0,0.001 0.009,0.003 0.0296,0.0179 0.0601,0.0368 0.09,0.0548 0.14243,0.0857 0.28478,0.1718 0.42625,0.25931 0.0531,0.033 0.1075,0.0659 0.16099,0.0993 0.19644,0.12277 0.39184,0.24751 0.58637,0.3736 0.0645,0.0418 0.12884,0.0839 0.19305,0.12605 0,0.001 0,0.001 0.009,0.004 0.0584,0.0382 0.11586,0.0774 0.17388,0.11589 0.10628,0.0705 0.21273,0.14061 0.31832,0.21202 0.0679,0.0458 0.1352,0.0913 0.20254,0.13735 0,10e-4 0.009,0.004 0.009,0.005 0.0688,0.047 0.13625,0.0948 0.20455,0.14206 0.061,0.0424 0.12178,0.0845 0.1825,0.12699 6.15833,4.31177 11.21587,10.17919 14.7543,15.61397 l 10.68795,-7.82456 c -4.30373,-6.61014 -10.85303,-13.86228 -18.89922,-18.1742 -2.63697,-1.41319 -5.23535,-2.46313 -7.73049,-3.12916 v 0 z m -28.40329,12.45868 -0.009,0.002 v 0 c 0,-10e-4 0,-0.002 0,-0.003 z"
             id="path1271" />
        </g>
        <g
           transform="translate(0.39291144,-2.3574234)"
           id="g1347">
          <path
             sodipodi:nodetypes="cccccccccccccsccccccc"
             inkscape:connector-curvature="0"
             id="path1333"
             d="m 157.27213,553.20181 c -0.34742,-0.0934 -0.69021,-0.16673 -1.02804,-0.22203 -9e-5,-10e-6 0,-10e-6 0,0 -2.07438,-0.33949 -3.95345,0.0431 -5.47317,1.16732 0.0366,-0.0265 0.0706,-0.0555 0.10724,-0.0811 v -5.8e-4 l -10.44308,7.65879 c 1.85512,-1.19154 4.19328,-1.351 6.74261,-0.51984 0,-3e-4 0,-5.7e-4 0,-0.001 0.76226,0.24855 1.54324,0.58532 2.33607,1.01019 4.11662,2.20609 7.11049,5.68176 10.10446,9.90588 l 8.24481,-6.04542 2.44358,-1.77896 c -2.99405,-4.22416 -5.98793,-7.6998 -10.10455,-9.9059 -0.99999,-0.53588 -1.98125,-0.93242 -2.92958,-1.18733 z m -17.47934,8.99314 -0.0105,0.008 v 3e-4 c 0.009,-10e-4 0.009,-0.005 0.01,-0.008 z"
             style="fill:none;fill-opacity:1;stroke:#ffffff;stroke-width:0.31354079px;stroke-linecap:butt;stroke-linejoin:miter;stroke-opacity:1" />
          <path
             d="m 159.45331,603.20049 c 7.85907,4.21166 14.876,4.97812 20.02188,1.74793 l -8.42035,-14.61694 c -2.61972,1.4029 -6.36218,1.8299 -11.04016,-0.67703 -7.85907,-4.21166 -13.09833,-13.38146 -13.09833,-24.79578 0,-11.04009 6.17487,-14.28017 13.28545,-10.46962 4.11662,2.2061 7.11058,5.68174 10.10455,9.90588 l 8.42035,-5.77914 c -4.30374,-6.61014 -10.85295,-13.86224 -18.89914,-18.17417 -15.3439,-8.22276 -29.37785,-4.14209 -29.37785,16.25399 0,20.77031 13.47267,38.28187 29.0036,46.60488 z"
             style="font-style:normal;font-variant:normal;font-weight:900;font-stretch:normal;font-size:231.60112px;line-height:1.25;font-family:'Source Sans Pro';-inkscape-font-specification:'Source Sans Pro, Heavy';font-variant-ligatures:normal;font-variant-caps:normal;font-variant-numeric:normal;font-feature-settings:normal;text-align:start;letter-spacing:0px;word-spacing:0px;writing-mode:lr-tb;text-anchor:start;fill:#daf4c0;fill-opacity:1;stroke:#ffffff;stroke-width:0.22042902;stroke-miterlimit:4;stroke-dasharray:none"
             id="path1335"
             inkscape:connector-curvature="0" />
          <path
             sodipodi:nodetypes="csccccccssccc"
             inkscape:connector-curvature="0"
             id="path1337"
             d="m 146.58383,561.02624 c -5.79549,-1.55803 -10.35587,2.16941 -10.35587,11.65697 0,3.27137 0.43113,6.35785 1.23015,9.1966 v 0.002 c 1.98918,7.065 6.26103,12.59263 11.86705,15.59687 1.15009,0.61633 2.24347,1.05528 4.34704,1.64633 2.10356,0.59105 4.71822,0.089 6.69416,-0.96912 l 10.6883,-7.82445 c -2.61972,1.4029 -6.36209,1.82984 -11.04015,-0.67712 -7.85899,-4.21162 -13.09825,-13.3815 -13.09825,-24.79582 0,-1.33185 0.0906,-2.54896 0.26117,-3.65509 -0.19923,-0.0649 -0.39716,-0.12441 -0.59369,-0.17723 z"
             style="font-style:normal;font-variant:normal;font-weight:900;font-stretch:normal;font-size:231.60112px;line-height:1.25;font-family:'Source Sans Pro';-inkscape-font-specification:'Source Sans Pro, Heavy';font-variant-ligatures:normal;font-variant-caps:normal;font-variant-numeric:normal;font-feature-settings:normal;text-align:start;letter-spacing:0px;word-spacing:0px;writing-mode:lr-tb;text-anchor:start;opacity:1;vector-effect:none;fill:#eaf4e0;fill-opacity:1;stroke:#ffffff;stroke-width:0.22042902;stroke-linecap:butt;stroke-linejoin:miter;stroke-miterlimit:4;stroke-dasharray:none;stroke-dashoffset:0;stroke-opacity:1" />
          <path
             style="opacity:1;vector-effect:none;fill:none;fill-opacity:1;stroke:#ffffff;stroke-width:0.22042902;stroke-linecap:butt;stroke-linejoin:miter;stroke-miterlimit:4;stroke-dasharray:none;stroke-dashoffset:0;stroke-opacity:1"
             d="m 170.30635,564.29493 -10.6883,7.82447 8.42035,-5.77913 10.6883,-7.82447 z"
             id="path1339"
             inkscape:connector-curvature="0" />
          <path
             d="m 148.76501,611.02497 c 7.85907,4.21166 14.87609,4.97815 20.02188,1.74793 l -8.42044,-14.61697 c -2.61963,1.40293 -6.36209,1.82994 -11.04007,-0.67699 -7.85907,-4.21166 -13.09842,-13.3815 -13.09842,-24.79582 0,-11.04008 6.17505,-14.2801 13.28554,-10.46958 4.11662,2.20609 7.11058,5.68175 10.10455,9.90587 l 8.26607,-6.06096 c -4.30374,-6.61012 -10.69867,-13.58042 -18.74486,-17.89235 -15.34381,-8.22273 -29.37785,-4.1421 -29.37785,16.25398 0,20.77032 13.47267,38.28189 29.0036,46.60489 z"
             style="font-style:normal;font-variant:normal;font-weight:900;font-stretch:normal;font-size:231.60112px;line-height:1.25;font-family:'Source Sans Pro';-inkscape-font-specification:'Source Sans Pro, Heavy';font-variant-ligatures:normal;font-variant-caps:normal;font-variant-numeric:normal;font-feature-settings:normal;text-align:start;letter-spacing:0px;word-spacing:0px;writing-mode:lr-tb;text-anchor:start;fill:#ffffff;fill-opacity:1;stroke:#ffffff;stroke-width:0.22042902;stroke-miterlimit:4;stroke-dasharray:none"
             id="path1341"
             inkscape:connector-curvature="0"
             sodipodi:nodetypes="scccsccccss" />
          <path
             inkscape:connector-curvature="0"
             id="path1343"
             d="m 179.47519,604.94842 -10.6883,7.82449 -8.42044,-14.61697 10.68839,-7.82446 z"
             style="opacity:1;fill:#d0e7b9;fill-opacity:1;stroke:#ffffff;stroke-width:0.22042902;stroke-linecap:butt;stroke-linejoin:miter;stroke-miterlimit:4;stroke-dasharray:none;stroke-opacity:1" />
          <path
             id="path1345"
             d="m 152.0962,537.21231 c -6.13289,-1.6372 -11.64108,-0.95378 -15.56656,2.3495 v -0.003 l -9.80496,7.14386 -0.009,0.002 c 0,-10e-4 0,-10e-4 0,-0.002 0.10166,-0.0716 0.20402,-0.14164 0.30752,-0.21008 0.009,-0.003 0.0105,-0.007 0.0157,-0.0104 0.096,-0.0634 0.19304,-0.12511 0.29061,-0.18579 0.0105,-0.006 0.02,-0.0131 0.0305,-0.0194 0.13529,-0.0836 0.2725,-0.16384 0.41066,-0.24235 0.11072,-0.0629 0.22232,-0.12409 0.33478,-0.18376 0.0514,-0.0275 0.1035,-0.0546 0.15559,-0.0813 0.11856,-0.0609 0.23809,-0.12009 0.35865,-0.17737 0.0531,-0.0252 0.10663,-0.0498 0.16012,-0.0744 0.11255,-0.0517 0.22589,-0.10199 0.34001,-0.15064 0.0557,-0.0238 0.11203,-0.0473 0.16831,-0.0703 0.11011,-0.0451 0.22101,-0.0888 0.3326,-0.13111 0.074,-0.0285 0.14932,-0.056 0.22458,-0.083 0.10593,-0.0381 0.21221,-0.0754 0.31937,-0.11108 0.0706,-0.0232 0.14051,-0.046 0.21108,-0.0683 0.0905,-0.0286 0.18163,-0.0559 0.27301,-0.0828 0.11003,-0.0323 0.22058,-0.0633 0.33174,-0.0931 0.0928,-0.0248 0.18555,-0.0496 0.27911,-0.0728 0.0802,-0.0201 0.1616,-0.039 0.24279,-0.0577 0.0819,-0.0187 0.16352,-0.0365 0.24575,-0.054 0.13102,-0.0279 0.263,-0.0539 0.3955,-0.0786 0.0819,-0.0151 0.16343,-0.0304 0.24576,-0.0444 0.0964,-0.0163 0.19339,-0.0315 0.29061,-0.0461 0.0584,-0.009 0.11761,-0.0171 0.17658,-0.0253 0.22763,-0.0318 0.45701,-0.0597 0.68865,-0.0823 0,-8e-5 0,0 0,0 0.11447,-0.0112 0.22954,-0.0208 0.34488,-0.0297 0.0497,-0.004 0.10027,-0.007 0.15054,-0.0108 0.36736,-0.0253 0.73934,-0.0395 1.11585,-0.0425 0.0226,-1.2e-4 0.0444,-4e-4 0.0671,-4.2e-4 0.39968,-0.002 0.80433,0.009 1.21351,0.0319 0.0131,6.3e-4 0.0261,10e-4 0.0392,0.002 0.41903,0.0243 0.84267,0.0615 1.27075,0.11149 0.009,10e-4 0.0104,10e-4 0.0157,0.002 0.432,0.0508 0.86836,0.11456 1.3089,0.19122 0.009,0.002 0.009,10e-4 0.0104,0.002 0.009,0.002 0.009,0.001 0.0139,0.003 0,0 0.009,0.002 0.009,0.002 0.19976,0.035 0.4003,0.0727 0.60171,0.11301 0,-9e-5 0,0 0.009,0.002 0.20123,0.0403 0.40334,0.0833 0.60623,0.12882 0.0296,0.007 0.0592,0.0136 0.0889,0.0204 0,-5e-5 0,0 0.009,0.002 0.2319,0.0529 0.46475,0.10948 0.69866,0.16928 0.0383,0.0103 0.0775,0.0196 0.11586,0.0293 0.11952,0.0309 0.23931,0.063 0.35926,0.0963 0,0 0,-1e-5 0.009,0.002 0.0244,0.007 0.0497,0.0144 0.0749,0.0212 0.0322,0.009 0.0645,0.0184 0.097,0.0271 0.19688,0.055 0.39428,0.11262 0.59229,0.1725 0.0775,0.0236 0.15455,0.0466 0.23199,0.0707 0,0 0.009,0.002 0.009,0.002 0.10079,0.0316 0.20176,0.0629 0.3029,0.0956 0.15977,0.0515 0.31997,0.10429 0.48053,0.15881 0,1.1e-4 0,0 0.009,0.002 0.0854,0.029 0.171,0.0592 0.25655,0.089 0,0 0.009,0.002 0.009,0.002 0.0401,0.0142 0.0793,0.0283 0.119,0.0424 0.0723,0.0257 0.1454,0.0514 0.21822,0.0777 0.0836,0.0303 0.16709,0.0598 0.25089,0.0908 0.0105,0.004 0.0209,0.008 0.0305,0.0117 0.16447,0.061 0.32946,0.12391 0.49455,0.18803 0,0 0,0 0.009,0.002 0.0749,0.029 0.14923,0.0585 0.22397,0.0882 0.16761,0.0664 0.33557,0.1341 0.5037,0.20365 0,0 0.009,0.003 0.009,0.003 0.0592,0.0246 0.11865,0.0495 0.17806,0.0744 0,0 0.009,0.003 0.009,0.003 0.15115,0.0635 0.30264,0.12867 0.45422,0.19476 0.009,0.003 0.0165,0.007 0.0244,0.0105 0.0671,0.0293 0.13381,0.0583 0.20089,0.0881 0,5e-5 0,0 0,0 0.10497,0.0466 0.21038,0.095 0.31562,0.14281 0.0854,0.0387 0.16978,0.0761 0.2549,0.11547 0.0557,0.0259 0.11203,0.0524 0.16804,0.0787 0,0 0,0 0,0 0.0305,0.0143 0.061,0.0291 0.0909,0.0434 0.13189,0.0622 0.26396,0.12474 0.3962,0.18884 0.0531,0.0258 0.10689,0.0512 0.16029,0.0774 0,0 0,10e-4 0.009,0.003 0.0882,0.0432 0.17658,0.0887 0.26492,0.13278 0.11098,0.0555 0.22179,0.11 0.33295,0.16666 0.0497,0.0253 0.0988,0.0506 0.14818,0.076 0,0 0,0.001 0.009,0.003 0.10453,0.0538 0.20916,0.10948 0.31378,0.16445 0.0983,0.0515 0.19645,0.10193 0.2948,0.15455 0.009,0.005 0.0165,0.008 0.0244,0.0129 0,3e-5 0,-4e-5 0,0 0.009,0.005 0.0157,0.009 0.0226,0.0126 0.20873,0.11206 0.41606,0.2267 0.62279,0.34265 0,0 0,0.001 0,0.001 0.0601,0.0338 0.12074,0.0677 0.18102,0.10194 0.20638,0.11725 0.41206,0.23621 0.61643,0.35722 0.0496,0.0293 0.0983,0.059 0.1474,0.0883 0,0 0,0.001 0.009,0.003 0.0296,0.0179 0.0601,0.0368 0.09,0.0548 0.14243,0.0857 0.28478,0.1718 0.42625,0.25931 0.0531,0.033 0.1075,0.0659 0.16099,0.0993 0.19644,0.12277 0.39184,0.24751 0.58637,0.3736 0.0645,0.0418 0.12884,0.0839 0.19305,0.12605 0,0.001 0,0.001 0.009,0.004 0.0584,0.0382 0.11586,0.0774 0.17388,0.11589 0.10628,0.0705 0.21273,0.14061 0.31832,0.21202 0.0679,0.0458 0.1352,0.0913 0.20254,0.13735 0,10e-4 0.009,0.004 0.009,0.005 0.0688,0.047 0.13625,0.0948 0.20455,0.14206 0.061,0.0424 0.12178,0.0845 0.1825,0.12699 6.15833,4.31177 11.21587,10.17919 14.7543,15.61397 l 10.68795,-7.82456 c -4.30373,-6.61014 -10.85303,-13.86228 -18.89922,-18.1742 -2.63697,-1.41319 -5.23535,-2.46313 -7.73049,-3.12916 v 0 z m -28.40329,12.45868 -0.009,0.002 v 0 c 0,-10e-4 0,-0.002 0,-0.003 z"
             style="opacity:1;vector-effect:none;fill:#e5fdcf;fill-opacity:1;stroke:#ffffff;stroke-width:0.22042902;stroke-linecap:butt;stroke-linejoin:miter;stroke-miterlimit:4;stroke-dasharray:none;stroke-dashoffset:0;stroke-opacity:1"
             inkscape:connector-curvature="0" />
        </g>
      </g>
    </g>
  </g>
</svg>
