<?xml version="1.0" encoding="UTF-8" standalone="no"?>
<!-- Created with Inkscape (http://www.inkscape.org/) -->

<svg
   xmlns:dc="http://purl.org/dc/elements/1.1/"
   xmlns:cc="http://creativecommons.org/ns#"
   xmlns:rdf="http://www.w3.org/1999/02/22-rdf-syntax-ns#"
   xmlns:svg="http://www.w3.org/2000/svg"
   xmlns="http://www.w3.org/2000/svg"
   xmlns:sodipodi="http://sodipodi.sourceforge.net/DTD/sodipodi-0.dtd"
   xmlns:inkscape="http://www.inkscape.org/namespaces/inkscape"
   width="1244.4448"
   height="700"
   viewBox="0 0 329.25939 185.20834"
   version="1.1"
   id="svg8"
   inkscape:version="0.92.4 5da689c313, 2019-01-14"
   sodipodi:docname="cover.svg"
   style="enable-background:new"
   inkscape:export-filename="/home/hervyqa/hervyqa-gl/hervyqa/hervyqa-blog/static/post/gunakan-cara-ini-untuk-mengoptimalkan-inkscape/cover.png"
   inkscape:export-xdpi="96"
   inkscape:export-ydpi="96">
  <defs
     id="defs2" />
  <sodipodi:namedview
     id="base"
     pagecolor="#ffffff"
     bordercolor="#666666"
     borderopacity="1.0"
     inkscape:pageopacity="0.0"
     inkscape:pageshadow="2"
     inkscape:zoom="0.67339267"
     inkscape:cx="916.98067"
     inkscape:cy="208.62276"
     inkscape:document-units="px"
     inkscape:current-layer="layer1"
     showgrid="false"
     units="px"
     borderlayer="true"
     inkscape:pagecheckerboard="true"
     inkscape:window-width="1346"
     inkscape:window-height="724"
     inkscape:window-x="6"
     inkscape:window-y="30"
     inkscape:window-maximized="1"
     inkscape:snap-global="false"
     showguides="true"
     inkscape:guide-bbox="true">
    <inkscape:grid
       type="xygrid"
       id="grid815"
       dotted="false"
       originx="43.500009"
       originy="-43.499907" />
    <sodipodi:guide
       position="72.02551,185.20835"
       orientation="1,0"
       id="guide851"
       inkscape:locked="false" />
    <sodipodi:guide
       position="257.23387,185.20835"
       orientation="1,0"
       id="guide853"
       inkscape:locked="false" />
  </sodipodi:namedview>
  <metadata
     id="metadata5">
    <rdf:RDF>
      <cc:Work
         rdf:about="">
        <dc:format>image/svg+xml</dc:format>
        <dc:type
           rdf:resource="http://purl.org/dc/dcmitype/StillImage" />
        <dc:title />
        <dc:date />
        <dc:creator>
          <cc:Agent>
            <dc:title />
          </cc:Agent>
        </dc:creator>
        <dc:subject>
          <rdf:Bag />
        </dc:subject>
        <dc:description />
        <cc:license
           rdf:resource="" />
      </cc:Work>
    </rdf:RDF>
  </metadata>
  <g
     inkscape:label="background"
     inkscape:groupmode="layer"
     id="layer1"
     transform="translate(43.500005,-68.291685)">
    <path
       style="opacity:1;vector-effect:none;fill:#f6e276;fill-opacity:1;fill-rule:nonzero;stroke:none;stroke-width:0.46654263;stroke-linecap:butt;stroke-linejoin:miter;stroke-miterlimit:4;stroke-dasharray:none;stroke-dashoffset:0;stroke-opacity:1;paint-order:stroke fill markers"
       d="M 285.75935,68.291683 V 253.50003 H -43.500004 V 68.291683 Z"
       id="rect818"
       inkscape:connector-curvature="0" />
  </g>
  <g
     inkscape:groupmode="layer"
     id="layer2"
     inkscape:label="artwork"
     transform="translate(43.500005,-512.12502)">
    <path
       style="color:#000000;font-style:normal;font-variant:normal;font-weight:normal;font-stretch:normal;font-size:10.58333397px;line-height:1.25;font-family:'Source Sans Pro';-inkscape-font-specification:'Source Sans Pro, Normal';font-variant-ligatures:normal;font-variant-position:normal;font-variant-caps:normal;font-variant-numeric:normal;font-variant-alternates:normal;font-feature-settings:normal;text-indent:0;text-align:start;text-decoration:none;text-decoration-line:none;text-decoration-style:solid;text-decoration-color:#000000;letter-spacing:0px;word-spacing:0px;text-transform:none;writing-mode:lr-tb;direction:ltr;text-orientation:mixed;dominant-baseline:auto;baseline-shift:baseline;text-anchor:start;white-space:normal;shape-padding:0;clip-rule:nonzero;display:inline;overflow:visible;visibility:visible;opacity:1;isolation:auto;mix-blend-mode:normal;color-interpolation:sRGB;color-interpolation-filters:linearRGB;solid-color:#000000;solid-opacity:1;vector-effect:none;fill:none;fill-opacity:1;fill-rule:nonzero;stroke:#ffffff;stroke-width:6.11399984;stroke-linecap:round;stroke-linejoin:bevel;stroke-miterlimit:4;stroke-dasharray:6.114, 12.22800002;stroke-dashoffset:0;stroke-opacity:1;color-rendering:auto;image-rendering:auto;shape-rendering:auto;text-rendering:auto;enable-background:new"
       d="m 565.01953,434.83008 c -1.61741,6.62237 -0.56522,13.43038 2.48047,19.14453 -0.0563,-0.16781 -0.54431,-1.61909 -1.08398,-3.22656 0.62434,1.78015 1.25908,3.59356 1.27148,3.6289 0.52864,0.95399 1.09799,1.85817 1.70898,2.71094 0.22597,0.31603 0.46109,0.6254 0.70508,0.92773 l 7.27735,9 h 0.002 l 4.39062,5.42969 c 0.32171,0.39753 0.65855,0.78258 1.00977,1.1543 1.03797,1.09924 2.18913,2.14896 3.46094,3.11523 1.88564,1.43271 3.9981,2.65173 6.27148,3.57227 2.2865,0.92583 4.72612,1.54119 7.19922,1.80273 1.71821,0.1818 3.91434,0.26935 6.39258,-0.0508 2.47793,-0.32012 5.1349,-1.08401 7.43164,-2.14258 l -0.16602,0.0781 83.11914,-37.38672 c 0.35851,-0.16141 0.71218,-0.33336 1.06055,-0.51562 5.56649,-2.91024 9.58776,-7.23683 12.14453,-12.66797 l 0.002,-0.002 c 0.004,-0.008 0.008,-0.0159 0.0117,-0.0234 l 0.0117,-0.0274 c 0.84545,-1.8045 1.52632,-3.76635 1.96875,-5.89453 0.0632,-0.30594 0.11919,-0.61331 0.16797,-0.92187 l 10.91016,-68.42188 c 3.50404,-2.42158 7.06349,-4.84407 10.45898,-7.26172 3.81808,-2.71861 7.56308,-5.43431 11.22461,-8.14453 5.49332,-4.06613 10.80291,-8.1244 15.90039,-12.17383 0.0569,-0.0446 0.11352,-0.0895 0.16992,-0.13476 5.27237,-4.28198 10.30026,-8.5869 15.09375,-12.94141 11.1552,-10.13363 21.03057,-20.53544 29.67579,-31.46289 0.0113,-0.0227 2.32524,-5.01621 3.28906,-7.0957 -0.95694,2.10448 -3.14166,6.90767 -3.14453,6.91406 2.441,-3.09192 4.79143,-6.2295 7.04297,-9.42188 v -0.002 c 0.002,-0.003 0.004,-0.004 0.008,-0.008 l 0.004,-0.006 c 1.11927,-1.58721 2.2198,-3.19484 3.30079,-4.82227 l 0.0234,-0.0312 v -0.002 c 0.0301,-0.0448 0.0601,-0.0897 0.0899,-0.13476 l 0.01,-0.0274 c 4.27094,-6.44564 8.14997,-13.08174 11.64063,-19.93164 -4e-5,1.1e-4 -0.006,0.0195 -0.006,0.0195 0.019,-0.0384 0.0379,-0.0768 0.0566,-0.11523 l 0.0195,-0.0293 v -0.002 c 0.0436,-0.0856 0.0866,-0.17156 0.12891,-0.25781 0,0 0.0156,-0.0422 0.0156,-0.043 3.47463,-6.85909 6.57022,-13.92541 9.28906,-21.22266 v -0.002 c 0.0113,-0.0265 0.0178,-0.0536 0.0254,-0.0801 v -0.002 c 6.18959,-16.63325 10.46383,-34.4268 13.22852,-53.74805 v -0.002 -0.002 -0.002 c 0.30576,-2.13747 0.59462,-4.2967 0.86523,-6.48047 v -0.002 -0.002 -0.004 -0.002 c 3.4e-4,-0.003 0.002,-0.004 0.002,-0.008 v -0.008 c 0.27175,-2.19428 0.52437,-4.40382 0.75976,-6.62891 0.0941,-0.96705 0.11759,-1.93968 0.0703,-2.91015 -0.003,-0.38653 0.0501,-0.79565 0.0312,-1.17383 -5.3e-4,-0.0265 -0.002,-0.12343 -0.002,-0.13477 -0.15571,-2.7253 -0.74858,-5.36504 -1.66406,-7.76757 -0.003,-0.008 -0.003,-0.0198 -0.008,-0.0273 -0.003,-0.008 -0.004,-0.0139 -0.008,-0.0215 l -0.002,-0.008 c -2.32513,-6.06104 -6.48614,-10.50997 -11.35156,-13.42969 -2.58055,-1.54859 -6.35954,-3.28024 -11.0957,-3.78125 h -0.002 c -2.56573,-0.27137 -3.96732,-0.28636 -4.46289,-0.33399 l 0.002,0.002 -0.0117,-0.002 c -0.0151,-10e-4 -0.0302,-0.003 -0.0449,-0.004 l 0.002,0.0117 c -0.0527,-0.007 -0.10544,-0.0132 -0.1582,-0.0195 0.0982,0.008 -0.0226,-0.008 0.084,0.002 -0.0461,-0.004 -0.0887,-0.004 -0.13477,-0.0117 -0.041,-0.004 -0.082,-0.008 -0.12304,-0.0117 -0.0735,-0.005 -0.14712,-0.01 -0.22071,-0.0137 -10.92548,-1.03019 -21.31785,-1.6195 -31.31054,-1.66406 l -0.002,0.006 c -54.97333,-0.2453 -97.76401,17.38933 -146.22265,56.41601 -0.0556,0.0446 -0.11092,0.0896 -0.16602,0.13477 -11.33556,9.33067 -22.98989,19.87889 -34.78515,30.98242 l -69.24024,-3.65039 c -0.32591,-0.0164 -0.65218,-0.0249 -0.97851,-0.0254 -8.59728,-0.0302 -15.74128,3.46461 -21.10547,9.92383 -0.25338,0.30517 -0.49763,0.61781 -0.73242,0.9375 l -53.95118,73.45703 -0.008,0.01 c -7.23846,9.86831 -6.54967,22.52749 0.16797,31.70313 0.18918,0.25856 0.38455,0.51254 0.58594,0.76172 l 15.86823,22.04071"
       id="path885"
       transform="matrix(0.26458335,0,0,0.26458335,-43.500005,512.12502)"
       inkscape:connector-curvature="0"
       sodipodi:nodetypes="cccccccccccccccccccccccccccccsccccccccccccccccccccccccccccccccccccccccccccccccccccccccccccccccccccc" />
    <text
       xml:space="preserve"
       style="enable-background:new;font-style:italic;font-variant:normal;font-weight:bold;font-stretch:normal;font-size:23.98924255px;line-height:1.25;font-family:Inter;-inkscape-font-specification:'Inter, Bold Italic';font-variant-ligatures:normal;font-variant-caps:normal;font-variant-numeric:normal;font-feature-settings:normal;text-align:center;letter-spacing:0px;word-spacing:0px;writing-mode:lr-tb;text-anchor:middle;fill:#ffffff;fill-opacity:1;stroke:none;stroke-width:0.26458335"
       x="120.43554"
       y="671.90393"
       id="text197"
       transform="skewY(-6.9761608)"><tspan
         sodipodi:role="line"
         x="120.43554"
         y="671.90393"
         style="font-style:italic;font-variant:normal;font-weight:bold;font-stretch:normal;font-size:23.98924255px;font-family:Inter;-inkscape-font-specification:'Inter, Bold Italic';font-variant-ligatures:normal;font-variant-caps:normal;font-variant-numeric:normal;font-feature-settings:normal;text-align:center;writing-mode:lr-tb;text-anchor:middle;fill:#ffffff;fill-opacity:1;stroke-width:0.26458335"
         id="tspan1299">Tunning.</tspan></text>
    <path
       style="opacity:1;vector-effect:none;fill:none;fill-opacity:1;stroke:#ffffff;stroke-width:1.61766255;stroke-linecap:round;stroke-linejoin:bevel;stroke-miterlimit:4;stroke-dasharray:1.6176626, 3.23532521;stroke-dashoffset:0;stroke-opacity:1;enable-background:new"
       d="m 24.906358,631.84147 c 0,0 -0.726339,-7.26341 3.813294,-8.35292 4.53963,-1.08953 7.626579,2.3606 7.626579,2.3606 0,0 -0.907925,-7.98975 3.813293,-9.9872 4.721218,-1.99743 13.437309,2.36062 13.437309,2.36062 0,0 2.179025,-8.17133 9.079263,-7.62658 6.900244,0.54476 9.805608,2.17902 9.805608,2.17902 0,0 -0.907927,-7.26341 4.358046,-7.80817 5.265974,-0.54475 10.168776,3.26854 10.168776,3.26854 0,0 1.271097,-4.72121 4.902802,-6.17391 3.631703,-1.45267 11.076712,0.18159 11.076712,0.18159 l 0.54475,7.08184"
       id="path978"
       inkscape:connector-curvature="0"
       sodipodi:nodetypes="cccccccccccc" />
    <path
       inkscape:connector-curvature="0"
       id="path985"
       d="m 49.736903,623.77649 c 4.721219,-1.99744 13.43731,2.36061 13.43731,2.36061 0,0 2.179025,-8.17133 9.079263,-7.62658 6.900243,0.54476 9.805608,2.17902 9.805608,2.17902 0,0 -0.907928,-7.26341 4.358045,-7.80817 5.265975,-0.54475 10.168778,3.26855 10.168778,3.26855 0,0 1.2711,-4.72122 4.902803,-6.17392 3.63171,-1.45267 11.0767,0.1816 11.0767,0.1816 l 0.54474,7.08183 c 0,0 0.36318,5.08439 -4.35803,9.07926 -4.72122,3.99487 -7.26341,1.81586 -7.26341,1.81586 0,0 5.99231,7.08182 3.81328,12.34778"
       style="opacity:1;vector-effect:none;fill:none;fill-opacity:1;stroke:#ffffff;stroke-width:1.61766255;stroke-linecap:round;stroke-linejoin:bevel;stroke-miterlimit:4;stroke-dasharray:1.6176626, 3.23532521;stroke-dashoffset:0;stroke-opacity:1;enable-background:new"
       sodipodi:nodetypes="cccccccccccc" />
    <g
       id="g827">
      <path
         transform="matrix(0.26458335,0,0,0.26458335,-43.500005,512.12502)"
         id="path1027"
         d="M 791.4375 147.50977 C 740.3544 147.28194 704.38254 162.02616 657.84961 199.50195 C 644.97752 210.09744 631.52589 222.27995 617.76172 235.46094 L 540.06055 231.36523 C 538.00188 231.35768 535.83372 232.35931 534.41602 234.06641 L 480.46484 307.52344 C 478.7802 309.82014 478.84306 313.12601 480.64258 315.58398 L 492.31055 330.01172 C 493.40331 331.36305 495.17391 332.17125 496.80469 332.34375 C 497.41571 332.40838 498.02767 332.47414 498.66406 332.33203 L 523.22266 327.52344 L 523.22266 327.52539 L 556.76758 320.95703 L 607.99609 384.30664 L 584.71289 438.74414 C 583.86446 440.92338 584.21754 443.43158 585.65625 445.43945 L 592.93359 454.43945 L 597.32422 459.86914 C 598.62063 461.24202 600.18791 462.02871 601.81836 462.20117 C 603.04039 462.33043 604.08532 462.2314 605.16797 461.73242 L 688.28711 424.3457 C 690.25292 423.31794 691.69004 421.40592 692.10938 419.38867 L 704.36133 342.55078 C 720.13076 331.8492 734.85984 321.24527 747.91406 310.875 C 801.36603 267.46365 824.8884 224.39042 832.04883 156.70312 L 832.04688 156.69922 C 832.3224 154.09369 830.86858 151.77604 828.71289 150.48242 C 827.83222 149.95393 826.869 149.554 825.80469 149.44141 C 824.3066 149.28304 823.00668 149.26793 821.53516 149.12695 C 818.80558 149.85531 817.10361 150.24862 813.75586 151.19531 C 805.74908 153.45951 796.03624 156.36462 784.91211 159.98242 C 782.13108 160.88688 779.26143 161.83526 776.30859 162.83008 C 767.45009 165.81453 757.83971 169.21145 747.60156 173.05078 C 745.8952 173.69066 744.18806 174.38538 742.48047 175.13281 C 740.77288 175.88024 739.06483 176.68039 737.35938 177.52734 C 733.94843 179.22125 730.545 181.10625 727.16406 183.14844 C 723.78312 185.19063 720.4243 187.39028 717.10156 189.71484 C 713.77883 192.0394 710.49219 194.48821 707.25586 197.0293 C 704.01953 199.57039 700.83463 202.20283 697.71289 204.89453 C 694.59115 207.58624 691.53364 210.33684 688.55469 213.11328 C 685.57574 215.88968 682.67534 218.69268 679.86719 221.48828 C 682.67565 218.69235 685.57539 215.88808 688.55469 213.11133 C 691.53364 210.33493 694.59115 207.58428 697.71289 204.89258 C 700.83463 202.20087 704.01953 199.56843 707.25586 197.02734 C 710.49219 194.48625 713.77883 192.03745 717.10156 189.71289 C 720.4243 187.38829 723.78312 185.18868 727.16406 183.14648 C 730.545 181.10425 733.94843 179.2193 737.35938 177.52539 C 739.06483 176.67842 740.77288 175.88024 742.48047 175.13281 C 744.18806 174.38538 745.8952 173.68872 747.60156 173.04883 C 757.83971 169.20953 767.45009 165.81453 776.30859 162.83008 C 779.26143 161.83526 782.13108 160.88493 784.91211 159.98047 C 796.03624 156.36267 805.74908 153.45756 813.75586 151.19336 C 817.10088 150.24744 818.80362 149.85417 821.5293 149.12695 C 810.87225 148.10747 800.89559 147.55195 791.4375 147.50977 z M 821.5293 149.12695 C 821.53126 149.12714 821.53319 149.12677 821.53516 149.12695 L 821.53516 149.125 C 821.53293 149.12559 821.53152 149.12636 821.5293 149.12695 z M 760.6543 188.83203 C 761.31937 188.83477 761.99067 188.8723 762.66602 188.94336 C 773.47184 190.08648 781.31105 199.7805 780.16797 210.58594 C 779.02485 221.39176 769.32922 229.23101 758.52344 228.08789 C 747.71796 226.94481 739.88032 217.24918 741.02344 206.44336 C 742.02361 196.98861 749.56974 189.80627 758.67969 188.92383 C 759.33039 188.86071 759.98922 188.82929 760.6543 188.83203 z M 555.43945 264.92969 L 636.82031 271.23047 C 636.82031 271.23047 636.82031 271.23242 636.82031 271.23242 L 555.43945 264.93164 L 555.43945 264.92969 z "
         style="enable-background:new;font-style:normal;font-variant:normal;font-weight:normal;font-stretch:normal;font-size:10.58333397px;line-height:1.25;font-family:'Source Sans Pro';-inkscape-font-specification:'Source Sans Pro, Normal';font-variant-ligatures:normal;font-variant-caps:normal;font-variant-numeric:normal;font-feature-settings:normal;text-align:start;letter-spacing:0px;word-spacing:0px;writing-mode:lr-tb;text-anchor:start;fill:#f9f7bc;fill-opacity:1;stroke:none;stroke-width:9.18467808" />
      <path
         id="path1032"
         d="m 175.76363,551.94016 c -0.23301,-0.13983 -0.48786,-0.24564 -0.76946,-0.27543 -0.39637,-0.0419 -0.74031,-0.0459 -1.12965,-0.0832 -0.7222,0.19271 -1.17251,0.29677 -2.05827,0.54725 -2.11846,0.59907 -4.68832,1.36771 -7.63158,2.32492 -2.94326,0.95722 -6.25996,2.10325 -9.87175,3.45768 -0.90295,0.3386 -1.80744,0.73624 -2.70991,1.18442 -0.90248,0.44818 -1.80297,0.94692 -2.69751,1.48725 -0.89454,0.54033 -1.78323,1.12232 -2.66237,1.73736 -0.87914,0.61504 -1.74873,1.26295 -2.60501,1.93528 -0.85628,0.67233 -1.69895,1.36883 -2.52491,2.08101 -0.82596,0.71218 -1.63493,1.43995 -2.42311,2.17455 -1.57636,1.46918 -3.06991,2.96613 -4.45037,4.4204 -1.38047,1.45426 -2.64801,2.86575 -3.7729,4.16563 -1.12489,1.29989 -2.107,2.4878 -2.91662,3.49385 -1.61923,2.0121 -2.54816,3.29747 -2.54816,3.29747 l -21.53202,-1.66708 -8.524031,16.56126 8.875431,-1.73787 13.55421,16.76125 -6.16035,14.40325 c -0.22448,0.57659 -0.13106,1.24022 0.2496,1.77147 l 1.92546,2.38125 18.4304,-9.62628 3.47266,-19.3089 c 0,0 0.24325,-0.0609 0.86403,-0.38861 0.31039,-0.16388 0.7154,-0.39465 1.23145,-0.71779 0.51604,-0.32314 1.14324,-0.73883 1.89859,-1.27279 0.75535,-0.53395 1.63872,-1.18599 2.66702,-1.9823 1.0283,-0.79632 2.20133,-1.73662 3.53622,-2.84686 1.33489,-1.11023 2.83158,-2.39073 4.5067,-3.86643 1.67512,-1.4757 3.52896,-3.14677 5.57796,-5.03949 1.0245,-0.94636 2.00169,-1.92051 2.93367,-2.91506 0.93198,-0.99456 1.81859,-2.00963 2.66185,-3.03806 0.84326,-1.02843 1.64307,-2.07016 2.40141,-3.11816 0.75833,-1.048 1.47511,-2.1021 2.15232,-3.15536 0.67721,-1.05326 1.31473,-2.10548 1.91461,-3.14968 0.59988,-1.0442 1.16243,-2.08027 1.68879,-3.1011 0.52635,-1.02084 1.01666,-2.02648 1.47329,-3.00964 0.45663,-0.98315 0.87951,-1.94411 1.27021,-2.87528 0.78139,-1.86232 1.43461,-3.60638 1.97507,-5.17487 0.54047,-1.5685 0.96819,-2.96104 1.29811,-4.1212 0.30487,-1.07206 0.27887,-1.08478 0.42892,-1.71411 z m -18.52962,10.17096 c 0.34433,-0.0334 0.69735,-0.0326 1.05472,0.005 2.85904,0.30245 4.93316,2.86733 4.63072,5.72627 -0.30245,2.85904 -2.86775,4.93317 -5.72678,4.63072 -2.85895,-0.30244 -4.93266,-2.86774 -4.63021,-5.72678 0.26463,-2.50157 2.26121,-4.4019 4.67155,-4.63538 z"
         style="enable-background:new;font-style:normal;font-variant:normal;font-weight:normal;font-stretch:normal;font-size:10.58333397px;line-height:1.25;font-family:'Source Sans Pro';-inkscape-font-specification:'Source Sans Pro, Normal';font-variant-ligatures:normal;font-variant-caps:normal;font-variant-numeric:normal;font-feature-settings:normal;text-align:start;letter-spacing:0px;word-spacing:0px;writing-mode:lr-tb;text-anchor:start;fill:#e7deb8;fill-opacity:1;stroke:none;stroke-width:2.43011284"
         inkscape:connector-curvature="0" />
      <path
         id="path1000"
         d="m 175.76363,551.94016 c -0.15005,0.62933 -0.12405,0.64205 -0.42892,1.71411 -0.32992,1.16016 -0.75764,2.5527 -1.29811,4.1212 -0.54046,1.56849 -1.19368,3.31255 -1.97507,5.17487 -0.3907,0.93117 -0.81358,1.89213 -1.27021,2.87528 -0.45663,0.98316 -0.94694,1.9888 -1.47329,3.00964 -0.52636,1.02083 -1.08891,2.0569 -1.68879,3.1011 -0.59988,1.0442 -1.2374,2.09642 -1.91461,3.14968 -0.67721,1.05326 -1.39399,2.10736 -2.15232,3.15536 -0.75834,1.048 -1.55815,2.08973 -2.40141,3.11816 -0.84326,1.02843 -1.72987,2.0435 -2.66185,3.03806 -0.93198,0.99455 -1.90917,1.9687 -2.93367,2.91506 -2.049,1.89272 -3.90284,3.56379 -5.57796,5.03949 -1.67512,1.4757 -3.17181,2.7562 -4.5067,3.86643 -1.33489,1.11024 -2.50792,2.05054 -3.53622,2.84686 -1.0283,0.79631 -1.91167,1.44835 -2.66702,1.9823 -0.75535,0.53396 -1.38255,0.94965 -1.89859,1.27279 -0.51605,0.32314 -0.92106,0.55391 -1.23145,0.71779 -0.62078,0.32775 -0.86403,0.38861 -0.86403,0.38861 l -3.47266,19.3089 -18.4304,9.62628 1.16169,1.43661 c 0.34301,0.36324 0.75768,0.57138 1.18907,0.61701 0.32333,0.0342 0.5998,0.008 0.88625,-0.12402 l 21.99194,-9.8919 c 0.52012,-0.27193 0.90036,-0.77782 1.01131,-1.31155 l 3.24167,-20.33003 c 4.17233,-2.83146 8.06939,-5.63708 11.52332,-8.38088 14.1425,-11.48592 20.36613,-22.88238 22.26066,-40.79131 l -5.3e-4,-10e-4 c 0.0729,-0.68938 -0.31176,-1.30259 -0.88212,-1.64486 z"
         style="enable-background:new;font-style:normal;font-variant:normal;font-weight:normal;font-stretch:normal;font-size:10.58333397px;line-height:1.25;font-family:'Source Sans Pro';-inkscape-font-specification:'Source Sans Pro, Normal';font-variant-ligatures:normal;font-variant-caps:normal;font-variant-numeric:normal;font-feature-settings:normal;text-align:start;letter-spacing:0px;word-spacing:0px;writing-mode:lr-tb;text-anchor:start;fill:#d8b754;fill-opacity:1;stroke:none;stroke-width:2.43011284"
         inkscape:connector-curvature="0" />
    </g>
  </g>
</svg>
