<?xml version="1.0" encoding="UTF-8"?>
<svg width="87.898" height="64.956" version="1.0" viewBox="0 0 65.923 48.717" xmlns="http://www.w3.org/2000/svg" xmlns:cc="http://creativecommons.org/ns#" xmlns:dc="http://purl.org/dc/elements/1.1/" xmlns:rdf="http://www.w3.org/1999/02/22-rdf-syntax-ns#">
 <metadata>
  <rdf:RDF>
   <cc:Work rdf:about="">
    <dc:format>image/svg+xml</dc:format>
    <dc:type rdf:resource="http://purl.org/dc/dcmitype/StillImage"/>
   </cc:Work>
  </rdf:RDF>
 </metadata>
 <g transform="rotate(45 34.506 45.528)" fill="#0a8451">
  <g>
   <path d="m30.352 1.2059a22.5 22.5 0 0 0-27.557 15.91 22.5 22.5 0 0 0 15.91 27.557 22.5 22.5 0 0 0 27.557-15.91 22.5 22.5 0 0 0-15.91-27.557zm-1.1309 4.2207a18.13 18.13 45 0 1 12.82 22.205 18.13 18.13 45 0 1-22.205 12.82 18.13 18.13 45 0 1-12.82-22.205 18.13 18.13 45 0 1 22.205-12.82z" stop-color="#000000" style="-inkscape-stroke:none;font-variation-settings:normal;paint-order:stroke fill markers"/>
   <path d="m15.313 38.524-8.6108 27.999s2.6495 2.0172 4.1373 2.4158c1.4878 0.39865 4.7895-0.0239 4.7895-0.0239l6.4202-28.019a18.13 18.13 45 0 1-2.2133-0.44444 18.13 18.13 45 0 1-4.5229-1.9277z" stop-color="#000000" style="paint-order:stroke fill markers"/>
   <path d="m41.9 18.745a21.043 21.043 0 0 1-0.49079 2.392 21.043 21.043 0 0 1-25.773 14.88 21.043 21.043 0 0 1-3.7832-1.4565 18.13 18.13 45 0 0 7.3746 4.0021 18.13 18.13 45 0 0 22.205-12.822 18.13 18.13 45 0 0 0.46734-6.9963z" stop-color="#000000" style="-inkscape-stroke:none;font-variation-settings:normal;paint-order:stroke fill markers"/>
  </g>
  <g stroke-width=".75">
   <path d="m15.769 26.913 0.93938 4.845 1.9528-1.9528zm-1.7631-1.1708 1.9806-1.9806 4.3591 4.3591 0.98566-0.98566 1.2911 1.2911-0.98566 0.98566 1.2587 1.2587-1.6844 1.6844-1.2587-1.2587-3.0634 3.0634-1.5271-1.5271z"/>
   <path d="m25.214 21.429q-1.2957-1.2957-2.0685-1.578-0.77279-0.29153-1.3466 0.28228-0.57381 0.57381-0.28691 1.3512 0.28228 0.7728 1.578 2.0685 1.3096 1.3096 2.0916 1.6011 0.78205 0.29153 1.3559-0.28228 0.56918-0.56918 0.27765-1.3512-0.29153-0.78205-1.6011-2.0916zm1.7955-1.7677q1.7168 1.7168 1.9112 3.392 0.18973 1.6705-1.1708 3.031-1.3651 1.3651-3.0356 1.1754-1.6752-0.19436-3.392-1.9112-1.7214-1.7214-1.9112-3.392-0.19436-1.6752 1.1708-3.0403 1.3605-1.3605 3.0356-1.1661 1.6705 0.18973 3.392 1.9112z"/>
   <path d="m28.958 13.725 0.93938 4.845 1.9528-1.9528zm-1.7631-1.1708 1.9806-1.9806 4.3591 4.3591 0.98566-0.98566 1.2911 1.2911-0.98566 0.98566 1.2587 1.2587-1.6844 1.6844-1.2587-1.2587-3.0634 3.0634-1.5271-1.5271z"/>
  </g>
 </g>
</svg>
