<?xml version="1.0" encoding="UTF-8" standalone="no"?>
<!-- Created with Inkscape (http://www.inkscape.org/) -->

<svg
   xmlns:dc="http://purl.org/dc/elements/1.1/"
   xmlns:cc="http://creativecommons.org/ns#"
   xmlns:rdf="http://www.w3.org/1999/02/22-rdf-syntax-ns#"
   xmlns:svg="http://www.w3.org/2000/svg"
   xmlns="http://www.w3.org/2000/svg"
   xmlns:sodipodi="http://sodipodi.sourceforge.net/DTD/sodipodi-0.dtd"
   xmlns:inkscape="http://www.inkscape.org/namespaces/inkscape"
   width="1244.4448"
   height="700"
   viewBox="0 0 329.25939 185.20834"
   version="1.1"
   id="svg8"
   inkscape:version="0.92.4 5da689c313, 2019-01-14"
   sodipodi:docname="cover.svg"
   style="enable-background:new"
   inkscape:export-filename="/home/hervyqa/hervyqa-gl/hervyqa/hervyqa-blog/static/post/hal-hal-yang-perlu-diketahui-tentang-inkscape/cover.png"
   inkscape:export-xdpi="96"
   inkscape:export-ydpi="96">
  <defs
     id="defs2" />
  <sodipodi:namedview
     id="base"
     pagecolor="#ffffff"
     bordercolor="#666666"
     borderopacity="1.0"
     inkscape:pageopacity="0.0"
     inkscape:pageshadow="2"
     inkscape:zoom="0.95232103"
     inkscape:cx="636.22279"
     inkscape:cy="228.10568"
     inkscape:document-units="px"
     inkscape:current-layer="layer2"
     showgrid="false"
     units="px"
     borderlayer="true"
     inkscape:pagecheckerboard="true"
     inkscape:window-width="1346"
     inkscape:window-height="724"
     inkscape:window-x="6"
     inkscape:window-y="30"
     inkscape:window-maximized="1"
     inkscape:snap-global="false"
     showguides="true"
     inkscape:guide-bbox="true">
    <inkscape:grid
       type="xygrid"
       id="grid815"
       dotted="false"
       originx="43.500009"
       originy="-43.499907" />
    <sodipodi:guide
       position="72.02551,185.20835"
       orientation="1,0"
       id="guide851"
       inkscape:locked="false" />
    <sodipodi:guide
       position="257.23387,185.20835"
       orientation="1,0"
       id="guide853"
       inkscape:locked="false" />
  </sodipodi:namedview>
  <metadata
     id="metadata5">
    <rdf:RDF>
      <cc:Work
         rdf:about="">
        <dc:format>image/svg+xml</dc:format>
        <dc:type
           rdf:resource="http://purl.org/dc/dcmitype/StillImage" />
        <dc:title />
        <dc:date />
        <dc:creator>
          <cc:Agent>
            <dc:title />
          </cc:Agent>
        </dc:creator>
        <dc:subject>
          <rdf:Bag />
        </dc:subject>
        <dc:description />
        <cc:license
           rdf:resource="" />
      </cc:Work>
    </rdf:RDF>
  </metadata>
  <g
     inkscape:label="background"
     inkscape:groupmode="layer"
     id="layer1"
     transform="translate(43.500005,-68.291685)">
    <path
       style="opacity:1;vector-effect:none;fill:#84c3c9;fill-opacity:1;fill-rule:nonzero;stroke:none;stroke-width:0.46654263;stroke-linecap:butt;stroke-linejoin:miter;stroke-miterlimit:4;stroke-dasharray:none;stroke-dashoffset:0;stroke-opacity:1;paint-order:stroke fill markers"
       d="M 285.75935,68.291683 V 253.50003 H -43.500004 V 68.291683 Z"
       id="rect818"
       inkscape:connector-curvature="0" />
  </g>
  <g
     inkscape:groupmode="layer"
     id="layer2"
     inkscape:label="artwork"
     transform="translate(43.500005,-512.12502)">
    <text
       xml:space="preserve"
       style="font-style:normal;font-variant:normal;font-weight:bold;font-stretch:normal;font-size:17.92033768px;line-height:1.25;font-family:Inter;-inkscape-font-specification:'Inter, Bold';font-variant-ligatures:normal;font-variant-position:normal;font-variant-caps:normal;font-variant-numeric:normal;font-variant-alternates:normal;font-feature-settings:normal;text-indent:0;text-align:center;text-decoration:none;text-decoration-line:none;text-decoration-style:solid;text-decoration-color:#000000;letter-spacing:0px;word-spacing:0px;text-transform:none;writing-mode:lr-tb;direction:ltr;text-orientation:mixed;dominant-baseline:auto;baseline-shift:baseline;text-anchor:middle;white-space:normal;shape-padding:0;opacity:1;vector-effect:none;fill:#ffffff;fill-opacity:1;stroke:none;stroke-width:0.26458335;stroke-linecap:butt;stroke-linejoin:miter;stroke-miterlimit:4;stroke-dasharray:none;stroke-dashoffset:0;stroke-opacity:1"
       x="119.39702"
       y="647.90332"
       id="text197"><tspan
         sodipodi:role="line"
         x="119.39702"
         y="664.552"
         style="font-style:normal;font-variant:normal;font-weight:bold;font-stretch:normal;font-size:17.92033768px;line-height:1.25;font-family:Inter;-inkscape-font-specification:'Inter, Bold';font-variant-ligatures:normal;font-variant-position:normal;font-variant-caps:normal;font-variant-numeric:normal;font-variant-alternates:normal;font-feature-settings:normal;text-indent:0;text-align:center;text-decoration:none;text-decoration-line:none;text-decoration-style:solid;text-decoration-color:#000000;letter-spacing:0px;word-spacing:0px;text-transform:none;writing-mode:lr-tb;direction:ltr;text-orientation:mixed;dominant-baseline:auto;baseline-shift:baseline;text-anchor:middle;white-space:normal;shape-padding:0;vector-effect:none;fill:#ffffff;fill-opacity:1;stroke:none;stroke-width:0.26458335;stroke-linecap:butt;stroke-linejoin:miter;stroke-miterlimit:4;stroke-dasharray:none;stroke-dashoffset:0;stroke-opacity:1"
         id="tspan199" /></text>
    <g
       id="g995"
       transform="matrix(0.90389901,0,0,0.9036886,11.130205,47.926878)"
       style="stroke-width:1.1064471">
      <path
         inkscape:connector-curvature="0"
         id="path980"
         d="m 79.605151,540.10772 c -2.563776,0.004 -5.181566,0.3821 -7.787122,1.13584 -10.331009,2.98901 -18.521316,10.74939 -23.61975,19.97966 -5.098444,9.23032 -7.304133,20.29041 -4.320667,30.61519 4.013904,13.89077 18.039142,21.65625 31.993916,17.61908 3.818398,-1.10468 7.262181,-2.90572 10.356475,-5.09529 2.108764,1.48113 4.41619,2.47736 6.621301,3.51244 0.259893,0.122 0.477999,0.23076 0.736389,0.35192 -0.28466,0.11816 -0.561975,0.21962 -0.857311,0.3638 -1.060204,0.51758 -2.461326,1.21698 -3.528468,3.24218 -1.067144,2.0252 -0.60915,5.06777 0.369486,6.60373 a 5.2921962,5.2921962 0 0 0 0.001,0.002 c 1.614593,2.53177 3.438787,3.5915 5.52576,4.96714 1.151363,0.75893 2.385822,1.50658 3.643191,2.24689 -1.088398,0.43011 -2.162913,1.00914 -3.20084,1.95182 -1.296828,1.17782 -2.490107,3.16644 -2.588471,5.37797 -0.09837,2.21153 0.793295,4.18273 1.939417,5.68957 a 5.2921962,5.2921962 0 0 0 0.0026,0.004 c 2.460678,3.22965 6.614473,4.09087 9.917743,3.56774 0.0323,0.0537 0.0572,0.11851 0.0904,0.17053 2.82159,4.42441 6.89493,4.8957 8.49767,5.65185 0.80137,0.37808 1.03142,0.621 1.05678,0.65474 0.0254,0.0337 0.16882,0.0182 0.1416,1.10949 -0.0868,3.46181 2.44818,6.66925 4.89841,7.96851 2.45084,1.29959 4.93839,1.66429 7.50652,1.77922 5.13626,0.22986 10.61528,-0.73778 15.18305,-2.80758 a 5.2921962,5.2921962 0 0 0 0.76274,-0.42478 c 1.00923,-0.67659 2.14711,-1.62454 2.84944,-3.33675 0.70234,-1.7122 0.4317,-3.93634 -0.18397,-5.20278 -0.0697,-0.14341 -0.13893,-0.21888 -0.20877,-0.34933 1.73284,-0.45198 3.35326,-0.41981 5.42654,-0.46561 0.911,-0.0201 1.93176,-0.0376 3.04013,-0.1757 0.21353,1.10947 0.61843,2.16015 1.20044,3.01945 2.50648,3.70072 7.19033,4.9107 11.513,3.45302 a 5.2921962,5.2921962 0 0 0 1.23816,-0.60719 c 1.94761,-1.2944 2.64125,-3.15535 2.85564,-4.68964 0.0338,-0.2417 0.0372,-0.47649 0.0491,-0.71313 1.58548,0.30883 3.1947,0.52939 4.92011,0.42478 1.13507,-0.0688 2.35539,-0.22131 3.79615,-0.95033 1.44076,-0.72903 3.17778,-2.5077 3.62303,-4.63486 a 5.2921962,5.2921962 0 0 0 0.0703,-1.75028 c -0.44557,-3.51263 -2.62729,-6.34326 -5.10408,-7.98918 -2.47679,-1.64592 -5.28558,-2.39242 -8.1442,-2.3673 -2.25254,0.0198 -4.70255,0.64412 -6.81354,1.96629 -0.16544,-0.23723 -0.32431,-0.50953 -0.49041,-0.71985 -0.39394,-0.49883 -0.7943,-0.93795 -1.19424,-1.34876 0.9153,-0.11395 1.70977,-0.2348 2.68769,-0.3421 4.37275,-0.47982 9.27206,-0.97978 13.81621,-2.08101 4.54415,-1.10124 9.16422,-2.59394 12.07937,-7.01301 1.45757,-2.20953 2.09104,-5.15298 1.70532,-7.92716 -0.38572,-2.77417 -1.57332,-5.40552 -3.36982,-8.15558 l 0.0315,0.0486 -30.30254,-47.51338 a 5.2921962,5.2921962 0 0 0 -0.0915,-0.1385 c -3.55289,-5.20411 -9.4393,-7.94606 -15.35565,-7.80572 -3.09851,0.0735 -6.25972,0.96941 -9.01857,2.81998 l -28.54813,19.14457 c 0.27673,-3.97912 -0.049,-8.05862 -1.21233,-12.08453 -3.27435,-11.3314 -13.098275,-18.76975 -24.206275,-18.75235 z"
         style="color:#000000;font-style:normal;font-variant:normal;font-weight:normal;font-stretch:normal;font-size:93.56223297px;line-height:1.25;font-family:'Source Sans Pro';-inkscape-font-specification:'Source Sans Pro, Normal';font-variant-ligatures:normal;font-variant-position:normal;font-variant-caps:normal;font-variant-numeric:normal;font-variant-alternates:normal;font-feature-settings:normal;text-indent:0;text-align:start;text-decoration:none;text-decoration-line:none;text-decoration-style:solid;text-decoration-color:#000000;letter-spacing:0px;word-spacing:0px;text-transform:none;writing-mode:lr-tb;direction:ltr;text-orientation:mixed;dominant-baseline:auto;baseline-shift:baseline;text-anchor:start;white-space:normal;shape-padding:0;clip-rule:nonzero;display:inline;overflow:visible;visibility:visible;opacity:1;isolation:auto;mix-blend-mode:normal;color-interpolation:sRGB;color-interpolation-filters:linearRGB;solid-color:#000000;solid-opacity:1;vector-effect:none;fill:none;fill-opacity:1;fill-rule:nonzero;stroke:#ffffff;stroke-width:0.96606684;stroke-linecap:round;stroke-linejoin:bevel;stroke-miterlimit:4;stroke-dasharray:0.96606672, 2.89820014;stroke-dashoffset:0;stroke-opacity:1;color-rendering:auto;image-rendering:auto;shape-rendering:auto;text-rendering:auto;enable-background:accumulate" />
      <g
         transform="matrix(0.2768893,0.05802776,-0.05799392,0.27705531,92.95915,539.01715)"
         id="inkscape-logo"
         style="stroke-width:1.03450847;enable-background:new">
        <path
           style="fill:#333333;stroke-width:1.03450847"
           inkscape:connector-curvature="0"
           d="M 163.15,27.83 28.81,165.3 C -16.58,221.51 59.7,214.97 92.4,231.16 104.13,243.15 47.44,252 59.17,264 c 11.73,11.99 70.93,23.1 82.68,35.09 11.73,11.99 -24.01,24.71 -12.28,36.7 11.73,11.99 38.86,0.63 43.94,28.31 3.62,19.78 48.89,8.5 71.03,-7.7 11.73,-12 -22.44,-10.87 -10.71,-22.86 29.17,-29.83 56.33,-10.84 66.31,-40.73 4.93,-14.77 -42.94,-22.77 -31.19,-34.76 33.75,-19.71 150.4,-32.54 95.05,-87.89 L 224.75,27.83 c -17.03,-16.35 -45.45,-16.53 -61.6,0 z m 154.31,264.98 c 0,6.82 50.25,11.29 50.25,-1.61 -7.16,-20.72 -44.31,-19.32 -50.25,1.61 z M 91.1,329.05 c 11.9,10.29 30.28,-2.56 35.79,-16.92 -11.53,-15.32 -54.69,0.55 -35.79,16.92 z m 220.06,-22.23 c -15.34,13.76 1.72,27.72 16.84,18.83 3.37,-3.42 -0.09,-15.41 -16.84,-18.83 z"
           id="path152" />
        <path
           style="fill:#ffffff;stroke-width:1.03450847"
           inkscape:connector-curvature="0"
           d="m 131,238.6 c 3.59,2.23 57.89,13.26 71.16,15.46 4.6,0.97 1.34,5.71 -5,8.91 -14.3,3.8 -83.66,-24.37 -66.16,-24.37 z"
           id="path154" />
        <path
           style="fill:#ffffff;stroke-width:1.03450847"
           inkscape:connector-curvature="0"
           d="m 216.63,37.47 53.15,53.98 c 5.04,5.15 4.97,15.13 2.15,18 L 245.54,88.34 240.35,119.6 218.3,107.96 182.99,130.27 171.3,83.24 152.33,116.06 h -29 c -11.82,0 -13.21,-15 -2.47,-25.74 18.76,-20.25 40.29,-40.89 51.99,-52.85 11.76,-12.02 32.25,-11.68 43.78,0 z"
           id="path156" />
      </g>
      <text
         transform="matrix(0.96129251,-0.27810579,0.27740675,0.9600112,0,0)"
         id="text832"
         y="620.39728"
         x="-134.15854"
         style="font-style:normal;font-variant:normal;font-weight:normal;font-stretch:normal;font-size:93.56223297px;line-height:1.25;font-family:'Source Sans Pro';-inkscape-font-specification:'Source Sans Pro, Normal';font-variant-ligatures:normal;font-variant-caps:normal;font-variant-numeric:normal;font-feature-settings:normal;text-align:start;letter-spacing:0px;word-spacing:0px;writing-mode:lr-tb;text-anchor:start;fill:#d4f342;fill-opacity:1;stroke:#ffffff;stroke-width:2.92747474;stroke-linecap:round;stroke-linejoin:round;stroke-miterlimit:4;stroke-dasharray:none"
         xml:space="preserve"><tspan
           style="fill:#d4f342;fill-opacity:1;stroke:#ffffff;stroke-width:2.92747474;stroke-linecap:round;stroke-linejoin:round;stroke-miterlimit:4;stroke-dasharray:none"
           y="620.39728"
           x="-134.15854"
           id="tspan830"
           sodipodi:role="line"> </tspan></text>
    </g>
    <text
       xml:space="preserve"
       style="font-style:normal;font-variant:normal;font-weight:bold;font-stretch:normal;font-size:19.2186985px;line-height:1.25;font-family:Inter;-inkscape-font-specification:'Inter, Bold';font-variant-ligatures:normal;font-variant-caps:normal;font-variant-numeric:normal;font-feature-settings:normal;text-align:center;letter-spacing:0px;word-spacing:0px;writing-mode:lr-tb;text-anchor:middle;fill:#ffffff;fill-opacity:1;stroke:none;stroke-width:0.26458335;enable-background:new"
       x="121.13309"
       y="672.75818"
       id="text197-9"><tspan
         sodipodi:role="line"
         x="121.13308"
         y="672.75818"
         style="font-style:normal;font-variant:normal;font-weight:bold;font-stretch:normal;font-size:19.2186985px;font-family:Inter;-inkscape-font-specification:'Inter, Bold';font-variant-ligatures:normal;font-variant-caps:normal;font-variant-numeric:normal;font-feature-settings:normal;text-align:center;writing-mode:lr-tb;text-anchor:middle;fill:#ffffff;fill-opacity:1;stroke-width:0.26458335"
         id="tspan1299">Dasar Inkscape.</tspan></text>
  </g>
</svg>
