<?xml version="1.0" encoding="UTF-8" standalone="no"?>
<!-- Created with Inkscape (http://www.inkscape.org/) -->

<svg
   xmlns:dc="http://purl.org/dc/elements/1.1/"
   xmlns:cc="http://creativecommons.org/ns#"
   xmlns:rdf="http://www.w3.org/1999/02/22-rdf-syntax-ns#"
   xmlns:svg="http://www.w3.org/2000/svg"
   xmlns="http://www.w3.org/2000/svg"
   xmlns:sodipodi="http://sodipodi.sourceforge.net/DTD/sodipodi-0.dtd"
   xmlns:inkscape="http://www.inkscape.org/namespaces/inkscape"
   width="1244.4448"
   height="700"
   viewBox="0 0 329.25939 185.20834"
   version="1.1"
   id="svg8"
   inkscape:version="0.92.4 5da689c313, 2019-01-14"
   sodipodi:docname="cover.svg"
   style="enable-background:new"
   inkscape:export-filename="/home/hervyqa/hervyqa-gl/hervyqa/hervyqa-blog/static/post/penjelasan-6-lisensi-creative-commons-cc-secara-singkat/cover.png"
   inkscape:export-xdpi="96"
   inkscape:export-ydpi="96">
  <defs
     id="defs2" />
  <sodipodi:namedview
     id="base"
     pagecolor="#ffffff"
     bordercolor="#666666"
     borderopacity="1.0"
     inkscape:pageopacity="0.0"
     inkscape:pageshadow="2"
     inkscape:zoom="0.33669633"
     inkscape:cx="249.85818"
     inkscape:cy="138.7047"
     inkscape:document-units="px"
     inkscape:current-layer="layer2"
     showgrid="false"
     units="px"
     borderlayer="true"
     inkscape:pagecheckerboard="true"
     inkscape:window-width="1346"
     inkscape:window-height="724"
     inkscape:window-x="6"
     inkscape:window-y="30"
     inkscape:window-maximized="1"
     inkscape:snap-global="false"
     showguides="true"
     inkscape:guide-bbox="true">
    <inkscape:grid
       type="xygrid"
       id="grid815"
       dotted="false"
       originx="43.500009"
       originy="-43.499907" />
    <sodipodi:guide
       position="72.02551,185.20835"
       orientation="1,0"
       id="guide851"
       inkscape:locked="false" />
    <sodipodi:guide
       position="257.23387,185.20835"
       orientation="1,0"
       id="guide853"
       inkscape:locked="false" />
  </sodipodi:namedview>
  <metadata
     id="metadata5">
    <rdf:RDF>
      <cc:Work
         rdf:about="">
        <dc:format>image/svg+xml</dc:format>
        <dc:type
           rdf:resource="http://purl.org/dc/dcmitype/StillImage" />
        <dc:title />
        <dc:date />
        <dc:creator>
          <cc:Agent>
            <dc:title />
          </cc:Agent>
        </dc:creator>
        <dc:subject>
          <rdf:Bag />
        </dc:subject>
        <dc:description />
        <cc:license
           rdf:resource="" />
      </cc:Work>
    </rdf:RDF>
  </metadata>
  <g
     inkscape:label="background"
     inkscape:groupmode="layer"
     id="layer1"
     transform="translate(43.500005,-68.291685)">
    <path
       style="opacity:1;vector-effect:none;fill:#9dcc6e;fill-opacity:1;fill-rule:nonzero;stroke:none;stroke-width:0.46654263;stroke-linecap:butt;stroke-linejoin:miter;stroke-miterlimit:4;stroke-dasharray:none;stroke-dashoffset:0;stroke-opacity:1;paint-order:stroke fill markers"
       d="M 285.75935,68.291683 V 253.50003 H -43.500004 V 68.291683 Z"
       id="rect818"
       inkscape:connector-curvature="0" />
  </g>
  <g
     inkscape:groupmode="layer"
     id="layer2"
     inkscape:label="artwork"
     transform="translate(43.500005,-512.12502)">
    <text
       xml:space="preserve"
       style="font-style:normal;font-variant:normal;font-weight:bold;font-stretch:normal;font-size:23.98924301px;line-height:1.25;font-family:Inter;-inkscape-font-specification:'Inter, Bold';font-variant-ligatures:normal;font-variant-caps:normal;font-variant-numeric:normal;font-feature-settings:normal;text-align:center;letter-spacing:0px;word-spacing:0px;writing-mode:lr;text-anchor:middle;fill:#ffffff;fill-opacity:1;stroke:none;stroke-width:0.26458335;"
       x="119.39163"
       y="645.79883"
       id="text197"><tspan
         sodipodi:role="line"
         x="119.39163"
         y="645.79883"
         style="font-style:normal;font-variant:normal;font-weight:bold;font-stretch:normal;font-size:23.98924301px;font-family:Inter;-inkscape-font-specification:'Inter, Bold';font-variant-ligatures:normal;font-variant-caps:normal;font-variant-numeric:normal;font-feature-settings:normal;text-align:center;writing-mode:lr;text-anchor:middle;fill:#ffffff;fill-opacity:1;stroke-width:0.26458335;"
         id="tspan199">Lisensi CC</tspan><tspan
         sodipodi:role="line"
         x="119.39163"
         y="675.7854"
         style="font-style:normal;font-variant:normal;font-weight:bold;font-stretch:normal;font-size:23.98924301px;font-family:Inter;-inkscape-font-specification:'Inter, Bold';font-variant-ligatures:normal;font-variant-caps:normal;font-variant-numeric:normal;font-feature-settings:normal;text-align:center;writing-mode:lr;text-anchor:middle;fill:#ffffff;fill-opacity:1;stroke-width:0.26458335;"
         id="tspan1299">???</tspan></text>
    <path
       style="color:#000000;font-style:normal;font-variant:normal;font-weight:normal;font-stretch:normal;font-size:medium;line-height:normal;font-family:sans-serif;font-variant-ligatures:normal;font-variant-position:normal;font-variant-caps:normal;font-variant-numeric:normal;font-variant-alternates:normal;font-feature-settings:normal;text-indent:0;text-align:start;text-decoration:none;text-decoration-line:none;text-decoration-style:solid;text-decoration-color:#000000;letter-spacing:normal;word-spacing:normal;text-transform:none;writing-mode:lr-tb;direction:ltr;text-orientation:mixed;dominant-baseline:auto;baseline-shift:baseline;text-anchor:start;white-space:normal;shape-padding:0;clip-rule:nonzero;display:inline;overflow:visible;visibility:visible;opacity:1;isolation:auto;mix-blend-mode:normal;color-interpolation:sRGB;color-interpolation-filters:linearRGB;solid-color:#000000;solid-opacity:1;vector-effect:none;fill:none;fill-opacity:1;fill-rule:nonzero;stroke:#ffffff;stroke-width:3.30000032;stroke-linecap:round;stroke-linejoin:bevel;stroke-miterlimit:4;stroke-dasharray:3.30000024,9.90000062;stroke-dashoffset:0;stroke-opacity:1;color-rendering:auto;image-rendering:auto;shape-rendering:auto;text-rendering:auto;enable-background:accumulate;font-variant-east_asian:normal"
       d="M 509.86133 73.078125 C 509.19723 73.077407 508.77428 73.08997 508.60156 73.09375 L 508.59961 73.09375 C 508.49858 73.095035 508.154 73.091964 507.56445 73.107422 L 507.5625 73.107422 C 506.68582 73.130099 505.76263 73.159221 504.78906 73.212891 C 504.2448 73.243127 504.11728 73.255855 504.55078 73.232422 L 504.5332 73.232422 C 503.69905 73.2808 502.88069 73.340991 502.08008 73.410156 C 501.5072 73.459668 501.15877 73.500002 501.04297 73.511719 L 501.04102 73.511719 C 500.57323 73.557829 500.01225 73.613548 499.35742 73.691406 C 498.86613 73.749989 498.48104 73.802804 498.20312 73.839844 L 498.19922 73.839844 C 497.71073 73.90523 497.20781 73.976451 496.69336 74.054688 C 496.28394 74.11705 495.83606 74.187138 495.34961 74.269531 L 495.3457 74.271484 C 494.78827 74.365973 494.33935 74.451373 493.99609 74.515625 L 493.99805 74.513672 C 493.74822 74.560538 493.311 74.639074 492.68555 74.767578 L 492.68164 74.767578 C 492.03401 74.900617 491.63216 74.9961 491.47461 75.03125 C 490.4038 75.268604 489.28399 75.536917 488.11719 75.851562 L 488.11328 75.853516 C 488.25157 75.81572 488.07382 75.857322 487.58203 75.994141 C 486.93628 76.17329 486.47417 76.316523 486.19336 76.400391 L 486.18945 76.402344 C 485.95992 76.470753 485.54574 76.589123 484.95312 76.777344 C 484.30181 76.984462 483.80329 77.157722 483.45312 77.277344 L 483.44922 77.277344 C 483.16836 77.373344 482.85073 77.483517 482.49805 77.609375 L 482.50195 77.609375 C 481.9781 77.796462 481.43022 77.997169 480.85938 78.216797 L 480.85742 78.216797 C 480.49837 78.355128 480.20301 78.47343 479.9707 78.566406 C 479.5281 78.743666 479.0223 78.949176 478.45508 79.191406 L 478.45312 79.191406 C 477.94436 79.408729 477.58533 79.573065 477.37305 79.667969 C 477.0598 79.807811 476.57496 80.020207 475.92578 80.328125 L 475.92383 80.330078 C 475.32957 80.612031 475.24687 80.656022 475.67383 80.451172 C 474.29373 81.112665 472.93447 81.821892 471.5957 82.576172 L 471.58789 82.578125 C 472.19058 82.238345 472.1343 82.265512 471.42188 82.669922 C 470.72663 83.064316 470.19346 83.389232 469.8125 83.619141 L 469.81055 83.621094 C 469.76342 83.65133 469.49613 83.803294 469.01953 84.099609 C 468.45088 84.453373 467.96503 84.769166 467.55469 85.039062 L 467.55273 85.041016 C 467.28745 85.21563 467.02272 85.392511 466.75781 85.572266 C 466.29169 85.888234 465.79677 86.231711 465.27539 86.605469 L 465.27344 86.605469 C 464.88611 86.883264 464.67441 87.044197 464.63086 87.076172 C 464.25389 87.353211 463.7412 87.72755 463.10742 88.220703 C 462.678 88.554813 462.50695 88.697872 462.58398 88.636719 C 462.43333 88.756152 462.0952 89.034714 461.85547 89.226562 L 428.3125 113.66602 L 428.75977 113.55664 L 428.59375 113.65625 C 428.12289 113.94916 427.61695 114.27185 427.08398 114.62305 C 427.0014 114.67747 427.09079 114.62456 427.01172 114.67773 L 426.9668 114.70117 C 426.46171 115.03528 426.1607 115.24885 426.05078 115.32422 C 426.05834 115.32044 425.87304 115.4474 425.83203 115.47461 L 425.82031 115.48242 C 425.72053 115.54894 425.66682 115.5805 425.31836 115.82617 L 425.21484 116.02734 C 425.28106 115.9733 424.98932 116.20456 425.07617 116.13086 C 425.10414 116.10818 425.17552 116.06716 425.20508 116.04297 L 425.07812 116.29102 C 418.56332 120.90695 412.71147 126.60351 407.94727 133.42578 C 396.16253 150.30133 390.55078 172.46856 390.55078 199.14258 C 390.55078 286.29345 445.97534 358.21502 510.72461 392.91406 C 543.90574 410.69576 578.887 416.15115 606.47656 398.83203 L 607.65625 398.03125 L 648.05469 368.45898 L 650.85547 355.20312 C 668.06275 373.03013 687.66646 387.83226 708.23242 398.85352 C 741.41418 416.63555 776.39556 422.09011 803.98438 404.77148 L 805.16602 403.96875 L 845.5625 374.39648 L 851.07812 348.27734 L 819.25391 293.03125 L 792.48242 285.38281 C 788.90672 287.29763 784.74557 288.6449 776.22852 285.73633 L 776.22461 285.73633 C 774.26099 285.06565 772.07103 284.12648 769.64453 282.82617 C 767.55634 281.70709 765.52172 280.45793 763.54688 279.08203 L 763.54492 279.08203 C 763.54492 279.08203 763.54297 279.08008 763.54297 279.08008 C 762.23238 278.16687 760.94463 277.19533 759.68359 276.16602 L 759.68164 276.16602 L 759.67969 276.16406 C 757.79544 274.62583 755.97425 272.96066 754.2207 271.16992 C 753.64387 270.58077 753.06715 269.96925 752.49414 269.33984 C 751.35654 268.09033 750.25425 266.78908 749.19141 265.43945 L 749.17578 265.42383 C 749.35606 265.65249 749.25313 265.50961 748.81055 264.9375 L 748.8125 264.9375 C 748.31901 264.2997 747.91936 263.77803 747.61719 263.36523 C 746.58455 261.9546 745.592 260.49723 744.64258 258.99219 C 744.64258 258.99219 744.64062 258.99023 744.64062 258.99023 L 744.64062 258.98828 C 744.15129 258.2125 743.68422 257.44354 743.24023 256.68359 C 742.77868 255.89348 742.33169 255.10198 741.9043 254.31055 L 741.90234 254.29883 C 738.83632 248.61979 736.41131 242.21641 734.5293 235.35547 C 735.82307 236.96642 737.11103 238.54382 738.42578 240.30273 C 739.72677 242.04324 741.0422 243.85628 742.37891 245.74219 L 758.69531 254.17773 L 758.69727 254.17773 L 770.5293 250.30273 L 770.30469 250.4668 L 801.83789 228.82617 L 802.33984 228.46875 L 802.50781 228.49805 L 842.9043 198.92578 L 847.84961 171.87695 C 830.17125 144.7246 803.76531 115.04173 769.10742 96.46875 C 757.95377 90.491314 746.74642 85.922661 735.59961 82.947266 L 735.1543 82.855469 C 733.6686 82.463305 732.23075 82.110514 730.86914 81.800781 L 730.86719 81.800781 C 730.69295 81.761096 730.37905 81.688048 729.92188 81.587891 C 728.46249 81.268143 727.02046 80.981315 725.59766 80.724609 L 725.5957 80.724609 C 725.12341 80.63957 724.78861 80.585994 724.5957 80.552734 C 723.20363 80.314246 721.73141 80.079536 720.17383 79.876953 L 720.17188 79.876953 C 719.25337 79.75752 718.32243 79.648293 717.37891 79.550781 L 717.37695 79.550781 C 716.78841 79.489931 716.51238 79.468499 716.55664 79.472656 L 716.55469 79.472656 C 715.97245 79.417097 715.32423 79.35716 714.60938 79.302734 L 714.60742 79.302734 C 714.13918 79.268719 713.78148 79.24439 713.5332 79.228516 L 713.53125 79.228516 C 712.93495 79.189586 712.33727 79.156875 711.74219 79.128906 L 711.74023 79.128906 C 711.38496 79.113788 711.03074 79.094945 710.67773 79.083984 L 710.67578 79.083984 C 710.09063 79.061307 709.50961 79.04618 708.93164 79.037109 L 708.92383 79.037109 C 708.62638 79.03333 708.26817 79.027217 707.84766 79.023438 L 707.8457 79.023438 C 707.1615 79.019658 706.5469 79.024283 706.00586 79.033203 C 706.00964 79.033165 705.70085 79.030597 705.07617 79.044922 L 705.06836 79.044922 C 704.2575 79.06382 703.55677 79.095078 702.96875 79.123047 C 702.41596 79.149504 701.91491 79.18026 701.46484 79.208984 L 701.46094 79.208984 C 700.98498 79.239221 700.35963 79.278428 699.58203 79.345703 C 699.04213 79.392191 698.70142 79.430131 698.56445 79.443359 L 698.56055 79.443359 C 698.04339 79.494383 697.47935 79.554386 696.86914 79.626953 L 696.87305 79.625 C 696.37759 79.683961 695.97077 79.738919 695.65234 79.78125 L 695.64844 79.783203 C 695.1396 79.851613 694.64951 79.921952 694.17578 79.994141 C 693.85868 80.042519 693.44408 80.104477 692.92969 80.191406 L 692.92578 80.193359 C 692.35564 80.289737 691.86551 80.379173 691.45312 80.457031 C 691.14547 80.514858 690.72305 80.594716 690.18359 80.705078 L 690.18164 80.705078 C 689.53685 80.837362 689.06283 80.94646 688.75586 81.015625 C 688.14426 81.1532 687.48366 81.307783 686.77734 81.486328 L 686.77344 81.488281 C 686.39344 81.584281 685.82905 81.722229 685.08203 81.929688 C 684.32533 82.139829 683.78865 82.307692 683.46875 82.404297 L 683.4668 82.40625 C 683.36324 82.436486 683.0536 82.525358 682.54102 82.6875 C 681.89955 82.890461 681.37751 83.069494 680.97461 83.207031 L 680.9707 83.207031 C 680.69631 83.300764 680.34621 83.421148 679.91992 83.574219 C 679.3951 83.762439 678.90497 83.945761 678.44727 84.121094 L 678.43945 84.123047 C 678.06717 84.265913 677.73789 84.396708 677.45117 84.511719 C 676.98837 84.696916 676.46197 84.911628 675.87305 85.164062 L 675.86523 85.166016 C 675.48422 85.329291 675.23642 85.442361 675.11914 85.494141 C 673.26294 86.315319 671.45103 87.212633 669.6875 88.183594 L 669.68555 88.185547 C 669.71956 88.166649 669.43836 88.311428 668.85938 88.640625 C 668.17434 89.030105 667.67779 89.335105 667.35547 89.529297 C 667.26967 89.581076 666.98585 89.745091 666.51367 90.039062 C 665.98956 90.365236 665.51012 90.675117 665.07227 90.962891 L 665.07031 90.964844 C 664.74149 91.181033 664.46484 91.368401 664.23633 91.523438 C 663.79892 91.82013 663.32523 92.147007 662.81836 92.509766 C 662.45363 92.770931 662.2099 92.953282 662.08008 93.048828 C 661.70553 93.324356 661.18759 93.701884 660.54492 94.203125 C 660.12025 94.53459 659.97072 94.654768 660.44531 94.283203 L 660.44336 94.285156 C 660.16367 94.504369 659.73695 94.857063 659.36523 95.15625 L 626.37891 119.18945 L 626.92188 119.0957 C 626.84288 119.14295 626.77386 119.18367 626.69336 119.23242 L 626.0918 119.5918 C 625.59494 119.90058 625.09207 120.22369 624.58398 120.55859 C 624.50121 120.61302 624.59147 120.56007 624.51172 120.61328 L 624.4668 120.63672 C 623.94269 120.9833 623.65916 121.18718 623.60156 121.22656 C 623.59895 121.22838 623.40038 121.36499 623.3418 121.4043 C 623.22312 121.48367 623.15886 121.52367 622.81836 121.76367 L 622.7168 121.95898 C 622.78369 121.90418 622.48773 122.13967 622.57617 122.06445 C 622.60641 122.04178 622.67875 121.99993 622.70898 121.97461 L 622.45312 122.46875 C 620.9135 123.5729 619.39166 124.70675 617.93359 125.93555 C 604.62879 112.48742 589.26788 100.00275 571.59375 90.53125 C 560.4401 84.553852 549.23269 79.985199 538.08594 77.009766 L 537.60742 76.90625 C 536.13755 76.518093 534.71624 76.17324 533.35352 75.863281 C 533.12429 75.811124 532.81394 75.738139 532.42188 75.652344 C 530.9726 75.334486 529.51919 75.043776 528.0625 74.78125 C 527.62971 74.703392 527.32276 74.653661 527.14453 74.623047 C 525.70792 74.376244 524.19491 74.13455 522.59766 73.927734 L 522.5957 73.927734 C 521.6894 73.810569 520.7765 73.704241 519.85352 73.609375 L 519.85156 73.609375 C 519.23163 73.545501 519.01998 73.532325 519.23047 73.552734 L 519.23047 73.550781 C 518.53058 73.48275 517.78838 73.416383 517.00391 73.357422 L 517.00195 73.357422 C 516.59899 73.327186 516.28844 73.308906 516.07227 73.294922 L 516.07031 73.294922 C 515.48699 73.256749 514.89855 73.221706 514.30664 73.193359 L 514.30469 73.193359 C 513.98173 73.178241 513.5889 73.159208 513.12305 73.142578 L 513.12109 73.142578 C 512.52578 73.119901 511.98206 73.10868 511.49219 73.099609 L 511.48828 73.099609 C 511.15073 73.09205 510.73815 73.087764 510.24805 73.083984 L 510.24609 73.083984 C 510.49702 73.085307 510.36073 73.080532 509.85742 73.080078 L 509.86133 73.078125 z "
       transform="matrix(0.26458335,0,0,0.26458335,-43.500005,512.12502)"
       id="path1489" />
    <path
       style="color:#000000;font-style:normal;font-variant:normal;font-weight:normal;font-stretch:normal;font-size:medium;line-height:normal;font-family:sans-serif;font-variant-ligatures:normal;font-variant-position:normal;font-variant-caps:normal;font-variant-numeric:normal;font-variant-alternates:normal;font-feature-settings:normal;text-indent:0;text-align:start;text-decoration:none;text-decoration-line:none;text-decoration-style:solid;text-decoration-color:#000000;letter-spacing:normal;word-spacing:normal;text-transform:none;writing-mode:lr-tb;direction:ltr;text-orientation:mixed;dominant-baseline:auto;baseline-shift:baseline;text-anchor:start;white-space:normal;shape-padding:0;clip-rule:nonzero;display:inline;overflow:visible;visibility:visible;opacity:1;isolation:auto;mix-blend-mode:normal;color-interpolation:sRGB;color-interpolation-filters:linearRGB;solid-color:#000000;solid-opacity:1;vector-effect:none;fill:#84c3c9;fill-opacity:1;fill-rule:nonzero;stroke:none;stroke-width:10.58333397;stroke-linecap:round;stroke-linejoin:bevel;stroke-miterlimit:4;stroke-dasharray:none;stroke-dashoffset:0;stroke-opacity:1;color-rendering:auto;image-rendering:auto;shape-rendering:auto;text-rendering:auto;enable-background:accumulate"
       d="m 96.501793,535.3634 -5.111314,6.68021 c -0.08203,-8e-5 -0.06021,4e-4 0.05788,0.001 0.04193,2.3e-4 0.105182,10e-4 0.188619,0.003 h 0.001 c 0.0969,0.002 0.18015,0.004 0.250632,0.006 0.04224,10e-4 0.104048,0.004 0.185002,0.008 0.0905,0.004 0.183571,0.01 0.278019,0.016 0.07429,0.005 0.123188,0.008 0.14831,0.01 h 5.18e-4 c 0.107104,0.008 0.22706,0.0187 0.359151,0.0315 0.144558,0.014 0.177099,0.0167 0.100769,0.009 h 5.16e-4 c 0.146995,0.0152 0.297551,0.0326 0.452686,0.0527 0.229955,0.0298 0.487911,0.0699 0.76998,0.11834 0.08644,0.0149 0.138663,0.0234 0.158129,0.0269 0.249462,0.045 0.504277,0.0961 0.763778,0.15297 0.03334,0.007 0.08912,0.0203 0.16588,0.0377 0.274886,0.0625 0.536678,0.12579 0.789101,0.19275 l 5.16e-4,5.2e-4 c 0.222491,0.059 0.233196,0.0611 0.03359,0.008 l 0.06615,0.0145 c 2.035916,0.54526 4.260635,1.43272 6.576345,2.67374 5.04101,2.70145 9.65855,6.93652 13.30669,11.40292 l 4.62194,-0.42116 -0.0258,-0.8847 0.82114,0.68574 -0.15917,0.14108 0.29507,-0.0269 0.64906,0.54208 0.009,-0.002 -0.0176,-0.59893 2.54093,-0.23151 c 0.74803,-1.35927 1.57211,-2.3099 2.53369,-3.00498 l 0.0822,-0.0351 -0.0109,0.0212 c -0.0267,0.0188 0.0214,-0.0144 0.0646,-0.0439 l 0.0139,-0.006 0.0899,-0.0656 0.009,-0.007 0.001,-5.2e-4 0.001,-5.1e-4 0.0129,-0.009 c 0.0531,-0.0351 0.10956,-0.071 0.16898,-0.108 l 0.0176,-0.0109 c 0.0608,-0.0376 0.14167,-0.0856 0.24288,-0.14315 0.002,-8.9e-4 0.003,-0.002 0.005,-0.003 0.26574,-0.14734 0.53524,-0.29054 0.82476,-0.40566 0.0282,-0.012 0.0548,-0.0234 0.076,-0.032 l 0.004,-0.002 c 0.068,-0.0279 0.136,-0.0552 0.20309,-0.0806 l 0.0258,-0.01 c 1.5e-4,-6e-5 0.0381,-0.014 0.11007,-0.0398 l 0.004,-0.002 c 0.0704,-0.0253 0.12516,-0.0439 0.17415,-0.0605 0.55276,-0.17178 1.12939,-0.31673 1.7787,-0.40773 l 3.75481,-2.59829 -0.66146,-1.00097 2.96313,-2.15904 -6.61768,-3.3662 -0.0724,-0.11007 6.98045,3.24993 c 0.032,-0.0269 0.10234,-0.0836 0.21136,-0.16899 l 5.2e-4,-5.1e-4 c 0.12592,-0.0986 0.14764,-0.11565 0.008,-0.007 l 0.004,-0.003 c 0.0199,-0.0155 0.0762,-0.0577 0.17054,-0.12713 0.0578,-0.0426 0.0852,-0.0625 0.0816,-0.0599 0.0419,-0.0299 0.0942,-0.0663 0.1571,-0.10904 v -5.2e-4 c 0.0434,-0.0294 0.074,-0.0497 0.092,-0.0615 0.0634,-0.0417 0.11651,-0.076 0.15967,-0.10284 h 5.2e-4 c -0.0204,0.0127 0.0108,-0.006 0.0935,-0.0558 0.10234,-0.0617 0.15801,-0.0947 0.16691,-0.0997 l 5.2e-4,-5.2e-4 c -0.05,0.0285 -0.0185,0.0112 0.092,-0.0496 l 5.2e-4,-5.2e-4 c 0.20138,-0.11085 0.40599,-0.21216 0.61443,-0.30437 h 5.2e-4 c 0.0624,-0.0276 0.0894,-0.0395 0.0853,-0.0377 0.0431,-0.0185 0.10443,-0.0438 0.18345,-0.0754 l 5.1e-4,-5.2e-4 c 0.0492,-0.0197 0.0872,-0.0347 0.11524,-0.0455 l 0.002,-5.1e-4 c 0.0652,-0.025 0.12293,-0.0463 0.1726,-0.0641 l 5.2e-4,-5.2e-4 c 0.0211,-0.008 0.0634,-0.0218 0.12505,-0.0429 l 0.001,-5.1e-4 c 0.0927,-0.0316 0.15493,-0.0524 0.18707,-0.0625 l 0.001,-5.2e-4 c -0.017,0.005 0.0211,-0.006 0.11214,-0.0336 0.12317,-0.0372 0.18837,-0.0563 0.19792,-0.0589 l 5.2e-4,-5.2e-4 c 0.0204,-0.006 0.0919,-0.0242 0.21084,-0.0543 0.0695,-0.0176 0.15284,-0.0369 0.25063,-0.0589 l 10e-4,-5.1e-4 c 0.10488,-0.0236 0.16488,-0.0367 0.18242,-0.0403 0.0234,-0.005 0.0791,-0.0153 0.16536,-0.0315 l 0.001,-5.1e-4 c 0.0845,-0.0159 0.14854,-0.0276 0.19327,-0.0351 0.0287,-0.005 0.0847,-0.0133 0.16691,-0.0258 l 5.2e-4,-5.2e-4 c 0.07,-0.0107 0.13615,-0.0201 0.19844,-0.0284 0.0787,-0.0105 0.13406,-0.0178 0.16691,-0.0217 h 0.001 c 0.0644,-0.008 0.14288,-0.0164 0.23358,-0.0253 0.10143,-0.01 0.14845,-0.0144 0.14314,-0.0139 h 0.001 c 0.0478,-0.004 0.13784,-0.0107 0.26768,-0.0191 l -0.001,5.2e-4 c 0.0855,-0.006 0.15786,-0.0101 0.21756,-0.0129 h 5.1e-4 c 0.13041,-0.006 0.23121,-0.0101 0.30593,-0.0119 -0.037,8.7e-4 0.0107,7.3e-4 0.14056,-0.001 0.11019,-10e-4 0.20137,-0.002 0.27595,-0.002 0.0378,2.4e-4 0.093,7.9e-4 0.16433,0.002 h 0.002 c 0.0899,0.002 0.1795,0.004 0.26924,0.007 0.0553,0.002 0.11052,0.004 0.16588,0.007 0.093,0.004 0.18727,0.01 0.28163,0.016 0.0864,0.006 0.1435,0.009 0.17209,0.0114 h 5.1e-4 c 0.0858,0.007 0.19037,0.0162 0.31316,0.0279 0.12898,0.0123 0.17273,0.0159 0.13384,0.0119 h 5.2e-4 c 0.14814,0.0153 0.30236,0.0331 0.46095,0.0537 0.22243,0.0289 0.47297,0.0681 0.74828,0.11524 0.0947,0.0162 0.15148,0.0256 0.17312,0.0295 0.25352,0.0457 0.50576,0.0957 0.75757,0.15089 0.018,0.004 0.0745,0.0175 0.16795,0.0388 h 5.2e-4 c 0.29,0.066 0.56275,0.13188 0.82372,0.20154 l 0.0661,0.0139 c 2.03579,0.54527 4.26027,1.4328 6.57582,2.67374 5.39162,2.88935 10.27563,7.56451 14.03584,12.3424 l -6.0787,4.44986 -0.47077,-0.0889 -0.005,0.004 -0.0749,0.0532 -0.015,0.0109 -0.0765,0.0563 -4.03128,2.95589 c -0.38367,-0.45267 -0.77225,-0.90212 -1.17719,-1.33997 l -5.1e-4,-5.2e-4 -5.2e-4,-5.2e-4 -0.002,-0.002 -0.14056,-0.14625 c -0.0373,-0.0372 0.0256,0.0263 0.0837,0.0863 -0.2154,-0.23181 -0.43245,-0.46078 -0.65215,-0.68523 -0.7219,-0.73749 -1.48326,-1.45085 -2.29392,-2.12907 l 1.89601,4.05867 c 0,0 -5.29167,0 -5.29167,0 v -5.2e-4 c 0,0 0,-5.2e-4 0,-5.2e-4 -4e-5,-2e-4 -0.0786,-0.43855 -0.0971,-0.53846 -0.11069,0 -0.57309,0 -0.57309,0 0,0 0,-5.2e-4 0,-5.2e-4 0,0 0,-5.2e-4 0,-5.2e-4 -4e-5,-1.9e-4 -0.0735,-0.42129 -0.0899,-0.51211 -0.0141,0 -0.0576,0 -0.0703,0 0.006,-0.11317 0.0121,-0.24067 0.015,-0.2806 l -5.2e-4,0.002 c 2.7e-4,-0.004 0.002,-0.0211 0.003,-0.0253 -0.0509,-0.2813 -0.0989,-0.57397 -0.18707,-1.06505 l -0.54002,0.33228 c -0.23991,-1.32928 -0.75664,-4.17143 -0.7276,-4.17649 0.0362,-0.006 0.66151,-0.0729 0.66145,-0.0729 -3e-5,0 1.06766,0.0584 1.06764,0.0584 -1e-5,0 0.93948,0.23772 0.93947,0.23771 0,0 1.2276,0.63358 1.26659,0.65371 -0.86156,-0.61191 -1.77027,-1.18391 -2.73264,-1.69964 -0.28909,-0.15492 -0.57045,-0.29614 -0.8413,-0.42633 l -5.1e-4,-5.2e-4 c -0.18673,-0.0897 -0.27563,-0.1275 -0.26149,-0.12092 l -0.001,-5.1e-4 c -0.16376,-0.0759 -0.35365,-0.16296 -0.57413,-0.25684 h -0.001 c -0.17144,-0.073 -0.28923,-0.11864 -0.34882,-0.14262 l -0.001,-5.2e-4 c -0.13153,-0.053 -0.29817,-0.1203 -0.50539,-0.19689 l -0.001,-5.2e-4 c -0.15779,-0.0583 -0.28428,-0.10146 -0.37672,-0.13332 -0.15049,-0.0519 -0.24624,-0.0817 -0.28267,-0.0935 l -6.86987,4.22558 c -0.0335,0.2176 -0.0476,0.34187 -0.0522,0.37517 -0.0199,0.14306 -0.0523,0.35853 -0.0847,0.6444 v 0.002 c -0.0295,0.2607 -0.0424,0.43669 -0.0512,0.52969 -0.011,0.11692 -0.0325,0.31018 -0.0522,0.57929 v 0.002 c -0.0205,0.28162 -0.0284,0.4917 -0.0357,0.632 -0.004,0.0745 -0.0173,0.2459 -0.0269,0.5147 v 0.002 c -0.0135,0.38188 -0.0207,0.77388 -0.0207,1.17564 2e-5,1.22145 0.0525,2.42604 0.15606,3.61011 0.069,0.78901 0.16057,1.5691 0.27441,2.33939 0.0572,0.3871 0.12003,0.76926 0.18758,1.14722 0.13587,0.76019 0.2937,1.5101 0.47284,2.24844 0.71652,2.95327 1.77523,5.72778 3.14554,8.26617 1.9e-4,3.3e-4 3.4e-4,6.9e-4 5.2e-4,10e-4 v 10e-4 c 0.17286,0.32017 0.3492,0.63317 0.52813,0.93948 1.2e-4,2e-4 4e-4,3.2e-4 5.2e-4,5.2e-4 v 5.1e-4 c 0.18399,0.31494 0.37024,0.62052 0.55707,0.91675 1.3e-4,1.9e-4 4e-4,3.2e-4 5.2e-4,5.1e-4 v 5.2e-4 c 0.38171,0.60515 0.78169,1.19275 1.19889,1.76268 0.18207,0.24871 0.34629,0.46105 0.48576,0.64131 l 5.2e-4,5.1e-4 c -0.035,-0.0452 0.0139,0.024 0.15451,0.20257 l 0.002,0.002 c 0.4367,0.55445 0.89113,1.09081 1.36168,1.60765 0.23443,0.2575 0.4745,0.51217 0.72088,0.76378 0.73298,0.74854 1.50493,1.45513 2.31407,2.11563 l 0.001,5.2e-4 c 0.53802,0.43917 1.09255,0.85848 1.66346,1.25626 h 5.2e-4 l 5.1e-4,5.1e-4 c 0.85424,0.59513 1.74333,1.14118 2.66393,1.63453 v 5.1e-4 c 1.1121,0.59598 2.21962,1.08089 3.32021,1.45676 l 0.003,5.2e-4 c 2.68018,0.91496 5.31038,1.0958 7.69617,0.78032 l 3.98839,6.9236 -6.62389,4.84881 c -2.99635,1.83325 -7.74876,1.7218 -14.63373,-1.96784 -13.9302,-7.46518 -26.21184,-23.45863 -26.21184,-41.9406 0,-0.77888 0.0249,-1.526 0.0708,-2.24844 l -8.40673,-4.6054 -3.72328,2.72593 -0.46974,-0.0915 -0.0264,0.0191 -0.0207,0.015 -4.0783,2.99051 c -0.82522,-0.97382 -1.68842,-1.92057 -2.62361,-2.81895 h -5.2e-4 l -5.2e-4,-5.1e-4 c -0.24802,-0.23825 -0.50223,-0.47492 -0.76326,-0.70952 h -5.1e-4 l -5.2e-4,-5.2e-4 c -0.25576,-0.22986 -0.51958,-0.45981 -0.79272,-0.68833 l -0.002,-5.2e-4 c -0.26502,-0.22169 -0.53868,-0.44363 -0.82321,-0.66404 h -5.2e-4 l -5.1e-4,-5.1e-4 c -0.27648,-0.21416 -0.56188,-0.42735 -0.8568,-0.63769 h -5.2e-4 c -1.9e-4,-1.4e-4 -3.2e-4,-3.8e-4 -5.1e-4,-5.2e-4 -0.874345,-0.62354 -1.799514,-1.20288 -2.776581,-1.72651 h -10e-4 c -0.281932,-0.15108 -0.560054,-0.29216 -0.833541,-0.42374 h -10e-4 c -0.204785,-0.0985 -0.304818,-0.14035 -0.293007,-0.13488 l -5.16e-4,-5.2e-4 c -0.138825,-0.0641 -0.319006,-0.14802 -0.54777,-0.24546 l -10e-4,-5.2e-4 c -0.191823,-0.0817 -0.314632,-0.12846 -0.362768,-0.14779 l -0.001,-5.2e-4 c -0.133745,-0.0538 -0.296305,-0.1182 -0.490927,-0.19017 l -5.16e-4,-5.1e-4 c -0.14991,-0.0554 -0.277124,-0.0995 -0.379822,-0.13488 h -5.16e-4 c -0.149985,-0.0517 -0.245748,-0.0817 -0.282155,-0.0935 l -6.869864,4.22558 c -0.03463,0.22485 -0.04663,0.33771 -0.04702,0.34054 -0.02229,0.15892 -0.05647,0.3866 -0.08992,0.68162 v 0.002 c -0.0297,0.26268 -0.04221,0.43512 -0.05012,0.51934 -0.01064,0.11248 -0.03278,0.30806 -0.05323,0.58653 v 0.002 c -0.02062,0.28236 -0.02864,0.49563 -0.03617,0.6413 -0.0038,0.0722 -0.01694,0.24062 -0.02636,0.50592 v 0.001 c -0.01346,0.3819 -0.02067,0.774 -0.02067,1.17616 0,0.81569 0.02358,1.62209 0.06977,2.41897 0.09248,1.59567 0.276505,3.15768 0.548285,4.67827 0.135877,0.76022 0.293706,1.5096 0.47284,2.24792 0.268991,1.10871 0.586123,2.1913 0.949296,3.24477 0.241855,0.70151 0.504481,1.39224 0.788067,2.07015 0.244988,0.58566 0.500253,1.14208 0.75706,1.67225 0.0051,0.0106 0.05334,0.1176 0.152445,0.31678 1.29e-4,2.6e-4 -1.32e-4,2.5e-4 0,5.2e-4 v 5.1e-4 c 0.164124,0.3298 0.331298,0.65079 0.49971,0.96274 0.342326,0.63407 0.704427,1.25377 1.085721,1.85828 0.761616,1.20748 1.59865,2.35192 2.507343,3.42512 1.56e-4,1.8e-4 3.59e-4,3.3e-4 5.15e-4,5.1e-4 v 5.2e-4 c 0.681681,0.80502 1.403216,1.56962 2.162141,2.28978 l 0.001,5.2e-4 c 0.249944,0.23716 0.506944,0.47229 0.771011,0.70487 l 0.001,5.1e-4 c 0.520877,0.45873 1.059225,0.89934 1.615406,1.3193 l 10e-4,5.2e-4 c 0.273357,0.20639 0.554284,0.41079 0.842843,0.61185 h 5.2e-4 l 5.2e-4,5.1e-4 c 0.85424,0.59514 1.74335,1.14171 2.66392,1.63504 2.5963,1.39135 5.18327,2.17555 7.65224,2.37867 0.35307,0.029 0.70299,0.0463 1.04955,0.0522 h 5.2e-4 c 0.80468,0.0136 1.58,-0.0524 2.33732,-0.15709 l 3.96772,6.88743 -6.62389,4.8488 c -2.99614,1.83312 -7.74861,1.72137 -14.633733,-1.96835 -13.930284,-7.46522 -26.211838,-23.45811 -26.211838,-41.94008 0,-5.556 1.199446,-9.18353 2.696993,-11.32799 0.675595,-0.96744 1.411917,-1.6717 2.241206,-2.21744 0.03975,-0.0258 0.08103,-0.0522 0.133326,-0.0847 l -0.03979,0.0233 0.05736,-0.0346 c 0.06585,-0.0407 0.146008,-0.0884 0.242361,-0.14314 0.06195,-0.0352 0.123349,-0.0689 0.183968,-0.10128 0.327041,-0.17276 0.664826,-0.33096 1.028361,-0.45786 0.01603,-0.006 0.01234,-0.005 0.03566,-0.0129 l 0.0041,-10e-4 c 0.08104,-0.0292 0.147426,-0.0523 0.199988,-0.0698 0.0514,-0.0169 0.08298,-0.0273 0.10387,-0.0341 0.512421,-0.15483 1.051568,-0.28111 1.648995,-0.36484 l 3.75481,-2.59829 -0.661974,-1.00097 2.963643,-2.15904 -6.617684,-3.3662 -0.07235,-0.10956 6.980452,3.24993 c 0.0056,-0.005 0.06221,-0.0503 0.172082,-0.13746 l 5.19e-4,-5.1e-4 c 0.0856,-0.068 0.104831,-0.0833 0.05684,-0.046 0.0211,-0.0164 0.07738,-0.0585 0.170016,-0.1266 l 5.16e-4,-5.2e-4 c 0.0684,-0.0503 0.09139,-0.0673 0.07028,-0.0522 0.04598,-0.033 0.100711,-0.0711 0.16433,-0.11421 h 5.16e-4 c 0.02888,-0.0196 0.05826,-0.0389 0.08785,-0.0584 l 5.16e-4,-5.2e-4 c 0.07315,-0.0481 0.12746,-0.0831 0.161747,-0.10438 -0.0275,0.0171 0.0019,-8.5e-4 0.08785,-0.0527 0.100071,-0.0604 0.159917,-0.0955 0.179316,-0.10646 l 0.0016,-10e-4 c -0.167735,0.0952 -0.161136,0.0918 0.01912,-0.01 l -0.0021,5.2e-4 c 0.149392,-0.0842 0.302578,-0.16359 0.459402,-0.23875 h 5.18e-4 c 0.141346,-0.0678 0.144341,-0.0694 0.02739,-0.014 l 5.19e-4,-5.2e-4 c 0.0098,-0.005 0.06468,-0.0294 0.165365,-0.0744 l 0.001,-5.2e-4 c 0.07967,-0.0356 0.120058,-0.0535 0.122992,-0.0548 0.04107,-0.0175 0.09987,-0.0418 0.176215,-0.0723 h 5.16e-4 c 0.05069,-0.0203 0.08465,-0.0338 0.102838,-0.0408 0.05717,-0.022 0.12168,-0.0461 0.193787,-0.0718 h 0.001 c 0.02779,-0.01 0.06556,-0.023 0.113173,-0.0393 h -0.001 c 0.09945,-0.034 0.159483,-0.0537 0.180869,-0.0605 l 0.001,-5.2e-4 c 0.0014,-4.4e-4 0.05182,-0.0158 0.149347,-0.045 0.104986,-0.0313 0.161491,-0.048 0.171047,-0.0506 h 0.001 c -0.06062,0.0168 -0.03576,0.0102 0.06511,-0.017 l 10e-4,-5.2e-4 c 0.123692,-0.0333 0.265266,-0.0678 0.42323,-0.10284 h 0.001 c 0.115596,-0.0256 0.165338,-0.0369 0.153995,-0.0346 0.0065,-0.001 0.06436,-0.0119 0.171567,-0.032 l 5.16e-4,-5.2e-4 c 0.08709,-0.0163 0.146515,-0.0272 0.178284,-0.0326 l -0.001,5.1e-4 c 0.04906,-0.008 0.108966,-0.0181 0.179832,-0.0289 h 10e-4 c 0.06321,-0.01 0.130469,-0.0194 0.202055,-0.0289 0.08093,-0.0108 0.133628,-0.0177 0.158647,-0.0207 h 0.001 c 0.05197,-0.006 0.130204,-0.0146 0.233577,-0.0248 l -5.16e-4,5.2e-4 c 0.109432,-0.0108 0.156901,-0.016 0.145209,-0.015 h 10e-4 c 0.119028,-0.0103 0.235302,-0.0187 0.349332,-0.0253 h -0.0047 c 0.155284,-0.009 0.167521,-0.01 0.03824,-0.003 h 0.0031 c 0.119911,-0.007 0.25542,-0.0119 0.405659,-0.0155 -0.01372,3.3e-4 0.03918,-10e-5 0.154511,-0.002 0.128776,-0.002 0.190746,-0.003 0.189654,-0.003 z"
       id="path1487" />
    <path
       style="color:#000000;font-style:normal;font-variant:normal;font-weight:normal;font-stretch:normal;font-size:medium;line-height:normal;font-family:sans-serif;font-variant-ligatures:normal;font-variant-position:normal;font-variant-caps:normal;font-variant-numeric:normal;font-variant-alternates:normal;font-feature-settings:normal;text-indent:0;text-align:start;text-decoration:none;text-decoration-line:none;text-decoration-style:solid;text-decoration-color:#000000;letter-spacing:normal;word-spacing:normal;text-transform:none;writing-mode:lr-tb;direction:ltr;text-orientation:mixed;dominant-baseline:auto;baseline-shift:baseline;text-anchor:start;white-space:normal;shape-padding:0;clip-rule:nonzero;display:inline;overflow:visible;visibility:visible;opacity:1;isolation:auto;mix-blend-mode:normal;color-interpolation:sRGB;color-interpolation-filters:linearRGB;solid-color:#000000;solid-opacity:1;vector-effect:none;fill:#84c3c9;fill-opacity:1;fill-rule:nonzero;stroke:none;stroke-width:10.58333397;stroke-linecap:round;stroke-linejoin:bevel;stroke-miterlimit:4;stroke-dasharray:none;stroke-dashoffset:0;stroke-opacity:1;color-rendering:auto;image-rendering:auto;shape-rendering:auto;text-rendering:auto;enable-background:accumulate"
       d="m 150.02928,566.06178 0.39688,-0.51211 c -0.0685,0 -0.1518,0 -0.20981,0 -0.0347,0.0948 -0.18699,0.51189 -0.18707,0.51211 z"
       id="path1485" />
    <path
       style="color:#000000;font-style:normal;font-variant:normal;font-weight:normal;font-stretch:normal;font-size:medium;line-height:normal;font-family:sans-serif;font-variant-ligatures:normal;font-variant-position:normal;font-variant-caps:normal;font-variant-numeric:normal;font-variant-alternates:normal;font-feature-settings:normal;text-indent:0;text-align:start;text-decoration:none;text-decoration-line:none;text-decoration-style:solid;text-decoration-color:#000000;letter-spacing:normal;word-spacing:normal;text-transform:none;writing-mode:lr-tb;direction:ltr;text-orientation:mixed;dominant-baseline:auto;baseline-shift:baseline;text-anchor:start;white-space:normal;shape-padding:0;clip-rule:nonzero;display:inline;overflow:visible;visibility:visible;opacity:1;isolation:auto;mix-blend-mode:normal;color-interpolation:sRGB;color-interpolation-filters:linearRGB;solid-color:#000000;solid-opacity:1;vector-effect:none;fill:#84c3c9;fill-opacity:1;fill-rule:nonzero;stroke:none;stroke-width:10.58333397;stroke-linecap:round;stroke-linejoin:bevel;stroke-miterlimit:4;stroke-dasharray:none;stroke-dashoffset:0;stroke-opacity:1;color-rendering:auto;image-rendering:auto;shape-rendering:auto;text-rendering:auto;enable-background:accumulate"
       d="m 150.69952,566.60128 0.45062,-0.53846 c -0.0807,0 -0.17484,0 -0.24185,0 -0.0407,0.10486 -0.20867,0.53823 -0.20877,0.53846 z"
       id="path1483" />
    <path
       style="color:#000000;font-style:normal;font-variant:normal;font-weight:normal;font-stretch:normal;font-size:medium;line-height:normal;font-family:sans-serif;font-variant-ligatures:normal;font-variant-position:normal;font-variant-caps:normal;font-variant-numeric:normal;font-variant-alternates:normal;font-feature-settings:normal;text-indent:0;text-align:start;text-decoration:none;text-decoration-line:none;text-decoration-style:solid;text-decoration-color:#000000;letter-spacing:normal;word-spacing:normal;text-transform:none;writing-mode:lr-tb;direction:ltr;text-orientation:mixed;dominant-baseline:auto;baseline-shift:baseline;text-anchor:start;white-space:normal;shape-padding:0;clip-rule:nonzero;display:inline;overflow:visible;visibility:visible;opacity:1;isolation:auto;mix-blend-mode:normal;color-interpolation:sRGB;color-interpolation-filters:linearRGB;solid-color:#000000;solid-opacity:1;vector-effect:none;fill:#84c3c9;fill-opacity:1;fill-rule:nonzero;stroke:none;stroke-width:10.58333397;stroke-linecap:round;stroke-linejoin:bevel;stroke-miterlimit:4;stroke-dasharray:none;stroke-dashoffset:0;stroke-opacity:1;color-rendering:auto;image-rendering:auto;shape-rendering:auto;text-rendering:auto;enable-background:accumulate"
       d="m 70.055346,542.102 c -0.03916,0.0237 -0.07313,0.0419 -0.113173,0.0667 l 0.05736,-0.0351 c -0.20588,0.12364 -0.111537,0.0656 0.05581,-0.0315 z"
       id="path1481" />
    <path
       style="color:#000000;font-style:normal;font-variant:normal;font-weight:normal;font-stretch:normal;font-size:medium;line-height:normal;font-family:sans-serif;font-variant-ligatures:normal;font-variant-position:normal;font-variant-caps:normal;font-variant-numeric:normal;font-variant-alternates:normal;font-feature-settings:normal;text-indent:0;text-align:start;text-decoration:none;text-decoration-line:none;text-decoration-style:solid;text-decoration-color:#000000;letter-spacing:normal;word-spacing:normal;text-transform:none;writing-mode:lr-tb;direction:ltr;text-orientation:mixed;dominant-baseline:auto;baseline-shift:baseline;text-anchor:start;white-space:normal;shape-padding:0;clip-rule:nonzero;display:inline;overflow:visible;visibility:visible;opacity:1;isolation:auto;mix-blend-mode:normal;color-interpolation:sRGB;color-interpolation-filters:linearRGB;solid-color:#000000;solid-opacity:1;vector-effect:none;fill:#84c3c9;fill-opacity:1;fill-rule:nonzero;stroke:none;stroke-width:10.58333397;stroke-linecap:round;stroke-linejoin:bevel;stroke-miterlimit:4;stroke-dasharray:none;stroke-dashoffset:0;stroke-opacity:1;color-rendering:auto;image-rendering:auto;shape-rendering:auto;text-rendering:auto;enable-background:accumulate"
       d="m 69.993846,542.20691 c -0.01677,0.0103 -0.03235,0.0227 -0.04909,0.0331 l -0.258382,0.12557 c 0.105648,-0.0626 0.196689,-0.0998 0.307472,-0.15864 z"
       id="path1479" />
    <path
       style="color:#000000;font-style:normal;font-variant:normal;font-weight:normal;font-stretch:normal;font-size:medium;line-height:normal;font-family:sans-serif;font-variant-ligatures:normal;font-variant-position:normal;font-variant-caps:normal;font-variant-numeric:normal;font-variant-alternates:normal;font-feature-settings:normal;text-indent:0;text-align:start;text-decoration:none;text-decoration-line:none;text-decoration-style:solid;text-decoration-color:#000000;letter-spacing:normal;word-spacing:normal;text-transform:none;writing-mode:lr-tb;direction:ltr;text-orientation:mixed;dominant-baseline:auto;baseline-shift:baseline;text-anchor:start;white-space:normal;shape-padding:0;clip-rule:nonzero;display:inline;overflow:visible;visibility:visible;opacity:1;isolation:auto;mix-blend-mode:normal;color-interpolation:sRGB;color-interpolation-filters:linearRGB;solid-color:#000000;solid-opacity:1;vector-effect:none;fill:#84c3c9;fill-opacity:1;fill-rule:nonzero;stroke:none;stroke-width:10.58333397;stroke-linecap:round;stroke-linejoin:bevel;stroke-miterlimit:4;stroke-dasharray:none;stroke-dashoffset:0;stroke-opacity:1;color-rendering:auto;image-rendering:auto;shape-rendering:auto;text-rendering:auto;enable-background:accumulate"
       d="m 69.101912,542.72419 0.01189,0.0165 c 8.8e-5,-2e-5 -0.0016,10e-4 -0.0015,10e-4 l -0.01189,-0.0165 z"
       id="path1477" />
    <path
       style="color:#000000;font-style:normal;font-variant:normal;font-weight:normal;font-stretch:normal;font-size:medium;line-height:normal;font-family:sans-serif;font-variant-ligatures:normal;font-variant-position:normal;font-variant-caps:normal;font-variant-numeric:normal;font-variant-alternates:normal;font-feature-settings:normal;text-indent:0;text-align:start;text-decoration:none;text-decoration-line:none;text-decoration-style:solid;text-decoration-color:#000000;letter-spacing:normal;word-spacing:normal;text-transform:none;writing-mode:lr-tb;direction:ltr;text-orientation:mixed;dominant-baseline:auto;baseline-shift:baseline;text-anchor:start;white-space:normal;shape-padding:0;clip-rule:nonzero;display:inline;overflow:visible;visibility:visible;opacity:1;isolation:auto;mix-blend-mode:normal;color-interpolation:sRGB;color-interpolation-filters:linearRGB;solid-color:#000000;solid-opacity:1;vector-effect:none;fill:#84c3c9;fill-opacity:1;fill-rule:nonzero;stroke:none;stroke-width:10.58333397;stroke-linecap:round;stroke-linejoin:bevel;stroke-miterlimit:4;stroke-dasharray:none;stroke-dashoffset:0;stroke-opacity:1;color-rendering:auto;image-rendering:auto;shape-rendering:auto;text-rendering:auto;enable-background:accumulate"
       d="m 69.118962,542.74799 0.02067,0.03 c -5.1e-4,3.5e-4 -0.001,6.8e-4 -0.0016,10e-4 l -0.02067,-0.03 c 4.21e-4,-3.2e-4 0.0011,-7.1e-4 0.0016,-0.001 z"
       id="path1475" />
    <path
       style="color:#000000;font-style:normal;font-variant:normal;font-weight:normal;font-stretch:normal;font-size:medium;line-height:normal;font-family:sans-serif;font-variant-ligatures:normal;font-variant-position:normal;font-variant-caps:normal;font-variant-numeric:normal;font-variant-alternates:normal;font-feature-settings:normal;text-indent:0;text-align:start;text-decoration:none;text-decoration-line:none;text-decoration-style:solid;text-decoration-color:#000000;letter-spacing:normal;word-spacing:normal;text-transform:none;writing-mode:lr-tb;direction:ltr;text-orientation:mixed;dominant-baseline:auto;baseline-shift:baseline;text-anchor:start;white-space:normal;shape-padding:0;clip-rule:nonzero;display:inline;overflow:visible;visibility:visible;opacity:1;isolation:auto;mix-blend-mode:normal;color-interpolation:sRGB;color-interpolation-filters:linearRGB;solid-color:#000000;solid-opacity:1;vector-effect:none;fill:#84c3c9;fill-opacity:1;fill-rule:nonzero;stroke:none;stroke-width:10.58333397;stroke-linecap:round;stroke-linejoin:bevel;stroke-miterlimit:4;stroke-dasharray:none;stroke-dashoffset:0;stroke-opacity:1;color-rendering:auto;image-rendering:auto;shape-rendering:auto;text-rendering:auto;enable-background:accumulate"
       d="m 122.64645,543.59083 c -0.0124,0.007 -0.0248,0.0149 -0.0372,0.0222 l -0.66766,0.32505 c 0.23575,-0.13986 0.46432,-0.24134 0.70486,-0.34727 z"
       id="path1473" />
    <path
       style="color:#000000;font-style:normal;font-variant:normal;font-weight:normal;font-stretch:normal;font-size:medium;line-height:normal;font-family:sans-serif;font-variant-ligatures:normal;font-variant-position:normal;font-variant-caps:normal;font-variant-numeric:normal;font-variant-alternates:normal;font-feature-settings:normal;text-indent:0;text-align:start;text-decoration:none;text-decoration-line:none;text-decoration-style:solid;text-decoration-color:#000000;letter-spacing:normal;word-spacing:normal;text-transform:none;writing-mode:lr-tb;direction:ltr;text-orientation:mixed;dominant-baseline:auto;baseline-shift:baseline;text-anchor:start;white-space:normal;shape-padding:0;clip-rule:nonzero;display:inline;overflow:visible;visibility:visible;opacity:1;isolation:auto;mix-blend-mode:normal;color-interpolation:sRGB;color-interpolation-filters:linearRGB;solid-color:#000000;solid-opacity:1;vector-effect:none;fill:#84c3c9;fill-opacity:1;fill-rule:nonzero;stroke:none;stroke-width:10.58333397;stroke-linecap:round;stroke-linejoin:bevel;stroke-miterlimit:4;stroke-dasharray:none;stroke-dashoffset:0;stroke-opacity:1;color-rendering:auto;image-rendering:auto;shape-rendering:auto;text-rendering:auto;enable-background:accumulate"
       d="m 67.817233,544.92873 0.06718,0.0532 -0.05685,0.10956 z"
       id="path1471" />
    <path
       style="color:#000000;font-style:normal;font-variant:normal;font-weight:normal;font-stretch:normal;font-size:medium;line-height:normal;font-family:sans-serif;font-variant-ligatures:normal;font-variant-position:normal;font-variant-caps:normal;font-variant-numeric:normal;font-variant-alternates:normal;font-feature-settings:normal;text-indent:0;text-align:start;text-decoration:none;text-decoration-line:none;text-decoration-style:solid;text-decoration-color:#000000;letter-spacing:normal;word-spacing:normal;text-transform:none;writing-mode:lr-tb;direction:ltr;text-orientation:mixed;dominant-baseline:auto;baseline-shift:baseline;text-anchor:start;white-space:normal;shape-padding:0;clip-rule:nonzero;display:inline;overflow:visible;visibility:visible;opacity:1;isolation:auto;mix-blend-mode:normal;color-interpolation:sRGB;color-interpolation-filters:linearRGB;solid-color:#000000;solid-opacity:1;vector-effect:none;fill:#84c3c9;fill-opacity:1;fill-rule:nonzero;stroke:none;stroke-width:10.58333397;stroke-linecap:round;stroke-linejoin:bevel;stroke-miterlimit:4;stroke-dasharray:none;stroke-dashoffset:0;stroke-opacity:1;color-rendering:auto;image-rendering:auto;shape-rendering:auto;text-rendering:auto;enable-background:accumulate"
       d="m 69.942686,549.58272 2.623611,2.06653 -2.361096,2.11254 z"
       id="path1469" />
    <path
       style="color:#000000;font-style:normal;font-variant:normal;font-weight:normal;font-stretch:normal;font-size:medium;line-height:normal;font-family:sans-serif;font-variant-ligatures:normal;font-variant-position:normal;font-variant-caps:normal;font-variant-numeric:normal;font-variant-alternates:normal;font-feature-settings:normal;text-indent:0;text-align:start;text-decoration:none;text-decoration-line:none;text-decoration-style:solid;text-decoration-color:#000000;letter-spacing:normal;word-spacing:normal;text-transform:none;writing-mode:lr-tb;direction:ltr;text-orientation:mixed;dominant-baseline:auto;baseline-shift:baseline;text-anchor:start;white-space:normal;shape-padding:0;clip-rule:nonzero;display:inline;overflow:visible;visibility:visible;opacity:1;isolation:auto;mix-blend-mode:normal;color-interpolation:sRGB;color-interpolation-filters:linearRGB;solid-color:#000000;solid-opacity:1;vector-effect:none;fill:#84c3c9;fill-opacity:1;fill-rule:nonzero;stroke:none;stroke-width:10.58333397;stroke-linecap:round;stroke-linejoin:bevel;stroke-miterlimit:4;stroke-dasharray:none;stroke-dashoffset:0;stroke-opacity:1;color-rendering:auto;image-rendering:auto;shape-rendering:auto;text-rendering:auto;enable-background:accumulate"
       d="m 74.230278,549.98011 0.001,5.1e-4 0.07752,0.10956 -5.16e-4,5.1e-4 z"
       id="path1467" />
    <path
       style="color:#000000;font-style:normal;font-variant:normal;font-weight:normal;font-stretch:normal;font-size:medium;line-height:normal;font-family:sans-serif;font-variant-ligatures:normal;font-variant-position:normal;font-variant-caps:normal;font-variant-numeric:normal;font-variant-alternates:normal;font-feature-settings:normal;text-indent:0;text-align:start;text-decoration:none;text-decoration-line:none;text-decoration-style:solid;text-decoration-color:#000000;letter-spacing:normal;word-spacing:normal;text-transform:none;writing-mode:lr-tb;direction:ltr;text-orientation:mixed;dominant-baseline:auto;baseline-shift:baseline;text-anchor:start;white-space:normal;shape-padding:0;clip-rule:nonzero;display:inline;overflow:visible;visibility:visible;opacity:1;isolation:auto;mix-blend-mode:normal;color-interpolation:sRGB;color-interpolation-filters:linearRGB;solid-color:#000000;solid-opacity:1;vector-effect:none;fill:#84c3c9;fill-opacity:1;fill-rule:nonzero;stroke:none;stroke-width:10.58333397;stroke-linecap:round;stroke-linejoin:bevel;stroke-miterlimit:4;stroke-dasharray:none;stroke-dashoffset:0;stroke-opacity:1;color-rendering:auto;image-rendering:auto;shape-rendering:auto;text-rendering:auto;enable-background:accumulate"
       d="m 122.0899,551.23791 2.53885,2.14199 -2.41276,2.1394 z"
       id="path1465" />
    <path
       style="color:#000000;font-style:normal;font-variant:normal;font-weight:normal;font-stretch:normal;font-size:medium;line-height:normal;font-family:sans-serif;font-variant-ligatures:normal;font-variant-position:normal;font-variant-caps:normal;font-variant-numeric:normal;font-variant-alternates:normal;font-feature-settings:normal;text-indent:0;text-align:start;text-decoration:none;text-decoration-line:none;text-decoration-style:solid;text-decoration-color:#000000;letter-spacing:normal;word-spacing:normal;text-transform:none;writing-mode:lr-tb;direction:ltr;text-orientation:mixed;dominant-baseline:auto;baseline-shift:baseline;text-anchor:start;white-space:normal;shape-padding:0;clip-rule:nonzero;display:inline;overflow:visible;visibility:visible;opacity:1;isolation:auto;mix-blend-mode:normal;color-interpolation:sRGB;color-interpolation-filters:linearRGB;solid-color:#000000;solid-opacity:1;vector-effect:none;fill:#84c3c9;fill-opacity:1;fill-rule:nonzero;stroke:none;stroke-width:10.58333397;stroke-linecap:round;stroke-linejoin:bevel;stroke-miterlimit:4;stroke-dasharray:none;stroke-dashoffset:0;stroke-opacity:1;color-rendering:auto;image-rendering:auto;shape-rendering:auto;text-rendering:auto;enable-background:accumulate"
       d="m 127.41464,552.9329 -0.007,0.0134 -0.0465,0.0227 c 0.0216,-0.0128 0.032,-0.0233 0.0532,-0.0362 z"
       id="path1463" />
    <path
       style="color:#000000;font-style:normal;font-variant:normal;font-weight:normal;font-stretch:normal;font-size:medium;line-height:normal;font-family:sans-serif;font-variant-ligatures:normal;font-variant-position:normal;font-variant-caps:normal;font-variant-numeric:normal;font-variant-alternates:normal;font-feature-settings:normal;text-indent:0;text-align:start;text-decoration:none;text-decoration-line:none;text-decoration-style:solid;text-decoration-color:#000000;letter-spacing:normal;word-spacing:normal;text-transform:none;writing-mode:lr-tb;direction:ltr;text-orientation:mixed;dominant-baseline:auto;baseline-shift:baseline;text-anchor:start;white-space:normal;shape-padding:0;clip-rule:nonzero;display:inline;overflow:visible;visibility:visible;opacity:1;isolation:auto;mix-blend-mode:normal;color-interpolation:sRGB;color-interpolation-filters:linearRGB;solid-color:#000000;solid-opacity:1;vector-effect:none;fill:#84c3c9;fill-opacity:1;fill-rule:nonzero;stroke:none;stroke-width:10.58333397;stroke-linecap:round;stroke-linejoin:bevel;stroke-miterlimit:4;stroke-dasharray:none;stroke-dashoffset:0;stroke-opacity:1;color-rendering:auto;image-rendering:auto;shape-rendering:auto;text-rendering:auto;enable-background:accumulate"
       d="m 68.368622,553.69874 1.013891,0.79892 -0.912606,0.81701 z"
       id="path1461" />
    <path
       style="color:#000000;font-style:normal;font-variant:normal;font-weight:normal;font-stretch:normal;font-size:medium;line-height:normal;font-family:sans-serif;font-variant-ligatures:normal;font-variant-position:normal;font-variant-caps:normal;font-variant-numeric:normal;font-variant-alternates:normal;font-feature-settings:normal;text-indent:0;text-align:start;text-decoration:none;text-decoration-line:none;text-decoration-style:solid;text-decoration-color:#000000;letter-spacing:normal;word-spacing:normal;text-transform:none;writing-mode:lr-tb;direction:ltr;text-orientation:mixed;dominant-baseline:auto;baseline-shift:baseline;text-anchor:start;white-space:normal;shape-padding:0;clip-rule:nonzero;display:inline;overflow:visible;visibility:visible;opacity:1;isolation:auto;mix-blend-mode:normal;color-interpolation:sRGB;color-interpolation-filters:linearRGB;solid-color:#000000;solid-opacity:1;vector-effect:none;fill:#84c3c9;fill-opacity:1;fill-rule:nonzero;stroke:none;stroke-width:10.58333397;stroke-linecap:round;stroke-linejoin:bevel;stroke-miterlimit:4;stroke-dasharray:none;stroke-dashoffset:0;stroke-opacity:1;color-rendering:auto;image-rendering:auto;shape-rendering:auto;text-rendering:auto;enable-background:accumulate"
       d="m 120.68017,556.88046 -0.008,0.008 0.009,0.002 z"
       id="path1459" />
    <path
       style="color:#000000;font-style:normal;font-variant:normal;font-weight:normal;font-stretch:normal;font-size:medium;line-height:normal;font-family:sans-serif;font-variant-ligatures:normal;font-variant-position:normal;font-variant-caps:normal;font-variant-numeric:normal;font-variant-alternates:normal;font-feature-settings:normal;text-indent:0;text-align:start;text-decoration:none;text-decoration-line:none;text-decoration-style:solid;text-decoration-color:#000000;letter-spacing:normal;word-spacing:normal;text-transform:none;writing-mode:lr-tb;direction:ltr;text-orientation:mixed;dominant-baseline:auto;baseline-shift:baseline;text-anchor:start;white-space:normal;shape-padding:0;clip-rule:nonzero;display:inline;overflow:visible;visibility:visible;opacity:1;isolation:auto;mix-blend-mode:normal;color-interpolation:sRGB;color-interpolation-filters:linearRGB;solid-color:#000000;solid-opacity:1;vector-effect:none;fill:#84c3c9;fill-opacity:1;fill-rule:nonzero;stroke:none;stroke-width:10.58333397;stroke-linecap:round;stroke-linejoin:bevel;stroke-miterlimit:4;stroke-dasharray:none;stroke-dashoffset:0;stroke-opacity:1;color-rendering:auto;image-rendering:auto;shape-rendering:auto;text-rendering:auto;enable-background:accumulate"
       d="m 152.41208,561.24144 0.5395,1.04799 0.31781,-0.41031 c -0.27662,-0.21427 -0.56219,-0.4272 -0.85731,-0.63768 z"
       id="path1457" />
    <path
       style="color:#000000;font-style:normal;font-variant:normal;font-weight:normal;font-stretch:normal;font-size:medium;line-height:normal;font-family:sans-serif;font-variant-ligatures:normal;font-variant-position:normal;font-variant-caps:normal;font-variant-numeric:normal;font-variant-alternates:normal;font-feature-settings:normal;text-indent:0;text-align:start;text-decoration:none;text-decoration-line:none;text-decoration-style:solid;text-decoration-color:#000000;letter-spacing:normal;word-spacing:normal;text-transform:none;writing-mode:lr-tb;direction:ltr;text-orientation:mixed;dominant-baseline:auto;baseline-shift:baseline;text-anchor:start;white-space:normal;shape-padding:0;clip-rule:nonzero;display:inline;overflow:visible;visibility:visible;opacity:1;isolation:auto;mix-blend-mode:normal;color-interpolation:sRGB;color-interpolation-filters:linearRGB;solid-color:#000000;solid-opacity:1;vector-effect:none;fill:#84c3c9;fill-opacity:1;fill-rule:nonzero;stroke:none;stroke-width:10.58333397;stroke-linecap:round;stroke-linejoin:bevel;stroke-miterlimit:4;stroke-dasharray:none;stroke-dashoffset:0;stroke-opacity:1;color-rendering:auto;image-rendering:auto;shape-rendering:auto;text-rendering:auto;enable-background:accumulate"
       d="m 153.26991,561.87912 0.51005,1.04077 0.3147,-0.37621 c -0.26907,-0.22511 -0.54393,-0.44702 -0.82475,-0.66456 z"
       id="path1455" />
    <path
       style="color:#000000;font-style:normal;font-variant:normal;font-weight:normal;font-stretch:normal;font-size:medium;line-height:normal;font-family:sans-serif;font-variant-ligatures:normal;font-variant-position:normal;font-variant-caps:normal;font-variant-numeric:normal;font-variant-alternates:normal;font-feature-settings:normal;text-indent:0;text-align:start;text-decoration:none;text-decoration-line:none;text-decoration-style:solid;text-decoration-color:#000000;letter-spacing:normal;word-spacing:normal;text-transform:none;writing-mode:lr-tb;direction:ltr;text-orientation:mixed;dominant-baseline:auto;baseline-shift:baseline;text-anchor:start;white-space:normal;shape-padding:0;clip-rule:nonzero;display:inline;overflow:visible;visibility:visible;opacity:1;isolation:auto;mix-blend-mode:normal;color-interpolation:sRGB;color-interpolation-filters:linearRGB;solid-color:#000000;solid-opacity:1;vector-effect:none;fill:#84c3c9;fill-opacity:1;fill-rule:nonzero;stroke:none;stroke-width:10.58333397;stroke-linecap:round;stroke-linejoin:bevel;stroke-miterlimit:4;stroke-dasharray:none;stroke-dashoffset:0;stroke-opacity:1;color-rendering:auto;image-rendering:auto;shape-rendering:auto;text-rendering:auto;enable-background:accumulate"
       d="m 117.68655,563.55809 c -0.0934,-0.14281 -0.071,-0.11429 0.0537,0.0853 l -0.0667,-0.0129 z"
       id="path1453" />
    <path
       style="color:#000000;font-style:normal;font-variant:normal;font-weight:normal;font-stretch:normal;font-size:medium;line-height:normal;font-family:sans-serif;font-variant-ligatures:normal;font-variant-position:normal;font-variant-caps:normal;font-variant-numeric:normal;font-variant-alternates:normal;font-feature-settings:normal;text-indent:0;text-align:start;text-decoration:none;text-decoration-line:none;text-decoration-style:solid;text-decoration-color:#000000;letter-spacing:normal;word-spacing:normal;text-transform:none;writing-mode:lr-tb;direction:ltr;text-orientation:mixed;dominant-baseline:auto;baseline-shift:baseline;text-anchor:start;white-space:normal;shape-padding:0;clip-rule:nonzero;display:inline;overflow:visible;visibility:visible;opacity:1;isolation:auto;mix-blend-mode:normal;color-interpolation:sRGB;color-interpolation-filters:linearRGB;solid-color:#000000;solid-opacity:1;vector-effect:none;fill:#84c3c9;fill-opacity:1;fill-rule:nonzero;stroke:none;stroke-width:10.58333397;stroke-linecap:round;stroke-linejoin:bevel;stroke-miterlimit:4;stroke-dasharray:none;stroke-dashoffset:0;stroke-opacity:1;color-rendering:auto;image-rendering:auto;shape-rendering:auto;text-rendering:auto;enable-background:accumulate"
       d="m 150.02876,566.06285 c 0,0 0,10e-4 0,10e-4 l -0.0212,0.0269 c 2.7e-4,-3.7e-4 0.0212,-0.0279 0.0212,-0.0279 z"
       id="path1451" />
    <path
       style="color:#000000;font-style:normal;font-variant:normal;font-weight:normal;font-stretch:normal;font-size:medium;line-height:normal;font-family:sans-serif;font-variant-ligatures:normal;font-variant-position:normal;font-variant-caps:normal;font-variant-numeric:normal;font-variant-alternates:normal;font-feature-settings:normal;text-indent:0;text-align:start;text-decoration:none;text-decoration-line:none;text-decoration-style:solid;text-decoration-color:#000000;letter-spacing:normal;word-spacing:normal;text-transform:none;writing-mode:lr-tb;direction:ltr;text-orientation:mixed;dominant-baseline:auto;baseline-shift:baseline;text-anchor:start;white-space:normal;shape-padding:0;clip-rule:nonzero;display:inline;overflow:visible;visibility:visible;opacity:1;isolation:auto;mix-blend-mode:normal;color-interpolation:sRGB;color-interpolation-filters:linearRGB;solid-color:#000000;solid-opacity:1;vector-effect:none;fill:#84c3c9;fill-opacity:1;fill-rule:nonzero;stroke:none;stroke-width:10.58333397;stroke-linecap:round;stroke-linejoin:bevel;stroke-miterlimit:4;stroke-dasharray:none;stroke-dashoffset:0;stroke-opacity:1;color-rendering:auto;image-rendering:auto;shape-rendering:auto;text-rendering:auto;enable-background:accumulate"
       d="m 154.40214,569.60217 0.005,0.007 -0.15451,0.10594 -0.13642,0.0966 z"
       id="path1449" />
    <path
       style="color:#000000;font-style:normal;font-variant:normal;font-weight:normal;font-stretch:normal;font-size:medium;line-height:normal;font-family:sans-serif;font-variant-ligatures:normal;font-variant-position:normal;font-variant-caps:normal;font-variant-numeric:normal;font-variant-alternates:normal;font-feature-settings:normal;text-indent:0;text-align:start;text-decoration:none;text-decoration-line:none;text-decoration-style:solid;text-decoration-color:#000000;letter-spacing:normal;word-spacing:normal;text-transform:none;writing-mode:lr-tb;direction:ltr;text-orientation:mixed;dominant-baseline:auto;baseline-shift:baseline;text-anchor:start;white-space:normal;shape-padding:0;clip-rule:nonzero;display:inline;overflow:visible;visibility:visible;opacity:1;isolation:auto;mix-blend-mode:normal;color-interpolation:sRGB;color-interpolation-filters:linearRGB;solid-color:#000000;solid-opacity:1;vector-effect:none;fill:#84c3c9;fill-opacity:1;fill-rule:nonzero;stroke:none;stroke-width:10.58333397;stroke-linecap:round;stroke-linejoin:bevel;stroke-miterlimit:4;stroke-dasharray:none;stroke-dashoffset:0;stroke-opacity:1;color-rendering:auto;image-rendering:auto;shape-rendering:auto;text-rendering:auto;enable-background:accumulate"
       d="m 151.63693,571.8103 c 0.0281,-0.005 -0.61707,0.0739 -0.61701,0.0739 0,0 0,-0.003 0,-0.003 0.0735,-0.008 0.59077,-0.0666 0.61701,-0.0713 z"
       id="path1447" />
    <g
       id="g1365"
       transform="translate(-2.7720753,4.3220205)">
      <g
         transform="translate(-51.864245,-3.9290672)"
         id="g1331">
        <path
           sodipodi:nodetypes="cccccccccccccsccccccc"
           inkscape:connector-curvature="0"
           id="path1269"
           d="m 157.27213,553.20181 c -0.34742,-0.0934 -0.69021,-0.16673 -1.02804,-0.22203 -9e-5,-10e-6 0,-10e-6 0,0 -2.07438,-0.33949 -3.95345,0.0431 -5.47317,1.16732 0.0366,-0.0265 0.0706,-0.0555 0.10724,-0.0811 v -5.8e-4 l -10.44308,7.65879 c 1.85512,-1.19154 4.19328,-1.351 6.74261,-0.51984 0,-3e-4 0,-5.7e-4 0,-0.001 0.76226,0.24855 1.54324,0.58532 2.33607,1.01019 4.11662,2.20609 7.11049,5.68176 10.10446,9.90588 l 8.24481,-6.04542 2.44358,-1.77896 c -2.99405,-4.22416 -5.98793,-7.6998 -10.10455,-9.9059 -0.99999,-0.53588 -1.98125,-0.93242 -2.92958,-1.18733 z m -17.47934,8.99314 -0.0105,0.008 v 3e-4 c 0.009,-10e-4 0.009,-0.005 0.01,-0.008 z"
           style="fill:none;fill-opacity:1;stroke:#ffffff;stroke-width:0.31354079px;stroke-linecap:butt;stroke-linejoin:miter;stroke-opacity:1" />
        <path
           d="m 159.45331,603.20049 c 7.85907,4.21166 14.876,4.97812 20.02188,1.74793 l -8.42035,-14.61694 c -2.61972,1.4029 -6.36218,1.8299 -11.04016,-0.67703 -7.85907,-4.21166 -13.09833,-13.38146 -13.09833,-24.79578 0,-11.04009 6.17487,-14.28017 13.28545,-10.46962 4.11662,2.2061 7.11058,5.68174 10.10455,9.90588 l 8.42035,-5.77914 c -4.30374,-6.61014 -10.85295,-13.86224 -18.89914,-18.17417 -15.3439,-8.22276 -29.37785,-4.14209 -29.37785,16.25399 0,20.77031 13.47267,38.28187 29.0036,46.60488 z"
           style="font-style:normal;font-variant:normal;font-weight:900;font-stretch:normal;font-size:231.60112px;line-height:1.25;font-family:'Source Sans Pro';-inkscape-font-specification:'Source Sans Pro, Heavy';font-variant-ligatures:normal;font-variant-caps:normal;font-variant-numeric:normal;font-feature-settings:normal;text-align:start;letter-spacing:0px;word-spacing:0px;writing-mode:lr-tb;text-anchor:start;fill:#daf4c0;fill-opacity:1;stroke:#ffffff;stroke-width:0.22042902;stroke-miterlimit:4;stroke-dasharray:none"
           id="path1277"
           inkscape:connector-curvature="0" />
        <path
           sodipodi:nodetypes="csccccccssccc"
           inkscape:connector-curvature="0"
           id="path1275"
           d="m 146.58383,561.02624 c -5.79549,-1.55803 -10.35587,2.16941 -10.35587,11.65697 0,3.27137 0.43113,6.35785 1.23015,9.1966 v 0.002 c 1.98918,7.065 6.26103,12.59263 11.86705,15.59687 1.15009,0.61633 2.24347,1.05528 4.34704,1.64633 2.10356,0.59105 4.71822,0.089 6.69416,-0.96912 l 10.6883,-7.82445 c -2.61972,1.4029 -6.36209,1.82984 -11.04015,-0.67712 -7.85899,-4.21162 -13.09825,-13.3815 -13.09825,-24.79582 0,-1.33185 0.0906,-2.54896 0.26117,-3.65509 -0.19923,-0.0649 -0.39716,-0.12441 -0.59369,-0.17723 z"
           style="font-style:normal;font-variant:normal;font-weight:900;font-stretch:normal;font-size:231.60112px;line-height:1.25;font-family:'Source Sans Pro';-inkscape-font-specification:'Source Sans Pro, Heavy';font-variant-ligatures:normal;font-variant-caps:normal;font-variant-numeric:normal;font-feature-settings:normal;text-align:start;letter-spacing:0px;word-spacing:0px;writing-mode:lr-tb;text-anchor:start;opacity:1;vector-effect:none;fill:#eaf4e0;fill-opacity:1;stroke:#ffffff;stroke-width:0.22042902;stroke-linecap:butt;stroke-linejoin:miter;stroke-miterlimit:4;stroke-dasharray:none;stroke-dashoffset:0;stroke-opacity:1" />
        <path
           style="opacity:1;vector-effect:none;fill:none;fill-opacity:1;stroke:#ffffff;stroke-width:0.22042902;stroke-linecap:butt;stroke-linejoin:miter;stroke-miterlimit:4;stroke-dasharray:none;stroke-dashoffset:0;stroke-opacity:1"
           d="m 170.30635,564.29493 -10.6883,7.82447 8.42035,-5.77913 10.6883,-7.82447 z"
           id="path1279"
           inkscape:connector-curvature="0" />
        <path
           d="m 148.76501,611.02497 c 7.85907,4.21166 14.87609,4.97815 20.02188,1.74793 l -8.42044,-14.61697 c -2.61963,1.40293 -6.36209,1.82994 -11.04007,-0.67699 -7.85907,-4.21166 -13.09842,-13.3815 -13.09842,-24.79582 0,-11.04008 6.17505,-14.2801 13.28554,-10.46958 4.11662,2.20609 7.11058,5.68175 10.10455,9.90587 l 8.26607,-6.06096 c -4.30374,-6.61012 -10.69867,-13.58042 -18.74486,-17.89235 -15.34381,-8.22273 -29.37785,-4.1421 -29.37785,16.25398 0,20.77032 13.47267,38.28189 29.0036,46.60489 z"
           style="font-style:normal;font-variant:normal;font-weight:900;font-stretch:normal;font-size:231.60112px;line-height:1.25;font-family:'Source Sans Pro';-inkscape-font-specification:'Source Sans Pro, Heavy';font-variant-ligatures:normal;font-variant-caps:normal;font-variant-numeric:normal;font-feature-settings:normal;text-align:start;letter-spacing:0px;word-spacing:0px;writing-mode:lr-tb;text-anchor:start;fill:#ffffff;fill-opacity:1;stroke:#ffffff;stroke-width:0.22042902;stroke-miterlimit:4;stroke-dasharray:none"
           id="path1281"
           inkscape:connector-curvature="0"
           sodipodi:nodetypes="scccsccccss" />
        <path
           inkscape:connector-curvature="0"
           id="path1273"
           d="m 179.47519,604.94842 -10.6883,7.82449 -8.42044,-14.61697 10.68839,-7.82446 z"
           style="opacity:1;fill:#d0e7b9;fill-opacity:1;stroke:#ffffff;stroke-width:0.22042902;stroke-linecap:butt;stroke-linejoin:miter;stroke-miterlimit:4;stroke-dasharray:none;stroke-opacity:1" />
        <path
           id="path1271"
           d="m 152.0962,537.21231 c -6.13289,-1.6372 -11.64108,-0.95378 -15.56656,2.3495 v -0.003 l -9.80496,7.14386 -0.009,0.002 c 0,-10e-4 0,-10e-4 0,-0.002 0.10166,-0.0716 0.20402,-0.14164 0.30752,-0.21008 0.009,-0.003 0.0105,-0.007 0.0157,-0.0104 0.096,-0.0634 0.19304,-0.12511 0.29061,-0.18579 0.0105,-0.006 0.02,-0.0131 0.0305,-0.0194 0.13529,-0.0836 0.2725,-0.16384 0.41066,-0.24235 0.11072,-0.0629 0.22232,-0.12409 0.33478,-0.18376 0.0514,-0.0275 0.1035,-0.0546 0.15559,-0.0813 0.11856,-0.0609 0.23809,-0.12009 0.35865,-0.17737 0.0531,-0.0252 0.10663,-0.0498 0.16012,-0.0744 0.11255,-0.0517 0.22589,-0.10199 0.34001,-0.15064 0.0557,-0.0238 0.11203,-0.0473 0.16831,-0.0703 0.11011,-0.0451 0.22101,-0.0888 0.3326,-0.13111 0.074,-0.0285 0.14932,-0.056 0.22458,-0.083 0.10593,-0.0381 0.21221,-0.0754 0.31937,-0.11108 0.0706,-0.0232 0.14051,-0.046 0.21108,-0.0683 0.0905,-0.0286 0.18163,-0.0559 0.27301,-0.0828 0.11003,-0.0323 0.22058,-0.0633 0.33174,-0.0931 0.0928,-0.0248 0.18555,-0.0496 0.27911,-0.0728 0.0802,-0.0201 0.1616,-0.039 0.24279,-0.0577 0.0819,-0.0187 0.16352,-0.0365 0.24575,-0.054 0.13102,-0.0279 0.263,-0.0539 0.3955,-0.0786 0.0819,-0.0151 0.16343,-0.0304 0.24576,-0.0444 0.0964,-0.0163 0.19339,-0.0315 0.29061,-0.0461 0.0584,-0.009 0.11761,-0.0171 0.17658,-0.0253 0.22763,-0.0318 0.45701,-0.0597 0.68865,-0.0823 0,-8e-5 0,0 0,0 0.11447,-0.0112 0.22954,-0.0208 0.34488,-0.0297 0.0497,-0.004 0.10027,-0.007 0.15054,-0.0108 0.36736,-0.0253 0.73934,-0.0395 1.11585,-0.0425 0.0226,-1.2e-4 0.0444,-4e-4 0.0671,-4.2e-4 0.39968,-0.002 0.80433,0.009 1.21351,0.0319 0.0131,6.3e-4 0.0261,10e-4 0.0392,0.002 0.41903,0.0243 0.84267,0.0615 1.27075,0.11149 0.009,10e-4 0.0104,10e-4 0.0157,0.002 0.432,0.0508 0.86836,0.11456 1.3089,0.19122 0.009,0.002 0.009,10e-4 0.0104,0.002 0.009,0.002 0.009,0.001 0.0139,0.003 0,0 0.009,0.002 0.009,0.002 0.19976,0.035 0.4003,0.0727 0.60171,0.11301 0,-9e-5 0,0 0.009,0.002 0.20123,0.0403 0.40334,0.0833 0.60623,0.12882 0.0296,0.007 0.0592,0.0136 0.0889,0.0204 0,-5e-5 0,0 0.009,0.002 0.2319,0.0529 0.46475,0.10948 0.69866,0.16928 0.0383,0.0103 0.0775,0.0196 0.11586,0.0293 0.11952,0.0309 0.23931,0.063 0.35926,0.0963 0,0 0,-1e-5 0.009,0.002 0.0244,0.007 0.0497,0.0144 0.0749,0.0212 0.0322,0.009 0.0645,0.0184 0.097,0.0271 0.19688,0.055 0.39428,0.11262 0.59229,0.1725 0.0775,0.0236 0.15455,0.0466 0.23199,0.0707 0,0 0.009,0.002 0.009,0.002 0.10079,0.0316 0.20176,0.0629 0.3029,0.0956 0.15977,0.0515 0.31997,0.10429 0.48053,0.15881 0,1.1e-4 0,0 0.009,0.002 0.0854,0.029 0.171,0.0592 0.25655,0.089 0,0 0.009,0.002 0.009,0.002 0.0401,0.0142 0.0793,0.0283 0.119,0.0424 0.0723,0.0257 0.1454,0.0514 0.21822,0.0777 0.0836,0.0303 0.16709,0.0598 0.25089,0.0908 0.0105,0.004 0.0209,0.008 0.0305,0.0117 0.16447,0.061 0.32946,0.12391 0.49455,0.18803 0,0 0,0 0.009,0.002 0.0749,0.029 0.14923,0.0585 0.22397,0.0882 0.16761,0.0664 0.33557,0.1341 0.5037,0.20365 0,0 0.009,0.003 0.009,0.003 0.0592,0.0246 0.11865,0.0495 0.17806,0.0744 0,0 0.009,0.003 0.009,0.003 0.15115,0.0635 0.30264,0.12867 0.45422,0.19476 0.009,0.003 0.0165,0.007 0.0244,0.0105 0.0671,0.0293 0.13381,0.0583 0.20089,0.0881 0,5e-5 0,0 0,0 0.10497,0.0466 0.21038,0.095 0.31562,0.14281 0.0854,0.0387 0.16978,0.0761 0.2549,0.11547 0.0557,0.0259 0.11203,0.0524 0.16804,0.0787 0,0 0,0 0,0 0.0305,0.0143 0.061,0.0291 0.0909,0.0434 0.13189,0.0622 0.26396,0.12474 0.3962,0.18884 0.0531,0.0258 0.10689,0.0512 0.16029,0.0774 0,0 0,10e-4 0.009,0.003 0.0882,0.0432 0.17658,0.0887 0.26492,0.13278 0.11098,0.0555 0.22179,0.11 0.33295,0.16666 0.0497,0.0253 0.0988,0.0506 0.14818,0.076 0,0 0,0.001 0.009,0.003 0.10453,0.0538 0.20916,0.10948 0.31378,0.16445 0.0983,0.0515 0.19645,0.10193 0.2948,0.15455 0.009,0.005 0.0165,0.008 0.0244,0.0129 0,3e-5 0,-4e-5 0,0 0.009,0.005 0.0157,0.009 0.0226,0.0126 0.20873,0.11206 0.41606,0.2267 0.62279,0.34265 0,0 0,0.001 0,0.001 0.0601,0.0338 0.12074,0.0677 0.18102,0.10194 0.20638,0.11725 0.41206,0.23621 0.61643,0.35722 0.0496,0.0293 0.0983,0.059 0.1474,0.0883 0,0 0,0.001 0.009,0.003 0.0296,0.0179 0.0601,0.0368 0.09,0.0548 0.14243,0.0857 0.28478,0.1718 0.42625,0.25931 0.0531,0.033 0.1075,0.0659 0.16099,0.0993 0.19644,0.12277 0.39184,0.24751 0.58637,0.3736 0.0645,0.0418 0.12884,0.0839 0.19305,0.12605 0,0.001 0,0.001 0.009,0.004 0.0584,0.0382 0.11586,0.0774 0.17388,0.11589 0.10628,0.0705 0.21273,0.14061 0.31832,0.21202 0.0679,0.0458 0.1352,0.0913 0.20254,0.13735 0,10e-4 0.009,0.004 0.009,0.005 0.0688,0.047 0.13625,0.0948 0.20455,0.14206 0.061,0.0424 0.12178,0.0845 0.1825,0.12699 6.15833,4.31177 11.21587,10.17919 14.7543,15.61397 l 10.68795,-7.82456 c -4.30373,-6.61014 -10.85303,-13.86228 -18.89922,-18.1742 -2.63697,-1.41319 -5.23535,-2.46313 -7.73049,-3.12916 v 0 z m -28.40329,12.45868 -0.009,0.002 v 0 c 0,-10e-4 0,-0.002 0,-0.003 z"
           style="opacity:1;vector-effect:none;fill:#e5fdcf;fill-opacity:1;stroke:#ffffff;stroke-width:0.22042902;stroke-linecap:butt;stroke-linejoin:miter;stroke-miterlimit:4;stroke-dasharray:none;stroke-dashoffset:0;stroke-opacity:1"
           inkscape:connector-curvature="0" />
      </g>
      <g
         id="g1347"
         transform="translate(0.39291144,-2.3574234)">
        <path
           style="fill:none;fill-opacity:1;stroke:#ffffff;stroke-width:0.31354079px;stroke-linecap:butt;stroke-linejoin:miter;stroke-opacity:1"
           d="m 157.27213,553.20181 c -0.34742,-0.0934 -0.69021,-0.16673 -1.02804,-0.22203 -9e-5,-10e-6 0,-10e-6 0,0 -2.07438,-0.33949 -3.95345,0.0431 -5.47317,1.16732 0.0366,-0.0265 0.0706,-0.0555 0.10724,-0.0811 v -5.8e-4 l -10.44308,7.65879 c 1.85512,-1.19154 4.19328,-1.351 6.74261,-0.51984 0,-3e-4 0,-5.7e-4 0,-0.001 0.76226,0.24855 1.54324,0.58532 2.33607,1.01019 4.11662,2.20609 7.11049,5.68176 10.10446,9.90588 l 8.24481,-6.04542 2.44358,-1.77896 c -2.99405,-4.22416 -5.98793,-7.6998 -10.10455,-9.9059 -0.99999,-0.53588 -1.98125,-0.93242 -2.92958,-1.18733 z m -17.47934,8.99314 -0.0105,0.008 v 3e-4 c 0.009,-10e-4 0.009,-0.005 0.01,-0.008 z"
           id="path1333"
           inkscape:connector-curvature="0"
           sodipodi:nodetypes="cccccccccccccsccccccc" />
        <path
           inkscape:connector-curvature="0"
           id="path1335"
           style="font-style:normal;font-variant:normal;font-weight:900;font-stretch:normal;font-size:231.60112px;line-height:1.25;font-family:'Source Sans Pro';-inkscape-font-specification:'Source Sans Pro, Heavy';font-variant-ligatures:normal;font-variant-caps:normal;font-variant-numeric:normal;font-feature-settings:normal;text-align:start;letter-spacing:0px;word-spacing:0px;writing-mode:lr-tb;text-anchor:start;fill:#daf4c0;fill-opacity:1;stroke:#ffffff;stroke-width:0.22042902;stroke-miterlimit:4;stroke-dasharray:none"
           d="m 159.45331,603.20049 c 7.85907,4.21166 14.876,4.97812 20.02188,1.74793 l -8.42035,-14.61694 c -2.61972,1.4029 -6.36218,1.8299 -11.04016,-0.67703 -7.85907,-4.21166 -13.09833,-13.38146 -13.09833,-24.79578 0,-11.04009 6.17487,-14.28017 13.28545,-10.46962 4.11662,2.2061 7.11058,5.68174 10.10455,9.90588 l 8.42035,-5.77914 c -4.30374,-6.61014 -10.85295,-13.86224 -18.89914,-18.17417 -15.3439,-8.22276 -29.37785,-4.14209 -29.37785,16.25399 0,20.77031 13.47267,38.28187 29.0036,46.60488 z" />
        <path
           style="font-style:normal;font-variant:normal;font-weight:900;font-stretch:normal;font-size:231.60112px;line-height:1.25;font-family:'Source Sans Pro';-inkscape-font-specification:'Source Sans Pro, Heavy';font-variant-ligatures:normal;font-variant-caps:normal;font-variant-numeric:normal;font-feature-settings:normal;text-align:start;letter-spacing:0px;word-spacing:0px;writing-mode:lr-tb;text-anchor:start;opacity:1;vector-effect:none;fill:#eaf4e0;fill-opacity:1;stroke:#ffffff;stroke-width:0.22042902;stroke-linecap:butt;stroke-linejoin:miter;stroke-miterlimit:4;stroke-dasharray:none;stroke-dashoffset:0;stroke-opacity:1"
           d="m 146.58383,561.02624 c -5.79549,-1.55803 -10.35587,2.16941 -10.35587,11.65697 0,3.27137 0.43113,6.35785 1.23015,9.1966 v 0.002 c 1.98918,7.065 6.26103,12.59263 11.86705,15.59687 1.15009,0.61633 2.24347,1.05528 4.34704,1.64633 2.10356,0.59105 4.71822,0.089 6.69416,-0.96912 l 10.6883,-7.82445 c -2.61972,1.4029 -6.36209,1.82984 -11.04015,-0.67712 -7.85899,-4.21162 -13.09825,-13.3815 -13.09825,-24.79582 0,-1.33185 0.0906,-2.54896 0.26117,-3.65509 -0.19923,-0.0649 -0.39716,-0.12441 -0.59369,-0.17723 z"
           id="path1337"
           inkscape:connector-curvature="0"
           sodipodi:nodetypes="csccccccssccc" />
        <path
           inkscape:connector-curvature="0"
           id="path1339"
           d="m 170.30635,564.29493 -10.6883,7.82447 8.42035,-5.77913 10.6883,-7.82447 z"
           style="opacity:1;vector-effect:none;fill:none;fill-opacity:1;stroke:#ffffff;stroke-width:0.22042902;stroke-linecap:butt;stroke-linejoin:miter;stroke-miterlimit:4;stroke-dasharray:none;stroke-dashoffset:0;stroke-opacity:1" />
        <path
           sodipodi:nodetypes="scccsccccss"
           inkscape:connector-curvature="0"
           id="path1341"
           style="font-style:normal;font-variant:normal;font-weight:900;font-stretch:normal;font-size:231.60112px;line-height:1.25;font-family:'Source Sans Pro';-inkscape-font-specification:'Source Sans Pro, Heavy';font-variant-ligatures:normal;font-variant-caps:normal;font-variant-numeric:normal;font-feature-settings:normal;text-align:start;letter-spacing:0px;word-spacing:0px;writing-mode:lr-tb;text-anchor:start;fill:#ffffff;fill-opacity:1;stroke:#ffffff;stroke-width:0.22042902;stroke-miterlimit:4;stroke-dasharray:none"
           d="m 148.76501,611.02497 c 7.85907,4.21166 14.87609,4.97815 20.02188,1.74793 l -8.42044,-14.61697 c -2.61963,1.40293 -6.36209,1.82994 -11.04007,-0.67699 -7.85907,-4.21166 -13.09842,-13.3815 -13.09842,-24.79582 0,-11.04008 6.17505,-14.2801 13.28554,-10.46958 4.11662,2.20609 7.11058,5.68175 10.10455,9.90587 l 8.26607,-6.06096 c -4.30374,-6.61012 -10.69867,-13.58042 -18.74486,-17.89235 -15.34381,-8.22273 -29.37785,-4.1421 -29.37785,16.25398 0,20.77032 13.47267,38.28189 29.0036,46.60489 z" />
        <path
           style="opacity:1;fill:#d0e7b9;fill-opacity:1;stroke:#ffffff;stroke-width:0.22042902;stroke-linecap:butt;stroke-linejoin:miter;stroke-miterlimit:4;stroke-dasharray:none;stroke-opacity:1"
           d="m 179.47519,604.94842 -10.6883,7.82449 -8.42044,-14.61697 10.68839,-7.82446 z"
           id="path1343"
           inkscape:connector-curvature="0" />
        <path
           inkscape:connector-curvature="0"
           style="opacity:1;vector-effect:none;fill:#e5fdcf;fill-opacity:1;stroke:#ffffff;stroke-width:0.22042902;stroke-linecap:butt;stroke-linejoin:miter;stroke-miterlimit:4;stroke-dasharray:none;stroke-dashoffset:0;stroke-opacity:1"
           d="m 152.0962,537.21231 c -6.13289,-1.6372 -11.64108,-0.95378 -15.56656,2.3495 v -0.003 l -9.80496,7.14386 -0.009,0.002 c 0,-10e-4 0,-10e-4 0,-0.002 0.10166,-0.0716 0.20402,-0.14164 0.30752,-0.21008 0.009,-0.003 0.0105,-0.007 0.0157,-0.0104 0.096,-0.0634 0.19304,-0.12511 0.29061,-0.18579 0.0105,-0.006 0.02,-0.0131 0.0305,-0.0194 0.13529,-0.0836 0.2725,-0.16384 0.41066,-0.24235 0.11072,-0.0629 0.22232,-0.12409 0.33478,-0.18376 0.0514,-0.0275 0.1035,-0.0546 0.15559,-0.0813 0.11856,-0.0609 0.23809,-0.12009 0.35865,-0.17737 0.0531,-0.0252 0.10663,-0.0498 0.16012,-0.0744 0.11255,-0.0517 0.22589,-0.10199 0.34001,-0.15064 0.0557,-0.0238 0.11203,-0.0473 0.16831,-0.0703 0.11011,-0.0451 0.22101,-0.0888 0.3326,-0.13111 0.074,-0.0285 0.14932,-0.056 0.22458,-0.083 0.10593,-0.0381 0.21221,-0.0754 0.31937,-0.11108 0.0706,-0.0232 0.14051,-0.046 0.21108,-0.0683 0.0905,-0.0286 0.18163,-0.0559 0.27301,-0.0828 0.11003,-0.0323 0.22058,-0.0633 0.33174,-0.0931 0.0928,-0.0248 0.18555,-0.0496 0.27911,-0.0728 0.0802,-0.0201 0.1616,-0.039 0.24279,-0.0577 0.0819,-0.0187 0.16352,-0.0365 0.24575,-0.054 0.13102,-0.0279 0.263,-0.0539 0.3955,-0.0786 0.0819,-0.0151 0.16343,-0.0304 0.24576,-0.0444 0.0964,-0.0163 0.19339,-0.0315 0.29061,-0.0461 0.0584,-0.009 0.11761,-0.0171 0.17658,-0.0253 0.22763,-0.0318 0.45701,-0.0597 0.68865,-0.0823 0,-8e-5 0,0 0,0 0.11447,-0.0112 0.22954,-0.0208 0.34488,-0.0297 0.0497,-0.004 0.10027,-0.007 0.15054,-0.0108 0.36736,-0.0253 0.73934,-0.0395 1.11585,-0.0425 0.0226,-1.2e-4 0.0444,-4e-4 0.0671,-4.2e-4 0.39968,-0.002 0.80433,0.009 1.21351,0.0319 0.0131,6.3e-4 0.0261,10e-4 0.0392,0.002 0.41903,0.0243 0.84267,0.0615 1.27075,0.11149 0.009,10e-4 0.0104,10e-4 0.0157,0.002 0.432,0.0508 0.86836,0.11456 1.3089,0.19122 0.009,0.002 0.009,10e-4 0.0104,0.002 0.009,0.002 0.009,0.001 0.0139,0.003 0,0 0.009,0.002 0.009,0.002 0.19976,0.035 0.4003,0.0727 0.60171,0.11301 0,-9e-5 0,0 0.009,0.002 0.20123,0.0403 0.40334,0.0833 0.60623,0.12882 0.0296,0.007 0.0592,0.0136 0.0889,0.0204 0,-5e-5 0,0 0.009,0.002 0.2319,0.0529 0.46475,0.10948 0.69866,0.16928 0.0383,0.0103 0.0775,0.0196 0.11586,0.0293 0.11952,0.0309 0.23931,0.063 0.35926,0.0963 0,0 0,-1e-5 0.009,0.002 0.0244,0.007 0.0497,0.0144 0.0749,0.0212 0.0322,0.009 0.0645,0.0184 0.097,0.0271 0.19688,0.055 0.39428,0.11262 0.59229,0.1725 0.0775,0.0236 0.15455,0.0466 0.23199,0.0707 0,0 0.009,0.002 0.009,0.002 0.10079,0.0316 0.20176,0.0629 0.3029,0.0956 0.15977,0.0515 0.31997,0.10429 0.48053,0.15881 0,1.1e-4 0,0 0.009,0.002 0.0854,0.029 0.171,0.0592 0.25655,0.089 0,0 0.009,0.002 0.009,0.002 0.0401,0.0142 0.0793,0.0283 0.119,0.0424 0.0723,0.0257 0.1454,0.0514 0.21822,0.0777 0.0836,0.0303 0.16709,0.0598 0.25089,0.0908 0.0105,0.004 0.0209,0.008 0.0305,0.0117 0.16447,0.061 0.32946,0.12391 0.49455,0.18803 0,0 0,0 0.009,0.002 0.0749,0.029 0.14923,0.0585 0.22397,0.0882 0.16761,0.0664 0.33557,0.1341 0.5037,0.20365 0,0 0.009,0.003 0.009,0.003 0.0592,0.0246 0.11865,0.0495 0.17806,0.0744 0,0 0.009,0.003 0.009,0.003 0.15115,0.0635 0.30264,0.12867 0.45422,0.19476 0.009,0.003 0.0165,0.007 0.0244,0.0105 0.0671,0.0293 0.13381,0.0583 0.20089,0.0881 0,5e-5 0,0 0,0 0.10497,0.0466 0.21038,0.095 0.31562,0.14281 0.0854,0.0387 0.16978,0.0761 0.2549,0.11547 0.0557,0.0259 0.11203,0.0524 0.16804,0.0787 0,0 0,0 0,0 0.0305,0.0143 0.061,0.0291 0.0909,0.0434 0.13189,0.0622 0.26396,0.12474 0.3962,0.18884 0.0531,0.0258 0.10689,0.0512 0.16029,0.0774 0,0 0,10e-4 0.009,0.003 0.0882,0.0432 0.17658,0.0887 0.26492,0.13278 0.11098,0.0555 0.22179,0.11 0.33295,0.16666 0.0497,0.0253 0.0988,0.0506 0.14818,0.076 0,0 0,0.001 0.009,0.003 0.10453,0.0538 0.20916,0.10948 0.31378,0.16445 0.0983,0.0515 0.19645,0.10193 0.2948,0.15455 0.009,0.005 0.0165,0.008 0.0244,0.0129 0,3e-5 0,-4e-5 0,0 0.009,0.005 0.0157,0.009 0.0226,0.0126 0.20873,0.11206 0.41606,0.2267 0.62279,0.34265 0,0 0,0.001 0,0.001 0.0601,0.0338 0.12074,0.0677 0.18102,0.10194 0.20638,0.11725 0.41206,0.23621 0.61643,0.35722 0.0496,0.0293 0.0983,0.059 0.1474,0.0883 0,0 0,0.001 0.009,0.003 0.0296,0.0179 0.0601,0.0368 0.09,0.0548 0.14243,0.0857 0.28478,0.1718 0.42625,0.25931 0.0531,0.033 0.1075,0.0659 0.16099,0.0993 0.19644,0.12277 0.39184,0.24751 0.58637,0.3736 0.0645,0.0418 0.12884,0.0839 0.19305,0.12605 0,0.001 0,0.001 0.009,0.004 0.0584,0.0382 0.11586,0.0774 0.17388,0.11589 0.10628,0.0705 0.21273,0.14061 0.31832,0.21202 0.0679,0.0458 0.1352,0.0913 0.20254,0.13735 0,10e-4 0.009,0.004 0.009,0.005 0.0688,0.047 0.13625,0.0948 0.20455,0.14206 0.061,0.0424 0.12178,0.0845 0.1825,0.12699 6.15833,4.31177 11.21587,10.17919 14.7543,15.61397 l 10.68795,-7.82456 c -4.30373,-6.61014 -10.85303,-13.86228 -18.89922,-18.1742 -2.63697,-1.41319 -5.23535,-2.46313 -7.73049,-3.12916 v 0 z m -28.40329,12.45868 -0.009,0.002 v 0 c 0,-10e-4 0,-0.002 0,-0.003 z"
           id="path1345" />
      </g>
    </g>
  </g>
</svg>
