<?xml version="1.0" encoding="UTF-8" standalone="no"?>
<!-- Created with Inkscape (http://www.inkscape.org/) -->

<svg
   xmlns:dc="http://purl.org/dc/elements/1.1/"
   xmlns:cc="http://creativecommons.org/ns#"
   xmlns:rdf="http://www.w3.org/1999/02/22-rdf-syntax-ns#"
   xmlns:svg="http://www.w3.org/2000/svg"
   xmlns="http://www.w3.org/2000/svg"
   xmlns:sodipodi="http://sodipodi.sourceforge.net/DTD/sodipodi-0.dtd"
   xmlns:inkscape="http://www.inkscape.org/namespaces/inkscape"
   width="800"
   height="449.99991"
   viewBox="0 0 211.66669 119.06248"
   version="1.1"
   id="svg8"
   inkscape:version="0.92.4 5da689c313, 2019-01-14"
   sodipodi:docname="cover.svg"
   style="enable-background:new"
   inkscape:export-filename="/home/hervyqa/hervyqa-gl/hervyqa/hervyqa-blog/static/post/tips-dan-trik-untuk-mikrostoker-dengan-inkscape/cover.png"
   inkscape:export-xdpi="96"
   inkscape:export-ydpi="96">
  <defs
     id="defs2">
    <inkscape:path-effect
       effect="bend_path"
       id="path-effect6456"
       is_visible="true"
       bendpath="m 68.708334,665.4725 c 38.324196,-14.85258 57.229566,-3.12605 104.842706,0"
       prop_scale="1"
       scale_y_rel="false"
       vertical="false"
       bendpath-nodetypes="cc" />
  </defs>
  <sodipodi:namedview
     id="base"
     pagecolor="#ffffff"
     bordercolor="#666666"
     borderopacity="1.0"
     inkscape:pageopacity="0.0"
     inkscape:pageshadow="2"
     inkscape:zoom="0.47616052"
     inkscape:cx="410.42153"
     inkscape:cy="331.45378"
     inkscape:document-units="px"
     inkscape:current-layer="layer2"
     showgrid="false"
     units="px"
     borderlayer="true"
     inkscape:pagecheckerboard="true"
     inkscape:window-width="1346"
     inkscape:window-height="724"
     inkscape:window-x="6"
     inkscape:window-y="30"
     inkscape:window-maximized="1"
     inkscape:snap-global="true"
     showguides="true"
     inkscape:guide-bbox="true">
    <inkscape:grid
       type="xygrid"
       id="grid815"
       dotted="false"
       originx="-15.29634"
       originy="-76.572837" />
    <sodipodi:guide
       position="46.302106,165.36459"
       orientation="1,0"
       id="guide851"
       inkscape:locked="false" />
    <sodipodi:guide
       position="165.36459,165.36459"
       orientation="1,0"
       id="guide853"
       inkscape:locked="false" />
  </sodipodi:namedview>
  <metadata
     id="metadata5">
    <rdf:RDF>
      <cc:Work
         rdf:about="">
        <dc:format>image/svg+xml</dc:format>
        <dc:type
           rdf:resource="http://purl.org/dc/dcmitype/StillImage" />
        <dc:title />
        <dc:date />
        <dc:creator>
          <cc:Agent>
            <dc:title />
          </cc:Agent>
        </dc:creator>
        <dc:subject>
          <rdf:Bag />
        </dc:subject>
        <dc:description />
        <cc:license
           rdf:resource="" />
      </cc:Work>
    </rdf:RDF>
  </metadata>
  <g
     inkscape:label="background"
     inkscape:groupmode="layer"
     id="layer1"
     transform="translate(-15.296344,-101.36462)" />
  <g
     inkscape:groupmode="layer"
     id="layer2"
     inkscape:label="artwork"
     transform="translate(-15.296344,-545.19795)">
    <text
       xml:space="preserve"
       style="font-style:normal;font-variant:normal;font-weight:bold;font-stretch:normal;font-size:17.92033768px;line-height:1.25;font-family:Inter;-inkscape-font-specification:'Inter, Bold';font-variant-ligatures:normal;font-variant-position:normal;font-variant-caps:normal;font-variant-numeric:normal;font-variant-alternates:normal;font-feature-settings:normal;text-indent:0;text-align:center;text-decoration:none;text-decoration-line:none;text-decoration-style:solid;text-decoration-color:#000000;letter-spacing:0px;word-spacing:0px;text-transform:none;writing-mode:lr-tb;direction:ltr;text-orientation:mixed;dominant-baseline:auto;baseline-shift:baseline;text-anchor:middle;white-space:normal;shape-padding:0;opacity:1;vector-effect:none;fill:#ffffff;fill-opacity:1;stroke:none;stroke-width:0.26458335;stroke-linecap:butt;stroke-linejoin:miter;stroke-miterlimit:4;stroke-dasharray:none;stroke-dashoffset:0;stroke-opacity:1"
       x="119.39702"
       y="647.90332"
       id="text197"><tspan
         sodipodi:role="line"
         x="119.39702"
         y="664.552"
         style="font-style:normal;font-variant:normal;font-weight:bold;font-stretch:normal;font-size:17.92033768px;line-height:1.25;font-family:Inter;-inkscape-font-specification:'Inter, Bold';font-variant-ligatures:normal;font-variant-position:normal;font-variant-caps:normal;font-variant-numeric:normal;font-variant-alternates:normal;font-feature-settings:normal;text-indent:0;text-align:center;text-decoration:none;text-decoration-line:none;text-decoration-style:solid;text-decoration-color:#000000;letter-spacing:0px;word-spacing:0px;text-transform:none;writing-mode:lr-tb;direction:ltr;text-orientation:mixed;dominant-baseline:auto;baseline-shift:baseline;text-anchor:middle;white-space:normal;shape-padding:0;vector-effect:none;fill:#ffffff;fill-opacity:1;stroke:none;stroke-width:0.26458335;stroke-linecap:butt;stroke-linejoin:miter;stroke-miterlimit:4;stroke-dasharray:none;stroke-dashoffset:0;stroke-opacity:1"
         id="tspan199" /></text>
    <g
       id="g847"
       transform="translate(58.796351,-33.072931)">
      <path
         inkscape:connector-curvature="0"
         id="rect818"
         d="M 168.16668,134.43755 V 253.50003 H -43.500004 V 134.43755 Z"
         style="opacity:1;vector-effect:none;fill:#eb6461;fill-opacity:1;fill-rule:nonzero;stroke:none;stroke-width:0.2999202;stroke-linecap:butt;stroke-linejoin:miter;stroke-miterlimit:4;stroke-dasharray:none;stroke-dashoffset:0;stroke-opacity:1;paint-order:stroke fill markers;enable-background:new"
         transform="translate(7.4005097e-7,443.83333)" />
      <path
         inkscape:connector-curvature="0"
         id="path6424"
         d="m 43.909887,670.60265 c -0.674016,0.0868 -1.345304,0.18441 -2.013831,0.29234 l 1.42649,8.86491 c 0.57309,-0.0918 1.146544,-0.17369 1.720494,-0.2455 l -0.270083,-2.12379 c 0.120878,-0.18527 0.243072,-0.36996 0.366755,-0.55445 0.01672,-0.025 0.03372,-0.0501 0.0505,-0.0751 0.699969,0.82843 1.370336,1.67008 2.013831,2.52344 0.676213,-0.0574 1.355807,-0.10143 2.038077,-0.13289 -0.878165,-1.23379 -1.80716,-2.44666 -2.793513,-3.63433 0.738818,-1.04421 1.523147,-2.0732 2.34703,-3.08651 -0.747415,0.0365 -1.494876,0.0862 -2.242386,0.14982 -0.571311,0.76778 -1.11982,1.54383 -1.642756,2.32809 -0.09897,0.14841 -0.196809,0.29695 -0.294003,0.44582 -0.03354,0.005 -0.06713,0.009 -0.100657,0.013 z m -4.481786,0.23355 c -0.07128,0.003 -0.144295,0.0112 -0.218592,0.0262 -0.294056,0.0595 -0.528274,0.20295 -0.700621,0.42821 -0.172419,0.22536 -0.228942,0.46552 -0.17308,0.71956 0.05588,0.25414 0.208037,0.44953 0.454127,0.588 0.245612,0.13569 0.509677,0.17383 0.7953,0.11594 0.288665,-0.0585 0.5186,-0.197 0.692316,-0.41758 0.173081,-0.22334 0.237827,-0.46209 0.190354,-0.7179 -0.04746,-0.25572 -0.193683,-0.45486 -0.440838,-0.59531 -0.18525,-0.10527 -0.385133,-0.15455 -0.598966,-0.14717 z m -2.836704,1.1378 c -0.818166,0.20028 -1.631307,0.41477 -2.439384,0.64248 -0.305897,2.17727 -0.537454,4.35106 -0.702284,6.51788 -0.03312,0.0106 -0.06622,0.0213 -0.09933,0.0319 -1.3942,-1.66667 -2.848053,-3.3007 -4.353223,-4.90102 -0.784562,0.28028 -1.563448,0.57172 -2.336402,0.87336 l 3.252958,8.37524 c 0.549873,-0.21236 1.101128,-0.41884 1.65372,-0.61923 l -2.006855,-5.5196 c 0.02397,-0.009 0.04778,-0.0176 0.07176,-0.0262 1.411606,1.55497 2.776367,3.13983 4.086794,4.75387 0.378659,-0.12497 0.757775,-0.2466 1.137472,-0.36509 0.128138,-2.06795 0.316475,-4.14223 0.571393,-6.21989 0.02463,-0.007 0.04911,-0.0135 0.07375,-0.0203 l 1.550404,5.63985 c 0.559864,-0.15453 1.120713,-0.30128 1.682289,-0.43984 z m 16.813592,0.293 c -0.396733,-0.007 -0.74853,0.098 -1.050435,0.31328 -0.299095,0.21256 -0.509843,0.52921 -0.63385,0.94811 -0.02398,1.2e-4 -0.04809,1.8e-4 -0.07209,3.3e-4 l -0.0069,-1.17568 c -0.630386,0.004 -1.261118,0.0167 -1.892243,0.0382 l 0.227893,6.73148 c 0.584273,-0.0194 1.170706,-0.0298 1.758696,-0.0322 l -0.01961,-3.81206 c 0.0013,-0.41237 0.130674,-0.74784 0.395325,-1.00526 0.267365,-0.25716 0.596134,-0.38423 0.981334,-0.37871 0.131342,0.002 0.248702,0.02 0.352472,0.0541 0.106818,0.0313 0.204358,0.07 0.292674,0.11594 0.202628,-0.51037 0.409211,-1.02002 0.619566,-1.52881 -0.125235,-0.0799 -0.26818,-0.14381 -0.428548,-0.19168 -0.160347,-0.0478 -0.335057,-0.0737 -0.524217,-0.0771 z m 17.06739,0.18604 -0.234867,1.59791 c -0.308855,-0.0454 -0.617869,-0.0906 -0.927187,-0.13554 l -0.201651,1.38961 c 0.308398,0.0448 0.616661,0.0899 0.924866,0.13521 l -0.510602,3.47288 c -0.09931,0.65352 0.03201,1.17159 0.392997,1.55306 0.36443,0.37912 0.887702,0.60487 1.572332,0.67704 0.244716,0.0275 0.455368,0.0335 0.631851,0.0183 0.176047,-0.0123 0.313477,-0.0262 0.411937,-0.0412 -0.0306,-0.4732 -0.06101,-0.94633 -0.09136,-1.41952 -0.04828,0.002 -0.11797,0.005 -0.208626,0.009 -0.09022,10e-4 -0.179061,-0.005 -0.267094,-0.0176 -0.187785,-0.0279 -0.333939,-0.0955 -0.437844,-0.20265 -0.103905,-0.10712 -0.13651,-0.28818 -0.09866,-0.54282 l 0.479706,-3.22904 c 0.423784,0.063 0.847472,0.12586 1.271018,0.18869 l 0.205965,-1.38929 c -0.423167,-0.0627 -0.846424,-0.12546 -1.27035,-0.18835 l 0.237195,-1.59758 c -0.625037,-0.0929 -1.251488,-0.18582 -1.879624,-0.27806 z m -12.626797,0.0339 c -0.599047,-0.0114 -1.13346,0.10029 -1.596915,0.33154 -0.526834,0.26171 -0.937626,0.65087 -1.232813,1.16338 -0.295297,0.51 -0.450617,1.11327 -0.474725,1.80953 -0.02385,0.68976 0.08881,1.30171 0.329214,1.8351 0.240724,0.53085 0.590246,0.95381 1.04778,1.27168 0.460915,0.31537 1.013213,0.49449 1.665012,0.54316 0.651883,0.0487 1.226552,-0.0462 1.730462,-0.29035 0.0045,-0.002 0.0084,-0.005 0.0126,-0.006 0.504501,-0.24578 0.915647,-0.61011 1.231483,-1.09627 0.318709,-0.49305 0.517345,-1.08216 0.590991,-1.76834 0.07428,-0.6921 0.0051,-1.31135 -0.213274,-1.85769 -0.216052,-0.54433 -0.561118,-0.98555 -1.036485,-1.32118 -0.0039,-0.003 -0.0078,-0.006 -0.01196,-0.009 -0.479584,-0.33941 -1.075114,-0.53959 -1.780618,-0.59299 -0.0882,-0.007 -0.175204,-0.011 -0.260781,-0.0126 z m 7.077971,0.76938 c -0.601637,-0.007 -1.120043,0.10648 -1.552397,0.33719 -0.574091,0.30825 -0.894053,0.78652 -0.965391,1.43181 -0.123165,1.01699 0.454583,1.72614 1.716505,2.1487 0.377242,0.12621 0.754123,0.25359 1.130831,0.38205 0.549578,0.18844 0.805577,0.45036 0.769056,0.78167 -0.03021,0.19665 -0.153894,0.34482 -0.371076,0.44516 -0.214323,0.10074 -0.483236,0.12923 -0.806927,0.0864 -0.329439,-0.0436 -0.590265,-0.14833 -0.783341,-0.3146 -0.190138,-0.16585 -0.297263,-0.38838 -0.320908,-0.66839 -0.610887,-0.0445 -1.220907,-0.0858 -1.829789,-0.12292 0.01376,0.64893 0.259135,1.18922 0.73251,1.62282 0.474171,0.43111 1.145346,0.70158 2.020808,0.81756 0.571455,0.0757 1.091629,0.0539 1.561699,-0.0668 0.47041,-0.12357 0.857256,-0.33145 1.159726,-0.62521 0.305345,-0.29332 0.49005,-0.658 0.552793,-1.09529 0.131651,-0.94025 -0.429043,-1.63906 -1.690592,-2.0806 -0.395729,-0.13688 -0.79198,-0.27287 -1.188636,-0.40761 -0.304843,-0.10789 -0.516484,-0.22498 -0.634512,-0.35214 -0.11513,-0.12675 -0.160792,-0.26969 -0.137533,-0.42888 0.02218,-0.20058 0.140953,-0.34764 0.356792,-0.44084 0.219111,-0.0957 0.475078,-0.12429 0.767063,-0.0857 0.327362,0.0433 0.576643,0.15531 0.747129,0.33486 0.170511,0.17956 0.264143,0.37976 0.281712,0.60062 0.577427,0.0438 1.154739,0.0894 1.732121,0.13654 0.0058,-0.62553 -0.213365,-1.15181 -0.659102,-1.57764 -0.442492,-0.42513 -1.095834,-0.69802 -1.959345,-0.81191 -0.218925,-0.0289 -0.42865,-0.0446 -0.629196,-0.0469 z m -24.21048,0.12259 c -0.641036,0.11986 -1.279901,0.2497 -1.916163,0.38868 l 1.439447,6.57933 c 0.57092,-0.12532 1.142291,-0.24173 1.714513,-0.34881 z m 17.119549,0.53983 c 0.05676,-0.002 0.115386,-5.4e-4 0.175403,0.004 0.471214,0.0356 0.811164,0.26002 1.016884,0.6684 0.209147,0.40616 0.284503,0.9019 0.231217,1.48761 -0.05323,0.5854 -0.216328,1.05998 -0.484689,1.42417 -0.265763,0.36479 -0.621688,0.52868 -1.071032,0.49499 -0.45783,-0.0343 -0.789795,-0.24937 -1.000272,-0.6498 -0.210202,-0.3999 -0.300883,-0.89404 -0.266426,-1.48097 0.03446,-0.58746 0.182841,-1.06655 0.450469,-1.43712 0.234051,-0.32641 0.551115,-0.4978 0.948446,-0.51127 z m 31.733941,0.38901 -0.872042,8.94198 c 0.64107,0.0625 1.28277,0.12227 1.925132,0.17939 l 0.189688,-2.13242 c 0.188723,-0.17552 0.376875,-0.35121 0.56475,-0.52721 0.546254,0.9558 1.100796,1.90968 1.66435,2.86129 0.754335,0.0585 1.509525,0.11298 2.26564,0.16311 -0.823795,-1.33119 -1.6281,-2.66731 -2.415464,-4.00773 0.922724,-0.90203 1.833672,-1.81015 2.732058,-2.72508 -0.715178,-0.0476 -1.430054,-0.0995 -2.145053,-0.15514 -0.785616,0.794 -1.58056,1.58345 -2.383572,2.36829 -0.03407,-0.003 -0.06794,-0.006 -0.101989,-0.009 l 0.425558,-4.78443 c -0.616178,-0.0548 -1.232627,-0.11257 -1.849056,-0.17274 z m -12.632449,0.68601 c -0.347425,0.005 -0.673412,0.0556 -0.978351,0.15414 -0.06769,0.0219 -0.134357,0.0459 -0.199986,0.0724 -0.53523,0.21513 -0.976108,0.56129 -1.321843,1.0398 -0.345272,0.47556 -0.569147,1.05728 -0.670725,1.74607 -0.10071,0.68291 -0.05413,1.30358 0.140857,1.86135 0.195422,0.55484 0.521768,1.01398 0.980672,1.37566 0.05631,0.0438 0.114608,0.0857 0.174407,0.12558 0.430727,0.28773 0.950483,0.47453 1.55871,0.55976 0.692678,0.0971 1.311261,0.0358 1.852707,-0.18338 0.544918,-0.22167 0.987653,-0.57336 1.32849,-1.05375 0.341299,-0.4834 0.55539,-1.0674 0.644477,-1.75205 0.08982,-0.69029 0.03266,-1.31141 -0.169425,-1.86301 -0.201729,-0.5546 -0.531547,-1.00839 -0.98964,-1.36237 -0.45486,-0.35657 -1.021853,-0.58188 -1.701887,-0.67704 -0.223945,-0.0314 -0.44001,-0.0457 -0.648463,-0.0432 z m 7.711488,0.983 c -0.481802,-6e-4 -0.920674,0.0862 -1.318198,0.26111 -0.52954,0.2302 -0.962183,0.58745 -1.297587,1.07302 -0.332049,0.48295 -0.542899,1.06662 -0.629865,1.75139 -0.08587,0.67617 -0.0288,1.29089 0.173411,1.84407 0.205129,0.55347 0.542031,1.00837 1.011233,1.36305 0.472436,0.35205 1.063543,0.56983 1.770988,0.65112 0.614526,0.0706 1.159231,0.0221 1.632458,-0.14418 0.473637,-0.16918 0.858085,-0.43573 1.153086,-0.79895 0.298035,-0.36299 0.487646,-0.7992 0.570066,-1.30823 -0.59803,-0.0615 -1.195656,-0.12494 -1.792915,-0.19069 -0.09582,0.35141 -0.266599,0.61186 -0.511926,0.78169 -0.244948,0.16687 -0.531785,0.23168 -0.859751,0.194 -0.444278,-0.051 -0.780152,-0.26715 -1.006251,-0.64747 -0.222872,-0.38303 -0.294827,-0.89415 -0.217929,-1.53312 0.07618,-0.63302 0.268348,-1.10614 0.574052,-1.42018 0.305846,-0.31419 0.675322,-0.44596 1.109899,-0.39599 0.343582,0.0395 0.609236,0.17391 0.797959,0.40396 0.191938,0.22742 0.294943,0.51094 0.308289,0.85078 0.593119,0.0653 1.186669,0.12834 1.78029,0.18936 0.02661,-0.52056 -0.07017,-0.98602 -0.288354,-1.39693 -0.21528,-0.41069 -0.533693,-0.74623 -0.955093,-1.00692 -0.418544,-0.2604 -0.920841,-0.42341 -1.507879,-0.491 -0.170125,-0.0196 -0.335384,-0.0297 -0.495983,-0.0299 z m -7.424465,0.45877 c 0.05619,0.002 0.113792,0.007 0.172749,0.015 0.462831,0.0648 0.786066,0.30584 0.971035,0.72388 0.188248,0.41544 0.243656,0.91437 0.164443,1.49692 -0.07923,0.58266 -0.265924,1.04888 -0.561098,1.39825 -0.292121,0.34967 -0.672467,0.4921 -1.140461,0.42655 -0.476852,-0.0668 -0.809614,-0.30906 -0.997283,-0.72586 -0.187695,-0.41692 -0.239111,-0.91629 -0.155469,-1.49825 0.08363,-0.5819 0.273697,-1.04678 0.568736,-1.3946 0.258596,-0.30695 0.584048,-0.45405 0.977348,-0.44183 z m 19.774204,5.70098 a 1.0103422,1.0103422 0 0 0 -1.010237,1.01057 1.0103422,1.0103422 0 0 0 1.010237,1.01024 1.0103422,1.0103422 0 0 0 1.010572,-1.01024 1.0103422,1.0103422 0 0 0 -1.010572,-1.01057 z"
         style="font-style:normal;font-variant:normal;font-weight:bold;font-stretch:normal;font-size:19.2186985px;line-height:1.25;font-family:Inter;-inkscape-font-specification:'Inter, Bold';font-variant-ligatures:normal;font-variant-caps:normal;font-variant-numeric:normal;font-feature-settings:normal;text-align:center;letter-spacing:0px;word-spacing:0px;writing-mode:lr-tb;text-anchor:middle;fill:#ffffff;fill-opacity:1;stroke:none;stroke-width:0.17008926" />
      <g
         transform="matrix(0.63950249,0.0655872,-0.0655872,0.63950249,23.683208,243.44715)"
         id="g6494">
        <path
           style="opacity:1;vector-effect:none;fill:none;fill-opacity:1;stroke:#ffffff;stroke-width:1.39783597;stroke-linecap:round;stroke-linejoin:bevel;stroke-miterlimit:4;stroke-dasharray:1.39783591, 2.79567181;stroke-dashoffset:0;stroke-opacity:1;enable-background:new"
           d="m 122.9697,575.75034 c 0,0 -7.51587,-15.38964 -3.75793,-22.72655 3.75793,-7.33692 10.02116,-3.40004 10.02116,-3.40004"
           id="path6361"
           inkscape:connector-curvature="0" />
        <path
           style="opacity:1;vector-effect:none;fill:none;fill-opacity:1;stroke:#ffffff;stroke-width:1.39783597;stroke-linecap:round;stroke-linejoin:bevel;stroke-miterlimit:4;stroke-dasharray:1.39783591, 2.79567181;stroke-dashoffset:0;stroke-opacity:1;enable-background:new"
           d="m 105.07478,577.53983 c 0,0 -10.558006,-20.04231 -16.642279,-20.75811 -6.084274,-0.7158 -8.768512,7.51587 -8.768512,7.51587"
           id="path6363"
           inkscape:connector-curvature="0" />
        <path
           inkscape:connector-curvature="0"
           id="path6326"
           d="m 96.243387,606.87397 c 0,0 -19.982051,-13.24727 -34.178226,-11.02938 -14.196176,2.21789 -16.869969,9.70147 -10.618153,10.44434 6.251821,0.74287 16.227731,2.31708 16.227731,2.31708 0,0 -10.816637,-2.45588 -10.736482,4.17206 0.08016,6.62792 18.194041,2.09641 18.194041,2.09641 0,0 -14.178481,2.72343 -9.345444,10.65287 4.833045,7.92943 21.566985,-8.54986 21.566985,-8.54986 0,0 -11.159086,9.45094 -6.940545,15.73154 4.218541,6.28061 24.676576,-9.36733 24.676576,-9.36733"
           style="opacity:1;vector-effect:none;fill:none;fill-opacity:1;stroke:#ffffff;stroke-width:1.39783597;stroke-linecap:round;stroke-linejoin:bevel;stroke-miterlimit:4;stroke-dasharray:1.39783591, 2.79567181;stroke-dashoffset:0;stroke-opacity:1" />
        <path
           style="opacity:1;vector-effect:none;fill:none;fill-opacity:1;stroke:#ffffff;stroke-width:1.39783597;stroke-linecap:round;stroke-linejoin:bevel;stroke-miterlimit:4;stroke-dasharray:1.39783591, 2.79567181;stroke-dashoffset:0;stroke-opacity:1"
           d="m 147.76774,587.67153 c 0,0 6.43826,-23.09374 18.62336,-30.70779 12.18509,-7.61407 19.10449,-3.70573 14.86376,0.94757 -4.24074,4.6533 -10.75313,12.37249 -10.75313,12.37249 0,0 6.57103,-8.93604 10.8482,-3.87227 4.27718,5.06376 -12.38425,13.49252 -12.38425,13.49252 0,0 12.50259,-7.22023 14.03796,1.9382 1.53537,9.15843 -21.90216,7.6505 -21.90216,7.6505 0,0 14.62261,-0.15755 15.54349,7.35205 0.92088,7.5096 -24.7883,9.06756 -24.7883,9.06756"
           id="path6324"
           inkscape:connector-curvature="0" />
        <g
           id="g6322"
           transform="matrix(0.54625007,-0.20357996,0.20357996,0.54625007,-65.875395,295.34712)">
          <rect
             y="551.91473"
             x="68.315254"
             height="105.62886"
             width="105.62886"
             id="rect6306"
             style="opacity:1;vector-effect:none;fill:#ffffff;fill-opacity:1;stroke:none;stroke-width:14.94895935;stroke-linecap:round;stroke-linejoin:bevel;stroke-miterlimit:4;stroke-dasharray:none;stroke-dashoffset:0;stroke-opacity:1;paint-order:stroke fill markers"
             ry="26.388546" />
          <g
             id="g6316"
             style="stroke:#e53935;stroke-opacity:1">
            <path
               style="fill:none;stroke:#e53935;stroke-width:14.94895935;stroke-linecap:butt;stroke-linejoin:miter;stroke-miterlimit:4;stroke-dasharray:none;stroke-opacity:1"
               d="m 141.95152,603.149 v 12.46371 c 0,13.606 -10.77923,15.52766 -23.76025,15.52766 h -3.53655"
               id="path6304"
               inkscape:connector-curvature="0"
               sodipodi:nodetypes="cccc" />
            <path
               sodipodi:nodetypes="cccc"
               inkscape:connector-curvature="0"
               id="path6312"
               d="m 100.30785,606.30933 v -12.46371 c 0,-13.606 10.77923,-15.52766 23.76025,-15.52766 h 3.53655"
               style="fill:none;stroke:#e53935;stroke-width:14.94895935;stroke-linecap:butt;stroke-linejoin:miter;stroke-miterlimit:4;stroke-dasharray:none;stroke-opacity:1" />
          </g>
        </g>
      </g>
    </g>
  </g>
</svg>
