<?xml version="1.0" encoding="UTF-8" standalone="no"?>
<!-- Created with Inkscape (http://www.inkscape.org/) -->

<svg
   xmlns:dc="http://purl.org/dc/elements/1.1/"
   xmlns:cc="http://creativecommons.org/ns#"
   xmlns:rdf="http://www.w3.org/1999/02/22-rdf-syntax-ns#"
   xmlns:svg="http://www.w3.org/2000/svg"
   xmlns="http://www.w3.org/2000/svg"
   xmlns:sodipodi="http://sodipodi.sourceforge.net/DTD/sodipodi-0.dtd"
   xmlns:inkscape="http://www.inkscape.org/namespaces/inkscape"
   width="1244.4448"
   height="700"
   viewBox="0 0 329.25939 185.20834"
   version="1.1"
   id="svg8"
   inkscape:version="0.92.4 5da689c313, 2019-01-14"
   sodipodi:docname="cover.svg"
   style="enable-background:new"
   inkscape:export-filename="/home/hervyqa/hervyqa-gl/hervyqa/hervyqa-blog/static/post/tips-dan-trik-untuk-mikrostoker-dengan-inkscape/cover.png"
   inkscape:export-xdpi="96"
   inkscape:export-ydpi="96">
  <defs
     id="defs2">
    <inkscape:path-effect
       effect="bend_path"
       id="path-effect6456"
       is_visible="true"
       bendpath="m 68.708334,665.4725 c 38.324196,-14.85258 57.229566,-3.12605 104.842706,0"
       prop_scale="1"
       scale_y_rel="false"
       vertical="false"
       bendpath-nodetypes="cc" />
  </defs>
  <sodipodi:namedview
     id="base"
     pagecolor="#ffffff"
     bordercolor="#666666"
     borderopacity="1.0"
     inkscape:pageopacity="0.0"
     inkscape:pageshadow="2"
     inkscape:zoom="0.47616052"
     inkscape:cx="683.04711"
     inkscape:cy="456.45383"
     inkscape:document-units="px"
     inkscape:current-layer="layer2"
     showgrid="false"
     units="px"
     borderlayer="true"
     inkscape:pagecheckerboard="true"
     inkscape:window-width="1346"
     inkscape:window-height="724"
     inkscape:window-x="6"
     inkscape:window-y="30"
     inkscape:window-maximized="1"
     inkscape:snap-global="false"
     showguides="true"
     inkscape:guide-bbox="true">
    <inkscape:grid
       type="xygrid"
       id="grid815"
       dotted="false"
       originx="43.500009"
       originy="-43.499907" />
    <sodipodi:guide
       position="72.02551,185.20835"
       orientation="1,0"
       id="guide851"
       inkscape:locked="false" />
    <sodipodi:guide
       position="257.23387,185.20835"
       orientation="1,0"
       id="guide853"
       inkscape:locked="false" />
  </sodipodi:namedview>
  <metadata
     id="metadata5">
    <rdf:RDF>
      <cc:Work
         rdf:about="">
        <dc:format>image/svg+xml</dc:format>
        <dc:type
           rdf:resource="http://purl.org/dc/dcmitype/StillImage" />
        <dc:title />
        <dc:date />
        <dc:creator>
          <cc:Agent>
            <dc:title />
          </cc:Agent>
        </dc:creator>
        <dc:subject>
          <rdf:Bag />
        </dc:subject>
        <dc:description />
        <cc:license
           rdf:resource="" />
      </cc:Work>
    </rdf:RDF>
  </metadata>
  <g
     inkscape:label="background"
     inkscape:groupmode="layer"
     id="layer1"
     transform="translate(43.500005,-68.291685)">
    <path
       style="opacity:1;vector-effect:none;fill:#e53935;fill-opacity:1;fill-rule:nonzero;stroke:none;stroke-width:0.46654263;stroke-linecap:butt;stroke-linejoin:miter;stroke-miterlimit:4;stroke-dasharray:none;stroke-dashoffset:0;stroke-opacity:1;paint-order:stroke fill markers"
       d="M 285.75935,68.291683 V 253.50003 H -43.500004 V 68.291683 Z"
       id="rect818"
       inkscape:connector-curvature="0" />
  </g>
  <g
     inkscape:groupmode="layer"
     id="layer2"
     inkscape:label="artwork"
     transform="translate(43.500005,-512.12502)">
    <text
       xml:space="preserve"
       style="font-style:normal;font-variant:normal;font-weight:bold;font-stretch:normal;font-size:17.92033768px;line-height:1.25;font-family:Inter;-inkscape-font-specification:'Inter, Bold';font-variant-ligatures:normal;font-variant-position:normal;font-variant-caps:normal;font-variant-numeric:normal;font-variant-alternates:normal;font-feature-settings:normal;text-indent:0;text-align:center;text-decoration:none;text-decoration-line:none;text-decoration-style:solid;text-decoration-color:#000000;letter-spacing:0px;word-spacing:0px;text-transform:none;writing-mode:lr-tb;direction:ltr;text-orientation:mixed;dominant-baseline:auto;baseline-shift:baseline;text-anchor:middle;white-space:normal;shape-padding:0;opacity:1;vector-effect:none;fill:#ffffff;fill-opacity:1;stroke:none;stroke-width:0.26458335;stroke-linecap:butt;stroke-linejoin:miter;stroke-miterlimit:4;stroke-dasharray:none;stroke-dashoffset:0;stroke-opacity:1"
       x="119.39702"
       y="647.90332"
       id="text197"><tspan
         sodipodi:role="line"
         x="119.39702"
         y="664.552"
         style="font-style:normal;font-variant:normal;font-weight:bold;font-stretch:normal;font-size:17.92033768px;line-height:1.25;font-family:Inter;-inkscape-font-specification:'Inter, Bold';font-variant-ligatures:normal;font-variant-position:normal;font-variant-caps:normal;font-variant-numeric:normal;font-variant-alternates:normal;font-feature-settings:normal;text-indent:0;text-align:center;text-decoration:none;text-decoration-line:none;text-decoration-style:solid;text-decoration-color:#000000;letter-spacing:0px;word-spacing:0px;text-transform:none;writing-mode:lr-tb;direction:ltr;text-orientation:mixed;dominant-baseline:auto;baseline-shift:baseline;text-anchor:middle;white-space:normal;shape-padding:0;vector-effect:none;fill:#ffffff;fill-opacity:1;stroke:none;stroke-width:0.26458335;stroke-linecap:butt;stroke-linejoin:miter;stroke-miterlimit:4;stroke-dasharray:none;stroke-dashoffset:0;stroke-opacity:1"
         id="tspan199" /></text>
    <path
       style="font-style:normal;font-variant:normal;font-weight:bold;font-stretch:normal;font-size:19.2186985px;line-height:1.25;font-family:Inter;-inkscape-font-specification:'Inter, Bold';font-variant-ligatures:normal;font-variant-caps:normal;font-variant-numeric:normal;font-feature-settings:normal;text-align:center;letter-spacing:0px;word-spacing:0px;writing-mode:lr-tb;text-anchor:middle;fill:#ffffff;fill-opacity:1;stroke:none;stroke-width:0.26458335"
       d="m 92.470968,655.75225 c -1.04847,0.13498 -2.092695,0.28686 -3.132627,0.45475 l 2.218986,13.78986 c 0.891472,-0.14282 1.783512,-0.27018 2.676324,-0.38189 l -0.420129,-3.30367 c 0.188032,-0.28821 0.378111,-0.5755 0.570508,-0.86248 0.02601,-0.0389 0.05245,-0.0779 0.07855,-0.11679 1.088842,1.28866 2.131634,2.5979 3.132627,3.92534 1.051888,-0.0892 2.109034,-0.15777 3.170343,-0.20671 -1.366035,-1.91923 -2.811139,-3.80591 -4.345466,-5.6534 1.149273,-1.62433 2.369341,-3.22498 3.650936,-4.80125 -1.162646,0.0568 -2.325363,0.13404 -3.488156,0.23306 -0.888707,1.19433 -1.741943,2.40151 -2.555399,3.62148 -0.153953,0.23086 -0.306147,0.46191 -0.457338,0.6935 -0.05217,0.007 -0.10442,0.0135 -0.156578,0.0202 z m -6.971668,0.36329 c -0.110876,0.004 -0.224459,0.0174 -0.340032,0.0408 -0.457422,0.0926 -0.821761,0.31571 -1.089856,0.66611 -0.268208,0.35056 -0.356132,0.72414 -0.269235,1.11931 0.08693,0.39533 0.323612,0.69928 0.706419,0.91467 0.382064,0.21108 0.792832,0.2704 1.237134,0.18035 0.449035,-0.091 0.806712,-0.30644 1.076936,-0.64957 0.269238,-0.34741 0.369954,-0.7188 0.296106,-1.11673 -0.07382,-0.39778 -0.301284,-0.70756 -0.685747,-0.92604 -0.288168,-0.16375 -0.599096,-0.24041 -0.931725,-0.22892 z m -4.412652,1.76991 c -1.272704,0.31155 -2.53759,0.64521 -3.794599,0.99942 -0.47584,3.38686 -0.836039,6.76832 -1.092441,10.13892 -0.05152,0.0165 -0.103005,0.0331 -0.154511,0.0496 -2.168756,-2.5926 -4.430306,-5.13443 -6.771681,-7.62382 -1.22043,0.436 -2.432031,0.88935 -3.634404,1.35857 l 5.060157,13.02815 c 0.855358,-0.33033 1.712867,-0.65153 2.572454,-0.96325 L 70.149849,666.287 c 0.03728,-0.0136 0.07432,-0.0273 0.11162,-0.0408 2.195832,2.41884 4.318794,4.88418 6.357236,7.3949 0.589026,-0.19439 1.178762,-0.3836 1.769402,-0.56792 0.199326,-3.2168 0.492294,-6.44347 0.888833,-9.67538 0.03832,-0.0106 0.07639,-0.021 0.114721,-0.0315 l 2.41174,8.77311 c 0.8709,-0.24038 1.743332,-0.46866 2.616894,-0.6842 z m 26.154482,0.45579 c -0.61714,-0.011 -1.16438,0.15238 -1.63401,0.48731 -0.46526,0.33066 -0.79309,0.82322 -0.98599,1.47484 -0.0373,1.9e-4 -0.0748,2.9e-4 -0.11214,5.2e-4 l -0.0108,-1.82883 c -0.9806,0.006 -1.96174,0.0259 -2.94349,0.0594 l 0.3545,10.4712 c 0.90887,-0.0301 1.8211,-0.0464 2.73575,-0.0501 l -0.0305,-5.92987 c 0.002,-0.64146 0.20327,-1.16331 0.61495,-1.56373 0.4159,-0.40004 0.92732,-0.59769 1.52652,-0.58911 0.20431,0.003 0.38687,0.0311 0.54829,0.0842 0.16616,0.0487 0.31789,0.10889 0.45527,0.18035 0.3152,-0.7939 0.63655,-1.58669 0.96377,-2.37815 -0.19481,-0.12433 -0.41717,-0.2237 -0.66663,-0.29817 -0.24943,-0.0744 -0.5212,-0.11463 -0.81545,-0.11989 z m 26.54928,0.28939 -0.36535,2.48563 c -0.48044,-0.0706 -0.96113,-0.14101 -1.44229,-0.21084 l -0.31368,2.16163 c 0.47973,0.0697 0.95925,0.13988 1.43868,0.21032 l -0.79427,5.40226 c -0.15449,1.01658 0.0498,1.82248 0.61133,2.41587 0.56689,0.58974 1.38087,0.94091 2.44585,1.05317 0.38067,0.0428 0.70835,0.0522 0.98288,0.0284 0.27385,-0.0191 0.48763,-0.0407 0.64079,-0.0641 -0.0476,-0.73609 -0.0949,-1.47206 -0.14211,-2.20814 -0.0751,0.003 -0.18351,0.007 -0.32453,0.014 -0.14034,0.002 -0.27854,-0.007 -0.41548,-0.0274 -0.29211,-0.0434 -0.51946,-0.14855 -0.68109,-0.31523 -0.16163,-0.16663 -0.21235,-0.44828 -0.15348,-0.84439 l 0.74621,-5.02295 c 0.65922,0.098 1.31829,0.19578 1.97714,0.29352 l 0.32039,-2.16111 c -0.65826,-0.0975 -1.31666,-0.19516 -1.9761,-0.293 l 0.36897,-2.48512 c -0.97228,-0.14454 -1.94676,-0.28906 -2.92386,-0.43253 z m -19.64169,0.0527 c -0.93185,-0.0178 -1.76316,0.156 -2.48409,0.51573 -0.81952,0.4071 -1.45853,1.01247 -1.91771,1.80971 -0.45935,0.79332 -0.70096,1.73174 -0.73846,2.81481 -0.0371,1.07296 0.13814,2.02489 0.51211,2.85461 0.37446,0.82577 0.91816,1.48371 1.62988,1.97817 0.71698,0.49058 1.57611,0.76921 2.59002,0.84491 1.01404,0.0757 1.90797,-0.0719 2.69183,-0.45165 0.007,-0.003 0.013,-0.007 0.0196,-0.01 0.78478,-0.38233 1.42434,-0.94906 1.91564,-1.70532 0.49577,-0.76696 0.80476,-1.68335 0.91932,-2.75074 0.11555,-1.07661 0.008,-2.03989 -0.33176,-2.88974 -0.33608,-0.84674 -0.87285,-1.53309 -1.61231,-2.05518 -0.006,-0.004 -0.0122,-0.009 -0.0186,-0.0134 -0.74602,-0.52798 -1.6724,-0.83937 -2.76985,-0.92243 -0.1372,-0.0104 -0.27254,-0.0171 -0.40566,-0.0196 z m 11.01018,1.19682 c -0.93588,-0.0104 -1.74229,0.16563 -2.41484,0.52452 -0.89303,0.47949 -1.39075,1.22347 -1.50172,2.22725 -0.19159,1.58199 0.70713,2.68511 2.67012,3.34243 0.58682,0.19632 1.17308,0.39447 1.75907,0.59429 0.8549,0.29314 1.25312,0.70057 1.19631,1.21594 -0.047,0.30589 -0.23939,0.53638 -0.57723,0.69247 -0.33339,0.15671 -0.7517,0.20102 -1.25522,0.13435 -0.51246,-0.0678 -0.91819,-0.23073 -1.21853,-0.48937 -0.29577,-0.25799 -0.46241,-0.60415 -0.49919,-1.03973 -0.95027,-0.0693 -1.89919,-0.13348 -2.84634,-0.1912 0.0214,1.00945 0.4031,1.84989 1.13946,2.52439 0.7376,0.67061 1.78165,1.09134 3.14348,1.27176 0.88893,0.11776 1.69809,0.0839 2.42931,-0.10387 0.73175,-0.19222 1.33351,-0.51559 1.80402,-0.97255 0.47498,-0.45628 0.7623,-1.02355 0.8599,-1.70378 0.20479,-1.46262 -0.6674,-2.54966 -2.62981,-3.23649 -0.61558,-0.21293 -1.23197,-0.42447 -1.84899,-0.63407 -0.4742,-0.16783 -0.80342,-0.34997 -0.98702,-0.54777 -0.17909,-0.19716 -0.25012,-0.41951 -0.21394,-0.66714 0.0345,-0.31201 0.21926,-0.54077 0.55501,-0.68575 0.34084,-0.14886 0.73901,-0.19334 1.19321,-0.13332 0.50923,0.0673 0.897,0.2416 1.1622,0.52089 0.26524,0.27933 0.41089,0.59075 0.43822,0.93431 0.89822,0.0681 1.79626,0.13908 2.69441,0.21239 0.009,-0.97304 -0.3319,-1.79171 -1.02527,-2.45411 -0.68832,-0.66131 -1.70463,-1.08581 -3.04787,-1.26297 -0.34055,-0.0449 -0.66679,-0.0694 -0.97875,-0.0729 z m -37.660755,0.19069 c -0.997167,0.18645 -1.990958,0.38843 -2.980698,0.60461 l 2.23914,10.23452 c 0.888098,-0.19494 1.776897,-0.37603 2.667021,-0.5426 z m 26.630415,0.83974 c 0.0883,-0.003 0.17949,-8.5e-4 0.27285,0.006 0.733,0.0554 1.26181,0.40447 1.58182,1.03973 0.32534,0.63181 0.44256,1.40296 0.35967,2.31407 -0.0828,0.91061 -0.33651,1.64886 -0.75396,2.21537 -0.41341,0.56745 -0.96707,0.82239 -1.66605,0.76998 -0.71218,-0.0534 -1.22857,-0.38791 -1.55598,-1.01079 -0.32698,-0.62207 -0.46804,-1.39073 -0.41444,-2.30374 0.0536,-0.91382 0.28442,-1.65908 0.70073,-2.23552 0.36408,-0.50775 0.85729,-0.77436 1.47536,-0.7953 z m 49.36392,0.60513 -1.35651,13.90975 c 0.99722,0.0972 1.99542,0.19019 2.99465,0.27905 l 0.29507,-3.31711 c 0.29357,-0.27303 0.58625,-0.54632 0.8785,-0.8201 0.84973,1.4868 1.71235,2.97061 2.58899,4.45089 1.17341,0.091 2.34815,0.17575 3.52433,0.25373 -1.28146,-2.07074 -2.5326,-4.14915 -3.75739,-6.23425 1.43535,-1.40316 2.85238,-2.81579 4.24987,-4.23901 -1.1125,-0.074 -2.22453,-0.15477 -3.33675,-0.24133 -1.22207,1.23512 -2.45865,2.46315 -3.70778,3.68401 -0.053,-0.005 -0.10568,-0.01 -0.15865,-0.0145 l 0.66198,-7.44244 c -0.9585,-0.0853 -1.91742,-0.17511 -2.87631,-0.26872 z m -19.65048,1.06712 c -0.54044,0.007 -1.04753,0.0865 -1.52188,0.23978 -0.1053,0.034 -0.209,0.0714 -0.31109,0.11266 -0.83258,0.33465 -1.51839,0.87312 -2.0562,1.61747 -0.53709,0.73976 -0.88534,1.64465 -1.04335,2.71611 -0.15666,1.06231 -0.0842,2.02779 0.21911,2.89543 0.30399,0.86309 0.81164,1.57731 1.52549,2.13992 0.0876,0.0681 0.17828,0.13328 0.2713,0.19534 0.67002,0.44758 1.47853,0.73817 2.42466,0.87075 1.0775,0.15098 2.03974,0.0556 2.88199,-0.28526 0.84765,-0.34482 1.53635,-0.8919 2.06654,-1.63917 0.53091,-0.75195 0.86394,-1.6604 1.00252,-2.72542 0.13972,-1.07378 0.0508,-2.03997 -0.26355,-2.89801 -0.3138,-0.86271 -0.82685,-1.56861 -1.53944,-2.11925 -0.70756,-0.55465 -1.58955,-0.90514 -2.64738,-1.05317 -0.34836,-0.0488 -0.68446,-0.0711 -1.00872,-0.0672 z m 11.99565,1.52911 c -0.74947,-9.3e-4 -1.43216,0.13415 -2.05053,0.40617 -0.82373,0.35809 -1.49673,0.91382 -2.01847,1.66915 -0.51652,0.75125 -0.84451,1.65918 -0.97979,2.72438 -0.13358,1.05182 -0.0448,2.00805 0.26975,2.86856 0.31909,0.86095 0.84316,1.56857 1.57303,2.12029 0.7349,0.54763 1.6544,0.8864 2.75487,1.01286 0.95593,0.10984 1.80325,0.0343 2.53938,-0.22428 0.73677,-0.26317 1.3348,-0.67781 1.79369,-1.24282 0.46361,-0.56465 0.75856,-1.24319 0.88677,-2.03502 -0.93027,-0.0956 -1.85991,-0.19435 -2.78898,-0.29662 -0.14905,0.54663 -0.41471,0.95178 -0.79633,1.21595 -0.38103,0.25958 -0.82722,0.36039 -1.33739,0.30179 -0.6911,-0.0794 -1.21357,-0.41557 -1.56528,-1.00718 -0.34669,-0.59582 -0.45862,-1.39091 -0.339,-2.38486 0.11851,-0.98469 0.41743,-1.72066 0.89297,-2.20917 0.47576,-0.48874 1.0505,-0.69371 1.72651,-0.61598 0.53446,0.0615 0.9477,0.27052 1.24127,0.62838 0.29857,0.35377 0.4588,0.7948 0.47956,1.32343 0.92263,0.10161 1.84593,0.19965 2.76934,0.29456 0.0414,-0.80976 -0.10916,-1.5338 -0.44855,-2.17299 -0.33488,-0.63886 -0.83019,-1.16081 -1.4857,-1.56632 -0.65107,-0.40508 -1.43242,-0.65864 -2.34559,-0.76378 -0.26464,-0.0305 -0.52171,-0.0462 -0.77153,-0.0465 z m -11.54917,0.71365 c 0.0874,0.003 0.17701,0.0104 0.26872,0.0233 0.71996,0.10076 1.22277,0.47574 1.5105,1.12603 0.29283,0.64624 0.37902,1.42236 0.2558,2.32854 -0.12325,0.90636 -0.41366,1.6316 -0.87282,2.17506 -0.45441,0.54393 -1.04606,0.76549 -1.77405,0.66353 -0.74177,-0.1039 -1.2594,-0.48076 -1.55133,-1.12913 -0.29197,-0.64853 -0.37195,-1.42534 -0.24184,-2.33061 0.13009,-0.90517 0.42575,-1.62832 0.8847,-2.16938 0.40226,-0.47747 0.90852,-0.7063 1.52032,-0.68729 z m 30.75988,8.86819 a 1.5716438,1.5716438 0 0 0 -1.57148,1.572 1.5716438,1.5716438 0 0 0 1.57148,1.57148 1.5716438,1.5716438 0 0 0 1.572,-1.57148 1.5716438,1.5716438 0 0 0 -1.572,-1.572 z"
       id="path6424"
       inkscape:connector-curvature="0" />
    <g
       id="g6494"
       transform="rotate(5.8557656,115.67218,592.05006)">
      <path
         inkscape:connector-curvature="0"
         id="path6361"
         d="m 122.9697,575.75034 c 0,0 -7.51587,-15.38964 -3.75793,-22.72655 3.75793,-7.33692 10.02116,-3.40004 10.02116,-3.40004"
         style="opacity:1;vector-effect:none;fill:none;fill-opacity:1;stroke:#ffffff;stroke-width:1.39783597;stroke-linecap:round;stroke-linejoin:bevel;stroke-miterlimit:4;stroke-dasharray:1.39783591, 2.79567181;stroke-dashoffset:0;stroke-opacity:1;enable-background:new" />
      <path
         inkscape:connector-curvature="0"
         id="path6363"
         d="m 105.07478,577.53983 c 0,0 -10.558006,-20.04231 -16.642279,-20.75811 -6.084274,-0.7158 -8.768512,7.51587 -8.768512,7.51587"
         style="opacity:1;vector-effect:none;fill:none;fill-opacity:1;stroke:#ffffff;stroke-width:1.39783597;stroke-linecap:round;stroke-linejoin:bevel;stroke-miterlimit:4;stroke-dasharray:1.39783591, 2.79567181;stroke-dashoffset:0;stroke-opacity:1;enable-background:new" />
      <path
         style="opacity:1;vector-effect:none;fill:none;fill-opacity:1;stroke:#ffffff;stroke-width:1.39783597;stroke-linecap:round;stroke-linejoin:bevel;stroke-miterlimit:4;stroke-dasharray:1.39783591, 2.79567181;stroke-dashoffset:0;stroke-opacity:1"
         d="m 96.243387,606.87397 c 0,0 -19.982051,-13.24727 -34.178226,-11.02938 -14.196176,2.21789 -16.869969,9.70147 -10.618153,10.44434 6.251821,0.74287 16.227731,2.31708 16.227731,2.31708 0,0 -10.816637,-2.45588 -10.736482,4.17206 0.08016,6.62792 18.194041,2.09641 18.194041,2.09641 0,0 -14.178481,2.72343 -9.345444,10.65287 4.833045,7.92943 21.566985,-8.54986 21.566985,-8.54986 0,0 -11.159086,9.45094 -6.940545,15.73154 4.218541,6.28061 24.676576,-9.36733 24.676576,-9.36733"
         id="path6326"
         inkscape:connector-curvature="0" />
      <path
         inkscape:connector-curvature="0"
         id="path6324"
         d="m 147.76774,587.67153 c 0,0 6.43826,-23.09374 18.62336,-30.70779 12.18509,-7.61407 19.10449,-3.70573 14.86376,0.94757 -4.24074,4.6533 -10.75313,12.37249 -10.75313,12.37249 0,0 6.57103,-8.93604 10.8482,-3.87227 4.27718,5.06376 -12.38425,13.49252 -12.38425,13.49252 0,0 12.50259,-7.22023 14.03796,1.9382 1.53537,9.15843 -21.90216,7.6505 -21.90216,7.6505 0,0 14.62261,-0.15755 15.54349,7.35205 0.92088,7.5096 -24.7883,9.06756 -24.7883,9.06756"
         style="opacity:1;vector-effect:none;fill:none;fill-opacity:1;stroke:#ffffff;stroke-width:1.39783597;stroke-linecap:round;stroke-linejoin:bevel;stroke-miterlimit:4;stroke-dasharray:1.39783591, 2.79567181;stroke-dashoffset:0;stroke-opacity:1" />
      <g
         transform="matrix(0.54625007,-0.20357996,0.20357996,0.54625007,-65.875395,295.34712)"
         id="g6322">
        <rect
           ry="26.388546"
           style="opacity:1;vector-effect:none;fill:#ffffff;fill-opacity:1;stroke:none;stroke-width:14.94895935;stroke-linecap:round;stroke-linejoin:bevel;stroke-miterlimit:4;stroke-dasharray:none;stroke-dashoffset:0;stroke-opacity:1;paint-order:stroke fill markers"
           id="rect6306"
           width="105.62886"
           height="105.62886"
           x="68.315254"
           y="551.91473" />
        <g
           style="stroke:#e53935;stroke-opacity:1"
           id="g6316">
          <path
             sodipodi:nodetypes="cccc"
             inkscape:connector-curvature="0"
             id="path6304"
             d="m 141.95152,603.149 v 12.46371 c 0,13.606 -10.77923,15.52766 -23.76025,15.52766 h -3.53655"
             style="fill:none;stroke:#e53935;stroke-width:14.94895935;stroke-linecap:butt;stroke-linejoin:miter;stroke-miterlimit:4;stroke-dasharray:none;stroke-opacity:1" />
          <path
             style="fill:none;stroke:#e53935;stroke-width:14.94895935;stroke-linecap:butt;stroke-linejoin:miter;stroke-miterlimit:4;stroke-dasharray:none;stroke-opacity:1"
             d="m 100.30785,606.30933 v -12.46371 c 0,-13.606 10.77923,-15.52766 23.76025,-15.52766 h 3.53655"
             id="path6312"
             inkscape:connector-curvature="0"
             sodipodi:nodetypes="cccc" />
        </g>
      </g>
    </g>
  </g>
</svg>
