<?xml version="1.0" encoding="UTF-8" standalone="no"?>
<svg
   width="1600"
   height="295"
   viewBox="0 0 1600 295"
   fill="none"
   version="1.1"
   id="svg4"
   sodipodi:docname="banner-bg-shape.svg"
   inkscape:version="1.1.2 (0a00cf5339, 2022-02-04)"
   xmlns:inkscape="http://www.inkscape.org/namespaces/inkscape"
   xmlns:sodipodi="http://sodipodi.sourceforge.net/DTD/sodipodi-0.dtd"
   xmlns="http://www.w3.org/2000/svg"
   xmlns:svg="http://www.w3.org/2000/svg">
  <defs
     id="defs8" />
  <sodipodi:namedview
     id="namedview6"
     pagecolor="#505050"
     bordercolor="#ffffff"
     borderopacity="1"
     inkscape:pageshadow="0"
     inkscape:pageopacity="0"
     inkscape:pagecheckerboard="1"
     showgrid="false"
     inkscape:zoom="0.749375"
     inkscape:cx="779.3161"
     inkscape:cy="126.10509"
     inkscape:window-width="1920"
     inkscape:window-height="1015"
     inkscape:window-x="0"
     inkscape:window-y="0"
     inkscape:window-maximized="1"
     inkscape:current-layer="svg4" />
  <path
     d="M0 112.763L53.3333 94.5389C106.667 76.3152 213.333 39.8677 320 52.0548C426.667 63.7863 533.333 125.291 640 143.173C746.667 161.739 853.333 136.681 960 100.576C1066.67 63.7863 1173.33 15.949 1280 3.42021C1386.67 -9.10861 1493.33 15.949 1546.67 27.6806L1600 39.8677V295H1546.67C1493.33 295 1386.67 295 1280 295C1173.33 295 1066.67 295 960 295C853.333 295 746.667 295 640 295C533.333 295 426.667 295 320 295C213.333 295 106.667 295 53.3333 295H0V112.763Z"
     fill="#FBFBFB"
     id="path2" />
</svg>
