<?xml version="1.0" encoding="UTF-8" standalone="no"?>
<svg
   width="2e3"
   height="2e3"
   version="1.0"
   viewBox="0 0 1500 1500"
   id="svg10"
   sodipodi:docname="logo.svg"
   inkscape:export-filename="/home/langit/Hervyqa/blog-lama/static/logo.png"
   inkscape:export-xdpi="96"
   inkscape:export-ydpi="96"
   inkscape:version="1.1.2 (0a00cf5339, 2022-02-04)"
   xmlns:inkscape="http://www.inkscape.org/namespaces/inkscape"
   xmlns:sodipodi="http://sodipodi.sourceforge.net/DTD/sodipodi-0.dtd"
   xmlns="http://www.w3.org/2000/svg"
   xmlns:svg="http://www.w3.org/2000/svg"
   xmlns:rdf="http://www.w3.org/1999/02/22-rdf-syntax-ns#"
   xmlns:cc="http://creativecommons.org/ns#"
   xmlns:dc="http://purl.org/dc/elements/1.1/">
  <defs
     id="defs14" />
  <sodipodi:namedview
     id="namedview12"
     pagecolor="#505050"
     bordercolor="#ffffff"
     borderopacity="1"
     inkscape:pageshadow="0"
     inkscape:pageopacity="0"
     inkscape:pagecheckerboard="1"
     showgrid="false"
     inkscape:zoom="0.332"
     inkscape:cx="1409.6386"
     inkscape:cy="1082.8313"
     inkscape:window-width="1920"
     inkscape:window-height="1015"
     inkscape:window-x="0"
     inkscape:window-y="0"
     inkscape:window-maximized="1"
     inkscape:current-layer="svg10" />
  <metadata
     id="metadata2">
    <rdf:RDF>
      <cc:Work
         rdf:about="">
        <dc:format>image/svg+xml</dc:format>
        <dc:type
           rdf:resource="http://purl.org/dc/dcmitype/StillImage" />
      </cc:Work>
    </rdf:RDF>
  </metadata>
  <path
     id="path15386"
     style="font-variation-settings:normal;opacity:1;vector-effect:none;fill:#0a8451;fill-opacity:1;stroke:#0a8451;stroke-width:0.999996;stroke-linecap:butt;stroke-linejoin:miter;stroke-miterlimit:4;stroke-dasharray:none;stroke-dashoffset:0;stroke-opacity:1;-inkscape-stroke:none;paint-order:stroke fill markers;stop-color:#000000;stop-opacity:1"
     d="M 1000 0.5 A 999.5 999.5 0 0 0 0.5 1000 A 999.5 999.5 0 0 0 1000 1999.5 A 999.5 999.5 0 0 0 1999.5 1000 A 999.5 999.5 0 0 0 1000 0.5 z M 641.08594 438.47461 C 655.29367 438.3261 669.48467 439.68182 683.32812 442.45508 C 794.07578 464.64101 892.78125 573.18576 892.78125 726.83789 L 892.78125 1013.9277 C 927.09761 1020.3393 962.73616 1023.6602 998.90039 1023.6602 C 1035.0633 1023.6602 1070.7044 1020.3386 1105.0215 1013.9258 L 1105.0215 726.83789 C 1105.0215 573.18801 1203.7271 464.64476 1314.4746 442.45703 C 1369.8483 431.36316 1430.7983 442.91981 1476.0254 482.91016 C 1521.2525 522.90045 1546.4336 587.17524 1546.4336 665.83789 C 1546.4336 816.70236 1477.2495 939.61485 1374.3633 1019.2363 C 1328.287 1054.8938 1275.8444 1082.4185 1219.6074 1102.0137 L 1219.6074 1294.5156 C 1219.6074 1402.9756 1275.7436 1446.9434 1320.7109 1446.9434 C 1349.5522 1446.9434 1366.7928 1435.8456 1378.6953 1416.7617 C 1390.5976 1397.678 1396.2394 1367.9605 1383.6016 1329.2305 C 1364.4089 1270.4295 1318.9902 1240.9102 1318.9902 1240.9102 A 57.292496 57.292496 0 0 1 1301.2637 1161.8496 A 57.292496 57.292496 0 0 1 1380.3242 1144.125 C 1380.3242 1144.125 1459.9459 1193.8443 1492.5312 1293.6797 C 1514.0364 1359.5803 1507.8214 1426.2529 1475.9199 1477.4023 C 1444.0182 1528.5517 1385.5084 1561.5293 1320.7109 1561.5293 C 1202.0667 1561.5293 1105.0215 1447.6984 1105.0215 1294.5156 L 1105.0215 1130.2383 C 1070.2094 1135.5427 1034.6836 1138.2461 998.90039 1138.2461 C 963.11627 1138.2461 927.59344 1135.5439 892.78125 1130.2402 L 892.78125 1294.5156 C 892.78125 1447.6992 795.73688 1561.5293 677.0957 1561.5293 C 612.29666 1561.5293 553.7857 1528.5501 521.88477 1477.4004 C 489.98382 1426.2505 483.76975 1359.5791 505.27539 1293.6797 C 537.85759 1193.843 617.48438 1144.125 617.48438 1144.125 A 57.292496 57.292496 0 0 1 696.54492 1161.8535 A 57.292496 57.292496 0 0 1 678.81445 1240.9141 C 678.81447 1240.9141 633.39553 1270.4302 614.20508 1329.2305 C 601.56658 1367.9597 607.20713 1397.6776 619.10938 1416.7617 C 631.01178 1435.8459 648.253 1446.9434 677.0957 1446.9434 C 722.05498 1446.9434 778.19531 1402.9748 778.19531 1294.5156 L 778.19531 1102.0176 C 721.95478 1082.4231 669.50917 1054.899 623.43164 1019.2402 C 520.54704 939.61925 451.36914 816.70558 451.36914 665.83789 C 451.36914 587.17638 476.55068 522.90235 521.77734 482.91211 C 555.69736 452.91944 598.46272 438.92012 641.08594 438.47461 z M 642.10352 552.76562 C 624.40428 552.61858 609.71963 558.10602 597.67969 568.75195 C 581.62642 582.94655 565.95312 610.45872 565.95312 665.83789 C 565.95313 783.06254 614.84971 867.70784 693.56055 928.62109 C 718.7774 948.13607 747.29885 964.86382 778.19531 978.63867 L 778.19531 726.83789 C 778.19531 621.3587 713.48586 565.35901 660.82031 554.80859 C 654.23713 553.48978 648.00326 552.81469 642.10352 552.76562 z M 1355.7012 552.76562 C 1349.8016 552.81475 1343.5677 553.48967 1336.9844 554.80859 C 1284.3186 565.35994 1219.6074 621.36197 1219.6074 726.83789 L 1219.6074 978.63281 C 1250.5006 964.85809 1279.0209 948.13096 1304.2363 928.61719 C 1382.951 867.70169 1431.8496 783.0548 1431.8496 665.83789 C 1431.8496 610.4571 1416.1779 582.94614 1400.125 568.75195 C 1388.0854 558.10633 1373.4004 552.61826 1355.7012 552.76562 z "
     transform="scale(0.75)" />
  <rect
     width="1500"
     height="1500"
     fill="#ffffff"
     stop-color="#000000"
     stroke-width="8.3333"
     style="display:none;paint-order:fill markers stroke"
     id="rect4"
     x="0"
     y="0" />
  <g
     transform="matrix(2.0653862,0,0,2.0653862,-25158.266,190.42204)"
     id="g8"
     style="display:none;stroke:#000000;stroke-opacity:1"
     inkscape:label="path-asli">
    <path
       d="m 12671,340.84 c 0,0 22.703,14.387 32.104,43.189 12.399,37.995 -8.612,70.005 -42.615,70.005 -29.706,0 -57.518,-28.651 -57.518,-76.156 v -206.14 c 0,-94.096 118.68,-119.5 118.68,-22.15 0,97.348 -85.758,150.74 -178.02,150.74 -92.27,0 -178.02,-53.388 -178.02,-150.74 0,-97.348 118.68,-71.948 118.68,22.15 v 206.14 c 0,47.505 -27.813,76.156 -57.517,76.156 -34.004,0 -55.014,-32.011 -42.615,-70.005 9.4,-28.803 32.104,-43.189 32.104,-43.189"
       fill="none"
       stroke="#222d32"
       stroke-linecap="round"
       stroke-linejoin="round"
       stroke-width="41.609"
       style="stroke:#000000;stroke-opacity:1;paint-order:stroke fill markers"
       id="path6" />
  </g>
</svg>
