<?xml version="1.0" encoding="UTF-8"?>
<svg width="59" height="59" version="1.0" viewBox="0 0 44.25 44.25" xmlns="http://www.w3.org/2000/svg" xmlns:cc="http://creativecommons.org/ns#" xmlns:dc="http://purl.org/dc/elements/1.1/" xmlns:rdf="http://www.w3.org/1999/02/22-rdf-syntax-ns#">
 <metadata>
  <rdf:RDF>
   <cc:Work rdf:about="">
    <dc:format>image/svg+xml</dc:format>
    <dc:type rdf:resource="http://purl.org/dc/dcmitype/StillImage"/>
   </cc:Work>
  </rdf:RDF>
 </metadata>
 <path d="m22.125 0a22.125 22.125 0 0 0-22.125 22.125 22.125 22.125 0 0 0 22.125 22.125 22.125 22.125 0 0 0 22.125-22.125 22.125 22.125 0 0 0-22.125-22.125zm-7.9449 9.695c0.3145-0.0033 0.62864 0.02672 0.93508 0.08811 2.4515 0.49111 4.6365 2.8939 4.6365 6.2951v6.355c0.75963 0.14193 1.5485 0.21544 2.3491 0.21544 0.8005 0 1.5895-0.07353 2.3491-0.21548v-6.355c0-3.4012 2.185-5.8039 4.6365-6.2951 1.2258-0.24558 2.575 0.01024 3.5761 0.89547 1.0012 0.88523 1.5586 2.308 1.5586 4.0493 0 3.3395-1.5315 6.0603-3.809 7.8229-1.0199 0.78932-2.1808 1.3986-3.4257 1.8324v4.2612c0 2.4009 1.2426 3.3742 2.238 3.3742 0.63843 0 1.0201-0.24566 1.2835-0.6681 0.26347-0.42244 0.38836-1.0803 0.10861-1.9376-0.42485-1.3016-1.4302-1.9551-1.4302-1.9551a1.2682 1.2682 0 0 1-0.3924-1.7501 1.2682 1.2682 0 0 1 1.7501-0.39235s1.7625 1.1006 2.4838 3.3106c0.47604 1.4588 0.33846 2.9346-0.36771 4.0669-0.70618 1.1322-2.0014 1.8622-3.4357 1.8622-2.6263 0-4.7745-2.5198-4.7745-5.9106v-3.6365c-0.7706 0.11742-1.557 0.17726-2.3491 0.17726-0.79212 0-1.5785-0.05982-2.3491-0.17722v3.6364c0 3.3909-2.1482 5.9106-4.7744 5.9106-1.4344 0-2.7296-0.73003-3.4358-1.8623-0.70616-1.1323-0.84372-2.6081-0.36767-4.0669 0.72124-2.21 2.4839-3.3106 2.4839-3.3106a1.2682 1.2682 0 0 1 1.7501 0.39244 1.2682 1.2682 0 0 1-0.39248 1.7501s-1.0054 0.65337-1.4302 1.955c-0.27977 0.85731-0.15491 1.5152 0.10856 1.9376 0.26347 0.42245 0.64512 0.6681 1.2836 0.6681 0.99522 0 2.2379-0.97329 2.2379-3.3742v-4.2611c-1.2449-0.43374-2.4059-1.043-3.4259-1.8324-2.2775-1.7625-3.8088-4.4833-3.8088-7.8229 0-1.7413 0.55742-3.164 1.5586-4.0493 0.75086-0.66392 1.6975-0.97381 2.641-0.98367zm0.02252 2.53c-0.39179-0.0033-0.71685 0.11822-0.98337 0.35388-0.35536 0.31421-0.7023 0.92322-0.7023 2.1491 0 2.5949 1.0824 4.4686 2.8247 5.817 0.5582 0.43198 1.1896 0.80227 1.8735 1.1072v-5.5739c0-2.3349-1.4324-3.5745-2.5982-3.8081-0.14572-0.02919-0.28372-0.04414-0.41432-0.04522zm15.796 0c-0.13059 0.0011-0.26859 0.01603-0.41432 0.04522-1.1658 0.23357-2.5983 1.4732-2.5983 3.8081v5.5738c0.68385-0.30492 1.3152-0.67519 1.8734-1.1071 1.7424-1.3484 2.8249-3.2222 2.8249-5.8169 0-1.2259-0.34691-1.8349-0.70226-2.1491-0.26651-0.23565-0.59158-0.35714-0.98337-0.35388z" fill="#0a8451" stop-color="#000000" style="-inkscape-stroke:none;font-variation-settings:normal;paint-order:stroke fill markers"/>
</svg>
