<?xml version="1.0" encoding="UTF-8"?>
<svg width="60" height="60" version="1.0" viewBox="0 0 45 45" xmlns="http://www.w3.org/2000/svg" xmlns:cc="http://creativecommons.org/ns#" xmlns:dc="http://purl.org/dc/elements/1.1/" xmlns:rdf="http://www.w3.org/1999/02/22-rdf-syntax-ns#">
 <metadata>
  <rdf:RDF>
   <cc:Work rdf:about="">
    <dc:format>image/svg+xml</dc:format>
    <dc:type rdf:resource="http://purl.org/dc/dcmitype/StillImage"/>
   </cc:Work>
  </rdf:RDF>
 </metadata>
 <ellipse cx="22.5" cy="22.5" rx="18.027" ry="18.027" fill="#fff" stop-color="#000000" stroke-width=".75" style="-inkscape-stroke:none;paint-order:stroke fill markers"/>
 <path d="m22.5 0a22.5 22.5 0 0 0-22.5 22.5 22.5 22.5 0 0 0 22.5 22.5 22.5 22.5 0 0 0 22.5-22.5 22.5 22.5 0 0 0-22.5-22.5zm-8.0796 9.8593c0.31983-0.00336 0.6393 0.027173 0.95093 0.089603 2.4931 0.49943 4.7151 2.9429 4.7151 6.4018v6.4627c0.7725 0.14434 1.5747 0.21909 2.3889 0.21909 0.81407 0 1.6164-0.07478 2.3889-0.21913v-6.4627c0-3.4588 2.222-5.9023 4.7151-6.4018 1.2466-0.24974 2.6186 0.010414 3.6367 0.91065 1.0182 0.90023 1.585 2.3471 1.585 4.1179 0 3.3961-1.5575 6.163-3.8736 7.9555-1.0372 0.8027-2.2178 1.4223-3.4838 1.8635v4.3334c0 2.4416 1.2637 3.4314 2.2759 3.4314 0.64925 0 1.0374-0.24982 1.3053-0.67942 0.26794-0.4296 0.39494-1.0986 0.11045-1.9704-0.43205-1.3237-1.4544-1.9882-1.4544-1.9882a1.2897 1.2897 0 0 1-0.39905-1.7798 1.2897 1.2897 0 0 1 1.7798-0.399s1.7924 1.1193 2.5259 3.3667c0.48411 1.4835 0.3442 2.9843-0.37394 4.1358-0.71815 1.1514-2.0353 1.8938-3.4939 1.8938-2.6708 0-4.8554-2.5625-4.8554-6.0108v-3.6981c-0.78366 0.11941-1.5834 0.18026-2.3889 0.18026-0.80555 0-1.6053-0.06083-2.3889-0.18022v3.698c0 3.4484-2.1846 6.0108-4.8553 6.0108-1.4587 0-2.7759-0.7424-3.494-1.8939-0.71813-1.1515-0.85802-2.6523-0.3739-4.1358 0.73346-2.2475 2.526-3.3667 2.526-3.3667a1.2897 1.2897 0 0 1 1.7798 0.39909 1.2897 1.2897 0 0 1-0.39913 1.7798s-1.0224 0.66444-1.4544 1.9881c-0.28451 0.87184-0.15754 1.5409 0.1104 1.9704 0.26794 0.42961 0.65605 0.67942 1.3054 0.67942 1.0121 0 2.2758-0.98979 2.2758-3.4314v-4.3333c-1.266-0.44109-2.4467-1.0607-3.484-1.8635-2.3161-1.7924-3.8734-4.5593-3.8734-7.9555 0-1.7708 0.56687-3.2176 1.585-4.1179 0.76359-0.67517 1.7263-0.99032 2.6858-1.0003zm0.0229 2.5729c-0.39843-0.0034-0.729 0.12022-1 0.35988-0.36138 0.31954-0.7142 0.93887-0.7142 2.1855 0 2.6389 1.1007 4.5443 2.8726 5.9156 0.56766 0.4393 1.2098 0.81587 1.9053 1.126v-5.6684c0-2.3745-1.4567-3.6351-2.6422-3.8726-0.14819-0.02968-0.28853-0.04489-0.42134-0.04599zm16.064 0c-0.1328 0.0011-0.27314 0.0163-0.42134 0.04599-1.1856 0.23753-2.6423 1.4982-2.6423 3.8726v5.6683c0.69544-0.31009 1.3375-0.68663 1.9052-1.1259 1.7719-1.3713 2.8728-3.2768 2.8728-5.9155 0-1.2467-0.35279-1.866-0.71416-2.1855-0.27103-0.23964-0.60161-0.36319-1-0.35988z" fill="#0a8451" stop-color="#000000" style="-inkscape-stroke:none;font-variation-settings:normal;paint-order:stroke fill markers"/>
</svg>
