<?xml version="1.0" encoding="UTF-8" standalone="no"?>
<!-- Created with Inkscape (http://www.inkscape.org/) -->

<svg
   xmlns:dc="http://purl.org/dc/elements/1.1/"
   xmlns:cc="http://creativecommons.org/ns#"
   xmlns:rdf="http://www.w3.org/1999/02/22-rdf-syntax-ns#"
   xmlns:svg="http://www.w3.org/2000/svg"
   xmlns="http://www.w3.org/2000/svg"
   xmlns:sodipodi="http://sodipodi.sourceforge.net/DTD/sodipodi-0.dtd"
   xmlns:inkscape="http://www.inkscape.org/namespaces/inkscape"
   width="1244.4448"
   height="700"
   viewBox="0 0 329.25939 185.20834"
   version="1.1"
   id="svg8"
   inkscape:version="0.92.4 5da689c313, 2019-01-14"
   sodipodi:docname="cover.svg"
   style="enable-background:new"
   inkscape:export-filename="/home/hervyqa/hervyqa-gl/hervyqa/hervyqa-blog/static/post/berbagi-ilustrasi-dengan-atribusi-cc-by/cover.png"
   inkscape:export-xdpi="96"
   inkscape:export-ydpi="96">
  <defs
     id="defs2" />
  <sodipodi:namedview
     id="base"
     pagecolor="#ffffff"
     bordercolor="#666666"
     borderopacity="1.0"
     inkscape:pageopacity="0.0"
     inkscape:pageshadow="2"
     inkscape:zoom="0.47616052"
     inkscape:cx="608.39064"
     inkscape:cy="524.88915"
     inkscape:document-units="px"
     inkscape:current-layer="layer2"
     showgrid="false"
     units="px"
     borderlayer="true"
     inkscape:pagecheckerboard="true"
     inkscape:window-width="1346"
     inkscape:window-height="724"
     inkscape:window-x="6"
     inkscape:window-y="30"
     inkscape:window-maximized="1"
     inkscape:snap-global="false"
     showguides="true"
     inkscape:guide-bbox="true">
    <inkscape:grid
       type="xygrid"
       id="grid815"
       dotted="false"
       originx="43.500009"
       originy="-43.499907" />
    <sodipodi:guide
       position="72.02551,185.20835"
       orientation="1,0"
       id="guide851"
       inkscape:locked="false" />
    <sodipodi:guide
       position="257.23387,185.20835"
       orientation="1,0"
       id="guide853"
       inkscape:locked="false" />
  </sodipodi:namedview>
  <metadata
     id="metadata5">
    <rdf:RDF>
      <cc:Work
         rdf:about="">
        <dc:format>image/svg+xml</dc:format>
        <dc:type
           rdf:resource="http://purl.org/dc/dcmitype/StillImage" />
        <dc:title />
        <dc:date />
        <dc:creator>
          <cc:Agent>
            <dc:title />
          </cc:Agent>
        </dc:creator>
        <dc:subject>
          <rdf:Bag />
        </dc:subject>
        <dc:description />
        <cc:license
           rdf:resource="" />
      </cc:Work>
    </rdf:RDF>
  </metadata>
  <g
     inkscape:label="background"
     inkscape:groupmode="layer"
     id="layer1"
     transform="translate(43.500005,-68.291685)">
    <path
       style="opacity:1;vector-effect:none;fill:#9f7cdc;fill-opacity:1;fill-rule:nonzero;stroke:none;stroke-width:0.46654263;stroke-linecap:butt;stroke-linejoin:miter;stroke-miterlimit:4;stroke-dasharray:none;stroke-dashoffset:0;stroke-opacity:1;paint-order:stroke fill markers"
       d="M 285.75935,68.291683 V 253.50003 H -43.500004 V 68.291683 Z"
       id="rect818"
       inkscape:connector-curvature="0" />
  </g>
  <g
     inkscape:groupmode="layer"
     id="layer2"
     inkscape:label="artwork"
     transform="translate(43.500005,-512.12502)">
    <text
       xml:space="preserve"
       style="font-style:normal;font-variant:normal;font-weight:bold;font-stretch:normal;font-size:17.92033768px;line-height:1.25;font-family:Inter;-inkscape-font-specification:'Inter, Bold';font-variant-ligatures:normal;font-variant-position:normal;font-variant-caps:normal;font-variant-numeric:normal;font-variant-alternates:normal;font-feature-settings:normal;text-indent:0;text-align:center;text-decoration:none;text-decoration-line:none;text-decoration-style:solid;text-decoration-color:#000000;letter-spacing:0px;word-spacing:0px;text-transform:none;writing-mode:lr-tb;direction:ltr;text-orientation:mixed;dominant-baseline:auto;baseline-shift:baseline;text-anchor:middle;white-space:normal;shape-padding:0;opacity:1;vector-effect:none;fill:#ffffff;fill-opacity:1;stroke:none;stroke-width:0.26458335;stroke-linecap:butt;stroke-linejoin:miter;stroke-miterlimit:4;stroke-dasharray:none;stroke-dashoffset:0;stroke-opacity:1"
       x="119.39702"
       y="647.90332"
       id="text197"><tspan
         sodipodi:role="line"
         x="119.39702"
         y="664.552"
         style="font-style:normal;font-variant:normal;font-weight:bold;font-stretch:normal;font-size:17.92033768px;line-height:1.25;font-family:Inter;-inkscape-font-specification:'Inter, Bold';font-variant-ligatures:normal;font-variant-position:normal;font-variant-caps:normal;font-variant-numeric:normal;font-variant-alternates:normal;font-feature-settings:normal;text-indent:0;text-align:center;text-decoration:none;text-decoration-line:none;text-decoration-style:solid;text-decoration-color:#000000;letter-spacing:0px;word-spacing:0px;text-transform:none;writing-mode:lr-tb;direction:ltr;text-orientation:mixed;dominant-baseline:auto;baseline-shift:baseline;text-anchor:middle;white-space:normal;shape-padding:0;vector-effect:none;fill:#ffffff;fill-opacity:1;stroke:none;stroke-width:0.26458335;stroke-linecap:butt;stroke-linejoin:miter;stroke-miterlimit:4;stroke-dasharray:none;stroke-dashoffset:0;stroke-opacity:1"
         id="tspan199" /></text>
    <text
       xml:space="preserve"
       style="font-style:normal;font-variant:normal;font-weight:bold;font-stretch:normal;font-size:24.83323097px;line-height:1;font-family:Inter;-inkscape-font-specification:'Inter, Bold';font-variant-ligatures:normal;font-variant-caps:normal;font-variant-numeric:normal;font-feature-settings:normal;text-align:center;letter-spacing:0px;word-spacing:0px;writing-mode:lr-tb;text-anchor:middle;fill:#ffffff;fill-opacity:1;stroke:none;stroke-width:0.34187847;enable-background:new"
       x="123.76225"
       y="650.36804"
       id="text197-9"
       transform="rotate(0.25544188)"><tspan
         sodipodi:role="line"
         x="123.76225"
         y="650.36804"
         style="font-style:normal;font-variant:normal;font-weight:bold;font-stretch:normal;font-size:24.83323097px;line-height:1;font-family:Inter;-inkscape-font-specification:'Inter, Bold';font-variant-ligatures:normal;font-variant-caps:normal;font-variant-numeric:normal;font-feature-settings:normal;text-align:center;writing-mode:lr-tb;text-anchor:middle;fill:#ffffff;fill-opacity:1;stroke-width:0.34187847"
         id="tspan1299">Get</tspan><tspan
         sodipodi:role="line"
         x="123.76225"
         y="675.20129"
         style="font-style:normal;font-variant:normal;font-weight:bold;font-stretch:normal;font-size:24.83323097px;line-height:1;font-family:Inter;-inkscape-font-specification:'Inter, Bold';font-variant-ligatures:normal;font-variant-caps:normal;font-variant-numeric:normal;font-feature-settings:normal;text-align:center;writing-mode:lr-tb;text-anchor:middle;fill:#ffffff;fill-opacity:1;stroke-width:0.34187847"
         id="tspan889">Freebies</tspan></text>
    <g
       id="g1115">
      <path
         sodipodi:nodetypes="scscccccsccccssccccscccscss"
         inkscape:connector-curvature="0"
         id="path1092"
         transform="matrix(0.26458335,0,0,0.26458335,-43.500005,512.12502)"
         d="m 593.02734,151.95508 c -7.50954,0 -14.31554,3.02416 -19.33789,7.88086 h -9.10937 c -23.88809,0 -44.99,16.77058 -50.18946,40.16797 l 0.0273,-0.12696 -6.15235,26.86719 c -2.933,5.1885 -5.11262,10.83302 -6.54687,16.80664 -0.28796,1.19947 -0.37572,2.34357 -0.57227,3.51953 -17.06368,2.5996 -30.58007,17.55182 -30.58007,35.22852 0,13.6895 8.08515,25.82919 19.65731,31.81649 l 1.12589,3.94718 11.29297,65.01367 0.0117,0.0625 c 3.04193,16.86841 17.89406,29.50195 35.20117,29.50195 h 157.63476 c 17.3071,0 32.15656,-12.64019 35.19727,-29.50195 l 0.0117,-0.0625 11.29492,-65.01367 -0.0125,-3.38279 c 12.17761,-5.76336 20.79765,-18.24447 20.79765,-32.38088 0,-18.54025 -14.8673,-34.06494 -33.10352,-35.49024 l -10.74805,-46.93164 0.0254,0.12696 c -5.19938,-23.39755 -26.30136,-40.16797 -50.18945,-40.16797 h -9.11328 c -5.02159,-4.85571 -11.82599,-7.88086 -19.33398,-7.88086 z"
         style="color:#000000;font-style:normal;font-variant:normal;font-weight:normal;font-stretch:normal;font-size:10.58333397px;line-height:1.25;font-family:'Source Sans Pro';-inkscape-font-specification:'Source Sans Pro, Normal';font-variant-ligatures:normal;font-variant-position:normal;font-variant-caps:normal;font-variant-numeric:normal;font-variant-alternates:normal;font-feature-settings:normal;text-indent:0;text-align:start;text-decoration:none;text-decoration-line:none;text-decoration-style:solid;text-decoration-color:#000000;letter-spacing:0px;word-spacing:0px;text-transform:none;writing-mode:lr-tb;direction:ltr;text-orientation:mixed;dominant-baseline:auto;baseline-shift:baseline;text-anchor:start;white-space:normal;shape-padding:0;clip-rule:nonzero;display:inline;overflow:visible;visibility:visible;opacity:1;isolation:auto;mix-blend-mode:normal;color-interpolation:sRGB;color-interpolation-filters:linearRGB;solid-color:#000000;solid-opacity:1;vector-effect:none;fill:none;fill-opacity:1;fill-rule:nonzero;stroke:#ffffff;stroke-width:3.30000054;stroke-linecap:round;stroke-linejoin:bevel;stroke-miterlimit:4;stroke-dasharray:3.3000002,9.90000059;stroke-dashoffset:0;stroke-opacity:1;color-rendering:auto;image-rendering:auto;shape-rendering:auto;text-rendering:auto;enable-background:accumulate;font-variant-east_asian:normal" />
      <g
         transform="matrix(1.2212383,0,0,1.2212383,-28.266957,-140.68381)"
         id="g900">
        <g
           aria-label=""
           style="font-style:normal;font-variant:normal;font-weight:normal;font-stretch:normal;font-size:10.58333397px;line-height:1.25;font-family:'Source Sans Pro';-inkscape-font-specification:'Source Sans Pro, Normal';font-variant-ligatures:normal;font-variant-caps:normal;font-variant-numeric:normal;font-feature-settings:normal;text-align:start;letter-spacing:0px;word-spacing:0px;writing-mode:lr-tb;text-anchor:start;fill:#fff176;fill-opacity:1;stroke:none;stroke-width:0.26458335"
           id="text884"
           transform="matrix(2.5448666,0.97613146,-0.97613146,2.5448666,259.16213,-1021.5622)">
          <path
             d="m 172.66835,571.49015 h -0.24805 v 3.30729 h 0.24805 q 0.24805,0 0.24805,0.24805 v 1.48828 q 0,0.24805 -0.24805,0.24805 h -1.48828 q -0.24805,0 -0.24805,-0.24805 v -0.24804 h -4.63021 v 0.24804 q 0,0.24805 -0.24804,0.24805 h -1.48828 q -0.24805,0 -0.24805,-0.24805 v -1.48828 q 0,-0.24805 0.24805,-0.24805 h 0.24804 v -0.49609 h -1.81901 v 0.24805 q 0,0.24804 -0.24804,0.24804 h -1.48829 q -0.24804,0 -0.24804,-0.24804 v -1.48828 q 0,-0.24805 0.24804,-0.24805 h 0.24805 v -3.30729 h -0.24805 q -0.24804,0 -0.24804,-0.24805 v -1.48828 q 0,-0.24805 0.24804,-0.24805 h 1.48829 q 0.24804,0 0.24804,0.24805 v 0.24805 h 4.63021 v -0.24805 q 0,-0.24805 0.24805,-0.24805 h 1.48828 q 0.24805,0 0.24805,0.24805 v 1.48828 q 0,0.24805 -0.24805,0.24805 h -0.24805 v 0.49609 h 1.81901 v -0.24805 q 0,-0.24804 0.24805,-0.24804 h 1.48828 q 0.24805,0 0.24805,0.24804 v 1.48829 q 0,0.24804 -0.24805,0.24804 z m -4.38216,-3.30729 v 0.66146 h 0.66146 v -0.66146 z m 0,5.29167 v 0.66146 h 0.66146 v -0.66146 z m -5.95313,0.66146 v -0.66146 h -0.66145 v 0.66146 z m 0,-5.29167 v -0.66146 h -0.66145 v 0.66146 z m 0.66146,4.46484 h 4.63021 v -0.24804 q 0,-0.24805 0.24805,-0.24805 h 0.24804 v -3.30729 h -0.24804 q -0.24805,0 -0.24805,-0.24805 v -0.24805 h -4.63021 v 0.24805 q 0,0.24805 -0.24804,0.24805 h -0.24805 v 3.30729 h 0.24805 q 0.24804,0 0.24804,0.24805 z m 2.64584,2.8112 v -0.66146 h -0.66146 v 0.66146 z m 5.78776,-1.32292 v -3.30729 h -0.24805 q -0.24805,0 -0.24805,-0.24804 v -0.24805 h -1.81901 v 1.81901 h 0.24805 q 0.24805,0 0.24805,0.24805 v 1.48828 q 0,0.24804 -0.24805,0.24804 h -1.48828 q -0.24805,0 -0.24805,-0.24804 v -0.24805 h -1.81901 v 0.49609 h 0.24805 q 0.24804,0 0.24804,0.24805 v 0.24805 h 4.63021 v -0.24805 q 0,-0.24805 0.24805,-0.24805 z m 0.82682,1.32292 v -0.66146 h -0.66146 v 0.66146 z m 0,-5.29167 v -0.66145 h -0.66146 v 0.66145 z"
             style="fill:#fff176;fill-opacity:1;stroke-width:0.26458335"
             id="path886"
             inkscape:connector-curvature="0" />
        </g>
        <g
           aria-label=""
           transform="matrix(2.7267275,0.6546789,-0.6546789,2.7267275,-162.4341,-314.49611)"
           style="font-style:normal;font-variant:normal;font-weight:normal;font-stretch:normal;font-size:10.58333397px;line-height:1.25;font-family:'Source Sans Pro';-inkscape-font-specification:'Source Sans Pro, Normal';font-variant-ligatures:normal;font-variant-caps:normal;font-variant-numeric:normal;font-feature-settings:normal;text-align:start;letter-spacing:0px;word-spacing:0px;writing-mode:lr-tb;text-anchor:start;fill:#ff4081;fill-opacity:1;stroke:none;stroke-width:0.26458335;enable-background:new"
           id="text836">
          <path
             d="m 173.87398,293.69644 c -0.14174,0 -0.27167,-0.0827 -0.33664,-0.20671 l -0.33073,-0.66146 -0.86226,2.86435 c -0.0472,0.15946 -0.19489,0.27167 -0.36025,0.27167 0,0 0,0 0,0 -0.17127,0 -0.31892,-0.11221 -0.36617,-0.27167 l -1.12212,-3.93922 -0.41341,1.65955 c -0.0413,0.16537 -0.19489,0.28349 -0.36616,0.28349 h -2.17927 c 0.065,0.0709 0.11221,0.11221 0.12402,0.11811 l 3.68527,3.55534 c 0.0709,0.0709 0.16537,0.10631 0.25986,0.10631 0.0945,0 0.18899,-0.0354 0.25986,-0.10631 l 3.67936,-3.54353 c 0.0118,-0.0118 0.0591,-0.0532 0.12993,-0.12992 z m 3.02381,-2.52772 c 0,-1.73042 -1.05716,-2.76395 -2.82301,-2.76395 -1.03353,0 -2.0021,0.81501 -2.46866,1.27567 -0.46656,-0.46066 -1.43513,-1.27567 -2.46866,-1.27567 -1.76585,0 -2.82301,1.03353 -2.82301,2.76395 0,0.67918 0.2953,1.29929 0.60831,1.77176 h 2.49819 l 0.68508,-2.74032 c 0.0413,-0.16537 0.18899,-0.28349 0.36026,-0.28349 0.17717,0 0.32482,0.11222 0.37207,0.27167 l 1.15755,4.05144 0.76186,-2.53953 c 0.0413,-0.15355 0.17127,-0.25395 0.33073,-0.27167 0.14764,-0.0118 0.3012,0.0709 0.36616,0.2067 l 0.65555,1.3052 h 2.17927 c 0.31301,-0.47247 0.60831,-1.09258 0.60831,-1.77176 z"
             style="fill:#ff4081;stroke-width:0.26458335"
             id="path871"
             inkscape:connector-curvature="0" />
        </g>
        <path
           inkscape:connector-curvature="0"
           style="font-style:normal;font-variant:normal;font-weight:normal;font-stretch:normal;font-size:47.81255341px;line-height:1.25;font-family:'Source Sans Pro';-inkscape-font-specification:'Source Sans Pro, Normal';font-variant-ligatures:normal;font-variant-caps:normal;font-variant-numeric:normal;font-feature-settings:normal;text-align:start;letter-spacing:0px;word-spacing:0px;writing-mode:lr-tb;text-anchor:start;fill:#ffb74d;fill-opacity:1;stroke:none;stroke-width:4.51772118;enable-background:new"
           d="m 711.06445,328.80859 -5.1582,-9.19531 H 541.30859 l -7.92773,9.19531 11.5957,66.75782 c 1.10929,6.15133 6.45486,10.6875 12.70703,10.6875 h 129.07813 c 6.25221,0 11.59582,-4.53617 12.70508,-10.6875 z m -146.77539,-0.0215 c 3.25275,0.0629 6.0191,2.66182 6.30274,5.9707 l 3.22656,41.95117 c 0.30236,3.52948 -2.41975,6.65448 -5.94922,6.95704 h -0.50391 c -3.32779,0 -6.15256,-2.62142 -6.45507,-5.94922 l -3.22657,-41.95118 c -0.30236,-3.52945 2.41975,-6.65451 5.94922,-6.95703 0.22059,-0.0189 0.4394,-0.0257 0.65625,-0.0215 z m 115.86524,0 c 0.21685,-0.004 0.43761,0.003 0.6582,0.0215 3.52947,0.30237 6.25173,3.42758 5.94922,6.95703 l -3.22656,41.95118 c -0.30237,3.3278 -3.12728,5.94922 -6.45508,5.94922 h -0.50391 c -3.52947,-0.30237 -6.25173,-3.42756 -5.94922,-6.95704 l 3.22657,-41.95117 c 0.28346,-3.30888 3.04801,-5.90791 6.30078,-5.9707 z m -77.29297,0.0215 c 3.52947,0 6.45312,2.92365 6.45312,6.45313 v 41.95117 c 0,3.52947 -2.92365,6.45313 -6.45312,6.45313 -3.52948,0 -6.45508,-2.92366 -6.45508,-6.45313 v -41.95117 c 0,-3.52948 2.9256,-6.45313 6.45508,-6.45313 z m 38.72265,0 c 3.52948,0 6.45313,2.92365 6.45313,6.45313 v 41.95117 c 0,3.52947 -2.92365,6.45313 -6.45313,6.45313 -3.52947,0 -6.45312,-2.92366 -6.45312,-6.45313 v -41.95117 c 0,-3.52948 2.92365,-6.45313 6.45312,-6.45313 z"
           id="path869"
           transform="matrix(0.26458335,0,0,0.26458335,-43.500005,512.12502)" />
        <path
           inkscape:connector-curvature="0"
           style="font-style:normal;font-variant:normal;font-weight:normal;font-stretch:normal;font-size:47.81255341px;line-height:1.25;font-family:'Source Sans Pro';-inkscape-font-specification:'Source Sans Pro, Normal';font-variant-ligatures:normal;font-variant-caps:normal;font-variant-numeric:normal;font-feature-settings:normal;text-align:start;letter-spacing:0px;word-spacing:0px;writing-mode:lr-tb;text-anchor:start;fill:#fb8c00;fill-opacity:1;stroke:none;stroke-width:4.51772118;enable-background:new"
           d="m 531.86719,302.99219 c -7.15978,0 -12.90625,5.74842 -12.90625,12.9082 0,7.15979 5.74647,12.9082 12.90625,12.9082 h 1.51367 l 7.92773,-9.19531 h 164.59766 l 5.1582,9.19531 h 1.51172 c 7.15979,0 12.90821,-5.74841 12.90821,-12.9082 0,-7.15978 -5.74842,-12.9082 -12.90821,-12.9082 z"
           id="path852"
           transform="matrix(0.26458335,0,0,0.26458335,-43.500005,512.12502)" />
        <path
           inkscape:connector-curvature="0"
           style="font-style:normal;font-variant:normal;font-weight:normal;font-stretch:normal;font-size:47.81255341px;line-height:1.25;font-family:'Source Sans Pro';-inkscape-font-specification:'Source Sans Pro, Normal';font-variant-ligatures:normal;font-variant-caps:normal;font-variant-numeric:normal;font-feature-settings:normal;text-align:start;letter-spacing:0px;word-spacing:0px;writing-mode:lr-tb;text-anchor:start;fill:#c5cae9;fill-opacity:1;stroke:none;stroke-width:4.51772118;enable-background:new"
           d="m 648.03711,244.9082 h 16.8418 c 6.05049,0 11.19366,4.13429 12.60547,10.08399 l 9.37695,41.54687 h 13.3125 L 689.98828,252.06641 C 687.36642,240.26789 676.97993,232 664.87891,232 h -16.8418 z"
           id="path880"
           transform="matrix(0.26458335,0,0,0.26458335,-43.500005,512.12502)" />
        <path
           inkscape:connector-curvature="0"
           style="font-style:normal;font-variant:normal;font-weight:normal;font-stretch:normal;font-size:47.81255341px;line-height:1.25;font-family:'Source Sans Pro';-inkscape-font-specification:'Source Sans Pro, Normal';font-variant-ligatures:normal;font-variant-caps:normal;font-variant-numeric:normal;font-feature-settings:normal;text-align:start;letter-spacing:0px;word-spacing:0px;writing-mode:lr-tb;text-anchor:start;fill:#c5cae9;fill-opacity:1;stroke:none;stroke-width:4.51772118;enable-background:new"
           d="m 596.40625,232 h -16.83984 c -12.10107,0 -22.48748,8.26789 -25.10938,20.06641 l -10.18555,44.47265 h 13.31055 l 9.37891,-41.54687 c 1.41176,-5.9497 6.55493,-10.08399 12.60547,-10.08399 h 16.83984 z"
           id="path878"
           transform="matrix(0.26458335,0,0,0.26458335,-43.500005,512.12502)" />
        <path
           inkscape:connector-curvature="0"
           style="font-style:normal;font-variant:normal;font-weight:normal;font-stretch:normal;font-size:47.81255341px;line-height:1.25;font-family:'Source Sans Pro';-inkscape-font-specification:'Source Sans Pro, Normal';font-variant-ligatures:normal;font-variant-caps:normal;font-variant-numeric:normal;font-feature-settings:normal;text-align:start;letter-spacing:0px;word-spacing:0px;writing-mode:lr-tb;text-anchor:start;fill:#736cc2;fill-opacity:1;stroke:none;stroke-width:4.51772118;enable-background:new"
           d="m 596.40625,232 v 12.9082 c 0,3.52948 2.9256,6.45313 6.45508,6.45313 h 38.72265 c 3.52948,0 6.45313,-2.92365 6.45313,-6.45313 V 232 c 0,-3.52947 -2.92365,-6.45312 -6.45313,-6.45312 h -38.72265 c -3.52948,0 -6.45508,2.92365 -6.45508,6.45312 z"
           id="path838"
           transform="matrix(0.26458335,0,0,0.26458335,-43.500005,512.12502)" />
      </g>
      <path
         style="font-style:normal;font-variant:normal;font-weight:normal;font-stretch:normal;font-size:105.6384964px;line-height:1.25;font-family:'Source Sans Pro';-inkscape-font-specification:'Source Sans Pro, Normal';font-variant-ligatures:normal;font-variant-caps:normal;font-variant-numeric:normal;font-feature-settings:normal;text-align:start;letter-spacing:0px;word-spacing:0px;writing-mode:lr-tb;text-anchor:start;fill:#f8f199;fill-opacity:1;stroke:none;stroke-width:0.15470067;enable-background:new"
         d="m 74.406531,577.0183 -2.068067,-6.7557 -2.068073,6.7557 -6.755694,2.06807 6.755694,2.06807 2.068073,6.75569 2.068067,-6.75569 6.755694,-2.06807 z"
         id="path870-6"
         inkscape:connector-curvature="0" />
      <path
         style="font-style:normal;font-variant:normal;font-weight:normal;font-stretch:normal;font-size:105.6384964px;line-height:1.25;font-family:'Source Sans Pro';-inkscape-font-specification:'Source Sans Pro, Normal';font-variant-ligatures:normal;font-variant-caps:normal;font-variant-numeric:normal;font-feature-settings:normal;text-align:start;letter-spacing:0px;word-spacing:0px;writing-mode:lr-tb;text-anchor:start;fill:#f8f199;fill-opacity:1;stroke:none;stroke-width:0.22014259;enable-background:new"
         d="m 84.086063,562.9706 -1.471461,-4.80676 -1.471456,4.80676 -4.806748,1.47145 4.806748,1.47146 1.471456,4.80674 1.471461,-4.80674 4.806747,-1.47146 z"
         id="path837-4"
         inkscape:connector-curvature="0" />
      <path
         style="font-style:normal;font-variant:normal;font-weight:normal;font-stretch:normal;font-size:105.6384964px;line-height:1.25;font-family:'Source Sans Pro';-inkscape-font-specification:'Source Sans Pro, Normal';font-variant-ligatures:normal;font-variant-caps:normal;font-variant-numeric:normal;font-feature-settings:normal;text-align:start;letter-spacing:0px;word-spacing:0px;writing-mode:lr-tb;text-anchor:start;fill:#f8f199;fill-opacity:1;stroke:none;stroke-width:0.07685321;enable-background:new"
         d="m 158.41999,574.19874 1.02739,-3.35613 1.02738,3.35613 3.35614,1.02739 -3.35614,1.02739 -1.02738,3.35614 -1.02739,-3.35614 -3.35614,-1.02739 z"
         id="path870-9"
         inkscape:connector-curvature="0" />
      <path
         style="font-style:normal;font-variant:normal;font-weight:normal;font-stretch:normal;font-size:105.6384964px;line-height:1.25;font-family:'Source Sans Pro';-inkscape-font-specification:'Source Sans Pro, Normal';font-variant-ligatures:normal;font-variant-caps:normal;font-variant-numeric:normal;font-feature-settings:normal;text-align:start;letter-spacing:0px;word-spacing:0px;writing-mode:lr-tb;text-anchor:start;fill:#f8f199;fill-opacity:1;stroke:none;stroke-width:0.22014259;enable-background:new"
         d="m 153.23207,562.53933 1.47147,-4.80676 1.47146,4.80676 4.80674,1.47145 -4.80674,1.47146 -1.47146,4.80675 -1.47147,-4.80675 -4.80674,-1.47146 z"
         id="path837-5"
         inkscape:connector-curvature="0" />
    </g>
  </g>
</svg>
