<svg xmlns="http://www.w3.org/2000/svg" height="400" width="400"><path d="M-1762.712-664.407v400h400v-400zM0 0h400v400H0" fill="#fff"/><path d="M0 0v79.17c3.825 2.15 10.323 6.101 14.472 10.25.35.35.703.717 1.06 1.093l.01.017c1.913 2.03 3.94 4.425 6.286 6.94l.391.42a79.866 79.866 0 0 0 2.834 2.876c.076.07.15.144.227.218a70.383 70.383 0 0 0 1.45 1.345 56.786 56.786 0 0 0 7.157 5.534c.022.012.045.03.066.041.162.106.325.211.488.314l.113.07.49.306c.023.012.048.03.071.044 1.129.69 2.315 1.36 3.564 1.998l.096.049a120.75 120.75 0 0 0 .701.35 95.984 95.984 0 0 0 .683.33c.174.083.35.164.526.245l.16.073c.182.084.366.167.55.248l.13.06a66.08 66.08 0 0 0 1.71.718c.116.047.232.096.348.14.128.052.254.1.381.15l.558.218.126.047c9.26 3.526 14.83 3.433 17.528 2.977a140.006 140.006 0 0 0-8.353 6.213c-3.054-.65-6.473-2.366-10.135-4.67-.004-.002-.007-.007-.01-.01-4.528-2.847-9.434-6.586-14.49-10.307-.215-.16-.43-.316-.645-.476a332.25 332.25 0 0 0-2.929-2.125l-.134-.096a258.566 258.566 0 0 0-1.738-1.23c-.477-.333-.956-.662-1.434-.99-.211-.145-.423-.288-.635-.432l-.297-.202c-.364-.245-.727-.486-1.091-.726l-.142-.09c-.337-.222-.675-.44-1.012-.656-.065-.044-.131-.083-.197-.128a90.868 90.868 0 0 0-2.298-1.418 94.474 94.474 0 0 0-1.292-.758s-.003-.003-.005-.003c-.4-.228-.798-.451-1.196-.67-.05-.027-.1-.051-.148-.078a63.213 63.213 0 0 0-1.634-.86l-.178-.088a52.754 52.754 0 0 0-1.574-.755c-.077-.035-.155-.072-.232-.106-.162-.073-.323-.147-.485-.216a52.23 52.23 0 0 0-1.054-.446l-.232-.096-.448-.177-.263-.1a40.926 40.926 0 0 0-.833-.305l-.21-.073a24.53 24.53 0 0 0-.434-.145c-.093-.032-.187-.061-.28-.09a29.801 29.801 0 0 0-.412-.13l-.048-.016c-.002 0-.004 0-.005-.002a29.208 29.208 0 0 0-2.292-.596A85.686 85.686 0 0 0 0 92.53v9.315c2.29 1.708 4.847 3.635 7.632 5.632.224.162.448.324.676.484.237.169.478.338.718.51.216.152.433.302.651.457l.722.503c.414.284.833.571 1.256.859l.571.382.116.079c.005.005.008.01.013.012.1.066.202.133.302.201l.134.089.74.49.322.21c.013.01.026.016.038.024.238.154.476.311.716.463l.193.126c.06.036.12.076.18.115.042.027.083.054.124.078.226.145.453.287.68.432.045.027.09.054.134.084.485.304.976.606 1.471.908.087.051.174.105.261.157l.55.331c.102.061.205.12.307.182l.159.093c.046.03.092.056.138.083l.51.297.404.236c.089.049.177.1.266.152l.22.125.443.25c.119.067.238.133.358.202l.148.08.36.2.393.215c.07.04.14.079.21.116.004.002.008.002.012.005l.371.198c.064.035.128.072.192.103a93.569 93.569 0 0 0 4.023 2.023c.308.147.614.287.92.424.08.037.16.071.242.108.242.108.482.211.72.314l.189.081c12.133 5.144 21.06 3.843 24.36 3.038a163.34 163.34 0 0 0-7.817 6.78c-.942.018-3.405-.284-9.407-2.478-5.507-2.015-18.338-8.937-30.227-13.671h-.001a93.704 93.704 0 0 0-1.258-.493l-.229-.091c-.376-.143-.75-.285-1.124-.425l-.241-.09c-.406-.15-.809-.297-1.21-.44-.034-.012-.07-.024-.103-.037-.513-.184-1.024-.36-1.528-.532v12.086c5.495 2.618 11.8 5.313 19.808 7.877 12.08 3.87 19.928 1.84 23.053.611a213.73 213.73 0 0 0-6.093 6.074c-.49.16-1.113.324-1.87.442v-.002c-.895.14-1.97.216-3.207.142-.02-.002-.04-.002-.061-.005-.133-.007-.268-.02-.404-.03-.031-.002-.063-.007-.094-.01-.131-.012-.263-.024-.397-.041l-.122-.015c-.123-.015-.247-.032-.372-.049-.063-.01-.127-.02-.19-.032a5.338 5.338 0 0 1-.333-.054c-.079-.012-.159-.03-.239-.044-.1-.02-.2-.037-.303-.059a5.92 5.92 0 0 1-.276-.061 16.28 16.28 0 0 1-.285-.062c-.1-.024-.202-.051-.303-.078a5.947 5.947 0 0 1-.278-.071c-.101-.025-.203-.057-.304-.086-.094-.027-.188-.052-.283-.081-.731-.219-1.39-.417-2.023-.604-.316-.093-.626-.182-.936-.27a83.562 83.562 0 0 0-1.897-.5c-.33-.082-.672-.162-1.03-.246-3.582-.822-8.842-1.718-21.561-3.71v10.044c2.168.564 4.337 1.104 6.48 1.585l.233.049c2.062.461 4.1.866 6.085 1.185 1.273.204 2.494.332 3.666.398l.072.002c.573.03 1.135.046 1.683.046h.05c.242 0 .482-.002.718-.007.05-.002.099-.002.148-.002a32.645 32.645 0 0 0 2.244-.142l.135-.015c.232-.024.463-.049.69-.078.036-.005.07-.013.106-.015.19-.027.379-.051.566-.081l.195-.03c.172-.026.342-.056.511-.085.045-.01.091-.017.137-.025.207-.037.411-.078.614-.118.06-.012.119-.027.178-.039l.437-.096c.07-.014.14-.031.208-.046.165-.04.328-.079.49-.12l.086-.022c.185-.047.367-.099.547-.148l.228-.066.332-.096.214-.066.483-.155.237-.08.272-.096.24-.084c.053-.022.106-.041.16-.061.23-.086.454-.172.673-.26.023-.007.046-.017.07-.027.24-.096.472-.197.699-.295l.088-.041c.204-.089.402-.18.596-.273.027-.012.054-.024.08-.04.213-.1.419-.203.618-.303.02-.01.039-.023.06-.032.184-.094.363-.19.536-.285l.064-.034a23.897 23.897 0 0 0 1.533-.92 288.15 288.15 0 0 0-7.315 8.218 274.828 274.828 0 0 1-8.928-1.252l-.01-.002c-2.466-.385-5.24-.846-8.145-1.389l-.212-.041A202.67 202.67 0 0 1 0 145.347v9.08c1.625.426 3.307.872 5.054 1.33 8.48 2.232 14.816-.39 18.478-2.783a376.323 376.323 0 0 0-6.524 8.033c-2.272-.003-7.461-.19-13.523-1.586-1.05-.244-2.217-.404-3.485-.503v12.994c5.501-.62 9.642-2.729 12.578-4.93-2.301 3.308-4.47 6.565-6.582 9.682-.937-.171-3.089-.554-5.996-.998v5.389a27.968 27.968 0 0 0 5.126-3.11 228.94 228.94 0 0 1-3.433 4.917l-1.693.53v4.398a84.43 84.43 0 0 0 2.514-3.51l-.001.004a36.095 36.095 0 0 0-.702 1.419l-.056.118a34.093 34.093 0 0 0-.937 2.226l-.07.19a30.666 30.666 0 0 0-.72 2.188c-.01.031-.02.061-.028.092v13.608c.057.29.112.55.168.824.03.142.058.29.087.428.07.34.14.662.21.98l.023.109c.68 3.103 1.277 5.216 1.609 7.226l.004.013a19.742 19.742 0 0 1-.283 7.975A92.26 92.26 0 0 0 0 219.734v64.995c.673.428 1.242 1.266 1.737 2.494a.224.224 0 0 1 .005.022c1.607 3.998 2.435 12.25 3.438 23.981l.002.005c.122 1.43.243 2.838.372 4.373v.001c.024.281.044.56.062.838l.01.161c.016.263.03.523.04.781l.007.178c.006.147.009.292.012.437.006.228.01.454.013.678l.002.31a44.62 44.62 0 0 1-.01.948c-.092 4.086-.825 7.671-1.917 10.788l-.003.032A32.742 32.742 0 0 1 0 338.25v5.322l10.157-4.105c15.216-6.151 17.721-16.73 17.094-28.507a59.68 59.68 0 0 0-.046-.8c-.01-.134-.017-.266-.026-.4a79.624 79.624 0 0 0-.12-1.5l-.045-.486a90.573 90.573 0 0 0-.167-1.663c-.04-.377-.082-.755-.126-1.135-.02-.162-.038-.325-.057-.488l-.151-1.227-.048-.38a24.54 24.54 0 0 0-.315-2.318 24.11 24.11 0 0 0-.654-2.824c-1.372-4.66-4.04-8.853-6.638-12.359l-.013-.018c-.72-.97-1.432-1.887-2.112-2.747l-.033-.04c-2.441-3.082-4.434-5.416-4.62-6.762-.001 0 0 0 0 0a1.474 1.474 0 0 1-.015-.193 1.145 1.145 0 0 1 .013-.178c.098-.606.74-.93 2.115-.94v.002c.053.002.094-.002.15-.004a6.348 6.348 0 0 1 .75.051c.031.004.063.007.094.012.123.017.246.038.369.061.125.025.25.054.375.085l.085.022c.097.026.195.053.293.083l.096.03c.246.079.492.17.738.274l.091.04a7.418 7.418 0 0 1 .386.18c.242.118.484.25.725.392l.087.052a13.619 13.619 0 0 1 .73.477h.002c.12.085.238.172.356.261l.108.084c.084.064.168.13.25.197a14.8 14.8 0 0 1 .415.345l.05.043c.113.098.224.197.335.3a22.153 22.153 0 0 1 .352.332l.1.097a20.498 20.498 0 0 1 .678.701l.08.089a15.834 15.834 0 0 1 .356.4c.086.098.17.198.255.299l.076.089a25.385 25.385 0 0 1 .396.492l.194.249c.157.205.314.414.467.626l.024.033c.15.209.298.421.444.637l.082.12c.155.23.308.464.459.701l.005.008c.147.233.29.47.434.708l.07.118c.147.248.292.5.434.755l.014.025c.135.243.267.489.398.737l.062.12c.136.262.271.527.403.796l.003.007c.131.268.258.538.384.81l.04.089c.254.556.496 1.122.725 1.696l.036.089c.23.58.447 1.17.65 1.764l.02.06a37.223 37.223 0 0 1 1.055 3.722 34.593 34.593 0 0 1 .314 1.528c.039.212.075.423.11.634v.001a31.296 31.296 0 0 1 .179 1.265v.001a31.29 31.29 0 0 1 .127 1.257v.002c.016.209.03.417.042.624v.001c.012.208.021.415.028.621v.001c.008.206.012.412.014.617.001 0 0 0 0 0a27.564 27.564 0 0 1-.015 1.222c-.008.202-.017.403-.03.602v.001a20.518 20.518 0 0 1-.107 1.186 21.542 21.542 0 0 1-.171 1.158c-.06.34-.116.678-.17 1.016l-.013.086-.036.247a55.807 55.807 0 0 0-.123.859 68.006 68.006 0 0 0-.096.78l-.036.311-.025.23a92.821 92.821 0 0 0-.084.844c-.018.2-.033.397-.05.596-.01.14-.023.28-.033.419l-.005.06c-.015.212-.028.422-.041.634l-.023.386-.033.67-.002.044-.012.284a57.42 57.42 0 0 0-.03.965c-.2 8.664 1.408 15.527 1.408 15.527s.637-12.425 8.505-18.82c7.867-6.395 16.556-8.862 18.874-38.249.037-.46.06-.913.077-1.362.952-28.285-39.33-36.497-39.33-36.497l-6.13 1.345s-3.646-5.16-8.278-10.586l-.084-.099a129.206 129.206 0 0 0-1.116-1.285c2.396-2.692 5.517-7.858 4.282-15.738a99.04 99.04 0 0 1-.503-3.687l-.001-.048c-.648-5.464-.931-11.112-1.05-15.592l-.005-.034c-.124-4.628-.078-7.845-.071-8.228a344.405 344.405 0 0 1 8.94-12.445l-.02.03c.427-.567.862-1.141 1.3-1.715a42.12 42.12 0 0 0-3.057 7.028 33.252 33.252 0 0 0-.438 1.43 36.468 36.468 0 0 0-.827 3.547l-.022.125c-.03.17-.058.34-.086.511-.009.057-.019.114-.027.172-.03.191-.058.384-.085.578l-.01.07a26.33 26.33 0 0 0-.08.644c-.01.07-.016.14-.023.21-.017.15-.033.3-.047.45l-.023.24a29.284 29.284 0 0 0-.053.68 31.21 31.21 0 0 0-.039.657c-.592 12.429 5.55 21.086 4.735 29.742-.023.246-.05.486-.08.722l-.011.101c-.028.21-.058.413-.09.614l-.026.166-.014.082c-.083.487-.179.95-.285 1.39-1.474 6.05-5.043 7.504-5.043 7.504s16.721-4.735 13.613-22.195c-.961-5.404-2.064-10.693-3.038-15.598l-.069-.354c-.261-1.32-.512-2.612-.748-3.868l-.113-.606-.125-.684a339.435 339.435 0 0 1-.247-1.379c-.605-3.464-1.051-6.616-1.212-9.326-.15-2.501-.058-4.634.379-6.288a337.585 337.585 0 0 1 4.156-5.202c-1.018 2.43-1.738 5.336-1.55 8.529a12.091 12.091 0 0 0 .026.383l.012.124c.016.19.036.379.06.57l.016.143c.011.085.024.17.037.254.012.082.023.164.037.246l.035.216c.024.136.05.272.077.409l.025.123c.03.144.06.288.094.432l.034.144c.035.14.07.28.108.421l.021.083c.05.178.1.357.156.536l.005.017c.053.17.109.342.167.514l.029.083c.06.173.122.347.188.521l.004.013c.07.184.144.368.22.553l.026.06c.071.169.145.337.222.507l.024.053c.086.187.174.373.266.56l.069.136c.138.276.277.548.416.817.028.054.056.11.085.163.044.085.088.165.132.248.144.272.288.542.433.805.116.212.232.416.349.622l.19.337c.175.303.35.6.524.893l.01.017c5.633 9.418 11.482 13.426 10.558 20.447-1.046 7.952-6.801 13.289-6.801 13.289s11.405 3.034 11.928-15.904c.523-18.939-7.743-29.297-9.835-37.25-1.198-4.55-1.537-6.936-1.61-8.15a251.529 251.529 0 0 1 10.299-11.1c-1.372 2.356-2.446 5.178-2.636 8.388l-.005.076-.012.268a19.76 19.76 0 0 0-.008.23l-.005.192c-.002.14-.002.28 0 .422l.002.15c.002.112.006.225.01.338l.006.135a16.832 16.832 0 0 0 .076 1.036l.02.196c.014.125.027.25.042.373.009.081.02.16.03.238.014.11.028.22.044.329l.038.258a19.666 19.666 0 0 0 .094.588c.016.096.032.19.05.285l.052.287.05.255.071.354.02.096c1.103 5.198 3.497 10.577 5.798 15.916a.26.26 0 0 0 .013.019c2.228 5.169 4.362 10.299 5.139 15.188 1.78 11.197-1.151 13.289-1.151 13.289s9.126-2.384 6.706-21.83a38.856 38.856 0 0 0-.1-.772 67.397 67.397 0 0 0-.119-.834 130.86 130.86 0 0 0-.297-1.889l-.002-.016c-.036-.21-.073-.416-.108-.625-.072-.42-.143-.84-.216-1.252-.05-.282-.103-.555-.156-.834-.06-.32-.118-.643-.179-.958-.062-.322-.127-.638-.191-.956l-.165-.817c-.062-.299-.126-.59-.19-.885l-.18-.838c-.064-.29-.13-.572-.195-.858-.061-.267-.122-.538-.184-.802-.076-.328-.155-.648-.233-.97-.05-.206-.099-.415-.15-.619-.087-.356-.176-.704-.264-1.052l-.128-.503c-.093-.358-.186-.71-.28-1.059-.04-.151-.08-.306-.121-.456-.1-.369-.2-.731-.3-1.091l-.095-.345a130.876 130.876 0 0 0-.4-1.396c-.12-.414-.24-.822-.36-1.224-.01-.037-.022-.071-.032-.106-.37-1.236-.734-2.4-1.092-3.514-.157-.493-.314-.976-.468-1.448-2.118-6.47-3.755-10.701-3.326-12.633.41-1.843.943-3.357 1.382-4.424l.088-.081c.238-.221.476-.442.715-.66l.353-.32c.45-.412.902-.817 1.355-1.22.152-.134.303-.271.455-.404.22-.196.442-.39.664-.584.172-.152.346-.302.52-.452.204-.179.41-.355.614-.53.22-.189.44-.378.661-.564l.517-.437c.356-.3.712-.594 1.067-.888l.582-.476.241-.194c-.275.493-1.095 2.078-1.829 4.545a8.368 8.368 0 0 0-.052.179l-.007.022v.002l-.129.454-.122.466c-.024.098-.05.19-.074.287l-.002.01c-.048.197-.095.4-.141.606-.014.064-.03.13-.043.197-.042.189-.082.383-.121.579-.02.096-.037.194-.054.29l-.068.37a33.193 33.193 0 0 0-.203 1.318l-.025.201c-.038.3-.073.604-.103.915l-.01.091c-.051.55-.09 1.114-.116 1.696l-.004.098c-.157 3.855.32 8.456 2.11 13.602a37.215 37.215 0 0 0 .272.756l.06.162c.078.206.157.415.239.621l.069.18c.096.242.195.485.297.728l.02.05c.107.257.22.517.334.777l.102.228a42.273 42.273 0 0 0 .632 1.352 45.101 45.101 0 0 0 .531 1.063c.138.267.273.53.404.793l.001.002c1.97 3.918 3.241 7.273 4.034 10.131.097.166.174.293.267.451 3.041 10.305.42 14.574.42 14.574s5.514-7.078 5.702-10.236c.406-6.842-1.828-16.666-5.357-27.47l-.022-.27c-.621-1.771-1.257-3.555-1.891-5.342-.48-1.352-.89-2.513-1.282-3.632a658.315 658.315 0 0 1-2.155-6.21c-.003-.006-.007-.008-.01-.013-1.294-3.784-1.53-4.63-1.554-4.722.099-.078.198-.159.297-.24l.51-.407c.246-.197.491-.39.737-.582a74.511 74.511 0 0 1 1.47-1.136c.159-.123.319-.243.478-.363.293-.221.586-.442.88-.658l.492-.36c.248-.182.495-.362.743-.538l.502-.36a157.307 157.307 0 0 1 1.212-.85c.381-.26.763-.52 1.145-.775.146-.099.292-.194.437-.29a140.922 140.922 0 0 1 1.272-.827l.535-.339c-.646 1.421-1.598 4.587-1.013 10.24l.006.057a41.166 41.166 0 0 0 .136 1.141l.036.26a32.144 32.144 0 0 0 .264 1.63l.016.086a29.23 29.23 0 0 0 .19.92 34.695 34.695 0 0 0 .21.886c.06.238.123.476.188.71a27.139 27.139 0 0 0 .223.753c.01.034.02.07.032.105.069.22.141.44.214.655l.055.162a29.485 29.485 0 0 0 .451 1.212l.055.14c.212.528.435 1.036.666 1.53l.064.132c.095.196.19.392.286.586l.091.177.27.52a51.576 51.576 0 0 0 .366.663c.041.07.082.144.123.213a29.661 29.661 0 0 0 .377.64 53.76 53.76 0 0 0 .394.634c.09.145.182.287.274.427l.118.179c.089.135.179.267.268.4.04.059.08.12.12.177l.049.07c.147.214.295.425.443.632l.14.196a51.909 51.909 0 0 0 .769 1.043l.111.15c.765 1.01 1.506 1.945 2.17 2.831l.147.197c.12.162.242.326.357.486l.006.005c.178.245.35.49.512.73 2.85 4.239 4.673 11.68 4.673 11.68s.926-2.807.609-7.527a34.67 34.67 0 0 0-.144-1.544 30.17 30.17 0 0 0-.074-.579l-.015-.12a32.922 32.922 0 0 0-.106-.692l-.044-.263a33.047 33.047 0 0 0-.086-.483l-.054-.29c-.04-.208-.083-.42-.128-.63l-.026-.12a40.79 40.79 0 0 0-.17-.749c-.026-.105-.054-.211-.08-.319a41.346 41.346 0 0 0-.466-1.698c-.075-.25-.155-.506-.238-.76l-.11-.332c-.06-.18-.12-.358-.184-.538l-.121-.346a43.766 43.766 0 0 0-.268-.721l-.054-.145-.054-.132a40.325 40.325 0 0 0-.686-1.664l-.084-.196c-.119-.268-.238-.53-.359-.793l-.118-.25a36.106 36.106 0 0 0-.39-.818 56.628 56.628 0 0 0-1.196-2.306c-.036-.067-.071-.135-.107-.2-.189-.345-.38-.686-.57-1.022l-.167-.292-.39-.678a56.686 56.686 0 0 0-.251-.43l-.155-.264c-.267-.454-.53-.896-.794-1.338l-.316-.53c-.292-.486-.582-.976-.866-1.455-.149-.25-.296-.503-.442-.75a68.004 68.004 0 0 1-1.567-2.82l-.187-.361c-.075-.147-.148-.297-.221-.444a23.41 23.41 0 0 1-.188-.386l-.141-.297c-.068-.144-.134-.29-.2-.434-.028-.064-.057-.125-.084-.189l-.003-.005c-1.061-2.393-1.81-4.883-2.01-7.688l.22-.14.156-.093a88.78 88.78 0 0 1 1.927-1.144l.154-.088a76.864 76.864 0 0 1 3.151-1.701c.292-.15.583-.294.875-.437l.125-.061c.308-.15.616-.297.923-.442l.208-.096c.28-.13.56-.257.84-.38l.096-.044c-.316.675-2.292 5.224-1.244 11.526.018.106.036.211.056.317l.054.3c.038.193.08.39.123.586.03.135.06.272.094.412l.005.015c.04.167.082.331.126.498l.01.04a29.49 29.49 0 0 0 .163.569c.032.107.064.215.099.323l.054.175c.05.154.1.309.154.463.09.26.18.516.275.771.03.081.063.162.094.245.063.17.127.337.193.503l.113.28c.065.162.13.322.198.481.016.037.031.076.047.11v.003l.093.213.138.32c.027.063.055.124.083.186a6.54 6.54 0 0 0 .076.17l.14.306.108.23.08.17.121.25.125.258.102.206.081.16.163.32.097.19.067.127c.053.104.108.204.162.307l.11.211c.022.037.043.076.064.116l.155.282.134.243.073.132.062.108.04.074.18.314c.064.113.129.22.193.331l.14.24c.211.359.422.71.634 1.051l.024.04c.222.36.443.711.663 1.055v.002c2.266 3.54 4.367 6.257 4.95 8.127 1.046 3.357.48 6.322.48 6.322s2.729-3.927 2.111-13.514a13.757 13.757 0 0 0-.14-1.237v-.007a7.246 7.246 0 0 0-.031-.184 14.374 14.374 0 0 0-.048-.265l-.031-.162-.016-.072a15.496 15.496 0 0 0-.118-.527c-.01-.04-.02-.076-.028-.115a17.115 17.115 0 0 0-.337-1.17l-.036-.114a31.002 31.002 0 0 0-.2-.58c-.074-.198-.15-.4-.23-.598l-.031-.08a27.148 27.148 0 0 0-.22-.533l-.03-.07a31.405 31.405 0 0 0-.27-.608c-.005-.007-.008-.014-.012-.022a21.452 21.452 0 0 0-.315-.662l-.138-.275c-.102-.204-.207-.405-.313-.609-.036-.069-.072-.135-.107-.204-.14-.26-.282-.517-.427-.777l-.062-.108a38.362 38.362 0 0 0-.392-.678l-.127-.218c-.15-.25-.301-.503-.456-.756l-.005-.007c-.156-.255-.315-.508-.474-.763-.21-.331-.421-.663-.635-.994-1.327-2.05-2.71-4.05-3.888-5.973-.014-.022-.029-.044-.043-.069a43.744 43.744 0 0 1-1.009-1.732 27.821 27.821 0 0 1-.239-.442c-1.039-1.97-1.734-3.843-1.778-5.588.28-.122.56-.243.84-.36l.22-.094c.307-.127.614-.252.92-.373a57.332 57.332 0 0 1 9.246-2.81c1.224.34 2.444.67 3.66.994a30.32 30.32 0 0 0-.134.307c-.063.15-.126.307-.188.466l-.048.126a19.03 19.03 0 0 0-.153.417c-.013.032-.024.066-.036.1-.058.167-.115.34-.17.513l-.015.044c-.125.4-.244.827-.35 1.272l-.004.014a17.904 17.904 0 0 0-.155.71c-.069.338-.13.687-.183 1.05l-.012.088c-.033.228-.062.46-.087.695l-.005.041-.035.361-.01.138c-.017.196-.03.397-.041.6l-.01.19c-.004.115-.01.233-.012.348l-.004.197a26.487 26.487 0 0 0 0 .858l.007.273c.006.174.014.353.023.53.006.086.01.172.017.26a18.433 18.433 0 0 0 .053.665 24.464 24.464 0 0 0 .184 1.45l.019.113c.033.209.07.417.11.628l.026.143c.047.24.097.483.152.731l.026.113c.055.238.113.478.175.724.006.02.01.04.015.061a28.33 28.33 0 0 0 .269.962l.092.307.024.074c.039.125.077.25.119.377.114.346.22.688.322 1.021.69 2.287 1.077 4.229 1.262 5.87.04.106.073.187.112.285.823 6.385-1.113 8.633-1.113 8.633s3.9-3.597 4.304-5.438c.878-3.983.484-9.995-.576-16.719l.013-.167c-.199-1.107-.406-2.226-.61-3.342-.472-2.567-.754-4.17-.977-5.463 1.584.41 3.159.803 4.724 1.183-.023.177-.041.358-.058.542l-.004.047a14.96 14.96 0 0 0-.031.53 13.022 13.022 0 0 0 .037 1.65l.01.114c.014.155.03.31.05.467l.017.135a14.368 14.368 0 0 0 .09.596 17.99 17.99 0 0 0 .09.476l.024.118a17.918 17.918 0 0 0 .61 2.181c.626 1.802.964 3.281 1.118 4.504l.078.184c.595 4.144-.715 5.501-.715 5.501s2.644-2.135 2.911-3.298c.58-2.52.28-6.402-.48-10.773l.008-.105c-.135-.69-.275-1.384-.415-2.079 1.401.322 2.791.63 4.17.925a11.832 11.832 0 0 0-.133.609 9.43 9.43 0 0 0-.057.343c-.456 3.186.898 5.242.479 7.468a6.66 6.66 0 0 1-.088.4l-.001.002c-.013.051-.029.098-.043.15-.022.078-.045.16-.07.233-.522 1.59-1.473 2.051-1.473 2.051s4.38-1.617 4.017-5.995c-.136-1.624-.326-3.2-.465-4.62l-.018-.19c6.008 1.227 11.757 2.16 17.1 2.71.369.287.566.459.566.459v-.002.002l.429-.104.768-.181c32.243 3.038 75.82 5.153 117.948 18.191-.068.074-.134.15-.202.228-.347.396-.695.825-1.022 1.294-.012.02-.025.037-.038.056a12.9 12.9 0 0 0-.188.282l-.05.079a10.542 10.542 0 0 0-.47.821l-.004.008c-.047.09-.092.184-.136.277l-.054.118a6.152 6.152 0 0 0-.126.292l-.047.11v.002a8.543 8.543 0 0 0-.361 1.134l-.001.002c-.005.022-.01.047-.017.071a8.256 8.256 0 0 0-.062.295l-.013.069a7 7 0 0 0-.055.336c-.004.032-.009.061-.012.093-.015.11-.028.223-.037.336l-.004.052c-.01.113-.016.226-.02.34l-.005.1c-.003.122-.004.247-.003.375v.002l.001.056c.003.118.007.236.016.356.001.024.002.049.005.073.01.13.022.26.037.393v.002l.012.096c.017.135.036.275.06.414.396 2.31 1.64 5.31 2.999 8.047-4.601.135-9.39 2.125-14.317 4.017-.369.14-.737.282-1.108.422h-.002c-.37.14-.74.278-1.11.414-.309.113-.618.231-.927.352l-.153.062c-.248.099-.497.199-.745.303-.118.048-.234.1-.35.15-.193.081-.385.162-.577.247-.099.043-.197.088-.296.133a67.084 67.084 0 0 0-.934.427c-.194.092-.39.183-.583.276l-.301.148c-.208.1-.414.203-.62.306a88.971 88.971 0 0 0-1.103.566 105.917 105.917 0 0 0-.85.453c-.237.128-.472.257-.704.385l-.142.08c-6.147 3.423-10.94 7.142-10.94 7.142s.102-.022.286-.055c1.29-.235 6.64-1.057 9.623.867.066.042.13.088.192.135l.032.024.05.04c.045.035.09.072.133.11l.058.05.125.12.067.068c.042.043.084.089.125.135l.041.047c.05.058.1.117.147.179l.012.014.025.034.1.133c.148.205.289.425.424.658l.002.004c.057.097.112.199.167.3l.049.087c.698 1.298 1.337 2.906 2.535 4.468-2.578.626-7.736 2.128-10.61 4.716a13.832 13.832 0 0 0-.67.644 9.173 9.173 0 0 0-.886 1.059l-.04.056a7.24 7.24 0 0 0-.11.164l-.062.095-.088.147-.054.094-.074.136-.057.113-.054.112c-.02.043-.037.085-.055.126l-.039.094c-.022.057-.041.113-.06.168l-.025.072a4.15 4.15 0 0 0-.052.177l-.01.047a3.141 3.141 0 0 0-.035.155l-.009.048a3.49 3.49 0 0 0-.038.324l-.002.046c-.002.043-.002.085-.002.127v.04c.001.05.004.1.008.148v.006a2.4 2.4 0 0 0 .077.418c.018.062.037.119.058.174.006.015.01.029.017.044.012.029.025.054.037.08.02.043.039.084.06.122l.034.06c.02.032.038.062.057.09a1.649 1.649 0 0 0 .082.113l.024.03c.043.05.072.08.072.08s-4.371 5.204-2.932 7.351c1.442 2.145 1.83 2.452 1.83 2.452s-.587 2.802 1.462 6.56c2.05 3.757 4.688-.686 4.688-.686s5.887 2.402 10.234-4.834c.483-.804.976-1.667 1.48-2.557 3.356-3.402 9.344-7.98 16.623-6.979l4.475.616c-.062 2.069.311 3.727 2.24 4.072.86.154 1.608.134 2.273-.011 1.308.082 3.008.2 3.754.303l-.034.257-.032.257c-.015.12-.025.24-.037.36l-.024.288c-.01.12-.018.236-.025.354l-.015.275a7.636 7.636 0 0 0-.007.337c-.002.097-.005.194-.005.289 0 .34.013.67.037.985v.02c.015.165.032.325.052.48l.007.062c.007.052.014.102.024.153.005.038.013.075.017.112.007.043.015.086.025.128l.024.13c.007.036.018.072.025.107l.032.132c.007.034.017.068.024.1.013.041.025.08.035.118.012.035.022.071.032.105.014.045.032.089.046.132a3.58 3.58 0 0 0 .103.262l.032.07c.02.038.037.075.054.11.015.026.027.05.042.074.017.032.034.063.054.093l.044.07c.02.028.037.056.056.082.018.022.035.042.05.063.022.026.041.052.063.076.015.018.032.035.047.051.024.025.05.05.074.071.017.015.031.03.049.043.024.023.051.042.078.062l.052.037c.027.017.054.034.083.05l.054.03a.92.92 0 0 0 .093.04l.052.02c.042.015.086.026.13.036l.022.006c.052.01.106.018.162.021l.047.001c.041.002.08.002.122 0 .02 0 .042-.003.064-.005.037-.004.076-.007.115-.014l.072-.014a1.593 1.593 0 0 0 .198-.052 1.869 1.869 0 0 0 .202-.073c.036-.015.076-.032.113-.05l.093-.044c.04-.02.076-.041.118-.063.032-.018.066-.037.1-.058.04-.024.081-.05.12-.076a3.362 3.362 0 0 0 .25-.172c.03-.02.055-.038.084-.06a9.028 9.028 0 0 0 1.737-1.766c2.683-1.429 6.538-2.91 9.772-1.909a23.662 23.662 0 0 1 4.479 1.925c-1.728.574-3.176 1.14-4.086 1.657a7.492 7.492 0 0 0-.375.23l-.04.025-.152.11.145-.03.044-.009c.034-.007.079-.013.123-.02l.115-.017a7.935 7.935 0 0 1 .319-.034c1.323-.113 4.258.005 7.57 2.542h.003a17.46 17.46 0 0 1 2.15 1.96c2.733 2.934 5.747 5.76 8.33 6.96.499 1.042 1.584 2.968 3.292 3.386 1.499 2.696 9.56 16.592 27.553 37.811-.047.47-.076.92-.086 1.348-.186 6.984 3.09 14.88-.03 17.549-3.118 2.668-10.875 16.017-10.986 20.208-.086 3.212 1.016 5.114 2.63 8.849v.003c.033.07.065.153.094.223l.002-.004c.201.466.405.95.618 1.478v.003a52.21 52.21 0 0 1 .447 1.13c.145.376.29.767.44 1.178a11.29 11.29 0 0 0 .169.442 16.748 16.748 0 0 0 .29.678c.019.04.036.079.056.118.068.148.14.293.213.433.02.042.042.082.064.123.071.137.145.272.22.403l.06.1c.066.115.135.228.206.338.017.03.037.06.054.088.069.107.14.212.208.314a11.48 11.48 0 0 0 .327.457c.09.124.184.243.277.36.02.023.037.048.056.071.231.287.47.558.707.816a22.342 22.342 0 0 0 .403.42 34.1 34.1 0 0 0 .78.768c.24.232.481.459.714.684l.002.003c1.001.96 1.914 1.909 2.535 3.197.05.097.093.195.138.295l.031.076c.13.315.248.65.344 1.01.005.02.01.04.017.059.027.112.057.227.081.344l.02.102a9.094 9.094 0 0 1 .071.384 13.74 13.74 0 0 1 .066.488c.013.129.027.258.037.392.03.377.081.796.15 1.248v.006c1.102 7.187 6.989 23.165 7.978 26.921a5.332 5.332 0 0 1 .093.43c.015.088.027.177.04.265.001.026.006.052.01.078.024.227.031.453.026.676 0 .02 0 .042-.002.063a4.36 4.36 0 0 1-.014.274l-.007.072a6.033 6.033 0 0 1-.106.662l-.012.042a4.1 4.1 0 0 1-.076.295c-.002.013-.007.026-.01.04-.064.218-.14.433-.228.644-.005.017-.013.032-.02.048a5.989 5.989 0 0 1-.142.318 7.812 7.812 0 0 1-.351.656c-.054.09-.108.18-.167.27a10.136 10.136 0 0 1-.425.61 6.167 6.167 0 0 1-.177.228c-.095.12-.193.24-.294.356l-.051.062c-.098.112-.197.221-.3.33-.032.037-.068.074-.103.111-.113.119-.226.237-.34.351l-.013.01c-.113.111-.228.22-.344.326l-.11.104c-.12.11-.243.217-.363.322a20.629 20.629 0 0 1-2.226 1.661c-2.82 1.832-.304 2.758 3.153.136a7.632 7.632 0 0 1 1.195-.754c1.18-.591 2.378-.717 4.066-.673.03 0 .064 0 .096.003l.282.009c.265.01.542.024.832.04l.113.006c2.388.135 5.698.413 10.832.287 1.17-.028 2.38-.022 3.62.005-.003.002-.003.004-.006.005 7.811.174 16.786 1.245 24.268.53.17-.015.341-.032.508-.05l.331-.036c.236-.027.466-.058.7-.088l.314-.043a36.714 36.714 0 0 0 1.153-.185l.01-.002c.695-.125 1.374-.27 2.032-.441l.01-.002a38.081 38.081 0 0 0 .557-.153l.155-.044c.324 6.368 1.19 14.7 3.35 22.843-2.688 9.993-2.523 18.612-2.523 18.612l2.728 5.334s-1.182 1.337-2.915 3.417H400v-54.19c-8.427 4.077-13.639 11.37-16.866 18.935-.024-.125-.051-.25-.074-.374-.058-.299-.112-.596-.166-.893a106.823 106.823 0 0 1-.3-1.764c-.046-.291-.09-.582-.132-.87a55.664 55.664 0 0 1-.126-.863c-.039-.286-.076-.57-.112-.853a97.325 97.325 0 0 1-.106-.844l-.096-.835c-.029-.276-.059-.55-.086-.823-.027-.273-.054-.543-.078-.813a78.14 78.14 0 0 1-.133-1.59 71.776 71.776 0 0 1-.105-1.54 104.504 104.504 0 0 1-.128-2.915 66.618 66.618 0 0 1-.03-1.366c-.001 0 0 0 0 0-.001-.192-.001-.371-.004-.558 4.876-3.203 8.991-10.143 12.23-18.311 0-.001 0-.003.003-.004.557-1.407 1.087-2.85 1.592-4.317.022-.064.047-.129.069-.194a119.827 119.827 0 0 0 .412-1.23c.322-.977.633-1.962.93-2.954l.128-.416c.078-.271.16-.543.238-.814.047-.164.096-.33.142-.494.074-.26.15-.52.221-.781.057-.2.11-.398.165-.596.063-.233.13-.465.19-.697a88.52 88.52 0 0 0 .484-1.859l.177-.69c.052-.217.106-.432.157-.648a71.712 71.712 0 0 0 .317-1.32c.083-.36.167-.72.248-1.079l.044-.193c.054-.244.105-.486.152-.727.027-.133.051-.267.076-.4.02-.105.042-.21.059-.315.083-.472.152-.938.208-1.396.03-.23.057-.457.079-.683.024-.226.044-.45.061-.672v-.001c.017-.222.032-.442.044-.66v-.001c.025-.438.04-.868.042-1.291v-.001c.002-.211.002-.421 0-.63a22.17 22.17 0 0 0-.015-.62 39.444 39.444 0 0 0-.027-.608v-.001a28.476 28.476 0 0 0-.155-1.765 20.24 20.24 0 0 0-.073-.568v-.001a33.017 33.017 0 0 0-.174-1.106 33.68 33.68 0 0 0-.1-.538 17.836 17.836 0 0 0-.109-.528v-.001a29.064 29.064 0 0 0-.233-1.025v-.001a27.838 27.838 0 0 0-.127-.497 26.007 26.007 0 0 0-.13-.488v-.001a34.53 34.53 0 0 0-.275-.947c-.09-.31-.187-.612-.282-.908-.386-1.186-.786-2.268-1.141-3.252a40.7 40.7 0 0 1-.258-.718 33.406 33.406 0 0 1-.447-1.328 22.296 22.296 0 0 1-.176-.609 7.467 7.467 0 0 1-.074-.291v-.001c-.025-.095-.044-.19-.064-.282-.02-.092-.037-.183-.054-.273v-.001c-.015-.09-.03-.177-.042-.264a4.785 4.785 0 0 1-.046-.502v-.001a4.24 4.24 0 0 1 .01-.468 2.944 2.944 0 0 1 .071-.433v-.001a1.96 1.96 0 0 1 .056-.204c.204-.599.636-1.083 1.382-1.458.994-.501 1.836-.511 2.557-.052V219.73a71.773 71.773 0 0 0-1.727-1.735l-.002-.002c-2.128-2.061-4.241-3.817-6.138-4.885a24.53 24.53 0 0 0-.994-.528c5.254-10.195 4.177-18.807 4.143-19.074a88.2 88.2 0 0 0 4.719-5.72v-4.399c-4.85 1.506-13.011 3.988-19.375 5.653-4.55 1.19-13.222 2.475-21.114 3.503-.35-2.931-.75-6.203-1.18-9.646 3.703-.516 7.747-.864 11.808-.818h.007c1.048.013 2.096.05 3.137.118h.002a59.305 59.305 0 0 1 .625.045 51.967 51.967 0 0 1 1.254.111l.41.044.319.037a27.15 27.15 0 0 1 .797.1l.258.035c.236.033.469.068.702.104l.164.027c.187.03.373.061.557.093l.233.042c.172.032.342.063.51.096l.207.04c.238.048.476.097.712.149l.098.02c.167.037.334.072.498.104 8.3 1.675 14.906-.085 19.37-2.193v-5.39c-6.035-.92-15.277-2.091-23.498-2.126-4.16-.017-8.049.258-11.119 1.003-2.75.668-5.364 1.583-7.781 2.608-.489-3.777-.992-7.588-1.5-11.214 5.036-.088 14.432 1.244 33.048 5.306 4.084.892 7.691 1.026 10.85.67v-12.996a46.996 46.996 0 0 0-3.848-.126c-8.46.034-20.054 1.702-32.533 1.78-3.36.021-6.034.342-8.167.838-.61-4.136-1.202-7.819-1.742-10.629 3.298.064 7.703.094 11.904-.041.246-.007.493-.015.739-.025 2.154-.081 4.235-.204 6.056-.398 7.777-.822 16.275 1.154 27.59 4.113v-9.082a145.71 145.71 0 0 1-2.375-.577c-7.708-1.94-12.01-2.723-16.103-2.684-2.037.02-4.027.248-6.356.633-.01.002-.02.005-.027.005-.427.071-.861.147-1.313.228l-.446.081c-.32.06-.636.118-.97.182-.505.093-1.028.196-1.57.302-6.148 1.205-13.046 3.553-17.541 5.224-.11-.5-.219-.972-.322-1.374-2.719-10.672-11.09-37.458-24.483-55.872-5.635-7.75-11.84-16.42-17.21-23.956 2.064.385 4.216.041 7.293-1.964 8.064-5.254 13.318-2.365 19.826-9.025 6.513-6.658 5.772-9.173 6.66-15.092.888-5.92 2-13.689.594-17.166-1.409-3.477-4.886-6.955-6.216-7.99-1.333-1.038-2.59-3.774-4.366-3.922a1.956 1.956 0 0 0-.17-.007c-1.79.005-4.635 2.265-6.784 3.409-1.497.8-3.5-.454-5.507-.857 3.7-1.823 9.602-5.129 12.17-7.256 3.66-3.036 2.092-4.813 2.092-4.813s1.024-.665 2.383-2.856h-111.49c.018.15.042.297.07.452-.31-.148-.622-.295-.938-.447h-21.02c1.395.574 3.22 1.32 4.822 1.975 1.6.656 2.975 1.223 4.82 1.976.048.02.096.037.144.059a113.431 113.431 0 0 0 2.785 1.087l.442.164c.398.148.793.29 1.183.43l.19.066c.484.172.962.334 1.434.493.015.005.03.008.046.015.446.147.886.29 1.321.427.066.02.132.042.198.061a86.765 86.765 0 0 0 1.328.403 68.288 68.288 0 0 0 7.006 1.68c1.108 1.598 3.016 3.937 4.734 5.942-2.293.648-4.073 1.588-5.322 2.496a1.89 1.89 0 0 0-.098.07c-.055.04-.108.082-.161.121l-.16.125a9.065 9.065 0 0 0-.351.292l-.071.062c-.056.051-.112.1-.165.15l-.078.075a4.216 4.216 0 0 0-.165.16l-.038.04-.031.031a4.06 4.06 0 0 0-.114.123c-.02.022-.04.044-.06.063-.043.05-.083.096-.122.145-.018.022-.037.042-.054.064l-.104.135-.045.061c-.228.314-.346.58-.351.761l-.052 1.83s-.271.16-.677.452h-.001c-.102.074-.212.152-.328.24l-.001.003a12.14 12.14 0 0 0-1.773 1.63c-1.92-.51-3.862-1.247-5.682-2.302l-.008-.007a18.346 18.346 0 0 1-2.288-1.561c-5.246-4.204-10.26-8.832-16.944-13.895A150.851 150.851 0 0 0 192.364 0h-17.758c9.507 7.386 27.858 23.654 38.801 26.358 3.753.928 7.555 1.146 11.042 1.001v.032c0 .307 0 .592-.002.857v.02c0 .154-.002.289-.003.429 0 .164-.004.319-.008.464-.003.15-.005.3-.01.432l-.001.027c-.008.186-.017.36-.03.52-.09 1.07-.323 1.563-.94 2.115-.995.891-5.18 4.03-5.65 5.544-.462 1.49-.57 2.613-.574 2.655l-.002.015c-.001.002-.558.508-1.273 1.295h-.001l-.124.143a22.1 22.1 0 0 0-.665.78 31.302 31.302 0 0 1-7.643-4.287c-3.393-2.584-8.234-9.205-14.76-16.587l-.089-.1c-.256-.29-.514-.58-.776-.871l-.18-.2c-.24-.267-.481-.534-.725-.802l-.29-.316c-.157-.172-.313-.344-.472-.515 0 0 0-.003-.002-.003-.407-.44-.821-.88-1.24-1.323l-.017-.02a185.248 185.248 0 0 0-.965-1.008 1.51 1.51 0 0 1-.07-.071c-.294-.302-.59-.604-.889-.908a157.618 157.618 0 0 0-.258-.26 168.97 168.97 0 0 0-.734-.731l-.191-.19-.236-.23c-.19-.187-.382-.373-.575-.56l-.338-.324-.221-.213c-.167-.16-.337-.319-.506-.479l-.356-.33c-.1-.094-.197-.187-.297-.278l-.01-.01-.39-.356c-.14-.13-.283-.26-.425-.387a48.913 48.913 0 0 0-.4-.364l-.004-.002a91.3 91.3 0 0 0-.316-.28l-.227-.204c-.31-.272-.622-.544-.937-.814l-.223-.192c-.32-.272-.643-.545-.97-.817l-.2-.164c-.348-.287-.7-.575-1.055-.86a59.75 59.75 0 0 0-.87-.681c-4.416-3.397-8.575-5.568-12.198-6.95h-9.253c1.801 1.318 3.642 2.994 5.523 4.913l.004.007a90.075 90.075 0 0 1 1.62 1.7l.262.28a197.211 197.211 0 0 1 .918 1.01c2.778 3.076 5.64 6.537 8.582 10.019l1.49 1.757c.76.89 1.525 1.777 2.295 2.655.1.115.2.226.298.339.288.326.575.652.864.976l.343.383c.286.32.572.633.858.947.107.118.213.236.319.351.371.405.745.805 1.118 1.203.314.331.627.66.942.986l.087.089a93.419 93.419 0 0 0 1.966 1.975l.037.037c3.722 3.62 7.556 6.675 11.498 8.557 9.361 4.466 15.681 5.593 19.358 5.747-1.06 1.58-1.828 3.406-1.094 4.803 1.622 3.09 3.035 4.08 3.035 4.08s-.045.111-.06.143l-.121.29-.01.024a31.28 31.28 0 0 0-.189.481c0 .005-.004.01-.005.015-.067.174-.137.368-.212.581l-.023.062h.001c-.805 2.3-1.907 6.503-.098 8.574l.015.017c.04.044.08.089.122.13l.055.054c.028.027.056.054.086.079a1.708 1.708 0 0 0 .152.127c.037.03.075.06.114.086l.01.008c.053.036.107.073.162.108.598.368 1.283.692 2.035.969.005.002.01.002.016.005.141.051.286.1.431.15.08.027.16.049.238.073.077.025.15.05.227.071.13.037.263.074.396.108a.99.99 0 0 1 .08.025c3.056.792 6.863.83 10.341-.295a7.464 7.464 0 0 0 .441-.149c.08-.027.16-.057.241-.086l.236-.089a15.391 15.391 0 0 0 .942-.407l.168-.078.334-.17c.05-.027.101-.051.151-.078.14-.074.28-.152.419-.231l.048-.027c.358-.209.67-.393 1.003-.589 2.315-1.367 4.162-2.451 7.492-3.163-.981 2.834-2.75 3.575-2.75 3.575s2.816 2 4.188 4.891c0 0 0 .003-.002.003a8.345 8.345 0 0 1 .523 1.408 6.39 6.39 0 0 1 .1.432c.042.226.086.466.129.717l.024.144c.026.15.052.31.078.47.12.74.237 1.548.35 2.38.054.407.107.817.159 1.227.013.105.028.21.04.314h.001c.4 3.205.692 6.228.697 6.27h-.001l.002.02v.002s.435.024 1.034.125c-.002 0-.002.002-.002.002a9.178 9.178 0 0 1 1.521.383c.106.037.211.079.315.12l.196.086.046.022c.079.037.16.079.236.123.032.017.061.032.09.05l.035.021.118.074c.015.01.03.02.044.032l.118.08c.01.008.02.018.03.025a2.152 2.152 0 0 1 .141.116c.002.002.007.005.01.01 1.26 1.109 3.541 2.947 3.541 2.947s.224 5.401 3.995 5.919c3.772.518 6.214-2.516 6.214-2.516s3.29 2.275 6.837 2.584a6.228 6.228 0 0 0 .5.03c.062.002.123.005.187.005.397.005.797-.017 1.193-.076h.005c.196-.027.392-.067.588-.11l.027-.008c.079-.02.16-.042.239-.064.029-.007.058-.017.085-.024.062-.02.123-.037.182-.057l.098-.034c.062-.022.125-.044.19-.069.026-.012.053-.02.078-.032.08-.032.162-.066.24-.103.047-.02.091-.044.138-.066l.11-.054c.05-.025.098-.052.147-.079l.094-.051.16-.093a.618.618 0 0 1 .058-.037c.054-.037.11-.071.164-.108l.175-.12.316-.224c.074-.051.145-.103.216-.154.108-.079.214-.16.317-.238.044-.032.088-.067.13-.099a15.344 15.344 0 0 0 .53-.429c.093-.081.184-.157.27-.236a11.633 11.633 0 0 0 .768-.746c.08-.088.157-.174.228-.257l.06-.074c.058-.071.112-.14.166-.209.01-.014.02-.029.032-.041a5.23 5.23 0 0 0 .17-.246c.006-.007.011-.017.016-.024.05-.076.094-.147.135-.219.002-.004.005-.012.01-.017a2.797 2.797 0 0 0 .322-.82c.074-.382-.01-.583-.01-.583s2.218 1.185 6.584-1.701c2.152-1.423 3.49-2.609 4.486-3.44.037-.032.074-.06.11-.091l.246-.202c.051-.041.1-.08.15-.117.05-.042.103-.081.152-.12.076-.057.15-.113.223-.163.022-.017.047-.034.069-.049.083-.059.166-.113.247-.162.013-.01.027-.017.042-.027l.091-.051.002.002c.128-.07.255-.132.378-.179v-.002c.199-.076.395-.12.596-.128v-.005c.052-.002.106-.005.16 0 1.553.074 4.365.668 5.327-1.332.962-1.998 5.993-3.18 7.694-7.252a74.59 74.59 0 0 0 1.32-3.35l2.294 3.37c.486.711.97 1.416 1.46 2.135.312.456.619.908.933 1.364.685 1.001 1.37 1.995 2.054 2.994.208.304.415.606.62.908.641.933 1.272 1.845 1.903 2.76l.849 1.233c.54.782 1.062 1.538 1.59 2.297l1.001 1.45c.417.599.81 1.158 1.21 1.735a567.834 567.834 0 0 0 1.932 2.758c1.962 2.795 3.668 5.185 4.868 6.795 7.232 9.716 15.69 31.679 20.94 48.955l.194.64v.002c.032.1.061.206.09.31a60.138 60.138 0 0 1 .423 1.501c.16.592.314 1.205.468 1.843a2.584 2.584 0 0 0-.068.027l.076.002c.861 3.57 1.67 7.85 2.417 12.446-3.892 2.192-3.853 5.026-3.853 5.026s1.64-.936 4.393-1.585a457.141 457.141 0 0 1 1.722 12.71c-6.272 3.276-10.37 6.71-10.839 7.108-7.563-6.345-15.644-12.754-24.064-18.893 2.525-1.003 4.727-2.39 6.275-4.343l.017-.023c5.043-5.6 5.475-8.821 9.151-8.747.135.012.275.022.417.02h.178c.22-.003.424-.006.61-.006.158 0 .31 0 .455.002.002-.002.005-.002.005-.002 1.63.002 1.492.032.785-.375h.002a6.278 6.278 0 0 1-1.11-.803c-.016-.017-.031-.034-.048-.049l-.152-.147c-.025-.027-.05-.052-.072-.079a6.377 6.377 0 0 1-.127-.137c-.03-.034-.059-.071-.088-.108-.037-.044-.074-.088-.11-.137-.035-.045-.067-.091-.101-.138-.03-.042-.06-.08-.089-.125l-.103-.167c-.027-.042-.054-.083-.078-.128a3.292 3.292 0 0 1-.099-.186 7.09 7.09 0 0 1-.073-.137c-.005-.013-.01-.027-.017-.04a4.865 4.865 0 0 1-.133-.309c-.14-.36-.253-.76-.324-1.21a67.817 67.817 0 0 0-.1-.589l-.054-.302c-.002-.017-.007-.034-.01-.051-.013-.052-.022-.106-.032-.16l-.044-.213a1.215 1.215 0 0 0-.02-.088l-.037-.167-.059-.26c-.014-.064-.032-.128-.046-.194a8.184 8.184 0 0 0-.062-.236c-.014-.061-.032-.123-.046-.184-.022-.08-.047-.162-.07-.24l-.043-.155c-.03-.1-.062-.201-.094-.302-.01-.03-.02-.059-.027-.088a13.94 13.94 0 0 0-.13-.383c-.002-.002-.002-.002-.002-.005-.046-.13-.093-.258-.142-.383l-.015-.04a8.894 8.894 0 0 0-.171-.414l-.106-.238-.056-.115a20.256 20.256 0 0 0-.11-.23.824.824 0 0 1-.047-.094c-.042-.079-.081-.155-.123-.23-.017-.033-.035-.062-.052-.094l-.132-.228-.044-.076c-.054-.086-.106-.17-.16-.25-.01-.015-.017-.03-.027-.042a8.096 8.096 0 0 0-3.276-2.884c-.09-.046-.182-.088-.275-.132-2.454-1.107-2.55-3.279-5.494-4.533a10.221 10.221 0 0 0-.763-.282c-.057-.017-.116-.034-.172-.052-.005 0-.01 0-.013-.002a16.624 16.624 0 0 0-.478-.13l-.034-.007a12.46 12.46 0 0 0-.486-.11c-.03-.005-.054-.012-.081-.017-.042-.007-.081-.017-.123-.025-.123-.024-.253-.044-.383-.066-.03-.002-.059-.01-.088-.015-.022-.002-.042-.007-.064-.01a11.51 11.51 0 0 0-.572-.076c-.1-.012-.199-.024-.3-.032-.001 0-.004 0-.006-.002a11.961 11.961 0 0 0-.889-.049c-.937-.02-1.88.06-2.807.209-.184.03-.368.064-.552.098-1.65.314-3.222.834-4.574 1.377-.452.181-.876.365-1.271.544-.002 0-.002.002-.002.002a31.25 31.25 0 0 0-.751.351c-1.414.687-2.295 1.245-2.295 1.245s-.14-.106-.407-.28a10.366 10.366 0 0 0-.307-.197 17.043 17.043 0 0 0-.856-.496c-1.46-.8-3.85-1.867-6.795-2.306 1.752-1.931 3.636-3.458 3.899-3.34.005.002.01.005.015.005.184 0-1.168-2.503-4.356-4.23a12.894 12.894 0 0 0-1.32-.619 13.626 13.626 0 0 0-3.843-.92 9.15 9.15 0 0 0-.96-.042c-2.04.012-3.718.7-5.146 1.659-.005.002-.007.005-.01.007-.135.09-.265.184-.395.277l-.044.032c-.116.086-.228.172-.341.26-.035.025-.067.052-.101.079-.088.07-.177.144-.265.216l-.155.132c-.07.059-.142.12-.21.184-.067.06-.133.118-.2.18a13.055 13.055 0 0 0-.4.373l-.066.06c-.196.192-.385.381-.574.573l-.194.203c-.321.334-.635.668-.932.987l-.002.007c-1.036 1.109-1.932 2.054-2.795 2.397a3.868 3.868 0 0 1-1.04.275l.001-.005c-1.458.135-2-1.148-3.09-3.126-.073-.13-.137-.25-.215-.388-.062-.106-.12-.211-.184-.321a16.511 16.511 0 0 0-.461-.76c-.909-1.444-3.063-1.935-5.485-1.896a45.942 45.942 0 0 0-2.558-3.789c-3.56-4.765-7.347-7.973-10.65-9.995a.61.61 0 0 0-.557-.476.685.685 0 0 0-.213.02c-2.98-1.698-5.5-2.412-7.004-2.427-.604-.007-1.043.098-1.284.297a.423.423 0 0 0-.15.196.632.632 0 0 0-.55-.44.628.628 0 0 0-.438 1.119.628.628 0 0 0 .88-.102.61.61 0 0 0 .133-.405c.432.707 4.818 1.389 9.809 5.043a.625.625 0 0 0 .918.702c1.816 1.447 3.683 3.303 5.448 5.705a56.752 56.752 0 0 1 3.202 4.832c-.79.125-1.566.29-2.3.476a.616.616 0 0 0-.556-.476.63.63 0 0 0-.648.812c-.06.018-.116.037-.175.054-.012.005-.024.007-.036.013-.145.046-.287.093-.425.14l-.13.044a40.43 40.43 0 0 0-.464.169c-.095.037-.184.074-.275.108l-.142.059c-.002 0-.005 0-.007.002a8.854 8.854 0 0 1-1.934.687v.005c-2.73.64-5.29-.179-7.465-.373a11.742 11.742 0 0 0-.493-.034c-.142-.005-.285-.007-.424-.01-.042 0-.086 0-.13-.002h-.116l-.125.002-.297.007c-.04.002-.08.005-.12.005-.13.007-.26.014-.385.027-.01 0-.018 0-.027.002-.079.007-.157.012-.234.02-.066.006-.127.017-.19.026-.003 0-.008 0-.01.002-39.254-12.309-84.11-15.18-122.652-19.87a375.718 375.718 0 0 1-4.026-.51l-7.308-2.63a73.143 73.143 0 0 0-3.878-1.28 45.847 45.847 0 0 0 .06-1.892v-.001a45.169 45.169 0 0 0-.027-2.16l-.025-.574c-.01-.194-.02-.39-.033-.587a34.079 34.079 0 0 0-.04-.598v-.002a39.892 39.892 0 0 0-.11-1.23 37.65 37.65 0 0 0-.15-1.269v-.002c-.03-.213-.06-.43-.092-.645v-.003a51.484 51.484 0 0 0-.104-.655c-.91-5.497-3.092-11.738-7.895-16.984a29.644 29.644 0 0 0-.59-.623c-.4-.415-.819-.82-1.255-1.218-.218-.199-.44-.395-.667-.592-8.718-7.496-14.583-10.873-20.991-16.824a10.023 10.023 0 0 1 1.216-.663 8.23 8.23 0 0 1 .38-.169l.094-.037c.122-.051.246-.1.374-.147l.036-.015c.37-.137.779-.309 1.214-.505h.002l.009-.003.07-.032c.42-.191.871-.412 1.343-.65l.06-.03.013-.007c.458-.233.94-.486 1.437-.756l.18-.095.084-.047.055-.03c.446-.245.91-.507 1.38-.775l.166-.093.117-.069a110.54 110.54 0 0 0 1.67-.977l.02-.012c.5-.297 1.006-.601 1.519-.913l.029-.017.805-.49c5.461-3.358 11.32-7.274 14.585-9.343.041-.027.077-.047.118-.074.68-.43 1.264-.79 1.676-1.025.107-.062.216-.118.324-.172.03-.015.059-.027.088-.042a5.544 5.544 0 0 1 .34-.15 5.527 5.527 0 0 1 .659-.223l.089-.022c.084-.022.167-.042.251-.059.031-.007.062-.015.093-.02.221-.044.444-.073.665-.093l.093-.007c.089-.005.177-.01.267-.012.023-.003.047-.003.07-.003.23-.005.459.003.687.02l.062.007c.093.007.186.017.278.027l.081.012c.225.03.448.069.67.118.024.008.047.012.07.017a11.369 11.369 0 0 1 .341.084c.226.061.45.13.671.208l.046.015a12.624 12.624 0 0 1 1.114.461l.136.064c.136.066.271.135.405.204.025.015.05.027.074.04a31.239 31.239 0 0 1 .51.284 18.885 18.885 0 0 1 2.565 1.826c2.476 2.093 2.846-.533-.57-2.99a6.646 6.646 0 0 1-1.027-.893c-.927-.998-1.314-2.181-1.666-3.98-.04-.206-.08-.427-.12-.653l-.046-.248c-.399-2.272-.863-5.443-2.135-10.186a67.437 67.437 0 0 1-.806-3.387c.002.003.004.005.008.005-1.152-5.372-1.959-11.465-3.245-17.003 2.03.449 4.033.736 6.029.885.3 1.274.475 2.73.576 4.307.012.197.022.395.033.594l.014.295c.01.208.018.417.026.63l.003.106c.105 3.178-.013 6.748-.03 10.331a126.943 126.943 0 0 0 .029 3.642l.007.257c.009.324.02.648.033.967l.006.167c.016.363.034.724.056 1.082l.016.26c.018.283.038.562.06.842.01.12.018.238.029.356l.016.187c.02.233.044.468.069.699 0 .015.003.032.004.047a46.394 46.394 0 0 0 .106.898c.028.216.058.432.09.645l.016.118c.038.248.078.496.12.739l.011.056c.04.223.081.442.126.66.009.047.017.093.027.138.096.468.204.927.323 1.374a23.88 23.88 0 0 0 .204.714c.01.037.021.074.033.11l.046.145a12.834 12.834 0 0 0 .151.454l.02.059.003.005c.156.444.327.874.514 1.288 4.353 9.608 8.501 11.18 8.501 11.18s-1.947-2.372-2.814-6.392c-.482-2.243-.189-6.493-.183-11.659V32.731c0-.24-.003-.488-.004-.734a99.492 99.492 0 0 0-.035-2.341c-.001-.103-.004-.203-.007-.307l-.01-.35v-.003l-.009-.22-.003-.077-.024-.604-.006-.132-.008-.14a70.75 70.75 0 0 0-.033-.65c0-.032-.004-.062-.005-.091l-.007-.118a65.13 65.13 0 0 0-.039-.623l-.01-.16c-.004-.056-.01-.115-.013-.174a38.2 38.2 0 0 0-.038-.503l-.017-.22-.022-.251-.033-.378-.029-.307c-.008-.073-.014-.145-.02-.216l-.037-.346c-.012-.12-.026-.243-.04-.363l-.01-.108-.013-.113-.033-.272a47.962 47.962 0 0 0-.043-.356l-.04-.324h-.001l-.021-.152-.09-.633-.043-.305a48.3 48.3 0 0 0-.107-.672l-.049-.297a44.313 44.313 0 0 0-.169-.942v-.003c-.038-.2-.079-.4-.12-.596l-.023-.113a30.865 30.865 0 0 0-.113-.51l-.015-.067c-.14-.598-.291-1.17-.453-1.722l-.041-.135a28.495 28.495 0 0 0-.335-1.046c-1.18-3.455-2.762-5.884-4.123-7.5 3.267.097 6.532-.166 9.879-.689 1.612 3.097 2.461 6.305 2.966 9.664a66.718 66.718 0 0 1 .16 1.151c.04.31.076.618.111.93l.02.174.082.798.019.196.023.253c.033.366.065.731.094 1.102l.03.373.047.66a163.626 163.626 0 0 1 .136 2.03l.136 2.215c.032.54.067 1.08.103 1.63l.037.557.037.513c.022.314.046.628.07.942l.038.481a105.14 105.14 0 0 0 .227 2.44l.019.169c.033.304.067.608.103.915l.03.245c.043.359.09.717.138 1.08l.022.15c.045.321.092.645.14.972.013.076.024.154.036.23.058.368.118.737.183 1.107l.027.155c.056.316.115.638.176.957l.06.314a64.724 64.724 0 0 0 .236 1.136c.06.28.124.557.188.832l.043.18c.065.274.132.546.2.816a38.326 38.326 0 0 0 .262.98 41.73 41.73 0 0 0 .61 2.031c.08.253.163.498.246.741l.084.248c.218.624.442 1.225.671 1.799.03.079.061.152.092.228.09.224.181.444.274.66l.08.192a36.237 36.237 0 0 0 .714 1.568l.095.196c.093.19.187.378.28.562.03.059.061.12.092.177.117.228.235.454.352.67 2.641 4.873 5.206 6.954 5.206 6.954s-2.984-8.657-3.066-14.917a40.72 40.72 0 0 1 .004-1.102v-.003c.003-.184.009-.375.014-.564l.015-.547c.01-.253.018-.508.03-.771l.006-.16c.044-1.055.1-2.166.141-3.334.005-.108.007-.216.011-.327.011-.34.02-.684.028-1.035.004-.177.008-.351.01-.528l.004-.263c.004-.321.005-.643.004-.971v-.089l-.003-.255a39.088 39.088 0 0 0-.018-.923c-.003-.174-.01-.348-.015-.525l-.018-.417a71.83 71.83 0 0 0-.022-.459l-.026-.442-.031-.456-.035-.444-.043-.479a33.047 33.047 0 0 0-.1-.94c-.017-.144-.033-.29-.052-.439-.023-.177-.049-.358-.074-.537-.02-.138-.037-.273-.058-.41a40.698 40.698 0 0 0-.321-1.83l-.012-.06a34.72 34.72 0 0 0-.187-.873l-.016-.069a37.62 37.62 0 0 0-.474-1.865c0-.005-.004-.01-.005-.017a35.273 35.273 0 0 0-.273-.923l-.01-.034a39.105 39.105 0 0 0-.297-.913l-.042-.123a21.155 21.155 0 0 0-.101-.292c-.028-.078-.056-.16-.085-.238l-.107-.297-.078-.21-.12-.317-.084-.219a27.817 27.817 0 0 0-.125-.314l-.08-.199-.14-.34c-.017-.043-.035-.082-.051-.121l-.165-.39a62.11 62.11 0 0 0-.377-.842c-.046-.1-.09-.199-.137-.297a28.14 28.14 0 0 0-.225-.48 36.361 36.361 0 0 0-.305-.632c-.026-.051-.052-.108-.079-.16l-.002-.002c-2.776-5.578-5.411-8.06-6.936-9.119 2.486-.42 5.02-.979 7.638-1.639l.814-.262c1.175 1.472 2.877 4.427 4.793 8.179l.001.007c1.74 3.409 3.659 7.475 5.522 11.688l.068.155c.224.506.447 1.016.67 1.526l.146.34c.199.46.397.92.593 1.38l.166.386c.217.513.433 1.023.647 1.534l.34.822.3.724c.135.329.27.657.403.986l.193.479c.523 1.29 1.026 2.567 1.503 3.81 0 .006.004.01.006.015.154.403.304.8.453 1.196l.099.265c.308.824.605 1.632.884 2.417 4.738 13.298 12.838 22.073 12.838 22.073s-1.644-2.672-1.848-8.196c-.112-3.062.007-7.705-1.46-14.074v-.007c-.008-.034-.018-.071-.025-.105a44.205 44.205 0 0 0-.128-.53 40.548 40.548 0 0 0-.26-1.031 71.187 71.187 0 0 0-.16-.592c-.044-.162-.088-.324-.135-.488-.06-.213-.124-.43-.188-.645l-.136-.46c-.075-.242-.153-.49-.233-.738l-.126-.4c-.106-.324-.217-.65-.33-.981l-.063-.185a69.022 69.022 0 0 0-.791-2.15l-.143-.367a83.366 83.366 0 0 0-.33-.825c-.06-.142-.118-.285-.178-.43a78.053 78.053 0 0 0-.353-.836l-.197-.452a82.207 82.207 0 0 0-1.485-3.19l-.284-.572a77.808 77.808 0 0 0-.733-1.425l-.261-.496a109.414 109.414 0 0 0-.776-1.426l-.269-.483a59.253 59.253 0 0 0-.883-1.517 82.094 82.094 0 0 0-.478-.783c-.074-.12-.15-.238-.224-.356l-.261-.412a38.23 38.23 0 0 0-.5-.766 59.697 59.697 0 0 0-.5-.741l-.215-.309c-.156-.223-.31-.441-.465-.655-.048-.069-.097-.132-.145-.199a36.804 36.804 0 0 0-.336-.456l-.199-.263a28 28 0 0 0-.303-.397c-.06-.079-.121-.155-.182-.233l-.325-.41-.153-.192-.406-.49-.07-.086a42.28 42.28 0 0 0-1.521-1.71c-4.69-4.982-8.762-6.646-10.745-7.193 1.76-.58 3.589-1.22 5.487-1.93 4.15 2.48 7.47 5.62 10.468 9.19a6 6 0 0 0 .122.148c.125.147.248.297.371.45a78.591 78.591 0 0 1 1.831 2.329 124.314 124.314 0 0 1 2.984 4.133c1.187 1.702 2.38 3.459 3.603 5.25l.602.876c.9 1.31 1.821 2.633 2.784 3.968.064.089.129.18.194.268.578.797 1.17 1.6 1.78 2.405l.256.336c1.822 2.385 3.798 4.783 6.016 7.156 4.632 4.954 9.069 8.375 12.881 10.733a.049.049 0 0 1 .017.01c7.043 4.354 11.943 5.073 11.943 5.073s-9.76-8.24-14.332-15.679a53.51 53.51 0 0 1-.785-1.327c-1.158-2.015-2.336-4.297-3.677-6.732a133.281 133.281 0 0 0-1.146-2.04 99.368 99.368 0 0 0-1-1.697 79.282 79.282 0 0 0-1.233-1.973l-.394-.601c-.096-.143-.19-.288-.288-.432a95.09 95.09 0 0 0-.389-.572l-.32-.461a57.15 57.15 0 0 0-4.95-6.153c-.003-.002-.005-.002-.007-.005a62.41 62.41 0 0 0-.917-.964c-.004-.002-.007-.007-.011-.01a53.97 53.97 0 0 0-7.103-6.103 69.25 69.25 0 0 0-1.8-1.254l-.132-.088a47.446 47.446 0 0 0-.636-.422c-.107-.071-.215-.14-.321-.211l-.176-.113c0-.003-.005-.003-.006-.003-7.371-4.743-12.326-5.82-14.892-5.99 1.67-.645 3.397-1.345 5.192-2.122h-5.037c-.88.328-1.758.64-2.631.937.191-.248.408-.552.642-.937h-1.104c-.04.377-.093.758-.155 1.143-3.234 1.07-6.415 1.914-9.511 2.486.255-.321 1.176-1.548 2.093-3.63h-2.156c.195 1.313.212 2.538-.022 3.645a55.83 55.83 0 0 1-4.396.633 56.655 56.655 0 0 1-7.498.3 43.159 43.159 0 0 1-2.006-.096c-.33-.02-.656-.047-.98-.074h-.002a59.03 59.03 0 0 1-.964-.09c-.177-.02-.351-.043-.526-.062.118-.123.243-.255.373-.4l.045-.05c.098-.107.199-.225.302-.345l.04-.05a.628.628 0 0 1 .047-.053c.074-.089.148-.182.224-.278v.003a3.11 3.11 0 0 0 .066-.086.366.366 0 0 0 .034-.042l.085-.108c.59-.76 1.222-1.708 1.812-2.846h-3.835a319.59 319.59 0 0 1-.264 4.12c-.096-.013-.194-.025-.29-.04a36.3 36.3 0 0 1-.92-.142s0 .003 0 0c-.304-.049-.606-.1-.905-.154-.3-.054-.596-.11-.89-.172a45.583 45.583 0 0 1-2.582-.594l-.03-.007a56.683 56.683 0 0 0-.21-.692l.012-.015c.467-.594.963-1.352 1.39-2.304zm377.718 0c-4.415 5.305-12.518 15.602-14.525 22.054-1.907 6.132-2.135 16.26 3.425 27.21l.06.118c.012.024.024.046.034.07a51.185 51.185 0 0 0 4.875 7.674c0 .003.005.003.005.008.079.103.162.206.24.309a60.75 60.75 0 0 0 5.23 5.885l.226.22a53.942 53.942 0 0 0 1.242 1.193c.032.03.061.057.093.084 6.95 6.463 13.357 10.385 18.994 12.643-.471.004-.724.027-.724.027s1.24.625 3.107 1.676V0zM30.328 23.24s.685 3.386 1.784 7.744a687.782 687.782 0 0 1-3.183 2.304 13.626 13.626 0 0 1-.04-.346c-.28-2.851.588-6.618 1.097-8.51l.033-.128.056-.194c.05-.174.1-.35.131-.451v-.008c.07-.245.122-.412.122-.412zm3.249 13.153c.408 1.4.843 2.802 1.3 4.15l.032.09a67.333 67.333 0 0 0 .588 1.659c.032.088.064.177.097.263.075.2.15.397.227.593l.12.315.214.525c.045.113.091.225.138.336.064.154.13.304.195.454.053.123.106.248.16.368.072.16.144.314.216.469l.137.294c.12.25.24.491.36.722 1.764 3.384 3.576 7.106 4.562 10.095l.01.008a22.114 22.114 0 0 1 .365 1.212c.147.555.256 1.072.319 1.548.02.158.037.31.047.457.035.518.005.97-.103 1.34a2.153 2.153 0 0 1-.051.154c-.187.499-.536.83-1.081.953a2.963 2.963 0 0 1-.75.044c-.071-.005-.142-.013-.213-.02-.065-.01-.13-.02-.195-.032a2.889 2.889 0 0 1-.214-.042c-.042-.01-.084-.022-.126-.031-.031-.008-.063-.015-.094-.025-.04-.01-.077-.022-.116-.034l-.104-.032a18.266 18.266 0 0 0-.108-.037 1.572 1.572 0 0 1-.108-.04 2.73 2.73 0 0 1-.125-.048c-.03-.013-.06-.022-.09-.037a3.078 3.078 0 0 1-.133-.057l-.09-.039c-.043-.02-.086-.042-.13-.061-.03-.015-.061-.032-.093-.047l-.124-.064c-.034-.02-.068-.036-.103-.056l-.12-.066a2.523 2.523 0 0 1-.109-.064l-.106-.064a2.356 2.356 0 0 1-.113-.069 2.715 2.715 0 0 1-.12-.078c-.035-.02-.068-.044-.103-.066l-.132-.091a6.514 6.514 0 0 1-.32-.233 8.403 8.403 0 0 1-.22-.165 15.168 15.168 0 0 1-.237-.194 11.03 11.03 0 0 1-.207-.171 14.17 14.17 0 0 1-.235-.21c-.068-.063-.138-.124-.206-.188a15.09 15.09 0 0 1-.43-.42c-.08-.08-.16-.164-.239-.248a7.143 7.143 0 0 1-.192-.206c-.078-.083-.155-.171-.233-.257-.061-.071-.123-.14-.185-.214a10.535 10.535 0 0 1-.227-.272c-.065-.079-.13-.157-.194-.238-.072-.089-.142-.182-.213-.273l-.177-.233c-.077-.103-.153-.208-.23-.314-.05-.071-.102-.142-.152-.216a25.37 25.37 0 0 1-.38-.564 15.263 15.263 0 0 1-.362-.574 19.11 19.11 0 0 1-.195-.327c-.05-.083-.098-.17-.147-.255-.062-.113-.125-.223-.186-.336a14.308 14.308 0 0 1-.138-.26 15.43 15.43 0 0 1-.306-.607 12.01 12.01 0 0 1-.162-.343l-.117-.258c-.053-.12-.105-.238-.155-.356-.038-.09-.074-.181-.11-.272-.045-.113-.091-.226-.135-.341a14.779 14.779 0 0 1-.107-.295 8.295 8.295 0 0 1-.114-.323c-.035-.099-.065-.2-.097-.297-.034-.11-.07-.221-.102-.33-.029-.097-.054-.193-.081-.291-.032-.118-.065-.236-.094-.354l-.015-.056a14.868 14.868 0 0 1-.141-.648l-.037-.194-.023-.14-.029-.171-.015-.108-.027-.194a6.573 6.573 0 0 1-.014-.125 7.787 7.787 0 0 1-.02-.172l-.01-.128a4.38 4.38 0 0 1-.02-.272 4.429 4.429 0 0 1-.013-.199l-.003-.108c-.002-.061-.005-.123-.005-.182V47.821c0-.054.003-.108.005-.165l.004-.132c.005-.09.011-.182.019-.272a46.308 46.308 0 0 0 .075-1.117v-.003c.009-.179.017-.358.023-.532v-.003a27.389 27.389 0 0 0 .02-1.03v-.003c0-.167 0-.331-.003-.495a23.545 23.545 0 0 0-.01-.484v-.002a39.354 39.354 0 0 0-.042-.935v-.003l-.031-.451a29.785 29.785 0 0 0-.303-2.53 31.813 31.813 0 0 0-.115-.673c1.162-.866 2.325-1.732 3.482-2.599zM75.25 63.83c3.625 3.48 7.6 6.613 11.915 9.104 11.131 6.424 15.645 14.314 17.222 21.11a8.338 8.338 0 0 0-.17.39h-.001l-.008.024a8.852 8.852 0 0 0-.151.393l-.008.022a9.524 9.524 0 0 0-.15.458l-.005.013c-.098.324-.19.68-.273 1.07l-.007.032a14.1 14.1 0 0 0-.108.562l-.018.103a18.69 18.69 0 0 0-.09.593l-.015.118c-.028.211-.053.43-.076.66l-.008.094c-.023.243-.045.495-.062.758a18.44 18.44 0 0 0-.038 1.001v.098c-.002.138 0 .273.001.403 0 .044.002.086.003.13.003.13.008.258.013.385l.004.096c.061 1.21.24 2.245.456 3.1a47.754 47.754 0 0 0-5.858-.663 54.953 54.953 0 0 1-.352-1.885 100.58 100.58 0 0 1-.674-4.697l-.016-.128c-.063-.52-.122-1.042-.179-1.565l-.01-.091c-.057-.545-.111-1.087-.16-1.625-.007-.063-.012-.127-.017-.19a108.82 108.82 0 0 1-.18-2.256 89.48 89.48 0 0 1-.064-1.048l-.013-.243a60.321 60.321 0 0 1-.045-1.009v-.012c-.202-5.808-2.543-11.367-2.543-11.367s.347 1.409-.356 3.21c-.39.999-1.11 2.412-1.371 4.918l-.002.01c-.01.1-.02.203-.028.306l-.01.116-.02.29-.008.137c-.005.093-.01.186-.013.28l-.007.186-.008.28v.179c-.002.098-.002.194-.002.297l.002.191.006.312c0 .034.003.069.003.1.008.226.018.46.033.7.005.078.008.157.014.238.006.096.015.194.023.292l.023.29c.008.093.018.189.028.284.01.106.02.211.033.317a20.497 20.497 0 0 0 .114.918l.053.375.046.3.061.375.052.304c.03.172.063.349.096.523a45.908 45.908 0 0 0 .184.93l.035.157c.11.51.23 1.004.356 1.48.018.07.038.137.057.206a25.434 25.434 0 0 0 .247.859 30.332 30.332 0 0 0 .454 1.367l.044.122c.182.499.37.972.563 1.421l.006.013c.095.22.191.434.288.645l.014.03a19.405 19.405 0 0 0 .294.613 22.9 22.9 0 0 0 1.44 2.5c-.178-.001-.357-.006-.535-.006a41.672 41.672 0 0 0-6.534.495l-.358-.083c-.56-1.141-1.048-2.471-1.495-3.926v-.002a31.894 31.894 0 0 1-.18-.61 5.144 5.144 0 0 1-.061-.208c-.934-3.241-1.699-7.035-2.58-10.814-.102-.442-.207-.881-.314-1.32a108.78 108.78 0 0 0-.56-2.217l-.059-.22a84.128 84.128 0 0 0-.265-.965l-.038-.14c-.1-.35-.203-.702-.308-1.048l-.074-.243c-.083-.272-.168-.54-.255-.807-.035-.11-.07-.22-.107-.331l-.066-.196a73.21 73.21 0 0 0-.22-.641l-.021-.061c-.086-.24-.173-.479-.261-.714l-.05-.133c-.078-.206-.158-.41-.238-.611l-.04-.1a36.998 36.998 0 0 0-.296-.707l-.009-.022a24.432 24.432 0 0 0-.291-.65l-.042-.09a24.248 24.248 0 0 0-.699-1.386 18.94 18.94 0 0 0-.329-.579l-.023-.041-.122-.202-.119-.194c-.038-.06-.076-.122-.116-.181l-.02-.034c-.002 0-.002-.003-.003-.003a16.664 16.664 0 0 0-.8-1.136c-2.276-2.935-4.294-4.903-5.956-6.226.113-.145.22-.287.325-.43l.003-.004c.107-.145.21-.29.31-.437l.08-.115c.071-.106.142-.212.21-.317l.106-.162c.05-.081.103-.16.154-.24a48.143 48.143 0 0 0 .562-.916l.417-.687.218-.348zm-3.783 5.207c.244.417.484.861.713 1.34.989 2.069 1.689 6.27 2.88 11.296h.002c0 .007.002.012.003.017.056.235.116.476.174.714a99.554 99.554 0 0 0 .576 2.27l.089.329c.04.152.081.301.123.451l.14.498.05.182.039.135.15.518.048.16.005.016c.019.064.036.126.055.187l.12.395.07.228.079.255.046.145.062.197.065.203c.036.113.072.224.11.336l.086.263.071.213c.043.13.087.258.132.388l.102.295.043.125a98.801 98.801 0 0 0 .266.746c.005.012.011.03.017.042l.001.004c.075.207.151.41.229.614.035.093.07.189.107.282a36.588 36.588 0 0 0 .346.881 48.637 48.637 0 0 0 .37.896c.13.304.261.606.397.91.03.064.06.128.088.192l.15.321c.033.074.067.142.101.216l.161.331.086.175a30.733 30.733 0 0 0 1.066 1.948c.089.15.178.295.267.44l.145.23c1.382 2.182 2.84 3.818 4.175 5.028a294.765 294.765 0 0 1-12.517-3.276 40.257 40.257 0 0 1-.56-1.33 63.456 63.456 0 0 1-1.235-3.401l-.237-.714-.2-.624c-.032-.1-.064-.198-.095-.299-.473-1.494-.935-3.03-1.413-4.599l-.268-.873a159.79 159.79 0 0 0-.818-2.594l-.004-.015a89.056 89.056 0 0 0-1.137-3.3 70.794 70.794 0 0 0-.494-1.32c-.056-.148-.115-.295-.173-.442-.07-.177-.141-.356-.213-.533a51.885 51.885 0 0 0-.497-1.202 59.515 59.515 0 0 0-1.023-2.275c-.046-.098-.09-.197-.138-.297-.233-.486-.47-.957-.708-1.416.6-.466 1.247-.977 1.97-1.534h.004c.063-.049.138-.103.203-.155l-.004-.002c.41-.312.836-.636 1.3-.977.024-.02.048-.034.071-.054.278-.203.57-.412.87-.628.05-.037.1-.071.151-.108a96.44 96.44 0 0 1 1.084-.758c.18-.123.352-.248.52-.37a24.141 24.141 0 0 0 .516-.398c.029-.025.058-.05.087-.071.144-.118.283-.236.418-.354l.057-.051c.139-.123.274-.246.403-.368l.036-.035.04-.04zM31.494 73.83c.79 2.758 1.953 6.189 4.031 10.208l.05.093c.135.26.275.523.417.79l.096.177c.138.253.279.506.423.764l.117.203c.146.258.295.516.45.778l.115.196c.16.265.32.535.488.808l.08.127.12.192a596.288 596.288 0 0 1-21.34-8.704c.119-.03.241-.057.357-.089 5.36-1.435 10.8-4.88 14.596-5.543zm9.85 2.755c5.78 1.488 13.264 2.648 16.047 1.902.27-.07.528-.15.779-.233.14.731.284 1.475.442 2.253l.005.027c.088.432.18.871.277 1.318l.055.252.105.467c.052.23.108.464.163.7l.057.24c.106.436.221.878.342 1.322.027.1.052.2.08.297l.139.491c.034.118.067.236.102.353l.154.508a91.34 91.34 0 0 0 .269.845c.04.122.083.247.125.37.056.165.112.331.171.496.043.125.089.248.133.37.062.172.124.341.189.51.045.121.093.241.14.364.068.174.136.348.207.525.038.096.08.192.118.285a38.43 38.43 0 0 0 4.313 7.757c-.153-.05-.307-.096-.459-.147a461.125 461.125 0 0 1-11.668-3.902 262.28 262.28 0 0 1-7.255-10.081l-.167-.248c-.28-.412-.556-.822-.826-1.227l-.139-.206c-.312-.471-.619-.935-.915-1.392a68.297 68.297 0 0 0-2.984-4.216zm-14.992 11.64A832.773 832.773 0 0 0 42.05 94.12a81.216 81.216 0 0 0 2.677 3.26l.089.102a97.774 97.774 0 0 0 1.011 1.146c.331.37.668.741 1.015 1.114a59.886 59.886 0 0 0 1.929 1.993c.004.007.009.01.014.015.224.223.446.436.668.65.027.024.053.051.08.076.207.199.413.393.619.582l.065.061c.921.849 1.82 1.622 2.696 2.324l.022.017c7.28 5.823 12.886 6.746 15.31 6.832a142.368 142.368 0 0 0-4.89 3.146c-4.492-1.414-8.363-3.617-12.022-6.3a48.16 48.16 0 0 1-.8-.596c-.138-.105-.275-.208-.412-.314-.1-.078-.2-.154-.3-.233-.2-.155-.398-.31-.596-.466a81.095 81.095 0 0 1-1.218-.99 113.9 113.9 0 0 1-.963-.804c-.028-.025-.056-.05-.085-.071-.659-.56-1.316-1.132-1.975-1.713-.27-.238-.54-.479-.81-.72-1.483-1.324-2.982-2.694-4.516-4.088a567.737 567.737 0 0 0-2.21-1.99c-.53-.473-1.068-.95-1.612-1.425l-.008-.008-.655-.567-.44-.38c-.198-.167-.394-.336-.593-.506-.302-.257-.607-.513-.915-.77l-.529-.437c-.196-.162-.393-.321-.592-.483a144.3 144.3 0 0 0-1.545-1.237 93.99 93.99 0 0 0-4.207-3.114zm362.982 3.315c-7.085.034-9.914 1.752-9.914 1.752s5.232-.21 11.612 2.616c2.243.992 5.276 3.185 8.967 5.936v-9.313c-3.953-.687-7.251-.959-9.966-.988-.238-.003-.47-.003-.699-.003zm-331.2 8.227a578.291 578.291 0 0 0 12.657 4.11c2.622 2.516 4.69 3.644 5.978 4.15-2.322.984-4.659 2.115-7.051 3.367-.242.145-.489.297-.733.446-1.485-1.16-3.823-3.639-6.554-6.841l-.007-.015a207.288 207.288 0 0 1-4.29-5.217zm17.694 5.654c1.44.432 2.88.856 4.317 1.276-.855.307-1.71.64-2.568.991a25.78 25.78 0 0 1-1.749-2.267zm312.275 3.565c-12.869-.103-24.483 7.534-24.483 7.534s9.892-3.99 18.851-1.305c.005.002.007.005.013.007.873.262 1.74.584 2.586.986a228.998 228.998 0 0 1 5.367 2.638h.002l1.82.922c1.228.621 2.477 1.254 3.76 1.895a244.327 244.327 0 0 0 3.98 1.944v-12.089c-4.493-1.514-8.63-2.505-11.896-2.532zm-140.878.705a.64.64 0 0 0-.464.238.63.63 0 0 0 .103.88.628.628 0 1 0 .437-1.117h-.076zm2.436.066a.623.623 0 0 0-.463.236.628.628 0 0 0 .103.88c.272.216.665.17.878-.103a.625.625 0 0 0-.518-1.013zm4.226.947a.632.632 0 0 0-.466.236.628.628 0 1 0 .542-.236.483.483 0 0 0-.076 0zm1.684 1.954a.64.64 0 0 0-.464.238.628.628 0 1 0 .464-.238zm2.218.07a.631.631 0 0 0-.464.236.628.628 0 1 0 .54-.235.483.483 0 0 0-.076 0zm-13.38 1.306a.628.628 0 1 0 .075.002l-.075-.001zm4.992.312a.628.628 0 1 0 .076.002c-.024-.002-.051-.002-.076-.002zm11.303.422a.626.626 0 0 0-.36 1.119.628.628 0 1 0 .437-1.119c-.028 0-.052-.002-.077 0zm-2.267.537a.627.627 0 1 0 .076 0c-.025 0-.05-.002-.076 0zm-7.66.221a.625.625 0 0 0-.36 1.117.626.626 0 1 0 .437-1.117c-.024 0-.051-.002-.076 0zm-4.487.621a.625.625 0 1 0 .518 1.013.625.625 0 0 0-.445-1.013h-.073zm17.916.594a.626.626 0 1 0 .415.135.618.618 0 0 0-.341-.135c-.025 0-.05-.002-.074 0zm-2.12.098a.626.626 0 0 0-.36 1.117.627.627 0 1 0 .36-1.117zm-13.42.123a.628.628 0 0 0-.36 1.117.628.628 0 1 0 .434-1.117h-.075zm3.675.066a.628.628 0 0 0-.36 1.119.628.628 0 1 0 .434-1.117l-.074-.001zm2.866 1.205a.627.627 0 0 0-.463.236.628.628 0 0 0 .981.78.627.627 0 0 0-.518-1.016zm-1.867.258a.626.626 0 0 0-.36 1.119.628.628 0 1 0 .437-1.117c-.026-.002-.05-.002-.077-.002zm11.816 1.313a.627.627 0 1 0 .076.002c-.027-.002-.052-.002-.076-.002zm-8.098.694a.626.626 0 1 0 .074 0 .452.452 0 0 0-.074 0zm9.428 1.617a.628.628 0 0 0-.36 1.119.628.628 0 1 0 .434-1.117l-.074-.001zm1.318.852a.626.626 0 1 0 .518 1.013.626.626 0 0 0-.518-1.013zm-8.82.032a.628.628 0 1 0 .52 1.016.63.63 0 0 0-.444-1.016c-.024 0-.051-.002-.076 0zm1.463 1.07a.627.627 0 1 0 .076.002c-.027-.002-.052-.005-.076-.002zm1.74.861a.621.621 0 0 0-.464.238.624.624 0 1 0 .981.776.623.623 0 0 0-.103-.879.625.625 0 0 0-.414-.135zm8.206.263a.624.624 0 0 0-.36 1.117.627.627 0 0 0 .88-.101.627.627 0 0 0-.103-.879.636.636 0 0 0-.341-.137h-.076zm-7.802 1.55a.626.626 0 0 0-.36 1.119.628.628 0 1 0 .437-1.118c-.025 0-.052-.002-.077 0zm7.429.433a.625.625 0 1 0 .518 1.014.622.622 0 0 0-.104-.88.6.6 0 0 0-.34-.134c-.025 0-.05-.002-.074 0zm108.117 2.984c-18.21-.064-23.305 7.182-23.305 7.182s5.232-.417 15.17-.942c2.715-.142 6.025.292 9.706 1.05l.061.022c6.072 1.252 13.144 3.37 20.231 5.215v-10.049c-2.616-.41-5.455-.851-8.756-1.364-.652-.1-1.295-.194-1.926-.28l-.096-.015c-4.145-.562-7.826-.81-11.084-.82zm-67.07 39.18c16.56 12.476 30.874 24.2 42.73 34.43-7.498 1.782-13.937 3.2-13.937 3.2s7.394.403 16.209.06c.027.33.061.715.083.995.042.496.057.696.081.98l.093 1.141 2.037-2.408a784.935 784.935 0 0 1 3.419 3.014 58.857 58.857 0 0 0-5.429 1.689l-.063.023c-.113.04-.224.084-.337.126l-.444.166-.598.232-.023.009c-.088.035-.176.066-.262.101-.002 0-.005.003-.01.003l-.265.109a44.33 44.33 0 0 0-.815.335c-.182.077-.366.154-.55.234-.034.014-.068.027-.1.042-.04.017-.076.034-.116.05a70.052 70.052 0 0 0-6.277 3.111c-.186.103-.373.205-.56.312-.318.18-.637.364-.956.553-.03.016-.054.032-.084.049-16.334 9.622-22.721 19.47-24.871 26.671-14.052-18.075-23.17-30.879-26.093-35.034.164-1.061-.14-2.395-.437-3.163.179-.332.341-.712.486-1.145 1.48-4.457.113-10.063-.918-13.207a8.124 8.124 0 0 0 2.12-.22v-.001a6.63 6.63 0 0 0 .33-.086c2.706-.762 4.37-2.666 4.37-2.666l.218-.332c.025-.039.034-.056.064-.1.392-.618 1.121-1.835 1.58-3.12.216-.603.366-1.214.39-1.77a2.671 2.671 0 0 0-.1-.889l-.67-2.164c.007.004 3.95 2.674 6.547-.315.002-.002.002-.004.005-.005l.13-.157c.005-.007.01-.014.017-.021.094-.12.187-.247.278-.384.022-.033.041-.068.061-.102.015-.021.027-.042.04-.063l.05-.097c.013-.026.028-.051.04-.077.015-.032.03-.065.042-.098.012-.027.024-.055.034-.082l.037-.096a.928.928 0 0 0 .027-.085c.01-.034.022-.067.03-.101l.019-.076c.007-.037.017-.074.025-.112.005-.02.007-.04.01-.062a2.88 2.88 0 0 0 .041-.413l.002-.08c0-.04 0-.081-.002-.122 0-.022 0-.042-.002-.063 0-.044-.005-.088-.007-.133l-.007-.064c-.002-.043-.01-.086-.014-.129-.002-.022-.007-.042-.01-.064l-.023-.133c-.005-.02-.007-.04-.012-.059-.01-.048-.02-.097-.032-.146v-.006a5.367 5.367 0 0 0-.24-.748c0-.004 0-.007-.002-.01a6.58 6.58 0 0 0-.165-.381l-.002-.005a9.017 9.017 0 0 0-.355-.676c-.04-.071-.084-.14-.126-.21a6.425 6.425 0 0 0-.267-.419 6.744 6.744 0 0 0-.128-.193c-.066-.095-.135-.19-.203-.285-.03-.038-.057-.079-.086-.118a16.191 16.191 0 0 0-.295-.382l-.002-.001c-1.15-1.457-2.567-2.773-3.58-3.645 2.461-.213 5.158-.466 7.833-.911zm-45.361 13.792l.058.006c-.056.038-.115.077-.171.117l-.143.102-.245.184-.118.089c-.115.091-.233.185-.348.28-.002.004-.005.006-.007.008h-.002c-.002.002-.002.005-.005.006a14.21 14.21 0 0 0-.349.3l-.108.1c-.078.07-.157.142-.233.214l-.137.132-.013.011a7.74 7.74 0 0 1 1.821-1.55zm88.024.518c.383 3.32.729 6.527 1.033 9.5-1.386.171-2.682.327-3.907.47a532.91 532.91 0 0 0-8.429-7.229c.9-.284 5.293-1.624 11.303-2.741zm45.507 2.513a75.367 75.367 0 0 1-3.409 4.13c-.395.442-.787.875-1.178 1.303-2.301.748-13.043 4.235-20.898 6.885-3.01 1.016-7.943 2.332-13.119 3.624-.172-1.496-.407-3.523-.704-6.058 5.298.27 11.131.353 16.405-.048 9.143-.696 17.747-5.985 22.903-9.836zm.763 4.356c-.456 1.614-.797 3.356-.915 5.164v.002c-.013.2-.022.4-.03.602v.002c-.007.202-.012.405-.012.609-.002.204 0 .408.005.612v.001c.005.205.012.41.025.616v.001c.012.205.027.412.044.618v.001c.02.207.041.414.066.622.027.208.056.416.088.624.243 1.546.489 2.905.73 4.131zm-119.364 1.713l.022.008c.027.007.051.015.076.023.049.014.096.03.145.043l-.202.054c-.014-.042-.029-.085-.041-.128zm111.47 2.093a157.326 157.326 0 0 1-7.6 7.46c-3.392 1.13-9.279 3.487-14.054 7.462l-.074.007a49.686 49.686 0 0 0-1.394.142l-.078.01c-.221.026-.44.053-.663.082a539.295 539.295 0 0 0-3.261-3.075 90.23 90.23 0 0 0 4.677-.608c8.957-1.417 17.76-7.66 22.447-11.48zm1.389 1.116c-1.598 2.02-4.19 5.864-7.468 12.765a79.622 79.622 0 0 1-1.045 2.122 39.9 39.9 0 0 0-6.39-1.086 120.982 120.982 0 0 1 4.046-4.042 94.727 94.727 0 0 0 10.857-9.759zm-40.405.146c.633.052 1.266.105 1.933.154.06.588.113 1.151.167 1.715-.692-.62-1.394-1.243-2.1-1.869zm-220.283 16.375c-.812.015-1.765.913-2.563 1.882 0 .001 0 .002-.003.003a14.77 14.77 0 0 0-.498.637 21.975 21.975 0 0 0-.458.644c-.437.64-.719 1.124-.719 1.124s-2.372-1.302-4.498-2.356c-2.127-1.053-2.678.084-6.06 1.752-3.38 1.666-2.543 2.613-5.131 4.384-2.588 1.77-.252.742.325 3.918.577 3.177-.855 2.028-2.308 4.847-.719 1.392-.9 4.427-.429 8.398a29.833 29.833 0 0 1-.79-3.349 7.104 7.104 0 0 0-.052-.263l-.017-.074-.037-.144a8.396 8.396 0 0 0-.084-.297l-.029-.095a8.39 8.39 0 0 0-.13-.372l-.043-.11c-.04-.1-.081-.203-.126-.305l-.045-.102c-.06-.132-.122-.265-.188-.398l-.027-.052a12.01 12.01 0 0 0-.187-.352 11.611 11.611 0 0 0-.297-.514l-.001-.003a14.436 14.436 0 0 0-.273-.428l-.046-.068c-.087-.13-.177-.261-.27-.392l-.03-.043a16.258 16.258 0 0 0-.353-.476 22.368 22.368 0 0 0-1.14-1.364c-.002 0-.002-.001-.003-.002a28.085 28.085 0 0 0-2.136-2.102l-.204-.182c-.126-.11-.254-.219-.383-.328l-.234-.195a30.325 30.325 0 0 0-.414-.34c-.022-.02-.046-.037-.069-.055-.312-.25-.631-.496-.956-.738l-.103-.077a39.366 39.366 0 0 0-.523-.378l-.052-.037a36.302 36.302 0 0 0-1.724-1.147l-.012-.007c-3.797-2.367-8.043-4.018-11.625-4.033-1.571-.007-3.014.3-4.235.998-7.81 4.468-8.117 6.351-12.448 9.351-4.33 3-2.02 6.434-2.02 6.434s-1.304-.754-2.76 2.823c-.046.107-.09.218-.134.335-1.132 2.968-1.055 4.02-1.705 5.778a13.72 13.72 0 0 1-.18.455 18.311 18.311 0 0 1-1.74 3.196 14.101 14.101 0 0 1-.72.938l-.087.107-.001.001-.165.194c-.168.197-.328.385-.457.551a4.66 4.66 0 0 0-.16.22c-.294.434-.432.861-.361 1.568.188 1.886.286 2.084.286 2.084s-2.482.482-2.505 4.449c-.022 3.967.55 8.135 4.449 11.28 3.9 3.146 6.13 3.406 6.13 3.406s-.66 2.426 4.243 3.594c3.439.82 10.601 1.195 14.972 1.195-1.72 1.322-3.037 3.454-4.835 3.396-2.664-.084-6.586-.948-8.204.025-1.618.972-1.531 4.163-2.312 5.771-.578 1.193-1.646 4.21-2.042 7.305l-.003.027a18.995 18.995 0 0 0-.136 1.551l-.002.055-.01.323-.001.077v.408c0 .066.003.13.004.195.003.061.003.123.006.183.005.129.012.256.022.383.009.128.024.26.042.393l.012.072c.017.111.034.223.057.338.007.038.017.079.026.118.02.1.041.2.067.302l.038.15c.026.098.051.194.08.293a12.894 12.894 0 0 0 .143.461c.013.044.029.088.044.131a16.82 16.82 0 0 0 .527 1.363l.01.023c.576 1.339 1.353 2.792 2.232 4.28l.023.04c1.62 2.737 3.581 5.591 5.303 8.071 3.618 5.21 4.093 7.947 13.4 11.225 7.455 2.625 11.277-.188 17.705-.789-6.016 13.304-13.805 30.69-16.635 37.735a43.064 43.064 0 0 1-.837 1.939 52.471 52.471 0 0 1-.999 2.058 74.77 74.77 0 0 1-1.148 2.164v.001c-.203.37-.412.742-.626 1.12l-.279.48c-.127.22-.251.438-.381.66-.226.385-.457.771-.693 1.163l-.048.08-2.42-3.125c-9.593-12.389-20.79-11.615-32.494-7.554a76.33 76.33 0 0 0-.876.31l-.345.123a108.716 108.716 0 0 0-1.468.549c-.183.07-.366.142-.548.213A140.126 140.126 0 0 0 48 362.484l-.582.24-.447.187a254.052 254.052 0 0 0-.562.237l-.55.232-.162.069c-.454.192-.906.387-1.36.582-5.89 2.534-10.592 7.215-14.255 11.51l-.177.208c-.169.199-.337.398-.502.596-.08.094-.156.187-.233.28a127.1 127.1 0 0 0-1.608 1.98c-4.114 5.146-6.514 8.568-7.492 4.639h.002c-.01-.05-.024-.088-.037-.139a5.68 5.68 0 0 1-.067-.342l-.016-.111a6.042 6.042 0 0 1-.032-.255c-.004-.036-.008-.071-.01-.107a6.494 6.494 0 0 1-.02-.725c0-.035.002-.069.003-.102a6.055 6.055 0 0 1 .027-.39c.01-.117.024-.235.04-.354l.005-.03c.017-.125.04-.251.064-.379l.022-.109a9.478 9.478 0 0 1 .178-.726l.023-.082a12.497 12.497 0 0 1 .265-.789l.052-.137c.044-.114.09-.229.14-.345l.02-.052c.057-.133.117-.266.18-.4l.064-.137a12.62 12.62 0 0 1 .214-.434l.145-.278.067-.124c.07-.127.141-.254.215-.382l.106-.18.14-.232a23.264 23.264 0 0 1 .418-.653c.073-.111.147-.221.224-.332l.112-.16a20.233 20.233 0 0 1 .5-.685c.204-.271.416-.543.637-.813l.059-.072c.36-.44.742-.878 1.143-1.313a34.779 34.779 0 0 1 1.333-1.373l.057-.056c.445-.433.908-.861 1.386-1.284l.056-.049a41.29 41.29 0 0 1 1.495-1.256l.037-.03a45.128 45.128 0 0 1 1.59-1.213c.011-.01.024-.018.036-.027a44.17 44.17 0 0 1 6.162-3.758h.002c3.229-1.616 6.582-2.755 9.74-3.147.124-.015.247-.033.37-.05.213-.027.425-.055.637-.085l.154-.022c.13-.018.26-.04.39-.06.166-.025.331-.05.496-.077l.246-.04.346-.06c.14-.023.28-.048.42-.074a31.055 31.055 0 0 0 .653-.12l.344-.067.457-.091c.23-.047.458-.097.686-.146.127-.027.254-.053.38-.082l.033-.007a67.043 67.043 0 0 0 1.042-.24l.726-.18.044-.01.258-.066a53.344 53.344 0 0 0 .95-.25c8.79-2.377 15.361-5.926 15.361-5.926s-12.654 3.085-20.858-2.377c-5.897-3.926-9.845-8.849-22.78-8.88-5.061-.012-11.499.725-19.968 2.563-.471.102-.933.215-1.39.332A31.746 31.746 0 0 0 0 345.81V400h108.484c.504-1.121.914-2.504 1.07-4.178.015-.167.029-.336.04-.509v-.002c.052-.865.037-1.804-.065-2.82a35.65 35.65 0 0 1-.064-.712c-.12-1.57-.095-2.861.021-3.927l-.032-.198c.382-4.17 1.971-5.184 1.971-5.184s-3.067 1.46-3.597 2.531c-1.148 2.318-1.756 6.165-2.032 10.592l-.032.101c-.03.735-.055 1.476-.082 2.218l-.02.537a25.457 25.457 0 0 0-1.08-2.173c-.16-.285-.326-.564-.496-.835h-.001a16.188 16.188 0 0 0-.804-1.17 14.595 14.595 0 0 0-.577-.721c.081-.38.138-.75.177-1.109.036-.325.059-.644.076-.954.009-.155.016-.308.022-.46.054-1.211.075-2.308.538-3.343l.015-.033a7.02 7.02 0 0 1 .363-.686c.877-1.422 1.909-1.65 1.909-1.65s-4.637.558-5.299 4.901c-.06.402-.117.8-.17 1.197l-.082-.059c-3.563-2.465-8.976-3.97-15.216-4.764a185.75 185.75 0 0 0 5.326-7.964l.116.045.16.065c.143.058.283.116.423.175l.164.07c.146.062.29.126.433.19l.126.055c.18.082.359.165.533.247 4.072 1.932 6.257 4.034 6.257 4.034l-6.25-8.073c3.034-5.065 5.78-10.308 7.953-15.547 5.047-12.165 10.97-26.075 15.363-36.331l.188.02c6.836.82 8.489-1.941 11.77-5.561a54.75 54.75 0 0 0 2.82 2.721l.03.028c.467.422.93.83 1.376 1.22 3.524 3.07 8.86 1.837 10.71 3.286 1.85 1.448 4.245-.433 5.687-1.231.05-.028.101-.052.153-.075l.003.004a2.01 2.01 0 0 1 .626-.155c.14-.014.289-.014.445-.007l-.001-.003c.156.008.32.026.496.053a9.476 9.476 0 0 1 .38.067c.027.004.054.01.081.016.109.022.22.046.337.073l.227.052.195.047c1.336.322 3.167.824 5.887 1.169 5.5.697 7.055-1.468 7.055-1.468s.008.136.124.348l.018.03c.027.048.06.098.1.151.019.026.037.052.06.08.066.082.145.168.244.26l.028.025a4.152 4.152 0 0 0 .359.28l.072.048a4.7 4.7 0 0 0 .158.1c.026.016.05.032.078.047.076.044.158.089.244.134l.103.051c.064.032.132.063.2.095l.124.055c.098.043.2.086.31.127a13.218 13.218 0 0 0 .394.143l.16.054c.13.042.267.084.411.126l.135.036a14.39 14.39 0 0 0 .546.14c.169.04.343.079.527.117l.096.018a19.945 19.945 0 0 0 .703.128c.213.035.432.07.664.102l.017.002h.009c.103.016.206.026.309.035l.082.006c.078.006.155.01.233.013l.095.002c.079.002.157.002.235.001h.074c.208-.006.413-.022.616-.047l.06-.008a5.795 5.795 0 0 0 .309-.049c.31-.056.613-.134.91-.23l.017-.006a8.07 8.07 0 0 0 1.138-.473c.113-.057.226-.116.337-.178.05-.027.098-.056.146-.083a9.49 9.49 0 0 0 .234-.14c.047-.03.096-.058.143-.089l.01-.007c3.103-1.986 5.073-5.528 5.073-5.528s3.742 1.74 7.086-.52c3.343-2.261 1.023-7.498 1.023-7.498s.853-1.842 1.538-3.418c.007-.019.015-.035.023-.053.155-.357.303-.704.427-1.006a3.086 3.086 0 0 1 .17-.343c.01-.018.019-.035.03-.051.022-.04.047-.08.072-.12l.031-.048.051-.074c.058-.085.119-.168.185-.25l.013-.017a5.32 5.32 0 0 1 .254-.296c.057-.062.116-.123.174-.183a10 10 0 0 1 1.238-1.045l-.002-.002c.521-.375.922-.603.922-.603s-1.572-4.155-2.841-7.944a114.61 114.61 0 0 1-.389-1.176l-.032-.102a80.63 80.63 0 0 1-.477-1.532l-.054-.183a41.801 41.801 0 0 1-.208-.726 6.636 6.636 0 0 1-.109-.46l-.023-.123a8.758 8.758 0 0 1-.139-1.457l-.004-.003c-.049-3.388 1.692-6.608 1.692-6.608s-2.03.123-4.291-2.112c4-1.01 6.337-.653 9.833-.414.187.013.375.02.562.027.063 0 .125.003.188.004.126.002.253.003.379.002l.217-.001c.125-.002.25-.008.372-.013.121-.005.241-.011.36-.02a16.535 16.535 0 0 0 .614-.05l.276-.03c.093-.01.186-.022.278-.034l.304-.044c4.204-.64 8.12-2.79 10.64-5.267.122-.121.241-.242.357-.363l.015-.016a12.531 12.531 0 0 0 1.216-1.49c.08-.115.158-.232.23-.349.046-.072.087-.145.126-.218l.008-.015c.037-.07.07-.142.102-.213v-.002c1.685-3.877-4.72-9.322-5.194-9.717a37.63 37.63 0 0 1-.09-.078s.124-.227.282-.703a8.64 8.64 0 0 0 .167-.562 13.182 13.182 0 0 0 .172-.734v-.001c.029-.137.056-.281.083-.434a16.522 16.522 0 0 0 .198-1.577 21.766 21.766 0 0 0 .07-1.287v-.002c0-.057 0-.114-.002-.17v-.002a2.661 2.661 0 0 0-.07-.503c-.574-2.413-4.436-4.12-6.454-4.86-.735-.268-1.224-.408-1.224-.408s-.639-1.045-1.799-2.267c-1.157-1.22-6.605-2.243-7.968-2.622-.845-.236-1.297-.595-1.884-1.571h.001a12.384 12.384 0 0 1-.304-.538 51.252 51.252 0 0 1-.581-1.131l-.455-.919a4.205 4.205 0 0 0-.327-.546v-.001a4.706 4.706 0 0 0-.194-.251c-1.413-1.707-4.096-2.35-5.47-2.575a10.861 10.861 0 0 0-.856-.111l-.908-1.716a.693.693 0 0 0-.063-.093l-.014-.018-.032-.033a1.169 1.169 0 0 0-.087-.087l-.053-.043a1.943 1.943 0 0 0-.173-.127 2.929 2.929 0 0 0-.205-.124 4.977 4.977 0 0 0-.151-.08l-.087-.044c-.065-.031-.135-.061-.207-.093l-.067-.029a7.89 7.89 0 0 0-.302-.117h-.004a7.687 7.687 0 0 0-.389-.13l-.101-.029a11.93 11.93 0 0 0-.33-.092l-.136-.032a12 12 0 0 0-.336-.078l-.151-.03a11.857 11.857 0 0 0-.376-.069l-.125-.02a14.292 14.292 0 0 0-.446-.064l-.105-.012c-.17-.02-.346-.038-.526-.054-.018 0-.035-.003-.053-.005-.444-.035-.91-.057-1.406-.056a19.817 19.817 0 0 0-3.526.34c.758-2.963 1.55-6.429 1.794-8.419.468-3.815.143-7.734-.638-9.82-.782-2.088-2.816-1.95-4.398-2.653-1.583-.703-5.508.614-5.508.614s-.686-1.393-.93-2.138c-.243-.745-3.913-.667-6.846.655-2.627 1.185-5.703 5.263-6.997 6.704v-.004a5.65 5.65 0 0 1-.38.399c-.948.837-2.617-2.048-3.701-3.243a5.136 5.136 0 0 0-.247-.249l-.045-.042a20.335 20.335 0 0 0-.72-.638c-2.211-1.887-6.947-5.418-8.42-5.917a1.011 1.011 0 0 0-.346-.052zm210.673 57.492h.243a13.306 13.306 0 0 1 .957.034c.073.005.152.009.226.015l.044.005c.14.012.275.026.41.043.017 0 .034.004.051.006.14.017.28.037.417.059l.081.014c.13.021.258.044.386.07l.029.006a10.748 10.748 0 0 1 .859.22c1.116.342 2.16.608 3.143.814 4.27.893 7.45.674 10.822.821.086.004.172.01.26.017l.101.007c.06.005.118.012.177.018.078.008.157.015.235.025l.077.01c1.617.215 3.403.808 4.971 1.447a36.402 36.402 0 0 1 1.494.648c.86.394 1.535.739 2.023.996l.348.187.007.001.113.061c.17.093.26.145.26.145-.005 0-14.051-.47-22.903.857a816.906 816.906 0 0 1-6.213-6.457l.191-.017a22.521 22.521 0 0 1 1.19-.053zm-5.082.707c.493.523.976 1.034 1.462 1.546l1.03 1.088 1.036 1.086c.484.509.967 1.015 1.446 1.513l.724.755c.176.185.356.37.53.553a158.836 158.836 0 0 1-2.606.552c-.268.054-.538.11-.808.162-.373.073-.746.143-1.116.211l-.324.06c-1.936.35-3.799.622-5.419.746l-.007.007c-3.099.237-5.315-.071-5.504-1.422v-.001a1.476 1.476 0 0 1-.012-.147v-.001c-.002-.05 0-.102.005-.155v-.002c.002-.053.01-.107.017-.162.027-.169.079-.349.157-.543a4.198 4.198 0 0 1 .356-.68 3.466 3.466 0 0 1 .223-.322c.042-.059.088-.117.135-.176.025-.031.052-.062.076-.094.064-.076.13-.151.201-.227l.091-.097c.071-.077.148-.153.226-.228l.074-.071a7.18 7.18 0 0 1 .218-.199l.071-.064c.025-.021.052-.042.076-.064.106-.089.214-.178.324-.265l.12-.092c.099-.074.2-.15.302-.223l.148-.106c.1-.07.206-.14.311-.209l.148-.098c.13-.083.262-.164.397-.245l.081-.05c.164-.097.334-.193.506-.288.049-.026.103-.053.152-.08.12-.063.24-.127.363-.19.074-.038.15-.074.226-.111a22.974 22.974 0 0 1 1.129-.516c.127-.054.257-.106.387-.158.06-.024.12-.05.184-.074.192-.075.386-.148.582-.219.061-.023.128-.044.189-.066.14-.05.277-.098.42-.144l.242-.079.361-.113.29-.085c.113-.033.226-.064.338-.095l.278-.077.164-.041zM228.28 310.41s-9.74 3.534-10.72 15.927c-.095 1.215-.22 2.455-.364 3.703l-.011.048c-.636 5.465-1.672 11.024-2.592 15.41l-.003.027a203.958 203.958 0 0 1-1.841 8.027 344.897 344.897 0 0 1-13.223 11.378 42.098 42.098 0 0 0 4.098-5.322l.202-.315a34.308 34.308 0 0 0 .6-.976c.068-.114.135-.23.202-.345.093-.159.184-.32.275-.481.259-.461.513-.933.758-1.419l.007-.013c.298-.592.586-1.2.86-1.827.009-.022.018-.045.028-.066.078-.18.155-.362.23-.545l.042-.1c.17-.416.335-.84.491-1.27l.03-.08.194-.556.05-.15a36.192 36.192 0 0 0 .414-1.317c3.457-11.954-.51-21.798 2.29-30.03a31.6 31.6 0 0 1 .233-.648l.067-.178c.062-.165.127-.324.191-.482.228-.558.467-1.078.712-1.56 2.837-5.55 6.65-6.137 6.65-6.137s-17.363.728-18.391 18.434c-.32 5.498-.472 10.918-.664 15.93l-.01.242c-.037.94-.074 1.867-.114 2.776l-.006.118a213.483 213.483 0 0 1-.09 1.848c-.007.163-.017.327-.025.49-.026.467-.05.93-.08 1.385v.02c-.215 3.54-.513 6.735-.988 9.427v.003c-.435 2.467-1.018 4.52-1.827 6.027l-.83.66-.845.665c-.491.386-.987.773-1.486 1.16-.438.34-.877.681-1.32 1.022-.254.196-.511.391-.767.586 1.989-2.723 3.683-6.316 3.748-10.693l.001-.087v-.329l-.002-.173-.007-.3c-.005-.15-.012-.3-.022-.452l-.015-.214-.025-.314a14.465 14.465 0 0 0-.023-.236 9.869 9.869 0 0 0-.038-.336c-.008-.064-.014-.128-.023-.192a16.623 16.623 0 0 0-.105-.692 20.654 20.654 0 0 0-.072-.4l-.032-.17a19.155 19.155 0 0 0-.121-.563 53.91 53.91 0 0 0-.282-1.166v-.002c-.075-.299-.154-.59-.232-.88l-.071-.264c-3.266-11.911-8.848-17.414-6.155-24.465 2.862-7.493 9.698-11.349 9.698-11.349s-1.463-.787-3.547-.806c-3.474-.031-8.681 2.072-11.744 13.51-4.902 18.301.736 30.294.927 38.515.11 4.701-.113 7.102-.323 8.3l-1.109.786-.258.18a262.7 262.7 0 0 1-7.089 4.803l-.343.223a213.469 213.469 0 0 1-3.793 2.415c1.875-1.966 3.57-4.454 4.5-7.519l.033-.107.073-.254.053-.195c.02-.071.038-.142.057-.215.033-.133.066-.268.097-.404l.031-.14c.025-.116.05-.232.072-.349l.022-.11a21.966 21.966 0 0 0 .167-1.03l.031-.237c.013-.11.028-.219.04-.328a31.256 31.256 0 0 0 .06-.575l.024-.256.026-.32.02-.277.017-.294.015-.282.012-.321.01-.263.007-.315.005-.287.001-.156a38.818 38.818 0 0 0-.018-1.538v-.007a49.532 49.532 0 0 0-.022-.558v-.002c-.198-4.539-1.086-9.342-1.917-14.104l-.007-.02c-.968-5.546-1.856-11.032-1.477-15.969.867-11.303 4.201-12.658 4.201-12.658s-9.212.197-11.508 19.008l-.03.244-.041.363c-.02.172-.038.346-.057.521l-.032.314c-.026.277-.053.558-.078.843-.054.634-.103 1.261-.147 1.883l-.002.03c-.02.281-.035.557-.053.835-.023.356-.048.714-.067 1.065-.018.332-.033.657-.05.984-.013.28-.029.565-.04.842-.014.334-.025.66-.037.99-.009.275-.02.553-.028.825-.01.308-.015.61-.021.914-.007.279-.014.56-.019.836-.005.332-.008.657-.01.985-.003.235-.007.473-.008.707l.001 1.069.002.578c.003.388.01.768.015 1.149l.007.44c.008.453.02.898.032 1.34l.004.173a152.457 152.457 0 0 0 .05 1.487 176.7 176.7 0 0 0 .438 7.214c.575 7.276 1.278 12.09.376 13.945a27.345 27.345 0 0 1-2.37 3.983l-.178.1a182.461 182.461 0 0 1-3.322 1.82c-.833.444-1.667.88-2.5 1.306l-.025.012c-1.059.54-2.117 1.062-3.174 1.57.383-.417 1.544-1.762 2.826-3.985l.111-.193a29.585 29.585 0 0 0 1.219-2.386c.042-.09.082-.182.123-.273a36.843 36.843 0 0 0 .488-1.157c.056-.138.11-.278.163-.42a30.494 30.494 0 0 0 .365-1.003c.02-.051.037-.104.056-.157.057-.168.114-.338.169-.51l.014-.044c.107-.335.211-.679.312-1.03l.035-.124c.935-3.321 1.514-7.338 1.234-12.026v-.01c-.05-.81-.124-1.64-.226-2.49l-.017-.133a45.88 45.88 0 0 0-.242-1.693l-.001-.005a46.263 46.263 0 0 0-.148-.85l-.037-.194a44.121 44.121 0 0 0-.375-1.8c-.065-.285-.132-.57-.203-.857a76.448 76.448 0 0 1-.21-.863c-1.007-4.27-1.467-7.829-1.574-10.793l-.156-.501c-.568-10.729 2.971-14.273 2.971-14.273s-7.005 5.605-7.92 8.634c-1.981 6.561-2.086 16.636-1.16 27.965l-.04.265c.193 1.867.397 3.751.6 5.636.152 1.416.279 2.628.402 3.798.298 2.862.502 4.921.659 6.573a.181.181 0 0 1 .006.014c.38 3.98.414 4.857.417 4.952l-.56.268-.005.002a125.551 125.551 0 0 1-3.877 1.755l-.009.004a108.25 108.25 0 0 1-5.126 2.066h5.036a144.757 144.757 0 0 0 4.372-1.983c1.07.51 2.156 1.179 3.256 1.983h9.252c-5.282-2.014-9.427-2.351-11.571-2.356l-.156.002a163.674 163.674 0 0 0 9.179-4.783c.919.2 3.245 1.062 8.578 4.593.947.626 2.118 1.496 3.466 2.544h17.757c-1.45-.947-2.97-1.905-4.579-2.878-8.54-5.166-15.379-6.172-19.526-6.136-1.132.01-2.053.096-2.764.198a210.623 210.623 0 0 0 7.337-4.498 12.11 12.11 0 0 1 1.928.004c0 .002 0 .003-.002.004.91.072 1.98.248 3.177.612l.014.005c.137.042.277.086.418.134l.065.022c.125.042.251.086.378.133.05.017.1.037.15.056.108.04.217.082.327.126l.17.07c.108.044.216.089.326.136l.196.087.298.135.27.13.248.122.294.153c.078.042.157.081.236.124.177.096.355.196.535.301 4.5 2.618 5.947 3.467 18.112 8.52 1.738.722 3.695 1.53 5.91 2.44h21.017c-6.268-3.037-13.404-7.246-20.494-10.875l-.42-.215a147.538 147.538 0 0 0-3.922-1.928l-.142-.067c-.216-.102-.434-.202-.65-.303l-.263-.121c-.201-.092-.402-.185-.603-.275l-.3-.134-.422-.19-.091-.04-.507-.22c-.106-.046-.211-.093-.317-.138l-.057-.025c-.286-.122-.57-.241-.854-.36a38.585 38.585 0 0 0-.844-.339 36.246 36.246 0 0 0-1.412-.51c-.082-.027-.164-.057-.245-.083-.21-.07-.419-.134-.626-.2-.059-.017-.119-.037-.177-.055-.181-.055-.361-.106-.54-.157-.09-.025-.182-.053-.271-.077-.187-.052-.37-.1-.555-.146l-.224-.059a24.4 24.4 0 0 0-.562-.133c-.072-.017-.145-.035-.218-.051-.164-.037-.326-.07-.488-.104l-.286-.06-.441-.081-.313-.057a24.457 24.457 0 0 0-.439-.07l-.297-.047a35.718 35.718 0 0 0-.46-.063c-.087-.01-.174-.024-.26-.034a46.424 46.424 0 0 0-.432-.048c-.097-.01-.194-.022-.29-.03a19.65 19.65 0 0 0-.405-.037l-.293-.023c-.13-.01-.26-.018-.39-.025l-.3-.018c-.118-.006-.235-.01-.353-.014a18.18 18.18 0 0 0-.33-.011l-.315-.006c-.08 0-.16-.004-.24-.004h-.195c-.112 0-.222.002-.334.003l-.25.003c-.154.004-.306.01-.458.015l-.218.007c-.443.02-.875.05-1.294.09-.061.005-.12.012-.181.019-.15.015-.299.03-.445.047l-.21.026c-.127.016-.255.032-.38.05-.088.011-.173.025-.258.038a14.37 14.37 0 0 0-.32.049l-.262.044-.302.053-.24.046-.301.06-.241.05-.27.06-.244.056-.266.066-.207.051a18.2 18.2 0 0 0-.468.126l-.28.08-.17.05a27.497 27.497 0 0 0-1.193.392 284.243 284.243 0 0 0 9.022-6.298c1.431.531 4.474 1.682 8.395 3.287l.009.006c4.94 2.022 11.16 4.72 16.996 7.698.388.198.776.397 1.16.598.662.346 1.287.667 1.895.977 7.231 3.7 11.061 5.159 15.638 5.833-1.044 1.029-2.42 1.816-2.234 3.67.006.058.015.12.024.18h111.49a23.62 23.62 0 0 0 1.382-2.586c1.99-4.29.733-8.056-.943-11.405-1.67-3.348-3.973-2.72-3.973-2.72s-.007-.204-.54-1.644l-.085-.24c-.631-1.674-1.676-1.046-4.604-3.138-2.93-2.093-2.618-2.825-5.546-5.547a13.669 13.669 0 0 0-.27-.243c-.071-.063-.142-.122-.211-.18v-.002c-2.542-2.154-3.288-1.039-3.288-1.039s.525-3.871-4.395-4.604c-4.916-.732-5.964-2.197-14.44-2.72a6.617 6.617 0 0 0-.4-.012c-7.254.01-15.126 12.35-15.823 20v.004a10.447 10.447 0 0 0-.015 1.875l.007.049c.01.123.027.243.042.362.005.023.007.047.012.07.017.12.04.237.064.353l.007.04c.03.13.061.258.098.382.32 1.098.555 2.154.727 3.155-1.257-3.554-2.675-6.042-3.865-6.92-2.408-1.78-3.14-.21-3.976-3.14-.837-2.93 1.568-3.034-1.362-3.453-2.93-.418-2.613-1.57-6.172-1.57-1.558 0-2.61-.14-3.42-.148-1.041-.012-1.674.194-2.44 1.195-.702.92-1.426 1.91-1.968 2.665a22.06 22.06 0 0 1-3.016-.01l-.032-.014c-1.251-.593-2.702-1.067-3.389-.505-4.981-1.161-13.797-4.661-30.596-12.754-5.05-2.432-9.58-3.344-13.513-3.373a25.182 25.182 0 0 0-10.257 2.077c3-2.68 5.867-5.347 8.64-7.886 2.524 1.124 26.254 11.54 39.012 11.484 13.475-.057 25.289-6.216 25.289-6.216s-14.55 1.186-28.16-2.22a55.364 55.364 0 0 1-5.343-1.618l-.102-.036a34.175 34.175 0 0 1-.665-.248 46.063 46.063 0 0 1-1.034-.408c-.098-.04-.194-.082-.292-.123a51.783 51.783 0 0 1-.685-.294l-.362-.16c-.091-.043-.184-.084-.275-.126a34.32 34.32 0 0 1-.63-.297c-4.99-2.413-9.639-3.237-13.631-3.256-5.527-.025-9.791 1.49-11.981 2.476a232.06 232.06 0 0 1 4.484-3.99c4.616-.32 14.537-.964 21.925-1.125 9.938-.216 37.975 3.426 37.975 3.426s-17.755-6.895-32.188-9.195a30.299 30.299 0 0 0-4.764-.364c-7.526 0-14.918 2.513-19.795 4.618a75.572 75.572 0 0 1 4.274-3.225c.487-.34.97-.67 1.45-.996 2.413-.193 13.67-1.095 21.924-1.85 9.237-.846 34.937-.396 34.937-.396s-16.015-4.757-29.256-5.78a27.644 27.644 0 0 0-1.875-.079c-8.522-.072-17.553 3.593-22.624 6.041a157.497 157.497 0 0 1 9.126-5.494c4.506-.394 13.35-1.774 19.61-6.602 8.732-6.733 25.709-16.565 25.709-16.565-.074-.203-.366-.29-.842-.275-4.596.133-26.366 9.625-32.123 14.125-2.976 2.325-6.693 4.645-9.713 6.41a94.791 94.791 0 0 0-12.842 6.98c2.025-1.597 5.432-4.735 10.208-10.671 8.215-10.211 19.85-19.455 20.205-19.674.022-.014.005-.023-.052-.026-.856-.041-10.382 1.36-20.576 10.624-10.714 9.735-11.95 20.894-11.985 21.222a86.747 86.747 0 0 0-9.163 7.287l.019-.022a29.231 29.231 0 0 0 .771-.92l.113-.14a30.643 30.643 0 0 0 .72-.93 24.424 24.424 0 0 0 .442-.606l.073-.102c.126-.178.25-.359.377-.544l.042-.061a30.46 30.46 0 0 0 1.216-1.96c.037-.063.072-.129.109-.193.09-.163.18-.326.269-.493l.12-.228c.083-.16.165-.321.246-.484l.159-.324.062-.129c.087-.184.171-.37.254-.558l.067-.15a24.81 24.81 0 0 0 .501-1.247l.038-.102c.076-.208.149-.419.22-.63l.038-.12a20.182 20.182 0 0 0 .26-.855l.044-.159.066-.255.044-.168c.031-.127.063-.255.092-.385l.04-.18.051-.242.035-.177.048-.249.03-.175a21.624 21.624 0 0 0 .105-.681l.024-.178c.012-.093.022-.187.033-.28l.018-.16c.014-.142.027-.286.038-.43a115.83 115.83 0 0 0 .205-3.238c.004-.087.01-.176.013-.261.047-.995.076-1.904.094-2.745v-.07c.008-.32.011-.615.015-.915.003-.262.006-.514.007-.762.017-2.436-.029-4.273.092-5.989a19.75 19.75 0 0 1 .566-3.58c1.187-4.662 3.634-7.273 3.634-7.273zM400 338.25a33.561 33.561 0 0 1-3.274 4.11c-3.126 3.346-5.867 4.907-5.867 4.907l9.141-3.695zm-262.884 17.399s-1.56 2.53-2.344 7.22c-.032.19-.063.385-.092.583l-.028.198a25.61 25.61 0 0 0-.09.696c-.055.465-.102.947-.138 1.446l-.013.191c-.013.198-.025.399-.035.602l-.009.18c-.023.53-.035 1.078-.033 1.643l.001.179a40.95 40.95 0 0 0 .019.903c.018.574.051 1.164.1 1.77l.021.25a38.965 38.965 0 0 0 .21 1.916c.042.303.086.602.132.898l.037.23c.038.233.077.462.117.69l.037.212c.052.287.106.573.162.855l.026.126c.048.24.098.478.15.715l.055.25c.05.226.102.452.154.677l.034.144a55.234 55.234 0 0 0 .485 1.901c.032.117.063.232.096.346.081.298.164.593.248.885l.069.24c.101.349.204.693.307 1.035.158.523.317 1.036.476 1.546.174.559.348 1.11.52 1.657l.021.068a237.629 237.629 0 0 1 .8 2.608l.07.242c.102.347.201.694.296 1.04l.007.025c.09.326.175.65.257.975l.098.396.053.217a39.91 39.91 0 0 1 .177.78c.044.202.086.405.126.607l.036.181c.441 2.292.632 4.598.372 7.029h1.104c.97-1.593 2.198-4.458 2.77-9.218l.06-.513a47.794 47.794 0 0 0 .106-1.15c.005-.05.01-.097.013-.148l.008-.13c.016-.213.029-.424.04-.635l.012-.245c.01-.233.017-.462.023-.69l.004-.235c.003-.227.005-.452.002-.675l-.003-.224a31.75 31.75 0 0 0-.018-.69c-.001-.046-.004-.091-.006-.137-.01-.209-.02-.416-.033-.621l-.011-.169a30.766 30.766 0 0 0-.052-.634l-.021-.22a29.028 29.028 0 0 0-.159-1.288c-.006-.042-.01-.085-.017-.126a29.628 29.628 0 0 0-.295-1.649l-.026-.12a36 36 0 0 0-.144-.643l-.059-.239a30.739 30.739 0 0 0-.129-.514l-.071-.265a30.778 30.778 0 0 0-.135-.481l-.07-.241a27.24 27.24 0 0 0-.15-.49l-.073-.232a47.249 47.249 0 0 0-.159-.48l-.07-.21-.18-.509c-.02-.056-.04-.114-.062-.172a44.742 44.742 0 0 0-.637-1.64l-.176-.422c-.11-.257-.216-.51-.325-.76l-.11-.254c-.38-.864-.753-1.681-1.102-2.46l-.065-.144-.248-.564-.162-.378c-.065-.152-.131-.305-.193-.456l-.002-.004a25.765 25.765 0 0 1-.33-.834c-1.79-4.782-1.837-12.443-1.837-12.443zm-7.353 7.03s-3.566 3.19-5.19 12.658c-.276 1.612-.241 3.293-.006 5.01l.035.254c.021.144.045.288.069.433a27.023 27.023 0 0 0 .195 1.042c.028.141.058.284.09.427l.075.33c.032.132.061.265.094.398a49.314 49.314 0 0 0 .261 1c.041.149.081.297.124.445.035.125.073.25.11.374a41.751 41.751 0 0 0 .356 1.162 56.427 56.427 0 0 0 .43 1.301c.092.27.187.54.281.81.124.352.249.703.375 1.053l.158.439c.467 1.286.938 2.552 1.375 3.79l.17.475a70.11 70.11 0 0 1 .618 1.86l.026.086c.174.558.333 1.107.474 1.645.209.802.38 1.58.49 2.33h2.155a21.857 21.857 0 0 0 1.804-7.523c.037-.63.052-1.28.033-1.952v-.004c-.004-.154-.01-.31-.018-.465l-.007-.15-.021-.345-.012-.165a31.054 31.054 0 0 0-.133-1.311c-.011-.096-.025-.19-.036-.286l-.069-.51-.047-.317c-.026-.162-.05-.324-.077-.486l-.022-.133a23.306 23.306 0 0 0-.04-.222c-.019-.115-.04-.228-.06-.342l-.035-.192c-.014-.077-.03-.154-.045-.23a33.43 33.43 0 0 0-.056-.285l-.052-.252c-.014-.072-.03-.143-.045-.215l-.054-.249a23.758 23.758 0 0 0-.115-.509l-.04-.167-.086-.357-.051-.212-.03-.12-.099-.379a40.151 40.151 0 0 0-.202-.753c-.026-.091-.05-.184-.077-.276l-.115-.397-.045-.153-.038-.13v-.002a90.096 90.096 0 0 0-.098-.32l-.053-.175c-1.577-5.126-3.566-9.14-3.725-11.475-.24-3.507 1-6.262 1-6.262zm67.594 6.373c2.209.53 7.213 1.915 12.786 4.682 7.5 3.724 22.837 4.369 39.045 8.126 2.051.475 3.87.774 5.48.933a67.337 67.337 0 0 0-1.973 4.106c-.035.077-.062.147-.094.219-.054.128-.103.247-.147.36a8.22 8.22 0 0 0-.228.625c-.349 1.224-.552 3.614-1.279 4.185-.599-.141-1.202-.283-1.813-.422-2.013-.878-5.54-2.483-7.892-2.402-.881.03-1.77.178-2.586.386l-.397-.054c-8.868-1.147-17.806-6.074-30.493-12.864-3.964-2.122-7.678-2.87-10.912-2.898a22.306 22.306 0 0 0-7.707 1.318 374.066 374.066 0 0 0 8.21-6.3zm-74.969 2.77s-4.627 2.594-5.448 4.29c-1.778 3.672-2.79 9.612-3.317 16.396a15.74 15.74 0 0 0-.051.161c-.064 1.124-.122 2.258-.182 3.392a659.409 659.409 0 0 1-.218 3.94h3.836c1.319-2.548 2.426-6.061 2.376-10.64a27.512 27.512 0 0 0-.01-.493v-.002a27.914 27.914 0 0 0-.02-.502 20.9 20.9 0 0 0-.028-.51v-.002a36.193 36.193 0 0 0-.038-.518c-.03-.359-.054-.708-.074-1.05-.143-2.393-.07-4.375.132-6.02l-.043-.305c.68-6.4 3.085-8.137 3.085-8.137zm-44.224 4.497c.29.002.576.006.859.015l.027-.007c.108.004.217.006.323.011l.298.011c.245.012.488.026.73.043l.131.008c.276.02.548.043.82.07.098.008.194.02.292.03.18.02.361.038.54.06l.32.041c.16.02.317.043.474.065a31.149 31.149 0 0 1 .815.129l.294.05c.192.035.38.07.568.108l.18.035.068.014c-.258.383-.517.766-.782 1.15v.001c-.575.843-1.167 1.691-1.77 2.546a246.71 246.71 0 0 1-3.872 5.32c-2.63-.137-5.335-.178-8.053-.136l-.152.002c-.332.005-.664.012-.996.02l-.434.01-.915.027-.499.018a140.91 140.91 0 0 0-2.137.092c-.212.01-.423.023-.634.035a103.762 103.762 0 0 0-1.41.083 113.67 113.67 0 0 0-1.407.096c-.471.034-.942.07-1.409.109a33.669 33.669 0 0 0-3.675.504c-13.489 2.625-18.829 12.482-22.4 9.166l-.092-.093c-.03-.03-.06-.058-.09-.09l-.001-.001a3.688 3.688 0 0 1-.17-.195v-.001a2.848 2.848 0 0 1-.275-.39c-.272-.458-.365-.919-.288-1.387a2.25 2.25 0 0 1 .044-.202c.073-.268.2-.54.384-.816a3.964 3.964 0 0 1 .316-.416 5.795 5.795 0 0 1 .397-.424 10.03 10.03 0 0 1 1.087-.907l.023-.012c3.666-2.686 11.791-5.905 23.38-10.318l.01-.008.324-.123c1.287-.49 2.619-.996 3.991-1.516.34-.13.678-.253 1.014-.372l.076-.026.256-.088c.26-.09.519-.18.776-.264l.265-.084c.264-.084.528-.167.789-.246.078-.024.155-.045.233-.068a47.409 47.409 0 0 1 1.85-.503 56.259 56.259 0 0 1 1.086-.255 38.228 38.228 0 0 1 8.421-.921z" fill="#eafaec"/></svg>