<?xml version="1.0" encoding="UTF-8" standalone="no"?>
<!-- Created with Inkscape (http://www.inkscape.org/) -->

<svg
   xmlns:dc="http://purl.org/dc/elements/1.1/"
   xmlns:cc="http://creativecommons.org/ns#"
   xmlns:rdf="http://www.w3.org/1999/02/22-rdf-syntax-ns#"
   xmlns:svg="http://www.w3.org/2000/svg"
   xmlns="http://www.w3.org/2000/svg"
   xmlns:sodipodi="http://sodipodi.sourceforge.net/DTD/sodipodi-0.dtd"
   xmlns:inkscape="http://www.inkscape.org/namespaces/inkscape"
   width="1244.4448"
   height="700"
   viewBox="0 0 329.25939 185.20834"
   version="1.1"
   id="svg8"
   inkscape:version="0.92.4 5da689c313, 2019-01-14"
   sodipodi:docname="cover.svg"
   style="enable-background:new"
   inkscape:export-filename="/home/hervyqa/hervyqa-gl/hervyqa/hervyqa-blog/static/post/tips-ilustrasi-dengan-inkscape/cover.png"
   inkscape:export-xdpi="96"
   inkscape:export-ydpi="96">
  <defs
     id="defs2" />
  <sodipodi:namedview
     id="base"
     pagecolor="#ffffff"
     bordercolor="#666666"
     borderopacity="1.0"
     inkscape:pageopacity="0.0"
     inkscape:pageshadow="2"
     inkscape:zoom="0.33669633"
     inkscape:cx="687.78167"
     inkscape:cy="599.54246"
     inkscape:document-units="px"
     inkscape:current-layer="layer2"
     showgrid="false"
     units="px"
     borderlayer="true"
     inkscape:pagecheckerboard="true"
     inkscape:window-width="612"
     inkscape:window-height="724"
     inkscape:window-x="740"
     inkscape:window-y="30"
     inkscape:window-maximized="1"
     inkscape:snap-global="false"
     showguides="true"
     inkscape:guide-bbox="true">
    <inkscape:grid
       type="xygrid"
       id="grid815"
       dotted="false"
       originx="43.500009"
       originy="-43.499907" />
    <sodipodi:guide
       position="72.02551,185.20835"
       orientation="1,0"
       id="guide851"
       inkscape:locked="false" />
    <sodipodi:guide
       position="257.23387,185.20835"
       orientation="1,0"
       id="guide853"
       inkscape:locked="false" />
  </sodipodi:namedview>
  <metadata
     id="metadata5">
    <rdf:RDF>
      <cc:Work
         rdf:about="">
        <dc:format>image/svg+xml</dc:format>
        <dc:type
           rdf:resource="http://purl.org/dc/dcmitype/StillImage" />
        <dc:title />
        <dc:date />
        <dc:creator>
          <cc:Agent>
            <dc:title />
          </cc:Agent>
        </dc:creator>
        <dc:subject>
          <rdf:Bag />
        </dc:subject>
        <dc:description />
        <cc:license
           rdf:resource="" />
      </cc:Work>
    </rdf:RDF>
  </metadata>
  <g
     inkscape:label="background"
     inkscape:groupmode="layer"
     id="layer1"
     transform="translate(43.500005,-68.291685)">
    <path
       style="opacity:1;vector-effect:none;fill:#a47994;fill-opacity:1;fill-rule:nonzero;stroke:none;stroke-width:0.46654263;stroke-linecap:butt;stroke-linejoin:miter;stroke-miterlimit:4;stroke-dasharray:none;stroke-dashoffset:0;stroke-opacity:1;paint-order:stroke fill markers"
       d="M 285.75935,68.291683 V 253.50003 H -43.500004 V 68.291683 Z"
       id="rect818"
       inkscape:connector-curvature="0" />
  </g>
  <g
     inkscape:groupmode="layer"
     id="layer2"
     inkscape:label="artwork"
     transform="translate(43.500005,-512.12502)">
    <path
       style="color:#000000;font-style:normal;font-variant:normal;font-weight:normal;font-stretch:normal;font-size:medium;line-height:normal;font-family:sans-serif;font-variant-ligatures:normal;font-variant-position:normal;font-variant-caps:normal;font-variant-numeric:normal;font-variant-alternates:normal;font-feature-settings:normal;text-indent:0;text-align:start;text-decoration:none;text-decoration-line:none;text-decoration-style:solid;text-decoration-color:#000000;letter-spacing:normal;word-spacing:normal;text-transform:none;writing-mode:lr-tb;direction:ltr;text-orientation:mixed;dominant-baseline:auto;baseline-shift:baseline;text-anchor:start;white-space:normal;shape-padding:0;clip-rule:nonzero;display:inline;overflow:visible;visibility:visible;opacity:1;isolation:auto;mix-blend-mode:normal;color-interpolation:sRGB;color-interpolation-filters:linearRGB;solid-color:#000000;solid-opacity:1;vector-effect:none;fill:none;fill-opacity:1;fill-rule:nonzero;stroke:#ffffff;stroke-width:0.87312514;stroke-linecap:round;stroke-linejoin:bevel;stroke-miterlimit:4;stroke-dasharray:0.87312512, 2.61937533;stroke-dashoffset:0;stroke-opacity:1;color-rendering:auto;image-rendering:auto;shape-rendering:auto;text-rendering:auto;enable-background:accumulate"
       d="m 120.44645,526.46351 c -3.38922,-0.006 -6.84047,1.23233 -9.38583,3.83758 l -30.10936,30.81046 -0.107059,0.13299 c -2.821621,3.49427 -4.400058,6.59799 -3.832031,9.94825 0.568028,3.35025 3.347405,5.29754 5.788882,6.33304 2.396917,1.01661 5.077524,1.67825 7.484158,2.23776 -0.543904,0.29719 -1.091311,0.60189 -1.647817,1.03418 -0.687504,0.53404 -1.560352,1.23669 -2.00155,2.77857 -0.441199,1.54189 0.301327,3.55117 1.212961,4.4838 l 5.51e-4,5.6e-4 5.51e-4,5.4e-4 c 1.519417,1.55311 3.063,2.09425 4.871712,2.80838 1.373898,0.54245 2.907835,1.03445 4.416989,1.53028 -0.740926,0.36621 -1.460019,0.79849 -2.125716,1.38792 -1.033857,0.9154 -2.068566,2.37008 -2.115783,4.26691 -0.04722,1.89684 1.013476,3.6206 2.296789,4.73213 l 0.0011,10e-4 0.0011,10e-4 c 2.393076,2.06932 5.689723,1.89088 8.038213,0.83274 0.11742,0.14776 0.206,0.33731 0.33167,0.46577 2.67783,2.73721 5.75462,2.48663 7.2005,2.83154 0.72294,0.17246 1.03983,0.35027 1.16661,0.46136 0.12678,0.11108 0.30062,0.21647 0.47348,1.15833 v -0.002 c 0.45231,2.47147 2.69821,4.34748 4.66864,4.91589 1.97043,0.56841 3.88321,0.46171 5.83303,0.14348 3.89963,-0.63643 7.93189,-2.25573 11.0259,-4.51967 l 0.24061,-0.17603 0.20805,-0.21302 c 0.62303,-0.63738 1.2724,-1.46685 1.5082,-2.74104 0.23579,-1.27421 -0.26531,-2.74961 -0.87358,-3.53462 -0.22796,-0.2942 -0.43985,-0.49744 -0.65118,-0.70306 1.56268,-0.93601 3.04393,-1.24976 4.87392,-1.67542 0.84747,-0.19713 1.79996,-0.43078 2.79235,-0.82447 0.30153,0.9611 0.80862,1.83803 1.47178,2.47947 2.31699,2.24115 5.85187,2.43117 8.76002,0.72127 l 0.40782,-0.2395 0.33222,-0.33719 c 1.14289,-1.15987 1.35873,-2.54001 1.28415,-3.64333 -0.0275,-0.4066 -0.13664,-0.7795 -0.24172,-1.15391 1.48526,0.0206 2.9682,-0.0555 4.45397,-0.4619 0.81873,-0.22393 1.67019,-0.52208 2.57051,-1.24222 0.9003,-0.72014 1.83433,-2.18848 1.83433,-3.71783 v -0.60483 l -0.19756,-0.57172 c -1.34581,-3.89461 -5.20464,-5.64877 -8.56744,-5.73374 -2.73028,-0.069 -5.76408,0.9117 -7.74297,3.10693 -0.28391,-0.31354 -0.57661,-0.5913 -0.86254,-0.82999 -0.70911,-0.59195 -1.41482,-1.03896 -2.09867,-1.4326 1.01534,-0.35944 2.01634,-0.71759 3.16981,-1.09433 3.30091,-1.07813 6.9869,-2.25343 10.26657,-3.81385 3.27967,-1.56041 6.46979,-3.42598 7.90909,-7.0615 0.71965,-1.81775 0.73549,-4.02387 0.0287,-5.99256 -0.70679,-1.9687 -1.99504,-3.74774 -3.78788,-5.54059 l -31.09827,-31.78613 -0.0408,-0.0392 c -2.61827,-2.51374 -6.04793,-3.74968 -9.43715,-3.75646 z m -0.0143,7.20499 c 1.63086,0.003 3.26942,0.61063 4.4523,1.74165 l 31.02984,31.71603 0.0138,0.0138 c 1.29626,1.29626 1.89671,2.30985 2.10144,2.88011 0.20474,0.57026 0.15535,0.64898 0.0535,0.90615 -0.20363,0.51434 -1.67822,1.95707 -4.30607,3.20736 -2.62785,1.25029 -6.09265,2.38851 -9.40735,3.47115 -3.31469,1.08263 -6.41301,2.02826 -8.93,3.49819 l -0.41775,0.24392 -0.33828,0.34545 c -0.82588,0.84277 -1.60064,2.41825 -1.41051,3.93582 0.19012,1.51757 0.98615,2.44518 1.61524,3.0534 1.25821,1.21642 2.45194,1.74647 3.5644,2.34813 0.76406,0.41323 1.20876,0.7093 1.69306,1.01816 -0.0776,0.0676 -0.15033,0.15399 -0.2395,0.21246 -0.32137,0.21076 -1.04797,0.46462 -2.29844,0.75549 -2.50095,0.58172 -6.85377,1.52929 -10.76766,5.53177 -0.623,0.6369 -1.27218,1.46607 -1.50819,2.74049 -0.23609,1.27476 0.26563,2.75098 0.87412,3.53572 0.0679,0.0876 0.12724,0.13009 0.19369,0.20915 -1.54724,0.66663 -3.22652,1.22037 -4.65207,1.45302 -1.13323,0.18495 -2.00503,0.13809 -2.43365,0.0667 -0.46882,-1.85728 -1.37847,-3.49232 -2.63286,-4.5914 -1.40959,-1.23507 -2.98291,-1.75006 -4.24316,-2.05068 -1.26003,-0.30058 -1.23797,-0.28259 -1.86083,-0.43045 0.59179,-0.59374 1.25157,-1.28162 1.84152,-2.4734 0.37485,-0.75726 0.70405,-1.81274 0.5706,-3.01698 -0.13343,-1.20423 -0.77408,-2.35821 -1.53247,-3.13341 l -10e-4,-10e-4 -0.001,-0.001 c -1.51951,-1.55057 -3.0632,-2.09214 -4.87226,-2.80617 -1.80906,-0.71403 -3.83588,-1.37022 -5.81537,-2.01482 -1.480799,-0.4822 -2.777337,-0.94056 -4.038973,-1.39562 0.941246,-0.43543 1.908032,-0.91171 2.901618,-1.68316 0.687425,-0.53374 1.560505,-1.23632 2.002105,-2.77858 0.44159,-1.54224 -0.30211,-3.55216 -1.21407,-4.48434 l -0.427686,-0.43762 -0.549088,-0.27151 c -4.821,-2.38693 -10.903397,-2.84943 -13.826541,-4.08923 -1.461571,-0.61989 -1.495725,-0.88624 -1.498816,-0.90448 -0.0031,-0.018 0.104504,-1.41538 2.271404,-4.12951 l 29.826817,-30.52294 c 1.05999,-1.08493 2.58351,-1.67096 4.21833,-1.66769 z m 27.92625,62.72901 c 0.0458,0.0245 0.0396,3.4e-4 0.15507,0.11204 0.21256,0.2056 0.45993,0.78223 0.41719,1.19475 -0.009,0.0824 -0.0188,0.0784 -0.0331,0.12914 l -1.75652,0.4768 c 0.0284,-0.40434 0.14108,-0.93528 0.7312,-1.53414 z"
       id="path831"
       inkscape:connector-curvature="0" />
    <g
       style="stroke-width:1.18518841;enable-background:new"
       id="inkscape-logo"
       transform="matrix(0.2232407,0,0,0.22324247,77.215477,526.60595)">
      <path
         id="path152"
         d="M 163.15,27.83 28.81,165.3 C -16.58,221.51 59.7,214.97 92.4,231.16 104.13,243.15 47.44,252 59.17,264 c 11.73,11.99 70.93,23.1 82.68,35.09 11.73,11.99 -24.01,24.71 -12.28,36.7 11.73,11.99 38.86,0.63 43.94,28.31 3.62,19.78 48.89,8.5 71.03,-7.7 11.73,-12 -22.44,-10.87 -10.71,-22.86 29.17,-29.83 56.33,-10.84 66.31,-40.73 4.93,-14.77 -42.94,-22.77 -31.19,-34.76 33.75,-19.71 150.4,-32.54 95.05,-87.89 L 224.75,27.83 c -17.03,-16.35 -45.45,-16.53 -61.6,0 z m 154.31,264.98 c 0,6.82 50.25,11.29 50.25,-1.61 -7.16,-20.72 -44.31,-19.32 -50.25,1.61 z M 91.1,329.05 c 11.9,10.29 30.28,-2.56 35.79,-16.92 -11.53,-15.32 -54.69,0.55 -35.79,16.92 z m 220.06,-22.23 c -15.34,13.76 1.72,27.72 16.84,18.83 3.37,-3.42 -0.09,-15.41 -16.84,-18.83 z"
         inkscape:connector-curvature="0"
         style="fill:#333333;stroke-width:1.18518841" />
      <path
         id="path154"
         d="m 131,238.6 c 3.59,2.23 57.89,13.26 71.16,15.46 4.6,0.97 1.34,5.71 -5,8.91 -14.3,3.8 -83.66,-24.37 -66.16,-24.37 z"
         inkscape:connector-curvature="0"
         style="fill:#ffffff;stroke-width:1.18518841" />
      <path
         id="path156"
         d="m 216.63,37.47 53.15,53.98 c 5.04,5.15 4.97,15.13 2.15,18 L 245.54,88.34 240.35,119.6 218.3,107.96 182.99,130.27 171.3,83.24 152.33,116.06 h -29 c -11.82,0 -13.21,-15 -2.47,-25.74 18.76,-20.25 40.29,-40.89 51.99,-52.85 11.76,-12.02 32.25,-11.68 43.78,0 z"
         inkscape:connector-curvature="0"
         style="fill:#ffffff;stroke-width:1.18518841" />
    </g>
    <text
       xml:space="preserve"
       style="font-style:normal;font-variant:normal;font-weight:bold;font-stretch:normal;font-size:17.92033768px;line-height:1.25;font-family:Inter;-inkscape-font-specification:'Inter, Bold';font-variant-ligatures:normal;font-variant-position:normal;font-variant-caps:normal;font-variant-numeric:normal;font-variant-alternates:normal;font-feature-settings:normal;text-indent:0;text-align:center;text-decoration:none;text-decoration-line:none;text-decoration-style:solid;text-decoration-color:#000000;letter-spacing:0px;word-spacing:0px;text-transform:none;writing-mode:lr-tb;direction:ltr;text-orientation:mixed;dominant-baseline:auto;baseline-shift:baseline;text-anchor:middle;white-space:normal;shape-padding:0;opacity:1;vector-effect:none;fill:#ffffff;fill-opacity:1;stroke:none;stroke-width:0.26458335;stroke-linecap:butt;stroke-linejoin:miter;stroke-miterlimit:4;stroke-dasharray:none;stroke-dashoffset:0;stroke-opacity:1"
       x="119.39702"
       y="647.90332"
       id="text197"><tspan
         sodipodi:role="line"
         id="tspan195"
         x="119.39702"
         y="647.90332"
         style="font-style:normal;font-variant:normal;font-weight:bold;font-stretch:normal;font-size:17.92033768px;line-height:1.25;font-family:Inter;-inkscape-font-specification:'Inter, Bold';font-variant-ligatures:normal;font-variant-position:normal;font-variant-caps:normal;font-variant-numeric:normal;font-variant-alternates:normal;font-feature-settings:normal;text-indent:0;text-align:center;text-decoration:none;text-decoration-line:none;text-decoration-style:solid;text-decoration-color:#000000;letter-spacing:0px;word-spacing:0px;text-transform:none;writing-mode:lr-tb;direction:ltr;text-orientation:mixed;dominant-baseline:auto;baseline-shift:baseline;text-anchor:middle;white-space:normal;shape-padding:0;vector-effect:none;fill:#ffffff;fill-opacity:1;stroke:none;stroke-width:0.26458335;stroke-linecap:butt;stroke-linejoin:miter;stroke-miterlimit:4;stroke-dasharray:none;stroke-dashoffset:0;stroke-opacity:1">Ilustrasi</tspan><tspan
         sodipodi:role="line"
         x="119.39702"
         y="670.30377"
         style="font-style:normal;font-variant:normal;font-weight:bold;font-stretch:normal;font-size:17.92033768px;line-height:1.25;font-family:Inter;-inkscape-font-specification:'Inter, Bold';font-variant-ligatures:normal;font-variant-position:normal;font-variant-caps:normal;font-variant-numeric:normal;font-variant-alternates:normal;font-feature-settings:normal;text-indent:0;text-align:center;text-decoration:none;text-decoration-line:none;text-decoration-style:solid;text-decoration-color:#000000;letter-spacing:0px;word-spacing:0px;text-transform:none;writing-mode:lr-tb;direction:ltr;text-orientation:mixed;dominant-baseline:auto;baseline-shift:baseline;text-anchor:middle;white-space:normal;shape-padding:0;vector-effect:none;fill:#ffffff;fill-opacity:1;stroke:none;stroke-width:0.26458335;stroke-linecap:butt;stroke-linejoin:miter;stroke-miterlimit:4;stroke-dasharray:none;stroke-dashoffset:0;stroke-opacity:1"
         id="tspan199">dengan Inkscape</tspan></text>
  </g>
</svg>
