<svg width="2e3" height="2e3" version="1.0" viewBox="0 0 1500 1500" xmlns="http://www.w3.org/2000/svg">
 <g transform="matrix(1.0392 0 0 1.0392 -3934.1 2103.2)" fill="none" stroke="#000" stroke-width="101.04" paint-order="stroke fill markers">
  <circle cx="4507.2" cy="-1302.1" r="671.16"/>
  <path d="m4781.7-1098.8s48.927 31.001 69.182 93.065c26.72 81.873-18.554 150.85-91.825 150.85-64.015 0-112.22-40.111-112.22-151.86v-484.93c0-221.35 279.18-281.1 279.18-52.105 0 229-201.73 354.59-418.77 354.59-217.05 0-418.77-125.59-418.77-354.59 0-229 279.18-169.25 279.18 52.105v484.93c0 111.75-48.21 151.86-112.22 151.86-73.27 0-118.54-68.978-91.825-150.85 20.254-62.065 69.182-93.066 69.182-93.066" stroke-linecap="round" stroke-linejoin="round"/>
 </g>
</svg>
