<?xml version="1.0" encoding="UTF-8"?>
<svg width="2e3" height="2e3" version="1.0" viewBox="0 0 1500 1500" xmlns="http://www.w3.org/2000/svg" xmlns:cc="http://creativecommons.org/ns#" xmlns:dc="http://purl.org/dc/elements/1.1/" xmlns:rdf="http://www.w3.org/1999/02/22-rdf-syntax-ns#">
 <metadata>
  <rdf:RDF>
   <cc:Work rdf:about="">
    <dc:format>image/svg+xml</dc:format>
    <dc:type rdf:resource="http://purl.org/dc/dcmitype/StillImage"/>
    <dc:title/>
   </cc:Work>
  </rdf:RDF>
 </metadata>
 <rect width="1500" height="1500" fill="#fff" stop-color="#000000" stroke-width="8.3333" style="paint-order:fill markers stroke"/>
 <g transform="matrix(2.8346 0 0 2.8346 -34807 -17.981)">
  <path d="m12671 340.84s22.703 14.387 32.104 43.189c12.399 37.995-8.612 70.005-42.615 70.005-29.706 0-57.518-28.651-57.518-76.156v-206.14c0-94.096 118.68-119.5 118.68-22.15 0 97.348-85.758 150.74-178.02 150.74-92.27 0-178.02-53.388-178.02-150.74 0-97.348 118.68-71.948 118.68 22.15v206.14c0 47.505-27.813 76.156-57.517 76.156-34.004 0-55.014-32.011-42.615-70.005 9.4-28.803 32.104-43.189 32.104-43.189" fill="none" stroke="#222d32" stroke-linecap="round" stroke-linejoin="round" stroke-width="41.609" style="paint-order:stroke fill markers"/>
 </g>
</svg>
